<svg width="39" height="40" viewBox="0 0 39 40" fill="none" xmlns="http://www.w3.org/2000/svg">
<path d="M14.7923 3.14439C15.2672 0.277277 19.1335 -0.307142 20.4345 2.29152L24.1074 9.62742C24.6892 10.7896 25.9532 11.4449 27.2383 11.2507L35.3501 10.0245C38.2236 9.59016 39.9742 13.0866 37.9048 15.1271L32.0629 20.887C31.1374 21.7995 30.9048 23.2042 31.4866 24.3664L35.1594 31.7023C36.4605 34.3009 33.6761 37.0463 31.0961 35.7087L23.8128 31.9326C22.6589 31.3344 21.2511 31.5472 20.3257 32.4597L14.4838 38.2197C12.4143 40.2601 8.94292 38.4604 9.4178 35.5933L10.7583 27.4996C10.9707 26.2173 10.3333 24.9442 9.17948 24.346L1.89617 20.57C-0.683872 19.2324 -0.0449332 15.3747 2.82859 14.9403L10.9404 13.7142C12.2255 13.5199 13.2394 12.5203 13.4517 11.2381L14.7923 3.14439Z" fill="url(#paint0_radial_413_35844)"/>
<path d="M14.7923 3.14439C15.2672 0.277277 19.1335 -0.307142 20.4345 2.29152L24.1074 9.62742C24.6892 10.7896 25.9532 11.4449 27.2383 11.2507L35.3501 10.0245C38.2236 9.59016 39.9742 13.0866 37.9048 15.1271L32.0629 20.887C31.1374 21.7995 30.9048 23.2042 31.4866 24.3664L35.1594 31.7023C36.4605 34.3009 33.6761 37.0463 31.0961 35.7087L23.8128 31.9326C22.6589 31.3344 21.2511 31.5472 20.3257 32.4597L14.4838 38.2197C12.4143 40.2601 8.94292 38.4604 9.4178 35.5933L10.7583 27.4996C10.9707 26.2173 10.3333 24.9442 9.17948 24.346L1.89617 20.57C-0.683872 19.2324 -0.0449332 15.3747 2.82859 14.9403L10.9404 13.7142C12.2255 13.5199 13.2394 12.5203 13.4517 11.2381L14.7923 3.14439Z" fill="#37C3FF" fill-opacity="0.88" style="mix-blend-mode:overlay"/>
<defs>
<radialGradient id="paint0_radial_413_35844" cx="0" cy="0" r="1" gradientUnits="userSpaceOnUse" gradientTransform="translate(20.3364 20.7322) rotate(81.4045) scale(27 22.1223)">
<stop stop-color="#68B6FF"/>
<stop offset="0.0913462" stop-color="#65B3FF"/>
<stop offset="0.456731" stop-color="#408BDB"/>
<stop offset="1" stop-color="#16427B"/>
</radialGradient>
</defs>
</svg>
