<svg width="41" height="41" viewBox="0 0 41 41" fill="none" xmlns="http://www.w3.org/2000/svg">
<path d="M8.28634 19.588C6.13372 20.4875 6.69295 24.455 9.92972 23.5209C9.95726 23.8136 9.53741 23.631 9.4603 23.7264C11.0249 26.206 12.7039 28.7785 14.8899 30.7994C17.6209 33.3235 20.0353 34.1298 21.963 38.7824C21.6469 39.0391 21.305 39.6467 20.4662 39.839C20.0073 39.492 19.0261 38.9387 18.6758 38.6651C18.2826 38.3579 18.0013 37.9152 17.5607 37.6673C17.5806 37.4339 16.7494 36.7709 16.4749 36.5523C13.8626 34.4708 11.3778 33.7997 9.2256 32.6783C2.91645 29.3903 0.55708 21.4182 0.655793 14.746C0.683755 12.848 1.43956 7.45143 2.71012 6.08809C2.72622 6.07072 3.05202 5.90422 3.12107 5.85338C5.59228 5.50259 5.02246 8.52668 5.35164 10.8721C5.75285 13.7309 6.88784 17.0609 8.28676 19.5889L8.28634 19.588Z" fill="#157EAD"/>
<path d="M33.8204 31.3865C33.2057 31.8364 32.5642 32.219 31.8834 32.5604C30.5175 33.2455 28.8733 33.7886 26.9821 34.9084C25.2341 35.9434 24.707 36.5102 23.3136 37.6672C22.931 37.985 22.5794 38.3447 22.1985 38.665C22.032 38.8052 21.974 38.7743 21.9638 38.7823C20.0362 34.1297 17.6213 33.3234 14.8908 30.7993C12.7047 28.7784 11.0258 26.2055 9.46118 23.7263C9.53829 23.6309 9.95856 23.8135 9.9306 23.5208C10.6974 23.2996 11.3083 22.8306 11.574 22.0532C11.7731 22.6019 10.4924 23.3225 10.7228 23.4619C15.636 23.7216 20.4857 24.6426 25.3387 25.3989C28.9564 26.1776 35.5667 24.7625 34.7597 29.2436C34.5266 30.5366 33.5251 31.1602 33.8204 31.386V31.3865Z" fill="#0E9AC8"/>
<path d="M17.3259 19.7051C17.4466 21.4336 20.4453 23.9573 20.7596 23.99C21.3833 24.0548 24.1587 21.3751 24.3697 19.9987C25.4682 19.9957 26.5727 20.0423 27.6568 19.8224C28.619 20.7337 29.8243 20.6388 30.944 20.116C29.3748 24.4403 36.3071 24.8826 35.2878 20.8206C36.8329 20.8167 38.3712 20.6087 39.8663 20.2334C39.0825 24.6636 37.5616 28.6473 33.8202 31.3862C33.525 31.1604 34.5265 30.5368 34.7595 29.2438C35.5662 24.7627 28.9562 26.1778 25.3386 25.3991C20.4855 24.6428 15.6359 23.7218 10.7227 23.4621C10.4922 23.3227 11.7729 22.6021 11.5738 22.0534C11.7662 21.4916 11.7479 21.0476 11.7501 20.4685C12.655 20.6236 13.6866 20.2529 14.3327 19.5881C15.3306 19.6274 16.3284 19.6665 17.3263 19.7055L17.3259 19.7051Z" fill="#48B5E1"/>
<path d="M31.8833 32.5603C31.3715 34.2621 30.4051 37.0888 29.4765 38.5475C28.8164 39.585 27.9335 40.4082 26.6591 40.4845C24.9509 40.5866 24.2637 40.2044 23.6655 38.6648C23.5376 38.3352 23.444 37.9954 23.3135 37.6671C24.7069 36.5101 25.2339 35.9432 26.982 34.9082C28.8732 33.7885 30.5174 33.2449 31.8833 32.5603Z" fill="#012D42"/>
<path d="M17.5607 37.6669C17.5446 37.8593 17.3467 38.4732 17.2671 38.6647C16.6888 40.0568 15.7656 40.5296 14.2735 40.4843C12.8411 40.4411 12.0971 39.5785 11.3973 38.43C10.3483 36.7086 9.71957 34.6149 9.22559 32.6775C11.3778 33.7989 13.8625 34.4704 16.4748 36.5514C16.7494 36.7705 17.5806 37.4331 17.5607 37.6665V37.6669Z" fill="#012D42"/>
<path d="M10.5169 0.980225C11.1058 3.36501 11.3482 5.8125 11.9256 8.20025C11.8316 8.4769 11.1698 8.29981 10.4288 8.78744C9.76663 5.19141 6.1401 3.62302 3.12067 5.85232C3.05161 5.90316 2.72582 6.06966 2.70972 6.08703C4.0917 3.12776 7.27085 1.15393 10.5165 0.980225H10.5169Z" fill="#48B5E1"/>
<path d="M29.8288 0.980387C29.8945 2.71613 26.917 4.30231 25.5143 5.03058C24.126 5.75166 21.3959 7.15905 19.9084 6.26344C19.8656 6.23759 19.4818 5.76818 19.2039 5.55889C19.5674 5.38985 19.6229 5.29918 19.6148 4.91323C20.9125 5.54914 21.792 3.91509 23.5769 2.80001C25.4418 1.63494 27.6271 0.947342 29.8284 0.980387H29.8288Z" fill="#48B5E1"/>
<path d="M11.9256 8.20024C11.9489 8.29598 11.9625 8.40021 11.9845 8.49384C9.54929 8.50485 7.6818 11.5971 9.1375 11.3112C9.3184 11.2756 11.0948 9.95504 12.3954 9.60891C12.7733 11.1396 12.9589 12.7199 13.5694 14.1874C9.92211 12.6644 7.98853 16.9175 9.93017 19.3527C9.37263 19.3955 8.8206 19.3641 8.28678 19.5874C6.88828 17.0594 5.75329 13.7299 5.35166 10.8706C5.02248 8.52519 5.59231 5.50067 3.12109 5.85189C6.14052 3.62258 9.76663 5.19097 10.4292 8.78701C11.1702 8.29937 11.832 8.47646 11.926 8.19981L11.9256 8.20024Z" fill="#0E9AC8"/>
<path d="M35.2879 20.8203C36.3072 24.8823 29.3753 24.44 30.9441 20.1157C31.1492 20.02 31.4152 19.7052 31.7071 19.5874C32.8963 19.1078 34.921 19.3586 35.2879 20.8203Z" fill="#EFC5CF"/>
<path d="M11.9845 8.4939C11.9896 8.51508 12.2375 8.64641 12.2781 8.81673C12.3963 9.31156 12.3857 9.57042 12.3955 9.60897C11.0948 9.9551 9.31844 11.2757 9.13754 11.3112C7.68184 11.5972 9.54934 8.50449 11.9845 8.4939Z" fill="#012D42"/>
<path d="M19.6153 4.91307C19.6234 5.29902 19.5679 5.38968 19.2044 5.55873C18.4634 5.00119 17.9673 4.3335 17.5021 5.00119C17.4381 6.14168 19.0023 6.31327 19.8793 6.38063L19.9085 6.26327C21.396 7.15889 24.126 5.75149 25.5144 5.03042C26.9171 4.30215 29.8942 2.71596 29.8289 0.980225C31.6269 1.00692 33.4754 1.51446 35.0239 2.44779C40.5908 5.80402 40.8674 14.5742 39.8663 20.2335C38.3712 20.6084 36.8329 20.8169 35.2878 20.8207C34.9209 19.359 32.8967 19.1087 31.707 19.5878C34.582 16.0689 30.5496 12.8131 27.9208 14.2463C26.0935 15.2428 26.2812 18.5198 27.6568 19.8225C26.5727 20.0424 25.4686 19.9958 24.3696 19.9988C24.4802 19.2777 24.2989 18.3601 23.6359 17.9444C22.55 17.2632 21.543 18.0948 20.7007 18.0033C20.5236 17.9838 19.9513 17.683 19.703 17.6513C18.2948 17.4712 17.2229 18.2359 17.3259 19.7056C16.328 19.6663 15.3301 19.6272 14.3323 19.5882C14.5504 19.3637 14.8474 18.8845 14.9779 18.5905C15.538 19.2099 15.9341 17.0514 15.33 17.123C15.3516 15.9795 14.6653 14.6458 13.5688 14.1878C12.9583 12.7203 12.7728 11.14 12.3949 9.60934C12.3851 9.57037 12.3957 9.31194 12.2775 8.8171C12.2368 8.64679 11.989 8.51545 11.9839 8.49427C11.9619 8.40064 11.9483 8.29642 11.925 8.20067C11.3476 5.81292 11.1052 3.36543 10.5164 0.980649C16.1799 0.677732 19.0425 4.63303 19.6145 4.91349L19.6153 4.91307Z" fill="#48B5E1"/>
<path d="M32.7929 2.7998C34.4029 2.87564 37.5778 5.87727 36.1386 6.49794C35.0693 6.95888 35.1815 5.79 34.0254 4.85456C33.0493 4.06443 31.0877 3.87887 32.7925 2.80023L32.7929 2.7998Z" fill="#F4FAFD"/>
<path d="M30.034 8.49399C31.2037 8.22411 33.5004 10.1687 33.0568 10.9885C32.6217 11.6058 31.918 10.6699 31.2664 10.3136C30.3746 9.82555 28.5953 9.54297 30.0336 8.49399H30.034Z" fill="#012D42"/>
<path d="M19.2045 5.55862C19.4824 5.76791 19.8663 6.23733 19.9091 6.26317L19.8798 6.38053C19.0028 6.31359 17.4383 6.14158 17.5027 5.00109C17.9678 4.3334 18.4639 5.00109 19.2049 5.55862H19.2045Z" fill="#F4FAFD"/>
<path d="M14.978 18.5897C15.2081 18.072 15.3195 17.6852 15.3301 17.1221C15.9342 17.0505 15.5381 19.2091 14.978 18.5897Z" fill="#48B5E1"/>
<path d="M9.93018 19.3533C10.2966 19.8129 11.1745 20.3701 11.7498 20.4683C11.7477 21.0475 11.7659 21.4915 11.5736 22.0533C11.3079 22.8303 10.697 23.2992 9.93018 23.5208C6.69341 24.455 6.13376 20.4874 8.2868 19.588C8.82104 19.3647 9.37264 19.3961 9.93018 19.3533Z" fill="#EFC5CF"/>
<path d="M24.37 19.9989C24.159 21.3753 21.3836 24.055 20.7599 23.9902C20.4456 23.9576 17.4469 21.4338 17.3262 19.7053C17.2232 18.2356 18.2951 17.4709 19.7033 17.6509C19.952 17.6827 20.524 17.9839 20.7011 18.003C21.5433 18.0945 22.5499 17.2633 23.6362 17.9441C24.2992 18.3602 24.4805 19.2778 24.37 19.9984V19.9989Z" fill="#012D42"/>
<path d="M22.4621 18.2966C23.5776 18.0428 23.2645 19.7226 20.8187 19.7642L20.6721 19.6176C20.9746 19.4858 22.3541 18.3216 22.4625 18.297L22.4621 18.2966Z" fill="#F4FAFD"/>
<path d="M13.5694 14.1874C14.6654 14.645 15.3522 15.9791 15.3306 17.1225C15.32 17.6856 15.2086 18.0724 14.9785 18.5901C14.848 18.8841 14.5511 19.3633 14.3329 19.5878C13.6868 20.2525 12.6552 20.6232 11.7502 20.4682C11.1749 20.3699 10.2971 19.8128 9.93061 19.3531C7.98898 16.9175 9.92256 12.6648 13.5699 14.1878L13.5694 14.1874Z" fill="#012D42"/>
<path d="M10.5758 16.6528C10.7724 20.3586 14.9946 18.977 14.3324 16.1537C14.1977 15.5797 13.5012 14.9777 13.6575 14.8917C15.1065 16.1177 14.6739 19.196 12.6009 19.4702C9.87468 19.8307 9.33959 15.8945 10.5758 14.8328C10.5085 15.2886 10.1784 16.3317 10.5758 16.6524V16.6528Z" fill="#48B5E1"/>
<path d="M10.5759 16.6526C10.1785 16.3319 10.5085 15.2888 10.5759 14.833C12.2815 13.3684 12.8772 17.4923 10.5759 16.6526Z" fill="#F4FAFD"/>
<path d="M11.3096 17.7092C11.7892 18.3807 12.3594 18.7946 13.1292 18.2964C13.4249 18.829 11.4371 18.8501 11.3096 17.7092Z" fill="#48B5E1"/>
<path d="M31.7072 19.5878C31.4153 19.7056 31.1492 20.0203 30.9442 20.1161C29.8245 20.6389 28.6191 20.7338 27.657 19.8225C26.2818 18.5197 26.0937 15.2427 27.9209 14.2463C30.5493 12.813 34.5822 16.0689 31.7072 19.5878Z" fill="#012D42"/>
<path d="M28.1854 16.7703C27.7172 17.3223 28.5002 18.5895 29.0954 18.8246C30.6134 19.4254 33.0723 17.1156 30.8858 14.9799C32.4504 15.8183 32.0911 19.0657 30.2109 19.4703C27.4995 20.0537 26.6077 16.1835 27.8338 14.9507C27.7596 15.4781 27.5236 16.5144 28.1858 16.7703H28.1854Z" fill="#48B5E1"/>
<path d="M28.1852 16.7702C27.5226 16.5143 27.7586 15.478 27.8332 14.9506C28.1276 14.6544 28.5097 14.5146 28.919 14.5985C29.7227 14.7629 29.4753 17.2693 28.1852 16.7702Z" fill="#F4FAFD"/>
<path d="M29.0362 18.2375C29.8433 18.8091 29.3608 18.4502 30.0928 18.3549C30.4678 18.8917 28.7367 18.7459 29.0362 18.2375Z" fill="#87E2F9"/>
</svg>
