<svg width="45" height="43" viewBox="0 0 45 43" fill="none" xmlns="http://www.w3.org/2000/svg">
<path d="M16.3614 38.842C16.7402 39.0628 16.8437 38.6273 16.9619 38.5974C17.1074 38.5606 18.2841 39.2382 19.9046 38.9641C20.1323 38.713 20.4349 38.7009 20.7453 38.7195C20.7999 38.4939 20.9778 38.4961 21.1055 38.3528C21.4051 38.0169 21.7116 37.7523 21.9462 37.3436C23.1498 35.2465 22.051 35.3214 23.2676 37.4047C23.384 37.6038 24.0871 38.5108 24.2287 38.597C24.2555 38.6134 24.7395 38.7533 24.8292 38.7806C26.5483 39.3044 28.0922 38.61 28.2822 38.6585C28.3814 38.6836 28.3627 38.8381 28.3723 38.842C28.5376 38.9091 28.7857 38.9533 28.9126 39.0866C29.0225 38.6586 29.1326 38.2306 29.2429 37.8026C32.9245 38.7199 33.5402 36.5527 33.7471 36.396C33.867 36.3055 35.2139 36.2323 36.1793 34.7755C37.2456 33.1667 36.8573 31.7225 36.9902 31.6263C37.2461 31.4415 40.2021 32.2719 42.1252 28.6608C43.6405 25.8147 42.5374 24.4302 42.5456 24.1968C42.5503 24.06 43.2989 23.4522 43.0261 21.5676C42.8062 20.0502 41.7351 19.0843 41.7048 18.9384C41.662 18.7336 42.5759 17.2149 41.8248 14.8416C41.7932 14.7411 41.4758 14.4571 41.4646 14.4134C41.4139 14.2225 41.746 12.6847 40.0233 10.8668C38.4371 9.19311 36.8032 9.33078 36.63 9.24636C36.5456 9.20523 36.2568 8.21815 35.7594 7.56485C34.8004 6.30589 33.7917 6.20285 33.6874 6.12795C33.4718 5.97296 32.7462 3.29095 29.7234 2.94807C28.3264 2.78961 27.8999 3.1312 27.8017 3.13163C27.7332 3.13163 27.3388 2.95066 27.2012 2.94807C26.9843 2.94417 26.1725 3.08574 26.1202 3.07015C25.9587 3.0221 25.3894 1.32804 23.4775 1.17435C21.4289 1.00983 20.7003 2.43548 20.5349 2.45842C20.3496 2.4844 19.0045 1.64884 16.8714 2.33633C14.7202 3.02989 14.3483 4.83998 14.1691 4.90449C14.0158 4.95947 13.0179 4.32522 11.1061 5.63831C8.91672 7.14188 8.83534 9.07968 8.64355 9.18489C8.44353 9.29485 6.47283 8.90997 4.64975 11.05C3.15657 12.8025 3.45053 14.1753 3.38862 14.413C3.38083 14.4424 3.08904 14.6814 3.02843 14.9022C2.35089 17.3703 3.17693 18.7345 3.14835 18.938C3.14186 18.9852 2.67948 19.4324 2.54787 19.6718C1.09149 22.3196 2.28074 23.8444 2.30758 24.0747C2.33659 24.3206 1.38111 26.1705 2.84788 28.8443C3.85791 30.6856 5.94119 31.9285 8.04264 31.5653C8.24655 35.8219 10.5935 35.9617 11.1658 36.396C11.3844 36.5618 12.5616 38.8658 16.0302 37.7411C16.0831 37.761 16.3688 38.7485 16.3606 38.8416L16.3614 38.842Z" fill="#0C2744"/>
<path d="M15.8208 6.24975C15.5983 6.67749 16.0117 6.54025 16.0009 6.73897C16.1169 6.76061 16.1368 6.78919 16.181 6.80001C16.3403 6.83941 16.5065 6.86408 16.6615 6.9221C16.7607 6.95933 17.194 7.07795 17.2018 7.13596C16.2767 7.80225 16.3113 9.12962 15.7004 9.97946L15.8203 9.94873C15.7606 11.3618 13.7284 11.5263 12.6972 11.2635C11.8291 11.0419 11.8781 9.92578 11.7664 9.1846C11.5135 10.3617 12.1279 11.1237 10.5953 10.5297C10.4096 11.1497 10.9576 10.8999 11.0157 11.2025C12.0062 11.6017 11.1637 11.27 10.145 12.1199C9.80865 12.4004 9.32679 13.1074 9.12418 13.5265C8.81074 13.1914 8.79689 13.0896 8.91378 12.7316C8.66788 12.9909 8.59297 12.6628 8.43322 12.548C6.28545 11.0025 8.65964 13.6027 9.15405 15.3305C7.77083 15.7037 6.96124 14.8456 6.84175 14.8106C6.39367 14.6798 5.40963 15.2513 4.40955 14.5659C4.26712 14.7196 4.20693 14.8863 4.16926 14.9326C4.44244 15.0123 4.66585 15.1816 4.94985 15.2383C5.52046 15.3526 6.64434 15.2002 7.05173 15.6665C7.87084 16.6033 6.23393 16.0912 5.97071 17.8679C6.05066 17.766 6.13074 17.6642 6.21098 17.5623C6.29973 16.5401 7.83058 16.3245 8.6432 16.4618C9.02071 16.5254 9.20861 16.7691 9.45408 16.951C9.60907 17.0661 10.1931 17.5882 10.355 17.7458C10.7793 17.4333 12.4543 18.9706 13.0877 17.6237L13.1777 17.8073C13.7249 16.6029 15.3558 15.14 13.1478 17.3181C12.1296 17.9268 11.7659 17.5817 11.0157 17.0124C9.52637 15.8812 8.7826 14.5036 10.2351 12.9156C12.4859 10.4548 15.2961 12.7468 17.1416 14.4443C17.362 14.6473 17.5837 14.8508 17.8023 15.0556C17.0209 13.4914 15.3415 12.7346 16.1208 10.6834C16.823 8.83393 18.5941 9.03524 19.5141 7.59531C19.26 7.89836 17.5356 8.75123 17.2919 8.57373C17.1248 8.45208 17.7685 7.26541 17.8322 7.22861C18.0196 7.11995 19.5453 7.15112 21.7061 5.39428C21.5273 5.27479 21.5974 5.20293 21.5861 5.02759C19.8189 6.46665 18.0383 7.0667 15.8208 6.25062V6.24975Z" fill="#04537A"/>
<path d="M16.0013 19.519L16.0913 19.397C17.0078 21.5655 15.4597 20.4767 14.77 21.843C12.9902 22.0933 12.4352 21.0754 12.3378 19.4584C12.3283 19.3008 12.1832 19.0831 12.2179 19C12.4893 18.7904 12.8474 19.003 12.8785 18.9389C12.9041 18.8865 12.8287 18.5778 13.179 17.8077L13.0889 17.6241C12.4556 18.971 10.7805 17.434 10.3563 17.7462C10.5974 17.9813 11.1265 18.4514 11.2572 18.6328C12.3629 20.1667 11.5789 21.8668 10.1463 21.4763C9.75405 21.3694 9.63889 21.0572 9.60599 21.0482C9.51204 21.0235 9.37957 21.4036 8.55484 21.4149L8.61502 21.5677C7.06729 21.9513 7.52705 21.601 7.41406 21.1702C7.0807 19.9022 6.43044 19.2848 6.27286 18.235C6.23736 17.9999 6.19146 17.8103 6.21267 17.5622C6.13272 17.6641 6.05264 17.766 5.9724 17.8678C5.92781 18.17 6.03604 18.6428 6.00227 18.6627C5.90876 18.7177 4.9719 18.2757 3.87008 18.5406C3.94195 18.8493 3.98913 19.1623 4.11035 19.458C4.33158 19.3667 4.46753 19.3389 4.71083 19.3359L4.7407 19.2138C7.48116 19.0848 7.12962 22.0426 7.35301 24.0142C7.24391 24.2579 4.36882 24.5034 3.62937 24.228C3.71855 24.6679 3.35186 24.5445 3.32892 24.8393C3.97226 25.3095 4.71992 25.0809 5.43079 25.084C5.75549 25.0853 5.92954 25.0056 6.00141 25.0229C6.05552 25.0359 6.0841 25.1441 6.09146 25.145C6.18844 25.161 6.13214 25.2615 6.18149 25.2671C6.26591 25.277 7.60671 24.6359 7.65304 24.4415C7.70109 24.2406 7.5448 23.9964 7.53312 23.7994C7.51104 23.4349 7.2149 22.6279 8.16389 22.2708C8.97997 21.9638 10.016 22.2703 10.7762 22.6375C10.7849 22.5712 10.7892 22.5045 10.8364 22.4539C10.9723 22.308 11.7694 22.4102 12.0373 21.017C11.6958 19.3528 12.3105 21.0425 12.3378 21.4755C13.1621 22.2335 13.463 22.2907 13.0586 22.9431H13.1188C13.1318 22.918 13.1885 22.9002 13.3591 22.4539C13.3868 22.3816 13.3171 22.2032 13.389 22.1482C13.5054 22.0591 14.6761 22.6024 16.1515 21.4755C17.1619 20.7035 16.9801 20.0589 17.0524 20.0078C17.2823 19.845 18.6647 20.6048 19.1244 17.8064C19.1435 17.6903 19.1405 17.5228 19.2444 17.4397C19.2452 17.4254 19.3786 17.2925 19.3045 17.1643C19.295 17.1479 18.9946 17.1591 18.9443 17.0725C18.4504 18.2064 17.975 19.1008 16.6922 19.3961C16.4043 19.4654 16.4225 18.7186 16.3619 18.3566C16.3299 18.164 16.1402 16.0846 15.8813 17.3475C15.7878 17.8046 16.1147 18.9818 16.0013 19.5182V19.519Z" fill="#04537A"/>
<path d="M30.8954 12.1813C29.9023 13.2606 28.2801 13.4702 26.9315 13.2208C26.6886 13.1758 26.7458 13.0589 26.4509 13.2208C26.4007 14.0802 26.1661 14.6174 25.6704 15.2997C25.66 15.314 25.6942 15.3872 25.4902 15.6054C26.0708 16.5098 24.2586 16.6492 23.0879 17.6843C22.9619 18.1203 22.6515 18.1701 23.4481 18.0818C23.184 18.9242 23.3226 19.3753 23.3282 20.0689C23.3295 20.262 23.5122 20.3044 23.058 20.4971C21.8251 21.0196 19.3621 20.0299 19.6647 17.3787C19.5245 17.4194 19.3843 17.4601 19.2444 17.5008C19.2141 17.8861 19.1846 17.7908 19.1842 17.8064C19.1807 18.306 19.1985 18.6 19.3041 19.0905C19.3595 19.3476 19.4331 19.5888 19.5444 19.8243C20.086 20.9698 21.4298 21.5876 22.6372 21.414C23.4719 21.2941 23.1658 20.8144 23.7481 21.353C23.7538 21.3582 23.8031 21.4707 23.8083 21.4751C24.0599 21.6993 24.456 22.0613 24.7391 22.2089C24.8296 22.2561 25.9635 22.6821 26.0306 22.6981C26.67 22.8501 26.8341 22.7951 27.412 22.8202C27.4441 22.5029 28.1887 22.9414 28.1329 22.4535C28.1134 22.4474 28.1714 22.3236 27.8025 22.2089C26.4245 21.7812 23.2373 21.7149 23.8689 18.2038L23.9889 18.2956C24.0066 18.1346 24.1516 17.9445 24.2291 17.8064C25.1262 16.2072 27.099 17.3817 28.2528 17.99L28.3428 17.9289C26.5366 16.7522 25.5509 17.0276 27.0514 14.9326C27.1999 14.7252 27.3558 14.4127 27.5618 14.2598C28.2182 13.7736 30.0516 13.539 30.8348 13.7096C30.7928 12.9 30.9041 12.6476 31.1353 11.9363C31.0158 11.9744 30.9703 12.0991 30.895 12.1809L30.8954 12.1813Z" fill="#04537A"/>
<path d="M28.9134 7.96191C29.7403 9.06026 29.3797 9.71399 28.8532 10.7747C28.7372 11.008 28.6052 11.1033 28.7632 11.0803C29.5455 10.5881 29.6421 10.4798 29.8741 9.61268C29.9555 9.3092 29.9031 9.04554 30.0243 9.00138C30.6971 9.3027 31.5898 8.77756 31.7959 9.82699C31.9561 10.6409 31.4963 10.9452 31.3153 11.4474C31.5941 11.2868 31.8955 10.7478 32.1561 10.6526C32.4648 10.5396 32.705 10.6006 32.9968 10.7136C35.0507 11.5102 34.5493 16.6712 31.5556 16.7063C31.3166 16.7089 30.4975 16.4175 30.895 16.6452C31.8431 17.1795 32.805 17.6977 32.1561 18.9688C32.2562 19.0095 32.3564 19.0502 32.4565 19.0909C33.1384 18.0332 32.3345 17.9557 33.8679 16.5227C34.3723 16.3019 34.9411 17.2907 35.3394 17.5319C34.9576 16.7513 34.9952 15.8642 34.1982 15.3915C34.9654 14.0792 37.4967 15.0971 38.6423 15.2386C39.1549 15.3018 39.5705 15.3213 40.0835 15.2386C40.0636 15.1368 40.0435 15.0349 40.0233 14.933C39.3289 15.1183 37.8781 14.7719 37.711 14.6273C37.4461 14.3979 37.4556 13.4013 37.4106 13.0376C37.3104 13.5063 37.2103 13.9752 37.1101 14.4442C34.384 14.0632 35.0675 13.2692 34.4978 11.1725C34.5125 11.1072 35.5182 10.4344 35.5788 10.408L35.2187 10.0413C35.1801 10.0599 35.0411 10.0898 34.9784 10.1023C34.8844 10.2101 34.1956 10.7149 34.1077 10.7136C33.8839 10.711 32.1985 9.60835 32.1561 9.09317C32.2916 9.07238 32.3509 9.01697 32.4565 8.94034C32.3163 8.77727 32.1761 8.6142 32.0362 8.45113C31.1036 8.90571 30.5495 8.66456 29.694 8.32904C29.4178 8.22081 29.1853 8.0511 28.9134 7.96235V7.96191Z" fill="#04537A"/>
<path d="M34.9793 30.9541C34.3992 31.7377 34.1169 31.9481 33.2978 32.4217C34.4329 33.2166 34.2005 31.4979 35.0395 31.6572C34.4117 34.8566 33.1411 32.6863 32.9675 32.6663C32.9246 32.6612 32.4735 33.0413 32.3969 32.8499C32.2752 32.9058 32.1596 32.982 32.0367 33.0335C32.0007 33.7889 31.8141 34.5267 31.5561 35.2349C31.7717 35.2678 32.2817 35.2176 32.5172 35.1739C33.5419 34.9825 34.7104 34.0305 35.4001 33.2478C35.5997 33.0209 35.7027 32.5863 36.0608 32.6057C36.1066 32.381 36.3171 31.7191 36.2409 31.5355C36.214 31.4706 35.1629 31.0333 34.9797 30.9545L34.9793 30.9541Z" fill="#04537A"/>
<path d="M29.0333 33.9504C28.1506 34.1366 27.5324 34.2344 26.631 34.3171C26.3552 34.3426 26.0678 34.3582 25.7902 34.3781C25.8487 34.6868 26.302 34.9029 26.3305 34.9284L26.2704 34.8366C26.9916 34.9782 27.7718 35.2267 28.4926 35.4787C29.439 35.8098 30.2477 36.1843 31.1352 36.5489C30.7451 36.2237 30.33 35.925 29.9343 35.6012C29.9243 35.5929 29.7892 35.5873 29.694 35.5094C30.601 35.0591 30.8287 34.1387 30.9551 34.7448C31.9751 32.3563 30.9465 33.9881 29.0333 33.95V33.9504Z" fill="#04537A"/>
<path d="M4.83035 12.426C5.36502 13.1213 5.24034 12.5468 5.94126 12.0593C7.1262 11.235 8.61072 11.2389 9.93506 10.7752C8.87741 10.2059 8.6012 9.89509 7.32275 10.286C6.3794 10.5744 5.32519 11.5723 4.83035 12.4264V12.426Z" fill="#DBF3FC"/>
<path d="M21.7665 3.62044C22.6038 3.47498 23.4467 3.5239 24.2888 3.49835C24.5788 3.48969 24.9157 3.49013 25.1897 3.37627C24.3805 1.82507 22.4159 1.72636 21.2258 2.91779C21.0786 3.14421 21.6475 3.44597 21.7661 3.62087L21.7665 3.62044Z" fill="#DBF3FC"/>
<path d="M16.3614 18.3577C16.422 18.7196 16.4038 19.4664 16.6917 19.3971C17.9745 19.1014 18.4499 18.2074 18.9439 17.0736C19.2833 16.2947 19.4889 15.4419 19.8448 14.6583C19.9664 14.3903 20.8033 13.1032 20.8059 13.007C20.8068 12.9733 20.5721 12.6321 20.5656 12.6096C18.8923 14.7002 18.6057 18.1944 16.632 18.6633L16.3619 18.3577H16.3614Z" fill="#04537A"/>
<path d="M22.7271 34.5009C23.1116 36.2357 24.0961 38.6229 26.1503 38.5978C25.6706 38.2848 24.7013 38.0557 24.7688 37.2219C25.6607 35.8365 28.5137 37.2081 27.4115 38.4142C30.6087 37.6297 25.6598 35.9751 25.3693 34.4395C24.5134 34.4897 23.5869 34.4927 22.7267 34.5005L22.7271 34.5009Z" fill="#04537A"/>
<path d="M26.1511 38.5977C26.3356 38.5956 27.1958 38.4674 27.4123 38.4141C28.5145 37.2076 25.6619 35.8365 24.7696 37.2219C24.7021 38.0557 25.6714 38.2847 26.1511 38.5977Z" fill="#1D729F"/>
<path d="M29.9344 35.6012C30.3306 35.9251 30.7453 36.2238 31.1354 36.5489C30.2479 36.1844 29.4392 35.8099 28.4928 35.4787L28.4027 35.6008C28.8417 35.8528 30.4059 37.0381 30.6847 37.1295C30.9254 37.2083 31.1735 36.9394 31.135 37.1905C32.0523 37.0624 33.6408 36.4879 32.3961 35.4783C31.9207 35.8809 30.5293 35.5112 29.9336 35.6004L29.9344 35.6012Z" fill="#1D729F"/>
<path d="M4.71041 19.3356C5.99016 19.3196 6.0668 20.4807 5.58105 20.4976C5.52174 20.4998 5.22387 20.1543 4.43983 20.5587C3.47049 21.0591 3.77311 22.5432 2.66827 22.2709C2.66438 22.9809 2.87262 23.9459 3.62939 24.2277C4.3684 24.5031 7.24393 24.2576 7.35303 24.0139C7.12963 22.0423 7.48118 19.0849 4.74072 19.2135L4.71085 19.3356H4.71041Z" fill="#3385AC"/>
<path d="M4.71029 19.3358C4.46698 19.3388 4.33106 19.367 4.10983 19.4579C3.18595 19.8389 2.67379 21.326 2.6686 22.2707C3.77387 22.5434 3.47082 21.0589 4.44015 20.5584C5.22376 20.154 5.52204 20.4995 5.58135 20.4974C6.0671 20.4805 5.99048 19.3194 4.71073 19.3354L4.71029 19.3358Z" fill="#A0D6E9"/>
<path d="M41.4053 24.1666C42.189 23.7978 42.2361 22.8782 42.1859 22.1487C41.2603 23.2484 41.3157 19.6477 39.2732 20.559C38.8554 20.5876 38.9164 19.2559 40.084 19.2749C39.0619 19.0667 38.3467 19.5442 38.2224 20.6508C38.0631 22.0691 39.0355 22.6418 38.4627 24.0753C38.5424 24.2671 40.5607 24.5645 41.4053 24.1671V24.1666Z" fill="#3385AC"/>
<path d="M40.0842 19.2744C38.9165 19.2553 38.8555 20.587 39.2733 20.5584C41.3159 19.6471 41.2604 23.2482 42.186 22.1482C42.1146 21.1087 41.6423 19.9515 40.6846 19.4575C40.4543 19.3389 40.3257 19.3233 40.0842 19.2739V19.2744Z" fill="#A0D6E9"/>
<path d="M24.4094 9.12395C25.9363 8.91268 26.5139 12.1484 26.4515 13.2208C26.7459 13.0589 26.6892 13.1758 26.9321 13.2208C26.9762 12.7242 26.8187 12.1133 27.052 11.9367C26.652 11.0566 26.3935 8.98584 24.7098 8.45117C24.573 8.66677 24.396 8.83475 24.4094 9.12395Z" fill="#04537A"/>
<path d="M32.5168 35.1735C32.5237 35.199 32.5704 35.293 32.5769 35.2956C34.2913 36.0489 35.6949 34.3903 36.0603 32.6049C35.7023 32.5854 35.5997 33.0201 35.3996 33.2469C34.7104 34.0297 33.5415 34.9817 32.5168 35.173V35.1735Z" fill="#3385AC"/>
<path d="M26.331 34.9288C27.0047 35.5262 29.4698 37.1666 30.2646 37.2523C30.4763 37.2752 30.8997 37.2242 31.1353 37.1913C31.1734 36.9402 30.9257 37.209 30.685 37.1302C30.4058 37.0389 28.8416 35.8535 28.403 35.6015L28.4931 35.4794C27.7727 35.2275 26.9925 34.979 26.2708 34.8374L26.331 34.9292V34.9288Z" fill="#036192"/>
<path d="M30.0541 4.90435C30.5217 5.76805 30.0948 5.64597 30.174 5.97456C30.3005 6.49928 32.3214 6.70405 32.6963 6.18843C32.5599 5.6806 32.3932 5.50959 32.0356 5.14896C31.0048 5.16498 29.7389 4.32249 30.0537 4.90435H30.0541Z" fill="#A0D6E9"/>
<path d="M27.7722 4.17074V4.23178C28.533 4.45604 29.2937 4.6803 30.0542 4.90456C29.7394 4.3227 31.0049 5.16518 32.0361 5.14917C31.127 4.23222 29.6013 3.80231 28.3428 3.92613C28.1644 3.94388 27.899 4.14996 27.7722 4.17074Z" fill="#DBF3FC"/>
<path d="M10.1758 11.0195C9.85027 11.1433 9.03117 12.3758 8.91471 12.7317C8.79782 13.0897 8.81167 13.1919 9.12511 13.5266C9.32772 13.1075 9.81001 12.4005 10.146 12.12C11.1647 11.2701 12.0076 11.6017 11.0166 11.2026C10.7594 11.0991 10.4204 10.9259 10.1758 11.019V11.0195Z" fill="#4CB1DA"/>
<path d="M33.6578 24.7169C34.0271 25.5741 34.0132 26.1088 34.1383 26.9184C35.1445 27.0452 36.035 27.9409 36.4805 28.8142C36.487 28.8267 36.6983 28.9289 36.6606 29.028C35.8389 29.0995 35.8328 29.5324 35.3393 30.2814C35.3272 30.2996 35.3514 30.3857 35.3393 30.4035C35.696 30.5862 36.0857 30.713 36.4805 30.7702C36.4125 30.4913 35.4926 30.6533 35.5194 30.2502C36.0151 29.6649 35.8199 29.1557 36.6905 29.18C36.7205 29.0882 36.7505 28.9964 36.7805 28.9046C35.6363 27.1145 34.6042 26.9417 34.4985 26.8257C34.3487 26.6608 34.5743 24.5675 33.6578 24.716V24.7169Z" fill="#04537A"/>
<path d="M29.9343 35.6011C30.53 35.5115 31.921 35.8817 32.3968 35.479C32.4189 35.4604 32.3089 35.2453 32.5769 35.2955C32.5708 35.2929 32.5241 35.1989 32.5167 35.1734C32.2812 35.2176 31.7712 35.2673 31.5556 35.2344C31.443 35.2171 30.7062 34.924 30.9551 34.7452C30.8287 34.1387 30.601 35.0591 29.694 35.5098C29.7892 35.5877 29.9243 35.5933 29.9343 35.6016V35.6011Z" fill="#1D729F"/>
<path d="M20.9256 11.9978C20.9378 12.0238 20.8204 12.0562 21.0758 12.548C21.3629 12.1904 23.021 9.6435 23.0275 9.45993C23.0327 9.31577 22.7747 9.12787 22.7271 9.0625C22.2781 10.092 21.7088 11.1895 20.9252 11.9978H20.9256Z" fill="#1D729F"/>
<path d="M33.4179 8.02325C33.8933 8.55663 34.6444 8.9047 35.2198 9.36837C35.4046 9.31512 35.4877 9.15277 35.6401 9.06272C35.3072 8.11806 33.8062 6.94309 33.6582 7.13661C33.6456 7.40329 33.5365 7.79163 33.4179 8.02325Z" fill="#FAFBFC"/>
<path d="M32.4564 8.9404C32.3512 9.01703 32.2915 9.07288 32.156 9.09322C32.1989 9.60841 33.8843 10.7111 34.1077 10.7137C34.1955 10.715 34.8843 10.2098 34.9783 10.1024C35.5056 9.49758 34.4765 10.2924 33.3868 9.61318C33.0742 9.41836 32.9677 9.27506 32.8764 8.9404C32.8578 8.87286 32.7915 8.84386 32.8162 8.75684C32.7084 8.84905 32.4725 8.92828 32.456 8.9404H32.4564Z" fill="#3385AC"/>
<path d="M32.8171 8.75707C32.7925 8.84365 32.8587 8.8731 32.8773 8.94063C33.5709 9.36274 34.4164 9.59955 35.2195 9.3688C34.6441 8.90513 33.8934 8.55705 33.4176 8.02368C33.2795 8.29297 33.0466 8.56138 32.8171 8.7575V8.75707Z" fill="#6BC7EA"/>
<path d="M32.877 8.94067C32.9684 9.27533 33.0749 9.4182 33.3875 9.61345C34.4772 10.2927 35.5062 9.49786 34.9789 10.1027C35.0417 10.0901 35.1807 10.0602 35.2192 10.0416C35.9171 9.70393 35.8487 9.65588 35.6396 9.06319C35.4872 9.15324 35.4041 9.31602 35.2192 9.36884C34.4161 9.59959 33.5706 9.36278 32.877 8.94067Z" fill="#1FA0CF"/>
<path d="M24.2887 3.49806C24.6489 4.12986 25.0093 4.76179 25.3698 5.39387C25.5754 4.56134 25.5797 4.12365 25.1897 3.37598C24.9156 3.49027 24.5792 3.48941 24.2887 3.49806Z" fill="#4CB1DA"/>
<path d="M4.1701 14.9331C3.38476 15.9115 3.58564 17.1285 3.8099 18.2961C3.97139 18.1329 3.72288 17.7117 3.74972 17.0731C3.78306 16.2769 4.22639 15.5388 4.95068 15.2388C4.66668 15.182 4.44284 15.0128 4.1701 14.9331Z" fill="#FAFBFC"/>
<path d="M20.5055 34.4399C20.234 34.9244 19.7136 35.5474 19.3045 35.9076C21.2561 35.1504 20.5977 36.4111 19.785 37.4055C19.1248 38.2134 18.4269 38.3922 18.5841 38.5978C20.7821 38.8649 22.0545 36.4241 22.2476 34.501C21.6713 34.501 21.0838 34.4577 20.5059 34.4399H20.5055Z" fill="#04537A"/>
<path d="M19.3042 35.9068C18.8734 36.2861 17.5569 37.2264 17.0222 37.0073C16.1871 37.7368 17.9664 38.5222 18.5838 38.5971C18.427 38.3914 19.1249 38.2126 19.7847 37.4048C20.5973 36.4103 21.2563 35.1496 19.3042 35.9068Z" fill="#1D729F"/>
<path d="M20.2049 34.5008C19.4433 35.9481 17.3164 36.7507 17.022 37.0079C17.5566 37.227 18.8736 36.2862 19.3039 35.9074C19.7131 35.5472 20.2339 34.9246 20.5049 34.4398C20.265 34.4324 20.23 34.5021 20.2044 34.5008H20.2049Z" fill="#1FA0CF"/>
<path d="M41.4653 26.7347C41.6454 26.5716 41.8255 26.4086 42.0056 26.2455C42.0194 25.8446 41.9359 25.348 41.8255 24.9614C40.8574 25.2463 41.3757 25.2264 41.4051 25.6035C41.4536 26.223 41.299 26.817 41.4653 26.7347Z" fill="#FAFBFC"/>
<path d="M40.204 15.2388C40.6984 15.6453 40.9391 15.9999 41.0447 16.6454C41.1828 17.4896 40.9469 17.7407 40.9845 18.4797C41.3192 17.9914 41.3456 14.9833 40.7144 14.9331C40.685 14.931 40.3564 15.2106 40.204 15.2388Z" fill="#DBF3FC"/>
<path d="M10.0555 10.8362C9.28664 11.3358 8.97233 11.8497 8.43419 12.5484C8.59351 12.6632 8.66884 12.9909 8.91475 12.732C9.03121 12.3761 9.85031 11.1436 10.1759 11.0197C10.3019 10.8254 10.0949 10.8596 10.056 10.8362H10.0555Z" fill="#1D729F"/>
<path d="M22.8478 11.264C23.5067 11.6649 24.2427 12.0355 24.5895 12.7927C24.6296 12.8438 24.6696 12.8948 24.7094 12.9456C23.6154 13.4642 23.2941 12.8005 22.8175 12.6702C22.6538 12.6256 22.5096 12.7499 22.3369 12.7312C22.2932 12.7265 22.1694 12.4377 21.9464 12.6702C21.8901 12.762 21.3845 13.3412 20.9853 14.0461C20.7251 14.5058 20.5337 14.9985 20.3246 15.483C20.0917 16.9619 19.5306 18.4806 20.8953 19.5798C21.5667 20.121 22.514 20.4011 23.3274 20.069C23.3223 19.3755 23.1833 18.9243 23.4474 18.0819C22.6503 18.1702 22.9608 18.1204 23.0872 17.6844C23.1595 17.4342 23.3738 16.4449 23.5374 16.3393C23.8591 16.1315 24.5301 16.6324 25.4891 15.6055C25.693 15.3873 25.6588 15.3141 25.6692 15.2998C25.5575 15.0799 25.8774 14.6258 25.9095 14.3521C26.0939 12.7758 24.9856 10.7566 23.8673 9.67432C23.4058 10.241 23.2231 10.6952 22.8465 11.264H22.8478Z" fill="#3385AC"/>
<path d="M24.4091 9.12393C23.9926 9.18151 23.9125 9.62007 23.8688 9.67419C24.9871 10.7565 26.0954 12.7757 25.9109 14.352C25.8789 14.6256 25.559 15.0798 25.6707 15.2997C26.1668 14.617 26.401 14.0801 26.4512 13.2208C26.514 12.1484 25.936 8.91223 24.4091 9.12393Z" fill="#1FA0CF"/>
<path d="M19.6647 17.379C19.3621 20.0307 21.825 21.0199 23.058 20.4974C23.5122 20.3051 23.3299 20.2627 23.3281 20.0692C22.5147 20.4013 21.5674 20.1212 20.8959 19.58C19.5313 18.4808 20.0924 16.9616 20.3253 15.4832C20.0452 16.1326 19.7721 16.4378 19.6647 17.379Z" fill="#036192"/>
<path d="M21.9465 12.6706C22.1695 12.4381 22.2929 12.7269 22.337 12.7316C22.5098 12.7503 22.6535 12.6256 22.8176 12.6706C23.2938 12.8009 23.6155 13.4646 24.7095 12.9459C24.6694 12.8949 24.6294 12.8439 24.5895 12.7931C24.0025 12.281 23.2635 12.0714 22.5474 11.8147C22.3535 12.1095 22.1353 12.3632 21.9469 12.6706H21.9465Z" fill="#1FA0CF"/>
<path d="M22.5472 11.8142C23.2633 12.0709 24.0023 12.2804 24.5894 12.7926C24.2426 12.0354 23.5066 11.6648 22.8477 11.2639C22.7334 11.4367 22.6593 11.644 22.5472 11.8142Z" fill="#04537A"/>
<path d="M17.1421 5.1491C16.5537 5.12875 16.6598 4.9967 16.3615 4.84345C15.9211 5.04721 15.4806 5.25098 15.0402 5.45475C15.0155 5.52705 15.0657 5.70195 15.0402 5.7604C15.1887 5.88378 15.287 5.97167 15.4606 6.06605C15.5697 6.12536 15.7078 6.20805 15.8208 6.24961C18.0383 7.06569 19.8189 6.46607 21.5861 5.02658C21.5831 4.98069 21.6416 4.79106 21.5861 4.59841C21.5519 4.47978 21.4692 4.48411 21.4662 4.47632C20.3246 5.14563 18.8427 5.48115 17.5326 5.33223C17.4157 5.3188 17.0845 5.26685 17.1421 5.14866V5.1491Z" fill="#1FA0CF"/>
<path d="M16.1815 3.74266C16.6391 4.58385 20.5086 4.77867 20.7458 3.62057C19.4557 2.66683 17.4595 2.85818 16.1815 3.74266Z" fill="#A0D6E9"/>
<path d="M16.1814 3.74269C15.919 3.92409 15.7099 4.15484 15.5207 4.41547C15.8073 4.54275 16.0822 4.6999 16.3615 4.84364C16.6598 4.9969 16.5537 5.12894 17.1421 5.14929C17.1481 5.14929 17.1234 5.0259 17.1719 5.0272C18.7751 5.06357 19.9271 5.25059 21.2856 4.10982C21.1436 3.92149 20.9337 3.76001 20.7453 3.62061C20.5085 4.77913 16.6385 4.58431 16.1809 3.74269H16.1814Z" fill="#1FA0CF"/>
<path d="M17.1422 5.14914C17.0842 5.26733 17.4158 5.31929 17.5327 5.33271C18.8427 5.4812 20.3251 5.14611 21.4663 4.4768C21.4053 4.32441 21.3944 4.25341 21.2862 4.11011C19.9272 5.25088 18.7752 5.06386 17.1725 5.02749C17.124 5.02619 17.1487 5.15001 17.1426 5.14957L17.1422 5.14914Z" fill="#4CB1DA"/>
<path d="M15.5208 4.41528C15.032 5.08936 15.1792 5.04953 15.0403 5.45475C15.4807 5.25099 15.9211 5.04722 16.3616 4.84345C16.0823 4.69972 15.8074 4.543 15.5208 4.41528Z" fill="#DBF3FC"/>
<path d="M21.5866 4.59883C21.642 4.79105 21.5835 4.98111 21.5866 5.027C21.5983 5.20277 21.5281 5.27464 21.7065 5.39369C21.7325 5.37248 22.1957 5.1716 22.2468 4.99626C22.3884 4.51441 22.0264 4.15291 22.0065 4.10962C21.8662 4.27269 21.7261 4.43576 21.5861 4.59883H21.5866Z" fill="#073D60"/>
<path d="M35.5796 10.4079C35.519 10.4343 34.5133 11.1071 34.4986 11.1725C35.0687 13.2687 34.3851 14.0627 37.1109 14.4442C37.211 13.9754 37.3112 13.5066 37.4113 13.0376C37.4564 13.4012 37.4464 14.3978 37.7118 14.6273C37.8785 14.7719 39.3292 15.1182 40.0241 14.9329C40.6484 14.7663 40.7103 14.4749 40.6245 13.8935C40.0215 14.0394 39.5491 12.996 40.2042 12.7315C40.112 12.547 40.0894 12.5574 40.0842 12.5479C39.5344 13.2068 39.7128 12.7133 39.0331 12.1812C36.8693 10.4863 35.816 12.3531 35.6398 10.4079C35.6225 10.4149 35.5965 10.4006 35.5796 10.4079Z" fill="#1FA0CF"/>
<path d="M35.64 10.4081C35.8162 12.3533 36.8691 10.4865 39.0333 12.1814C39.713 12.7135 39.5346 13.2075 40.0845 12.5481C39.2108 11.0008 37.4185 9.69031 35.6404 10.4077L35.64 10.4081Z" fill="#DBF3FC"/>
<path d="M40.6243 13.8934C40.5654 13.4938 40.3827 13.0886 40.2039 12.7314C39.5489 12.996 40.0212 14.0393 40.6243 13.8934Z" fill="#DBF3FC"/>
<path d="M10.0554 8.14564C10.8165 8.78248 10.6186 8.23266 11.3468 7.65643C12.885 6.43902 13.6504 6.7174 13.779 6.678C13.7972 6.67238 13.8206 6.68363 13.8392 6.678C13.8821 6.66458 14.4128 6.27451 14.6198 6.21953C14.7891 5.65455 11.817 5.08871 10.0554 8.14564Z" fill="#DBF3FC"/>
<path d="M9.63485 9.30752C10.4258 9.1088 10.7943 8.73518 9.87514 8.39014C9.68508 8.79406 9.63485 8.84645 9.63485 9.30752Z" fill="#FAFBFC"/>
<path d="M4.83024 12.4259C4.72806 12.6021 4.66703 12.7264 4.58997 12.9151C5.16187 13.2485 4.89822 13.9814 4.28951 14.0771C4.28951 14.107 4.15098 14.2343 4.40944 14.5663C5.40951 15.2517 6.39398 14.6802 6.84164 14.8109C6.96113 14.8456 7.77028 15.7041 9.15393 15.3309C8.65952 13.6031 6.28533 11.0029 8.4331 12.5484C8.97167 11.8497 9.28599 11.3358 10.0544 10.8362C10.0181 10.8145 9.97219 10.7955 9.93452 10.7751C8.61018 11.2388 7.12566 11.2349 5.94072 12.0592C5.23981 12.5467 5.36448 13.1212 4.82981 12.4259H4.83024Z" fill="#1FA0CF"/>
<path d="M4.29009 14.0765C4.89836 13.9809 5.16201 13.2479 4.59054 12.9146C4.42257 13.3254 4.29659 13.6302 4.29009 14.0765Z" fill="#DBF3FC"/>
<path d="M15.4604 6.06664C15.2868 5.97226 15.1886 5.88437 15.0401 5.76099C14.9487 5.96966 14.4431 5.7783 14.8899 6.55585C15.4427 6.38311 15.4609 6.72123 15.4604 6.06664Z" fill="#073D60"/>
<path d="M26.4509 4.35429C26.7367 4.3162 27.0103 4.15688 27.2917 4.10969C28.0077 3.6313 26.5734 3.80101 26.4808 3.86508C26.276 4.00708 26.4583 4.24217 26.4509 4.35429Z" fill="#FAFBFC"/>
<path d="M19.1239 17.8069H19.1841C19.1841 17.7913 19.2135 17.8865 19.2443 17.5012C19.246 17.4809 19.2434 17.4605 19.2443 17.4402C19.1399 17.5233 19.1434 17.6913 19.1243 17.8069H19.1239Z" fill="#748799"/>
<path d="M16.001 19.5192C15.8049 20.4492 13.3718 21.1484 12.3376 19.4582C12.435 21.0752 12.99 22.0935 14.7698 21.8428C15.4595 20.4769 17.0076 21.5653 16.0911 19.3967L16.001 19.5188V19.5192Z" fill="#04537A"/>
<path d="M10.2353 12.9151C10.4734 12.9133 10.1778 12.9995 10.2955 13.2207C11.1666 12.3384 13.2836 12.5635 14.3495 12.9761C15.495 13.4194 17.0116 15.1057 17.1423 14.4437C15.2967 12.7458 12.4866 10.4543 10.2358 12.9151H10.2353Z" fill="#1FA0CF"/>
<path d="M10.2355 12.9151C8.78299 14.5031 9.52678 15.8811 11.0161 17.0119L11.136 16.9812C10.1944 16.1876 9.29211 14.2364 10.2952 13.2207C10.1775 12.9991 10.4732 12.9133 10.2351 12.9151H10.2355Z" fill="#4CB1DA"/>
<path d="M21.7666 3.62051C21.8627 3.76165 21.9358 3.95387 22.0068 4.10973C22.0268 4.15302 22.3887 4.51452 22.2471 4.99637C22.1956 5.17171 21.7328 5.37259 21.7068 5.3938C19.5465 7.15107 18.0209 7.11947 17.833 7.22813C17.7693 7.26493 17.1256 8.4516 17.2927 8.57325C17.5364 8.75076 19.2608 7.89788 19.5149 7.59483C18.5949 9.03476 16.8238 8.83345 16.1216 10.6829C15.3427 12.7342 17.0217 13.4905 17.8031 15.0551C17.8079 15.0642 17.9979 15.1265 17.8931 15.2387C17.771 15.1551 17.8105 15.062 17.8031 15.0551C17.5845 14.8499 17.3632 14.6464 17.1424 14.4438C17.0121 15.1058 15.4951 13.4195 14.3496 12.9762C13.2837 12.5636 11.1667 12.3385 10.2956 13.2208C9.29251 14.2364 10.1947 16.1881 11.1364 16.9812L11.0164 17.012C11.7663 17.5817 12.1299 17.9268 13.1486 17.3176C15.357 15.1395 13.7257 16.6024 13.1785 17.8068C12.8287 18.577 12.9036 18.8857 12.8781 18.9381C12.8469 19.0026 12.4889 18.7896 12.2174 18.9991C12.1828 19.0822 12.3282 19.3 12.3373 19.4576C13.3716 21.1478 15.8047 20.4486 16.0008 19.5186C16.1138 18.9822 15.7869 17.8051 15.8809 17.3479C16.1398 16.0851 16.329 18.164 16.3614 18.3571L16.6316 18.6627C18.6053 18.1939 18.8923 14.6997 20.5652 12.609C20.4756 12.3064 20.4262 11.9722 20.2647 11.6917C19.7963 10.8769 18.5655 10.324 20.0543 10.8358C20.2907 11.0656 20.5111 11.2821 20.6851 11.5696C20.718 11.6237 20.915 11.9752 20.9254 11.9977C21.709 11.1899 22.2783 10.092 22.7273 9.06247C22.6229 8.9183 22.4896 8.76071 22.3671 8.6343C22.2372 8.50095 21.9913 8.25115 21.8566 8.14508C21.3259 7.72774 19.7028 6.89001 21.6765 7.77839C22.0952 7.96672 22.4454 8.24552 22.4874 8.2676C23.0273 8.55334 23.3654 8.82782 23.4182 8.81786C23.61 8.78149 25.1759 6.18087 25.3699 5.39337C25.0097 4.76157 24.6493 4.12964 24.2888 3.49756C23.4463 3.5231 22.6039 3.47418 21.7666 3.61965V3.62051Z" fill="url(#paint0_linear_413_35850)"/>
<path d="M20.2652 11.6921C20.4054 11.6514 20.5456 11.6107 20.6855 11.57C20.5115 11.283 20.2912 11.0665 20.0548 10.8362C18.5659 10.3249 19.7963 10.8774 20.2652 11.6921Z" fill="#073D60"/>
<path d="M22.3669 8.63473C22.2491 8.36804 22.4812 8.51437 22.4868 8.26804C22.4448 8.24596 22.0946 7.96715 21.6759 7.77882C19.7022 6.89045 21.3252 7.7286 21.856 8.14552C21.9907 8.25158 22.2366 8.50139 22.3664 8.63473H22.3669Z" fill="#073D60"/>
<path d="M12.1875 14.4436L12.0975 14.4743C12.9244 15.6554 13.1495 14.9757 13.4487 14.9328C14.8475 14.7337 16.99 16.9169 15.5505 15.361C13.5218 13.7639 13.0313 15.1008 12.1875 14.4436Z" fill="#04537A"/>
<path d="M10.506 13.6488C9.48993 13.5917 10.4337 15.0632 11.0766 14.2298C11.1481 13.9285 10.7697 13.6636 10.506 13.6488Z" fill="#4CB1DA"/>
<path d="M17.8028 15.0552C17.8102 15.0621 17.7708 15.1547 17.8929 15.2387C17.9977 15.1266 17.8072 15.0643 17.8028 15.0552Z" fill="#04537A"/>
<path d="M10.7161 23.9832C10.7183 24.2516 10.7044 24.4512 10.6559 24.717C10.9836 24.5715 10.8551 24.7984 11.0763 24.9923C10.9572 25.4465 10.6356 27.0358 10.4758 27.3159C10.2113 27.78 8.73024 28.3995 9.81517 29.4866C9.74979 29.326 9.52337 28.9368 9.51471 28.8445C9.45107 28.1692 10.8351 27.0786 11.4967 26.9184C11.52 26.7236 11.8028 25.3724 11.8569 25.2062C10.733 24.9499 10.6702 24.5031 11.9469 24.778C12.4301 24.5343 10.9096 24.0026 10.7157 23.9832H10.7161Z" fill="#04537A"/>
<path d="M32.1564 18.969C32.1014 19.0768 31.6931 19.479 31.5559 19.5803C31.0758 19.9344 30.7602 20.002 30.1744 20.1002C30.7169 20.2855 31.0727 20.2284 31.2554 20.8648C31.3568 21.2172 31.307 21.6774 31.3754 21.8432C31.4226 21.9575 31.9741 22.3424 32.3962 22.8217C32.9278 23.4252 33.1322 23.8031 33.4772 24.5339C34.1565 23.6226 33.6011 23.8841 33.5071 23.8001C32.8915 23.249 32.8391 22.7515 33.0569 21.9657C32.9049 21.7099 32.7486 21.4471 32.6365 21.1709C32.5363 21.5888 32.4362 22.0066 32.336 22.4242C31.5858 22.319 32.0334 21.7887 32.0356 21.5683C32.0486 20.4163 31.8312 19.8344 31.8555 19.734C31.8849 19.611 32.0867 19.5924 32.0958 19.5812C32.23 19.4123 32.3373 19.2759 32.456 19.0919C32.3558 19.0512 32.2557 19.0106 32.1555 18.9699L32.1564 18.969Z" fill="#073D60"/>
<path d="M32.6368 21.1703C32.4298 20.6603 32.4675 20.0269 32.0965 19.5806C32.0874 19.5918 31.8856 19.6104 31.8562 19.7334C31.8324 19.8343 32.0493 20.4157 32.0363 21.5677C32.0337 21.7885 31.5865 22.3184 32.3368 22.4236C32.4369 22.0057 32.5371 21.5879 32.6372 21.1703H32.6368Z" fill="#04537A"/>
<path d="M33.4779 24.5335C33.5532 24.6924 33.6528 24.705 33.658 24.7171C34.5745 24.5686 34.3489 26.6618 34.4987 26.8268C34.6044 26.9428 35.6369 27.1155 36.7807 28.9057C36.7507 28.9975 36.7207 29.0893 36.6907 29.1811C35.8201 29.1564 36.0149 29.6659 35.5196 30.2513C35.4928 30.6539 36.4127 30.492 36.4807 30.7712C37.4838 30.9167 38.2696 30.8258 39.1831 30.4045L38.7627 30.3738C39.7822 29.7175 40.9919 28.2931 41.0447 27.1021C39.5273 27.5563 37.3699 26.8428 36.1499 25.8791C34.4187 24.5115 35.1408 23.5768 35.039 23.4027C34.9732 23.2897 34.1511 23.8075 33.0571 21.9658C32.8393 22.7516 32.8921 23.249 33.5073 23.8002C33.6008 23.8841 34.1563 23.6226 33.4775 24.534L33.4779 24.5335Z" fill="#04537A"/>
<path d="M37.381 16.8285C37.6412 16.89 38.1737 16.8978 38.6123 17.2567C39.3348 17.8485 38.8417 18.0325 38.8227 18.0823C38.3378 19.3482 37.6191 20.1989 37.9218 21.6289C37.6767 21.3107 37.5226 20.8778 37.2009 20.6197C36.2186 19.8322 33.3024 19.5469 33.5076 21.5371C33.5976 21.5653 33.5565 21.3284 33.9578 20.9258C35.2484 19.6309 37.3351 20.7219 37.1407 21.4761C37.1226 21.8337 36.6745 21.4644 36.6602 21.9042C38.3469 21.7363 39.0777 23.4901 37.7412 24.5949C37.8785 24.9863 41.3142 25.3361 41.7649 24.8395C41.6813 24.5997 41.5748 24.3585 41.4047 24.1667C40.56 24.5642 38.5417 24.2667 38.4621 24.075C39.0348 22.6415 38.0624 22.0688 38.2218 20.6505C38.346 19.5439 39.0617 19.0664 40.0834 19.2746C40.3249 19.324 40.4535 19.3391 40.6839 19.4582C40.7523 19.1694 40.9328 18.8945 40.9843 18.6023C39.8582 18.2741 39.1037 18.8248 38.9725 18.7244C38.7807 18.578 39.3323 17.9875 38.9426 17.3485C38.6443 16.8593 37.51 16.3844 36.9308 16.4008C36.8909 16.9766 37.1524 16.7749 37.381 16.829V16.8285Z" fill="#04537A"/>
<path d="M41.4654 26.7351C41.7013 26.903 41.303 27.0247 41.045 27.1018C40.9917 28.2928 39.7821 29.7167 38.763 30.3734L39.1834 30.4042C40.5488 29.7742 41.9533 27.7667 42.0061 26.2458C41.826 26.4089 41.6459 26.572 41.4658 26.7351H41.4654Z" fill="#1D729F"/>
<path d="M40.0838 15.239C39.5708 15.3217 39.1552 15.3022 38.6426 15.239C38.185 15.6749 40.0886 15.839 41.0449 16.6456C40.9393 16.0001 40.6986 15.6455 40.2042 15.239C40.1665 15.2459 40.1223 15.2329 40.0842 15.239H40.0838Z" fill="#1FA0CF"/>
<path d="M37.3812 16.8286C38.4371 17.8512 37.9829 19.5656 37.201 20.6198C37.5227 20.8778 37.6769 21.3108 37.9219 21.629C37.6193 20.199 38.3375 19.3483 38.8228 18.0824C38.8419 18.0326 39.3354 17.8486 38.6124 17.2568C38.1743 16.8979 37.6413 16.8901 37.3812 16.8286Z" fill="#1FA0CF"/>
<path d="M36.6609 21.9042C36.5193 21.9185 36.3474 21.909 36.2106 21.9653C35.5188 22.251 37.5163 21.9021 37.8622 23.0355C38.0939 23.794 37.6709 24.0113 37.7423 24.5949C39.0788 23.4901 38.348 21.7367 36.6613 21.9042H36.6609Z" fill="#4CB1DA"/>
<path d="M33.9582 20.9258C36.7641 20.1963 36.2588 21.7081 37.1411 21.476C37.3355 20.7214 35.2488 19.6309 33.9582 20.9258Z" fill="#1FA0CF"/>
<path d="M32.4566 19.0911C32.3379 19.2751 32.2301 19.4115 32.0964 19.5803C32.4674 20.0267 32.4301 20.66 32.6367 21.17C32.7488 21.4467 32.9051 21.7095 33.057 21.9649C34.1506 23.8066 34.9732 23.2892 35.039 23.4018C35.1407 23.5763 34.419 24.5105 36.1499 25.8782C37.3699 26.8419 39.5272 27.5554 41.0446 27.1012C41.3027 27.0241 41.701 26.9025 41.465 26.7345C41.2988 26.8168 41.4533 26.2228 41.4048 25.6033C41.3754 25.2262 40.8572 25.2461 41.8252 24.9612C41.8109 24.9106 41.7828 24.8894 41.765 24.8391C41.3139 25.3357 37.8786 24.9859 37.7414 24.5945C37.6704 24.0109 38.0929 23.7936 37.8613 23.0351C37.5154 21.9017 35.5178 22.2511 36.2096 21.9649C36.3464 21.9082 36.5183 21.9177 36.6599 21.9039C36.6737 21.464 37.1223 21.8333 37.1404 21.4757C36.2581 21.7077 36.7634 20.1959 33.9575 20.9254C33.5558 21.3285 33.5969 21.5649 33.5073 21.5367C33.3025 19.5465 36.2187 19.8323 37.2006 20.6193C37.9825 19.5652 38.4367 17.8507 37.3807 16.8282C37.1517 16.774 36.8906 16.9762 36.9305 16.4C37.5102 16.384 38.644 16.8589 38.9423 17.3477C39.3319 17.9867 38.7804 18.5772 38.9722 18.7235C39.1034 18.8235 39.858 18.2729 40.984 18.6015C40.9909 18.5629 40.981 18.5192 40.984 18.4794C40.9464 17.7403 41.1823 17.4888 41.0442 16.645C40.0878 15.8385 38.1842 15.6744 38.6419 15.2384C37.4963 15.0969 34.965 14.079 34.1978 15.3913C34.9944 15.8636 34.9572 16.7507 35.339 17.5317C34.9412 17.291 34.3718 16.3022 33.8675 16.5225C32.334 17.9555 33.138 18.033 32.4561 19.0907L32.4566 19.0911Z" fill="#3385AC"/>
<path d="M39.0328 25.8175C38.6445 25.7781 38.5103 25.8361 38.2821 26.1539C39.2999 25.6569 39.2644 26.7782 39.303 26.0928L39.0328 25.8175Z" fill="#036192"/>
<path d="M23.0879 17.6847C24.2582 16.6495 26.0708 16.5097 25.4903 15.6057C24.5309 16.6326 23.8603 16.1317 23.5386 16.3395C23.375 16.4452 23.1607 17.4344 23.0884 17.6847H23.0879Z" fill="#04537A"/>
<path d="M29.6939 8.32896C30.5494 8.66491 31.1036 8.90562 32.0361 8.45104C32.2379 8.35277 32.6085 7.99517 32.6968 7.77827C32.1322 7.88131 31.5716 8.08089 30.985 8.02288C30.5022 7.97525 29.9195 7.65488 29.5437 7.3501C29.5937 7.67624 29.6437 8.00238 29.6939 8.32853V8.32896Z" fill="#1FA0CF"/>
<path d="M26.4509 4.35431C26.4058 5.02579 26.2777 5.415 26.0305 6.03582C26.0569 6.0908 26.5019 5.87347 27.2314 6.00508C27.2453 5.72151 26.1829 5.97954 26.1504 5.9133C26.327 5.47517 26.4123 5.44877 26.7509 5.21022C26.8275 5.1561 27.2773 4.92578 27.3514 4.90457C27.4916 4.68031 27.6317 4.45605 27.7717 4.2318V4.17075C27.3968 4.23179 27.315 4.10581 27.2912 4.10971C27.0098 4.1569 26.7362 4.31621 26.4504 4.35431H26.4509Z" fill="#1FA0CF"/>
<path d="M29.8741 9.61325C29.9742 9.64385 30.0744 9.67444 30.1745 9.70503C30.155 11.6489 29.0779 12.4204 29.7541 12.7321C30.042 12.6161 30.4888 12.0961 30.8953 12.1818C30.9707 12.1 31.0161 11.9753 31.1356 11.9372C31.1893 11.7719 31.2573 11.6112 31.3157 11.448C31.4967 10.9458 31.9565 10.6415 31.7963 9.82755C31.5898 8.77813 30.6971 9.30327 30.0247 9.00195C29.9035 9.04611 29.9559 9.3102 29.8745 9.61325H29.8741Z" fill="#1FA0CF"/>
<path d="M26.9316 13.2208C28.2802 13.4702 29.9024 13.2607 30.8955 12.1814C30.4894 12.0957 30.0422 12.616 29.7543 12.7316C28.5663 13.21 27.6226 13.1923 27.0519 11.9368C26.8186 12.1134 26.9762 12.7243 26.932 13.2208H26.9316Z" fill="#036192"/>
<path d="M27.3519 4.90447C27.2778 4.92569 26.828 5.15601 26.7514 5.21012C27.8996 5.17289 28.8048 5.38979 29.7841 6.00499C30.3378 4.94084 28.3857 4.60921 27.3519 4.90447Z" fill="#6BC7EA"/>
<path d="M28.8532 10.7747C29.3796 9.7136 29.7402 9.05987 28.9133 7.96196C28.8107 7.92862 28.7237 7.74419 28.7332 7.93122C29.2679 8.79881 29.0965 9.83829 28.8532 10.7747Z" fill="#4CB1DA"/>
<path d="M27.7722 4.23188C27.6319 4.45614 27.4918 4.6804 27.3518 4.90465C28.3857 4.60939 30.3378 4.94102 29.784 6.00517C28.8043 5.38997 27.8995 5.17307 26.7514 5.2103C26.4128 5.44885 26.3271 5.47526 26.1509 5.91338C26.1833 5.97962 27.2458 5.7216 27.2319 6.00517C28.1766 6.17617 26.889 6.08006 26.6613 6.12725C25.7197 6.32294 25.5655 7.10222 24.7096 8.4508C26.3933 8.98547 26.6518 11.0562 27.0518 11.9363C27.6224 13.1918 28.5662 13.2096 29.7542 12.7312C29.0779 12.4195 30.1551 11.648 30.1745 9.70414C30.0744 9.67354 29.9742 9.64295 29.8741 9.61236C29.642 10.4795 29.5451 10.5877 28.7632 11.08C28.6052 11.1029 28.7372 11.0077 28.8532 10.7743C29.0965 9.83835 29.2675 8.79845 28.7333 7.93085C28.7242 7.74382 28.8108 7.92782 28.9134 7.96159C29.1853 8.05034 29.4178 8.22005 29.694 8.32828C29.644 8.00214 29.594 7.67599 29.5438 7.34985C29.9195 7.65464 30.5023 7.97501 30.985 8.02263C31.5712 8.08064 32.1318 7.88106 32.6968 7.77802C32.9107 7.25288 32.8401 6.72167 32.6968 6.1883C32.3215 6.70349 30.301 6.49871 30.1745 5.97443C30.0953 5.64583 30.5217 5.76792 30.0546 4.90422C29.2938 4.67996 28.5331 4.4557 27.7726 4.23145L27.7722 4.23188Z" fill="#3385AC"/>
<path d="M32.5465 6.67795C32.0144 6.61474 32.2304 7.02169 31.7958 7.31998C32.5278 7.77413 32.8378 6.82211 32.5465 6.67795Z" fill="#6BC7EA"/>
<path d="M3.74939 17.073C3.72255 17.7116 3.97062 18.1329 3.80957 18.2961C3.82689 18.3866 3.85025 18.4567 3.86973 18.5407C4.97155 18.2757 5.90841 18.7182 6.00192 18.6628C6.03569 18.6428 5.92703 18.1701 5.97205 17.8679C6.23528 16.0911 7.8722 16.6033 7.05309 15.6664C5.68979 15.6097 4.6594 16.0522 3.74981 17.073H3.74939Z" fill="#3385AC"/>
<path d="M3.74923 17.073C4.65882 16.0522 5.68919 15.6102 7.05249 15.6665C6.6451 15.2002 5.52122 15.3526 4.95061 15.2383C4.22632 15.5387 3.78299 16.2765 3.74965 17.0726L3.74923 17.073Z" fill="#1FA0CF"/>
<path d="M6.27194 18.2351C6.42952 19.285 7.07935 19.9023 7.41314 21.1704C7.82572 21.2964 8.10409 21.421 8.55434 21.415C9.37908 21.4037 9.51157 21.0232 9.60551 21.0483C9.63885 21.057 9.75401 21.3695 10.1458 21.4765C11.5784 21.8674 12.3629 20.1668 11.2567 18.633C11.126 18.4516 10.5969 17.9814 10.3558 17.7463C10.1939 17.5887 9.60984 17.0666 9.45485 16.9515C8.02358 16.7419 6.94341 16.6601 6.27194 18.2355V18.2351Z" fill="#3385AC"/>
<path d="M6.21173 17.5621C6.19009 17.8102 6.23642 17.9993 6.27192 18.2349C6.94383 16.6594 8.02356 16.7413 9.45483 16.9508C9.20936 16.769 9.02147 16.5252 8.64395 16.4616C7.83134 16.3248 6.30048 16.5404 6.21173 17.5621Z" fill="#1FA0CF"/>
<path d="M10.0553 8.14561C10.0475 8.1586 10.0003 8.12353 9.87517 8.39022C10.7943 8.73483 10.4258 9.10888 9.63488 9.3076C9.63488 9.90678 9.99812 10.299 10.596 10.5306C12.1286 11.1246 11.5142 10.3622 11.7671 9.18551C11.8788 9.92712 11.8298 11.0428 12.6979 11.2644C13.4616 11.1428 14.24 11.0601 14.9201 10.6531C14.7803 10.3869 15.2803 10.0349 15.4604 9.70546C15.9258 8.85518 16.0856 7.75251 16.6614 6.92301C16.5064 6.86456 16.3401 6.83988 16.1808 6.80092C15.1331 6.7875 14.3374 6.90699 13.5984 7.7183C13.2611 8.37679 13.3074 8.63309 13.3282 9.36951C12.9334 8.25254 12.6572 7.39663 13.7785 6.67883C13.6499 6.7178 12.8845 6.43986 11.3463 7.65726C10.6181 8.23349 10.8164 8.78332 10.0548 8.14647L10.0553 8.14561Z" fill="#1FA0CF"/>
<path d="M13.5989 7.71736C13.7218 7.47709 13.9301 7.14286 14.1392 6.98354C14.039 6.88166 13.9389 6.77978 13.8387 6.67789C13.8205 6.68352 13.7972 6.67227 13.7785 6.67789C12.6573 7.39526 12.9334 8.2516 13.3283 9.36857C13.3079 8.63215 13.2612 8.37585 13.5984 7.71736H13.5989Z" fill="#04537A"/>
<path d="M14.1392 6.98338C13.9301 7.14269 13.7219 7.47692 13.5989 7.7172C14.338 6.90588 15.1337 6.78639 16.1814 6.79981C16.1372 6.78899 16.1173 6.75998 16.0013 6.73877C15.2463 6.59893 14.8185 6.46602 14.1397 6.98338H14.1392Z" fill="#6BC7EA"/>
<path d="M14.9202 10.6525C15.0821 10.5555 15.6142 10.1005 15.7008 9.97973C16.3116 9.12988 16.277 7.80295 17.2021 7.13623C17.1944 7.07822 16.7606 6.9596 16.6619 6.92236C16.0856 7.75186 15.9263 8.85454 15.4609 9.70482C15.2804 10.0343 14.7808 10.3867 14.9206 10.6525H14.9202Z" fill="#4CB1DA"/>
<path d="M15.7007 9.97971C15.6137 10.1005 15.0816 10.5555 14.9201 10.6525C14.2404 11.0599 13.462 11.1426 12.6979 11.2638C13.7287 11.527 15.7613 11.3621 15.821 9.94897L15.7011 9.97971H15.7007Z" fill="#1D729F"/>
<path d="M10.7161 23.7385C10.7182 23.7701 10.7156 23.922 10.7161 23.9831C10.91 24.0026 12.4305 24.5342 11.9473 24.7779C10.6706 24.503 10.7334 24.9498 11.8573 25.2061C12.1201 24.4052 12.7318 23.6904 13.1184 22.9436H13.0582C12.5876 23.703 11.5226 23.7774 10.7161 23.7385Z" fill="#0C2744"/>
<path d="M12.3377 21.4758C12.3862 22.2581 11.5372 22.9508 10.8363 22.4543C10.7891 22.5049 10.7853 22.5716 10.7762 22.6378C10.7731 22.659 10.8939 22.8391 10.8363 23.066C10.8108 23.1669 10.5484 23.35 10.5359 23.4634C10.5186 23.621 10.7151 23.7219 10.716 23.7388C11.523 23.7777 12.5876 23.7033 13.0581 22.9439C13.4625 22.2915 13.1616 22.2343 12.3373 21.4763L12.3377 21.4758Z" fill="#04537A"/>
<path d="M10.8364 22.4544C11.5373 22.951 12.3867 22.2583 12.3378 21.476C12.311 21.043 11.6958 19.3533 12.0374 21.0175C11.7694 22.4107 10.9723 22.3089 10.8364 22.4544Z" fill="#1FA0CF"/>
<path d="M7.41283 21.1702C7.52626 21.6009 7.06604 21.9512 8.61377 21.5676L8.55359 21.4148C8.10334 21.4208 7.82497 21.2961 7.41238 21.1702H7.41283Z" fill="#04537A"/>
<path d="M14.1994 37.2522C14.5514 36.9423 15.0779 36.599 15.5208 36.3349C14.8813 36.2842 14.1293 35.8721 13.7189 35.3564C13.2435 35.3859 11.2715 34.6689 10.8061 34.378C10.042 33.9005 9.46447 33.0805 9.03457 32.2991C9.09778 33.3195 9.47184 34.4321 10.326 35.0508C11.8508 36.1552 12.4924 34.5815 12.6383 35.7539C12.4181 35.9169 12.1979 36.08 11.9776 36.2431C12.3876 36.7544 13.6055 37.2358 14.1999 37.2522H14.1994Z" fill="#1D729F"/>
<path d="M13.7189 35.3565C14.1288 35.8721 14.8813 36.2842 15.5207 36.3349C15.9545 36.0764 15.9476 35.7972 17.2624 36.0292C17.3875 35.9691 18.1443 35.9743 19.2444 35.0508C19.0483 34.7707 18.8188 35.079 18.6136 35.1119C16.8503 35.3963 15.3255 34.5776 14.9501 34.6226C14.5717 34.6681 14.1405 35.3305 13.7189 35.3565Z" fill="#1D729F"/>
<path d="M15.5208 36.335C15.0779 36.599 14.5519 36.9424 14.1995 37.2523C15.2489 37.2809 16.3364 36.4739 17.2625 36.0293C15.9476 35.7972 15.9546 36.0765 15.5208 36.335Z" fill="#036192"/>
<path d="M9.03467 32.2992C9.46457 33.0807 10.0425 33.9006 10.8062 34.3782C11.2716 34.6691 13.2436 35.386 13.719 35.3566C14.1407 35.3306 14.5719 34.6682 14.9502 34.6228C15.3256 34.5777 16.8504 35.3964 18.6137 35.112C18.8189 35.0791 19.0484 34.7708 19.2445 35.0509C19.4398 34.8873 19.7138 34.6539 19.845 34.4396C18.0306 34.347 16.4876 34.1968 14.7403 33.6448C13.8844 34.8817 12.9458 34.715 14.3199 33.5227C12.6579 32.9309 11.3193 32.1204 10.356 30.5874C9.23382 31.3987 8.94246 30.8147 9.03467 32.2996V32.2992Z" fill="#04537A"/>
<path d="M14.3194 33.5222C12.9452 34.7149 13.8838 34.8812 14.7397 33.6443C14.6025 33.601 14.4544 33.5703 14.3194 33.5222Z" fill="#073D60"/>
<path d="M11.527 32.2991C9.56708 32.816 11.3456 34.6282 11.7971 32.5129C11.7071 32.4417 11.617 32.3704 11.527 32.2991Z" fill="#073D60"/>
<path d="M33.2974 32.4218C33.0077 32.5893 32.6991 32.711 32.3964 32.85C32.4726 33.0417 32.9242 32.6616 32.9671 32.6664C33.1407 32.6867 34.4113 34.8566 35.0391 31.6572C34.2 31.4979 34.4325 33.2167 33.2974 32.4218Z" fill="#04537A"/>
<path d="M29.0336 33.9506C30.9467 33.9887 31.9753 32.3574 30.9554 34.7454C30.7064 34.9242 31.4433 35.2173 31.5558 35.2347C31.8138 34.5268 32.0004 33.7887 32.0364 33.0332C31.061 33.4419 30.0626 33.7333 29.0336 33.9506Z" fill="#073D60"/>
<path d="M10.6558 24.7168C10.5073 25.5307 10.3164 25.9074 9.54491 26.2455C9.3726 26.3208 6.51697 27.1326 6.30181 27.1629C5.6299 27.2568 4.38089 27.2841 3.74924 27.1018C3.75357 28.3993 5.65372 30.0332 5.67103 30.251L5.55111 30.3428C6.95468 31.0515 8.77601 30.8757 10.1155 30.0981C10.0138 29.9029 9.89774 29.6895 9.81505 29.4868C8.73012 28.3998 10.2112 27.7802 10.4757 27.3161C10.6355 27.036 10.9575 25.4463 11.0762 24.9926C10.8549 24.7986 10.9835 24.5722 10.6558 24.7172V24.7168Z" fill="#04537A"/>
<path d="M5.55122 30.3424L5.67114 30.2506C5.65383 30.0329 3.75368 28.399 3.74935 27.1015C3.63203 27.0677 3.38872 26.9785 3.29911 26.9179C3.14152 26.8123 3.29521 26.7616 3.26924 26.7344C3.17529 26.6365 3.03241 26.5473 2.90902 26.4897C3.03631 27.9401 4.27363 29.6969 5.55164 30.342L5.55122 30.3424Z" fill="#1D729F"/>
<path d="M3.08918 25.0835C2.8935 25.574 2.86189 25.9537 2.90907 26.4901C3.03289 26.5477 3.17534 26.6369 3.26929 26.7347C3.78145 27.0378 3.05584 25.6385 3.92993 25.5117V25.4506C3.68706 25.4182 3.32686 25.1731 3.08918 25.0839V25.0835Z" fill="#DBF3FC"/>
<path d="M3.08899 25.0834C3.32667 25.1726 3.68686 25.4176 3.92974 25.4501C4.27652 25.4969 5.25235 25.3791 5.43115 25.0834C4.72028 25.0804 3.97259 25.309 3.32925 24.8388C3.03529 24.6678 3.09764 25.0618 3.08899 25.0834Z" fill="#1FA0CF"/>
<path d="M7.53317 23.7995C7.91501 22.244 9.69695 22.473 10.8364 23.0657C10.894 22.8388 10.7737 22.6591 10.7763 22.6375C10.016 22.2699 8.97959 21.9634 8.16394 22.2708C7.21496 22.628 7.51109 23.435 7.53317 23.7995Z" fill="#1FA0CF"/>
<path d="M7.5331 23.7996C7.54522 23.9966 7.70108 24.2408 7.65302 24.4417C7.6067 24.6361 6.2659 25.2772 6.18147 25.2673C6.13212 25.2612 6.18842 25.1608 6.09144 25.1452C5.17016 25.6045 4.20256 25.4725 3.92938 25.5119C3.05529 25.6387 3.78088 27.038 3.26872 26.7349C3.29469 26.7618 3.141 26.8124 3.29859 26.9185C3.38864 26.9787 3.63194 27.0683 3.74883 27.102C4.38048 27.2843 5.62905 27.257 6.3014 27.1631C6.51657 27.1328 9.37219 26.3215 9.5445 26.2457C10.316 25.9076 10.5069 25.5309 10.6554 24.717C10.7039 24.4516 10.7173 24.2516 10.7156 23.9832C10.7152 23.9222 10.7178 23.7702 10.7156 23.7386C10.7143 23.7221 10.5182 23.6213 10.5355 23.4632C10.548 23.3498 10.81 23.1667 10.8359 23.0658C9.69646 22.4731 7.91495 22.2441 7.53268 23.7996H7.5331Z" fill="#3385AC"/>
<path d="M5.4314 25.0839C5.2526 25.3796 4.27676 25.4974 3.92998 25.4506V25.5117C4.20316 25.4718 5.17076 25.6043 6.09204 25.145C6.08468 25.1437 6.0561 25.0354 6.00199 25.0229C5.93055 25.006 5.7561 25.0852 5.4314 25.0839Z" fill="#1FA0CF"/>
<path d="M9.48459 24.4114C8.87546 24.7941 8.23212 25.03 7.53293 25.1759C8.73259 25.7015 9.64002 24.4858 9.48459 24.4114Z" fill="#073D60"/>
<path d="M7.02256 25.5728C5.63545 26.026 7.18406 26.9781 7.29272 25.7866L7.02256 25.5728Z" fill="#1D729F"/>
<path d="M28.1324 22.4545C28.2337 22.4857 28.2748 22.3909 28.2826 22.3935C28.4718 22.4541 29.1511 22.9117 29.4537 22.9437C30.2732 23.0303 30.9023 22.4294 31.3755 21.8432C31.3071 21.6774 31.3564 21.2172 31.2556 20.8648C29.1905 21.8384 23.6351 21.5016 23.9888 18.2966L23.8689 18.2048C23.2372 21.7159 26.4245 21.7822 27.8025 22.2099C28.1713 22.3246 28.1133 22.4484 28.1328 22.4545H28.1324Z" fill="#04537A"/>
<path d="M24.2288 17.807C24.0474 18.4772 24.6929 17.6364 25.8804 17.746C26.3138 17.7858 28.1061 18.5599 28.2524 17.9906C27.0982 17.3827 25.1258 16.2078 24.2288 17.807Z" fill="#1FA0CF"/>
<path d="M27.0513 14.9332C27.3716 14.6418 27.15 15.0891 27.2617 15.1778C27.4422 15.3211 27.879 13.6864 31.5858 14.444C31.9226 14.0604 31.1174 13.7716 30.8351 13.7102C30.0519 13.5396 28.2185 13.7742 27.5621 14.2604C27.3561 14.4132 27.2002 14.7254 27.0517 14.9332H27.0513Z" fill="#1FA0CF"/>
<path d="M32.1568 10.6527C32.6777 11.1899 32.7863 12.5104 32.7573 13.2516C32.7417 13.6546 32.0798 13.6139 33.7782 14.0772C33.9427 13.1996 33.8483 12.2627 33.418 11.4783C33.1452 10.9813 32.6906 11.0116 32.9976 10.7137C32.7058 10.6007 32.4655 10.5397 32.1568 10.6527Z" fill="#1FA0CF"/>
<path d="M33.7781 14.0768C33.6664 14.6721 33.0261 15.7441 32.5468 16.0947C32.2035 16.3458 31.4662 16.4679 31.5558 16.706C34.5496 16.671 35.0513 11.51 32.9971 10.7134C32.6901 11.0112 33.1447 10.9809 33.4174 11.4779C33.8478 12.2624 33.9422 13.1993 33.7777 14.0768H33.7781Z" fill="#4CB1DA"/>
<path d="M31.5557 19.5801C31.6934 19.4788 32.1012 19.0766 32.1562 18.9688C32.8047 17.6977 31.8432 17.1795 30.895 16.6453C30.7388 16.7695 31.4778 17.0726 31.7358 17.4709C32.3107 18.3575 31.799 19.1671 30.895 19.4888L31.5557 19.5805V19.5801Z" fill="#4CB1DA"/>
<path d="M31.3155 11.4476C31.2567 11.6108 31.1891 11.7714 31.1355 11.9368C30.9043 12.6481 30.7934 12.9005 30.835 13.7101C31.1173 13.7716 31.9225 14.0603 31.5857 14.4439C27.8789 13.6863 27.4421 15.321 27.2616 15.1777C27.1499 15.089 27.3715 14.6418 27.0512 14.9331C25.5506 17.0281 26.536 16.7527 28.3426 17.9294L28.2525 17.9905C28.1058 18.5598 26.3134 17.7857 25.8805 17.7459C24.693 17.6363 24.0475 18.4771 24.2289 17.8069C24.1514 17.945 24.0064 18.1351 23.9886 18.2961C23.6349 21.5011 29.1903 21.8379 31.2554 20.8643C31.0727 20.2279 30.7168 20.285 30.1743 20.0997C30.7601 20.0019 31.0757 19.9343 31.5558 19.5798L30.8952 19.488C31.7991 19.1663 32.3109 18.3567 31.7359 17.4701C31.4779 17.0722 30.7389 16.7687 30.8952 16.6445C30.4977 16.4168 31.3169 16.7086 31.5558 16.7055C31.4662 16.467 32.2035 16.3449 32.5468 16.0942C33.0261 15.7436 33.6664 14.6716 33.7781 14.0763C32.0793 13.6131 32.7412 13.6538 32.7572 13.2507C32.7862 12.5096 32.6776 11.1896 32.1567 10.6519C31.8961 10.7475 31.5948 11.2861 31.316 11.4467L31.3155 11.4476Z" fill="#3385AC"/>
<path d="M26.4212 18.7851C26.2047 18.7631 26.6312 19.1254 26.7814 19.2133C27.7871 19.7999 27.9789 19.0709 28.8235 20.2528L28.9136 20.161C28.1386 18.205 27.9538 19.761 26.4212 18.7851Z" fill="#04537A"/>
<path d="M32.667 13.8936H32.4268C32.2151 15.5738 33.7026 14.5148 32.667 13.8936Z" fill="#4CB1DA"/>
<path d="M29.3941 23.1883C29.3668 23.2801 29.3625 23.4355 29.2742 23.4939C30.5362 24.2823 30.6942 26.7375 29.8746 27.9579C30.8743 27.5341 32.5917 27.4778 33.2376 28.5389C33.4541 28.8943 33.3593 29.3022 33.5381 29.242C33.9316 28.7147 34.1074 27.9847 34.6191 27.5297C34.5174 27.4787 34.1607 27.4185 34.1386 27.3769C34.1113 27.3258 34.1576 27.0423 34.1386 26.9184C34.0135 26.1089 34.0273 25.5742 33.658 24.717C33.6528 24.7053 33.5528 24.6927 33.4779 24.5334C33.1329 23.8026 32.9285 23.4251 32.3969 22.8212C32.1133 22.8887 31.5964 22.2523 31.4661 22.2709C31.3483 22.2878 30.6401 23.4602 29.3941 23.1883Z" fill="#CFCDC6"/>
<path d="M29.8741 27.9579C29.3767 28.6982 28.5255 29.0961 27.6519 29.0584C27.4307 31.2711 30.1668 31.0343 31.5556 30.5871C32.3154 30.3425 33.0557 29.8879 33.5376 29.242C33.3592 29.3021 33.4536 28.8943 33.2371 28.5389C32.5912 27.4778 30.8738 27.534 29.8741 27.9579Z" fill="#F6B0AA"/>
<path d="M34.1381 26.9184C34.1571 27.0422 34.1108 27.3258 34.1381 27.3769C34.1601 27.4184 34.5169 27.479 34.6186 27.5297C36.0776 28.2609 35.9746 29.448 36.4802 28.8138C36.0347 27.9406 35.1442 27.0448 34.1381 26.918V26.9184Z" fill="#DEA564"/>
<path d="M9.81491 29.4864C9.8976 29.6895 10.0132 29.9029 10.1154 30.0977C10.1985 30.257 10.3409 30.564 10.3557 30.5869C11.3189 32.1199 12.6571 32.9304 14.3196 33.5222C14.4547 33.5703 14.6027 33.601 14.74 33.6443C16.4877 34.1967 18.0307 34.3465 19.8446 34.4392C20.2871 34.4617 20.1867 34.4998 20.2049 34.5002C20.2304 34.5011 20.265 34.4318 20.5053 34.4392C21.0833 34.4569 21.6708 34.5002 22.247 34.5002C22.4072 34.5002 22.5674 34.5015 22.7276 34.5002C23.5878 34.4924 24.5143 34.4894 25.3702 34.4392C25.4914 34.4322 25.652 34.3881 25.7906 34.3781C26.0681 34.3582 26.3555 34.3422 26.6313 34.3171C26.6013 34.2764 26.5713 34.2357 26.5412 34.195C28.5241 34.1422 32.233 32.9118 33.7483 31.6879C34.5042 31.0774 35.0423 30.1458 35.3397 30.2813C35.8333 29.5323 35.8393 29.0994 36.661 29.0279C36.6987 28.9288 36.4874 28.8266 36.4809 28.8141C35.9748 29.4483 36.0783 28.2612 34.6193 27.53C34.1076 27.985 33.9318 28.7149 33.5383 29.2422C33.0564 29.8882 32.3161 30.3428 31.5563 30.5874C27.4889 32.2758 16.2405 32.236 12.6982 30.0982C11.728 29.5124 11.386 28.4721 11.4371 27.3464C10.7085 27.7577 10.1725 28.2417 9.78547 28.9976C9.26465 28.4863 10.8977 27.1287 11.4973 27.0408C11.5016 27.001 11.4925 26.9581 11.4973 26.9187C10.8358 27.0789 9.45212 28.1699 9.51533 28.8448C9.52399 28.937 9.74998 29.3262 9.81578 29.4869L9.81491 29.4864Z" fill="#FFF5E3"/>
<path d="M26.631 34.3171C27.5324 34.234 28.1506 34.1366 29.0334 33.9505C30.0625 33.7336 31.0608 33.4422 32.0362 33.0331C32.1591 32.9816 32.2747 32.9054 32.3964 32.8495C32.699 32.7105 33.0077 32.5889 33.2973 32.4213C34.1164 31.9477 34.3987 31.7373 34.9788 30.9537C35.0953 30.7965 35.223 30.5762 35.339 30.4034C35.3512 30.3853 35.3269 30.2995 35.339 30.2814C35.0416 30.1458 34.5035 31.0771 33.7476 31.688C32.2328 32.9119 28.5234 34.1422 26.5406 34.1951C26.5706 34.2358 26.6006 34.2765 26.6306 34.3171H26.631Z" fill="#F5E8BD"/>
<path d="M11.4369 27.3459C11.4404 27.2689 11.4802 27.1992 11.4971 27.0403C10.8979 27.1282 9.26444 28.4854 9.78526 28.9971C10.1723 28.2412 10.7083 27.7572 11.4369 27.3459Z" fill="#DEA564"/>
<path d="M13.3587 22.4545C15.707 23.2506 16.991 20.6643 17.2924 20.4366C17.443 20.3227 18.308 20.3591 19.3042 19.0915C19.1986 18.6005 19.1808 18.307 19.1843 17.8074H19.1241C18.6643 20.6054 17.282 19.846 17.0521 20.0088C16.9798 20.0599 17.162 20.7046 16.1512 21.4765C14.6757 22.6034 13.5051 22.0596 13.3886 22.1492C13.3167 22.2042 13.386 22.3826 13.3587 22.4549V22.4545Z" fill="#FFF5E3"/>
<path d="M23.7485 21.3534C23.1658 20.8148 23.4719 21.2949 22.6376 21.4144C21.4302 21.5876 20.0864 20.9702 19.5448 19.8247C19.069 19.9416 19.8868 20.9577 20.2353 21.2313C21.257 22.0331 22.671 22.1227 23.7485 21.3534Z" fill="#FFF5E3"/>
<path d="M26.0306 22.8824C26.0288 22.8214 26.0314 22.7599 26.0306 22.6989C25.9635 22.6828 24.8296 22.2568 24.7391 22.2097C24.456 22.062 24.0599 21.7001 23.8083 21.4758C23.2992 21.8287 25.292 22.8764 26.0306 22.8824Z" fill="#FFF5E3"/>
<path d="M26.0305 22.8825C26.043 23.3185 26.2461 23.5042 26.1504 23.6164C26.5008 23.4738 26.8512 23.3311 27.2016 23.1882C28.8077 23.0466 28.9727 23.5133 29.0632 23.5549C29.0705 23.5583 29.1346 23.4484 29.2134 23.4938C28.483 22.4578 28.2631 22.8583 27.4115 22.8211C26.834 22.796 26.6699 22.8505 26.03 22.699C26.0309 22.76 26.0283 22.8215 26.03 22.8825H26.0305Z" fill="#58423B"/>
<path d="M28.1323 22.4544C28.1882 22.9423 27.4436 22.5042 27.4115 22.8211C28.2631 22.8583 28.483 22.4574 29.2134 23.4939C29.2285 23.5025 29.2588 23.4848 29.2736 23.4939C29.3623 23.4354 29.3662 23.28 29.3935 23.1882C29.4134 23.1216 29.4814 23.0813 29.4537 22.9436C29.151 22.9116 28.4718 22.4535 28.2826 22.3934C28.2748 22.3908 28.2337 22.4856 28.1323 22.4544Z" fill="#222D38"/>
<path d="M12.6981 30.0978C12.8237 30.1744 14.526 30.7437 14.71 30.7705C16.0755 30.9692 17.8665 30.835 17.863 29.0583C17.0123 29.06 16.0711 28.6236 15.6408 27.8353C14.7308 27.3153 11.1392 27.8785 12.0375 29.5168C12.0587 29.5557 12.6605 30.0748 12.6981 30.0978Z" fill="#F6B0AA"/>
<path d="M13.3587 22.4545C13.1881 22.9009 13.1314 22.9186 13.1184 22.9437C12.7318 23.6905 12.1201 24.4053 11.8573 25.2062C11.8028 25.372 11.5205 26.7237 11.4971 26.9185C11.4923 26.9583 11.5014 27.0007 11.4971 27.0406C11.4807 27.1994 11.4404 27.2692 11.4369 27.3462C11.3858 28.4718 11.7279 29.5122 12.6981 30.0979C12.6608 30.075 12.0586 29.5559 12.0374 29.5169C11.1391 27.8787 14.7307 27.3155 15.6407 27.8354C14.3302 25.4335 16.5806 20.3379 19.7246 23.2797C19.3397 24.0261 19.6393 23.6386 20.025 24.2581C21.3203 26.3392 20.235 29.0537 17.8629 29.0585C17.8664 30.8352 16.0754 30.9694 14.7099 30.7707C14.5259 30.7439 12.8236 30.1746 12.6981 30.0979C16.2403 32.2357 27.4888 32.2756 31.5562 30.5871C30.1673 31.0344 27.4312 31.2712 27.6524 29.0585C25.0133 28.9455 24.1816 25.1456 26.151 23.6161C26.2467 23.5039 26.0436 23.3182 26.0311 22.8823C25.2925 22.8766 23.2997 21.8285 23.8088 21.4757C23.8036 21.4713 23.7543 21.3588 23.7486 21.3536C22.6711 22.1229 21.2571 22.0333 20.2354 21.2315C19.8869 20.9579 19.0691 19.9422 19.5449 19.8249C19.4336 19.5894 19.36 19.3482 19.3046 19.0911C18.3084 20.3587 17.4434 20.3223 17.2928 20.4362C16.9915 20.6639 15.7069 23.2502 13.3591 22.4541L13.3587 22.4545Z" fill="#FFFBEF"/>
<path d="M24.9196 27.3462C24.6508 27.2847 24.6962 27.8449 24.139 28.2636C23.1693 28.9922 21.4406 28.7719 21.076 27.4687H20.8358C20.521 29.7832 25.2434 29.6377 24.9196 27.3466V27.3462Z" fill="#222D38"/>
<path d="M29.4539 22.9437C29.482 23.0814 29.4136 23.1217 29.3937 23.1883C30.6392 23.4602 31.3479 22.2878 31.4657 22.2709C31.596 22.2523 32.1129 22.8887 32.3965 22.8212C31.9744 22.3419 31.4228 21.9571 31.3756 21.8428C30.9025 22.4294 30.273 23.0299 29.4539 22.9433V22.9437Z" fill="#FFF5E3"/>
<path d="M15.6406 27.8354C16.0705 28.6237 17.0121 29.0601 17.8628 29.0584C20.2349 29.0541 21.3202 26.3391 20.0249 24.258C19.6391 23.6385 19.3396 24.026 19.7244 23.2796C16.5805 20.3374 14.3301 25.4335 15.6406 27.8354Z" fill="#3D2A20"/>
<path d="M17.5325 24.044C16.9506 23.95 16.2999 24.4202 16.3614 25.0531C16.9234 25.609 18.3507 24.6228 17.5325 24.044Z" fill="#FAFBFC"/>
<path d="M18.3131 22.8823C17.1744 22.7169 16.2709 23.3286 15.8207 24.3802C16.4787 23.4884 17.1212 22.8208 18.3131 23.0044C18.3793 23.0148 19.9708 23.6512 18.8534 23.0654C18.8213 23.0485 18.3412 22.8862 18.3131 22.8819V22.8823Z" fill="#C7AB93"/>
<path d="M18.2532 27.7131C16.9129 27.7963 18.3203 29.0894 18.4636 27.927C18.3935 27.8557 18.3234 27.7844 18.2532 27.7131Z" fill="#FDFAE5"/>
<path d="M26.1509 23.6161C24.1815 25.1452 25.0131 28.9451 27.6523 29.0585C28.5255 29.0957 29.3771 28.6983 29.8745 27.958C30.694 26.738 30.536 24.2824 29.274 23.494C29.2598 23.4849 29.229 23.5027 29.2139 23.494C29.1351 23.4486 29.071 23.5585 29.0636 23.5551C28.9731 23.5135 28.8078 23.0464 27.202 23.1884C26.8516 23.331 26.5013 23.4737 26.1509 23.6166V23.6161Z" fill="#3D2A20"/>
<path d="M28.2225 24.0441C27.3129 23.9432 26.8241 25.055 27.2017 25.206C27.6757 25.3952 29.191 24.4895 28.2225 24.0441Z" fill="#FAFBFC"/>
<path d="M27.8623 27.7134C26.612 27.7939 28.0364 29.0992 28.0728 27.8662C28.0026 27.8151 27.9325 27.7642 27.8623 27.7134Z" fill="#FDFAE5"/>
<defs>
<linearGradient id="paint0_linear_413_35850" x1="17.1801" y1="4.48508" x2="18.3741" y2="19.4909" gradientUnits="userSpaceOnUse">
<stop stop-color="#1EA1CE"/>
<stop offset="1" stop-color="#2480AF"/>
</linearGradient>
</defs>
</svg>
