<svg width="70" height="73" viewBox="0 0 70 73" fill="none" xmlns="http://www.w3.org/2000/svg">
<circle cx="35" cy="35" r="32.55" fill="url(#paint0_radial_411_34648)" stroke="#07849E" stroke-width="4.9"/>
<path d="M35.4644 11.0859C41.3694 11.0859 46.3697 12.5956 50.02 15.6553C53.6768 18.7204 55.9255 23.297 56.4038 29.3203L56.4536 30.0938C56.6439 33.9968 55.945 38.4303 53.231 42.0439C50.3252 45.9126 45.1769 48.7522 36.6011 49.0674C29.4884 50.0194 22.7864 48.9428 18.5493 45.9014C16.4185 44.3718 14.9064 42.339 14.3042 39.8252C13.709 37.3402 14.0157 34.4349 15.4146 31.1475C15.2065 24.9478 17.2222 19.9302 20.8042 16.459C24.4023 12.9722 29.5372 11.0859 35.4644 11.0859Z" fill="#EEDAC2" fill-opacity="0.86" stroke="#2F2F2F" stroke-width="0.946382"/>
<path d="M53.0694 42.1294C55.2565 40.6017 56 32 56 29.9999C55.069 26.6339 51.5849 35.4961 50.7692 35.5757C50.5348 35.5757 49.7537 36.0212 48.504 37.8035C46.9417 40.0314 44.8327 38.5992 43.2705 39.3153C42.0207 39.8882 40.5106 39.7132 39.9117 39.554C39.9117 39.2888 39.8024 38.5196 39.365 37.5648C38.8182 36.3713 36.0843 35.8144 35.3032 35.5757C34.5221 35.337 32.8818 36.8487 32.4131 36.2122C31.9444 35.5757 29.9135 35.8939 28.3513 36.2122C26.7891 36.5305 26.7891 39.0766 26.4766 38.9971C26.1642 38.9175 23.803 37.0079 21.8502 36.2122C19.8975 35.4165 15.2666 36.1367 15.0322 37.012C14.7979 37.8872 15.75 41.7639 17.1853 44.3226C17.8102 45.4365 21.8502 46.8813 25.0798 48.3434H27.5917L31.9132 48.5585C35.7262 48.3099 37.5142 48.5144 41.4546 48.0296C45.0245 47.5903 50.8823 43.6571 53.0694 42.1294Z" fill="#ADADAD" fill-opacity="0.68"/>
<path d="M34.7753 45.6148L41.2585 46.8083C48.6991 46.8083 38.5619 48.5131 38.1841 48.5559C36.7781 48.715 35.8195 48.3373 32.7444 48.5559C29.3856 48.7946 27.8417 49.0367 24.5427 48.2376C21.5745 47.5186 20.0383 46.8083 19.2312 46.0922C19.8821 45.4556 21.2465 44.1666 21.4964 44.103C21.8089 44.0234 23.8397 45.6148 24.0741 45.7739C24.3084 45.933 28.9951 46.8083 29.3856 46.8083C29.6981 46.8083 33.1089 46.0126 34.7753 45.6148Z" fill="#090909" style="mix-blend-mode:difference"/>
<path d="M34.5305 36.4496C35.3897 35.7865 37.3412 35.3537 39.3734 36.4496C40.7013 37.1657 40.9096 38.2796 41.0918 39.3936C41.2168 40.1574 40.7013 40.6667 40.7013 40.6667" stroke="#2F2F2F" stroke-width="0.625881" stroke-linecap="round"/>
<path d="M32.7625 36.5817C31.8512 36.2369 29.7005 35.436 28.7007 35.9452C27.4509 36.5817 26.4355 38.2527 26.6698 39.4462C26.8573 40.401 27.0083 40.8519 27.0604 40.9579" stroke="#2F2F2F" stroke-width="0.625881" stroke-linecap="round"/>
<path d="M19.3062 25.5645H30.4595C31.1498 25.5645 31.7095 26.1241 31.7095 26.8145V33.9541C31.7093 34.6444 31.1497 35.2041 30.4595 35.2041H19.3062C18.6159 35.2041 18.0563 34.6444 18.0562 33.9541V26.8145C18.0562 26.1241 18.6158 25.5645 19.3062 25.5645Z" fill="#F3F3F3" fill-opacity="0.61" stroke="#3D3332" stroke-width="1.5"/>
<path d="M38.3652 25.7236H49.5186C50.2089 25.7236 50.7686 26.2833 50.7686 26.9736V34.1133C50.7684 34.8035 50.2088 35.3633 49.5186 35.3633H38.3652C37.675 35.3633 37.1154 34.8035 37.1152 34.1133V26.9736C37.1152 26.2833 37.6749 25.7236 38.3652 25.7236Z" fill="#F3F3F3" fill-opacity="0.61" stroke="#3D3332" stroke-width="1.5"/>
<rect x="32.1472" y="27.0422" width="4.53044" height="1.59135" fill="#3D3332"/>
<rect width="5.11742" height="2.87074" rx="1.25176" transform="matrix(0.0137226 0.999906 -0.999899 0.014239 42.8276 27.3235)" fill="#242424" fill-opacity="0.75"/>
<rect width="5.11742" height="2.87073" rx="1.25176" transform="matrix(0.0110385 0.999939 -0.999934 0.0114539 28.8499 27.3235)" fill="#242424" fill-opacity="0.75"/>
<path d="M23.7849 20.6741C23.774 20.2051 24.1453 19.8158 24.6143 19.8045L28.2217 19.7175C28.6931 19.7061 29.0841 20.079 29.095 20.5504V20.5504C29.1077 21.0937 28.6161 21.5108 28.0822 21.4098L26.6636 21.1415C26.4863 21.108 26.3038 21.1132 26.1286 21.1568L24.8385 21.4779C24.3107 21.6093 23.7975 21.2178 23.7849 20.6741V20.6741Z" fill="#4C4C4C"/>
<path d="M37.1138 23.0431C37.0299 22.5869 37.3313 22.1466 37.787 22.0597L41.3467 21.3808C41.8084 21.2927 42.2516 21.5961 42.3366 22.0584V22.0584C42.4348 22.5928 42.0146 23.0844 41.4723 23.0697L39.9574 23.0286C39.7677 23.0235 39.5789 23.0618 39.4056 23.1405L38.2812 23.6514C37.785 23.8768 37.2121 23.5783 37.1138 23.0431V23.0431Z" fill="#4C4C4C"/>
<path d="M29.9731 39.0194C32.4692 40.0364 34.466 41.562 37.9604 38.605" stroke="#2F2F2F" stroke-linecap="round"/>
<path d="M36.4626 24.2725C35.797 23.9335 34.6654 22.9504 35.4642 21.73" stroke="#4C4C4C" stroke-linecap="round"/>
<mask id="path-16-inside-1_411_34648" fill="white">
<path d="M0.15239 34.9966C0.152138 39.5399 1.04677 44.0388 2.78519 48.2364C4.52362 52.434 7.07181 56.2481 10.2843 59.4609C13.4967 62.6737 17.3105 65.2223 21.5079 66.9612C25.7053 68.7001 30.2041 69.5952 34.7475 69.5955C39.2908 69.5957 43.7897 68.7011 47.9873 66.9627C52.1849 65.2243 55.999 62.6761 59.2118 59.4636C62.4246 56.2512 64.9732 52.4374 66.7121 48.24C68.451 44.0426 69.3462 39.5437 69.3464 35.0004L34.7494 34.9985L0.15239 34.9966Z"/>
</mask>
<path d="M0.15239 34.9966C0.152138 39.5399 1.04677 44.0388 2.78519 48.2364C4.52362 52.434 7.07181 56.2481 10.2843 59.4609C13.4967 62.6737 17.3105 65.2223 21.5079 66.9612C25.7053 68.7001 30.2041 69.5952 34.7475 69.5955C39.2908 69.5957 43.7897 68.7011 47.9873 66.9627C52.1849 65.2243 55.999 62.6761 59.2118 59.4636C62.4246 56.2512 64.9732 52.4374 66.7121 48.24C68.451 44.0426 69.3462 39.5437 69.3464 35.0004L34.7494 34.9985L0.15239 34.9966Z" fill="#07849E" stroke="#07849E" stroke-width="5.6" mask="url(#path-16-inside-1_411_34648)"/>
<path d="M23.8398 43.3999L22.3583 38.309H23.718L24.4861 41.6449H24.5284L25.4059 38.309H26.5145L27.392 41.6524H27.4343L28.2049 38.309H29.5621L28.0831 43.3999H26.8973L25.9801 40.3125H25.9403L25.023 43.3999H23.8398ZM31.4289 43.472C31.0279 43.472 30.6832 43.39 30.3949 43.2259C30.1082 43.0602 29.8869 42.8298 29.7311 42.5348C29.577 42.2382 29.5 41.8943 29.5 41.5032C29.5 41.1105 29.577 40.7666 29.7311 40.4716C29.8869 40.175 30.1082 39.9446 30.3949 39.7806C30.6832 39.6149 31.0279 39.532 31.4289 39.532C31.83 39.532 32.1739 39.6149 32.4605 39.7806C32.7489 39.9446 32.9701 40.175 33.1243 40.4716C33.28 40.7666 33.3579 41.1105 33.3579 41.5032C33.3579 41.8943 33.28 42.2382 33.1243 42.5348C32.9701 42.8298 32.7489 43.0602 32.4605 43.2259C32.1739 43.39 31.83 43.472 31.4289 43.472ZM31.4364 42.5547C31.5822 42.5547 31.7057 42.51 31.8068 42.4205C31.9079 42.331 31.9849 42.2067 32.038 42.0476C32.0926 41.8885 32.12 41.7046 32.12 41.4958C32.12 41.2837 32.0926 41.0981 32.038 40.939C31.9849 40.7799 31.9079 40.6556 31.8068 40.5661C31.7057 40.4766 31.5822 40.4319 31.4364 40.4319C31.2856 40.4319 31.158 40.4766 31.0536 40.5661C30.9508 40.6556 30.8721 40.7799 30.8174 40.939C30.7644 41.0981 30.7379 41.2837 30.7379 41.4958C30.7379 41.7046 30.7644 41.8885 30.8174 42.0476C30.8721 42.2067 30.9508 42.331 31.0536 42.4205C31.158 42.51 31.2856 42.5547 31.4364 42.5547ZM35.7629 43.472C35.3619 43.472 35.0172 43.39 34.7288 43.2259C34.4421 43.0602 34.2209 42.8298 34.0651 42.5348C33.911 42.2382 33.8339 41.8943 33.8339 41.5032C33.8339 41.1105 33.911 40.7666 34.0651 40.4716C34.2209 40.175 34.4421 39.9446 34.7288 39.7806C35.0172 39.6149 35.3619 39.532 35.7629 39.532C36.164 39.532 36.5078 39.6149 36.7945 39.7806C37.0829 39.9446 37.3041 40.175 37.4582 40.4716C37.614 40.7666 37.6919 41.1105 37.6919 41.5032C37.6919 41.8943 37.614 42.2382 37.4582 42.5348C37.3041 42.8298 37.0829 43.0602 36.7945 43.2259C36.5078 43.39 36.164 43.472 35.7629 43.472ZM35.7704 42.5547C35.9162 42.5547 36.0397 42.51 36.1408 42.4205C36.2419 42.331 36.3189 42.2067 36.3719 42.0476C36.4266 41.8885 36.454 41.7046 36.454 41.4958C36.454 41.2837 36.4266 41.0981 36.3719 40.939C36.3189 40.7799 36.2419 40.6556 36.1408 40.5661C36.0397 40.4766 35.9162 40.4319 35.7704 40.4319C35.6196 40.4319 35.492 40.4766 35.3876 40.5661C35.2848 40.6556 35.2061 40.7799 35.1514 40.939C35.0984 41.0981 35.0719 41.2837 35.0719 41.4958C35.0719 41.7046 35.0984 41.8885 35.1514 42.0476C35.2061 42.2067 35.2848 42.331 35.3876 42.4205C35.492 42.51 35.6196 42.5547 35.7704 42.5547ZM39.5301 41.2223V43.3999H38.3146V38.309H39.4904V40.2827H39.5326C39.6188 40.0474 39.7597 39.8634 39.9552 39.7309C40.1524 39.5983 40.3935 39.532 40.6786 39.532C40.9471 39.532 41.1807 39.5917 41.3796 39.711C41.5784 39.8286 41.7326 39.9952 41.8419 40.2106C41.953 40.4261 42.0077 40.678 42.006 40.9663V43.3999H40.7904V41.2049C40.7921 40.9928 40.7391 40.8271 40.6314 40.7078C40.5236 40.5885 40.372 40.5288 40.1765 40.5288C40.0489 40.5288 39.9362 40.557 39.8384 40.6133C39.7423 40.668 39.6669 40.7467 39.6122 40.8495C39.5591 40.9522 39.5318 41.0765 39.5301 41.2223ZM45.698 38.309L45.5837 41.8413H44.562L44.4477 38.309H45.698ZM45.0716 43.472C44.8943 43.472 44.7418 43.409 44.6142 43.2831C44.4883 43.1571 44.4253 43.0047 44.4253 42.8257C44.4253 42.65 44.4883 42.5 44.6142 42.3758C44.7418 42.2498 44.8943 42.1868 45.0716 42.1868C45.2423 42.1868 45.3923 42.2498 45.5215 42.3758C45.6525 42.5 45.7179 42.65 45.7179 42.8257C45.7179 42.945 45.6873 43.0535 45.6259 43.1513C45.5663 43.2491 45.4876 43.327 45.3898 43.385C45.2937 43.443 45.1876 43.472 45.0716 43.472ZM13.5175 51.3999L12.036 46.309H13.3957L14.1638 49.6449H14.2061L15.0836 46.309H16.1923L17.0697 49.6524H17.112L17.8826 46.309H19.2398L17.7608 51.3999H16.5751L15.6578 48.3125H15.618L14.7008 51.3999H13.5175ZM20.9637 49.2223V51.3999H19.7482V46.309H20.924V48.2827H20.9662C21.0524 48.0474 21.1933 47.8634 21.3888 47.7309C21.586 47.5983 21.8271 47.532 22.1122 47.532C22.3806 47.532 22.6143 47.5917 22.8132 47.711C23.012 47.8286 23.1662 47.9952 23.2755 48.2106C23.3866 48.4261 23.4413 48.678 23.4396 48.9663V51.3999H22.224V49.2049C22.2257 48.9928 22.1727 48.8271 22.0649 48.7078C21.9572 48.5885 21.8056 48.5288 21.61 48.5288C21.4824 48.5288 21.3698 48.557 21.272 48.6133C21.1759 48.668 21.1005 48.7467 21.0458 48.8495C20.9927 48.9522 20.9654 49.0765 20.9637 49.2223ZM25.9807 51.472C25.5797 51.472 25.235 51.39 24.9466 51.2259C24.6599 51.0602 24.4387 50.8298 24.2829 50.5348C24.1288 50.2382 24.0517 49.8943 24.0517 49.5032C24.0517 49.1105 24.1288 48.7666 24.2829 48.4716C24.4387 48.175 24.6599 47.9446 24.9466 47.7806C25.235 47.6149 25.5797 47.532 25.9807 47.532C26.3817 47.532 26.7256 47.6149 27.0123 47.7806C27.3007 47.9446 27.5219 48.175 27.676 48.4716C27.8318 48.7666 27.9097 49.1105 27.9097 49.5032C27.9097 49.8943 27.8318 50.2382 27.676 50.5348C27.5219 50.8298 27.3007 51.0602 27.0123 51.2259C26.7256 51.39 26.3817 51.472 25.9807 51.472ZM25.9882 50.5547C26.134 50.5547 26.2575 50.51 26.3585 50.4205C26.4596 50.331 26.5367 50.2067 26.5897 50.0476C26.6444 49.8885 26.6718 49.7046 26.6718 49.4958C26.6718 49.2837 26.6444 49.0981 26.5897 48.939C26.5367 48.7799 26.4596 48.6556 26.3585 48.5661C26.2575 48.4766 26.134 48.4319 25.9882 48.4319C25.8374 48.4319 25.7097 48.4766 25.6053 48.5661C25.5026 48.6556 25.4239 48.7799 25.3692 48.939C25.3162 49.0981 25.2896 49.2837 25.2896 49.4958C25.2896 49.7046 25.3162 49.8885 25.3692 50.0476C25.4239 50.2067 25.5026 50.331 25.6053 50.4205C25.7097 50.51 25.8374 50.5547 25.9882 50.5547ZM31.1126 51.4645C30.869 51.4645 30.6528 51.4239 30.4638 51.3427C30.2766 51.2599 30.1282 51.1356 30.0189 50.9699C29.9112 50.8025 29.8573 50.5928 29.8573 50.341C29.8573 50.1288 29.8946 49.9499 29.9692 49.804C30.0437 49.6582 30.1465 49.5397 30.2774 49.4486C30.4083 49.3574 30.5591 49.2886 30.7298 49.2422C30.9005 49.1942 31.0828 49.1619 31.2767 49.1453C31.4938 49.1254 31.6686 49.1047 31.8012 49.0831C31.9338 49.0599 32.0299 49.0276 32.0895 48.9862C32.1509 48.9431 32.1815 48.8826 32.1815 48.8047V48.7923C32.1815 48.6647 32.1376 48.5661 32.0498 48.4965C31.9619 48.4269 31.8434 48.3921 31.6943 48.3921C31.5336 48.3921 31.4043 48.4269 31.3065 48.4965C31.2087 48.5661 31.1466 48.6622 31.1201 48.7848L29.999 48.7451C30.0321 48.5131 30.1175 48.3059 30.255 48.1236C30.3942 47.9397 30.5848 47.7955 30.8268 47.6911C31.0704 47.585 31.3629 47.532 31.7042 47.532C31.9479 47.532 32.1724 47.561 32.3779 47.619C32.5834 47.6754 32.7624 47.7582 32.9148 47.8676C33.0673 47.9753 33.1849 48.1079 33.2678 48.2653C33.3523 48.4227 33.3946 48.6026 33.3946 48.8047V51.3999H32.2511V50.8679H32.2213C32.1533 50.9972 32.0663 51.1066 31.9603 51.1961C31.8559 51.2856 31.7324 51.3527 31.5899 51.3974C31.449 51.4422 31.2899 51.4645 31.1126 51.4645ZM31.488 50.6691C31.6189 50.6691 31.7366 50.6426 31.841 50.5895C31.947 50.5365 32.0315 50.4636 32.0945 50.3708C32.1575 50.2763 32.189 50.1669 32.189 50.0427V49.6797C32.1542 49.698 32.1119 49.7145 32.0622 49.7294C32.0141 49.7444 31.9611 49.7584 31.9031 49.7717C31.8451 49.785 31.7854 49.7966 31.7241 49.8065C31.6628 49.8165 31.604 49.8256 31.5476 49.8339C31.4333 49.8521 31.3355 49.8803 31.2543 49.9184C31.1748 49.9565 31.1135 50.0062 31.0704 50.0675C31.0289 50.1272 31.0082 50.1984 31.0082 50.2813C31.0082 50.4072 31.053 50.5034 31.1425 50.5696C31.2336 50.6359 31.3488 50.6691 31.488 50.6691ZM34.1378 51.3999V47.5817H35.3186V48.2777H35.3584C35.428 48.0258 35.5415 47.8386 35.6989 47.716C35.8564 47.5917 36.0395 47.5295 36.2483 47.5295C36.3046 47.5295 36.3626 47.5337 36.4223 47.5419C36.4819 47.5486 36.5375 47.5593 36.5888 47.5743V48.6307C36.5308 48.6108 36.4546 48.5951 36.3601 48.5835C36.2673 48.5719 36.1845 48.5661 36.1116 48.5661C35.9674 48.5661 35.8373 48.5984 35.7213 48.663C35.6069 48.726 35.5166 48.8147 35.4503 48.929C35.3857 49.0417 35.3534 49.1743 35.3534 49.3267V51.3999H34.1378ZM40.7432 47.5817V48.4766H38.3345V47.5817H40.7432ZM38.8391 46.6669H40.0547V50.1993C40.0547 50.2738 40.0663 50.3343 40.0895 50.3807C40.1143 50.4255 40.1499 50.4578 40.1963 50.4777C40.2427 50.4959 40.2983 50.505 40.3629 50.505C40.4093 50.505 40.4582 50.5009 40.5096 50.4926C40.5626 50.4826 40.6024 50.4744 40.6289 50.4677L40.8128 51.3452C40.7548 51.3618 40.6728 51.3825 40.5667 51.4074C40.4623 51.4322 40.3372 51.448 40.1914 51.4546C39.9063 51.4678 39.6619 51.4347 39.4581 51.3552C39.2559 51.274 39.1009 51.148 38.9932 50.9773C38.8872 50.8066 38.8358 50.592 38.8391 50.3335V46.6669ZM42.661 49.2223V51.3999H41.4455V46.309H42.6212V48.2827H42.6635C42.7497 48.0474 42.8905 47.8634 43.0861 47.7309C43.2833 47.5983 43.5244 47.532 43.8094 47.532C44.0779 47.532 44.3116 47.5917 44.5104 47.711C44.7093 47.8286 44.8634 47.9952 44.9728 48.2106C45.0838 48.4261 45.1385 48.678 45.1369 48.9663V51.3999H43.9213V49.2049C43.923 48.9928 43.8699 48.8271 43.7622 48.7078C43.6545 48.5885 43.5029 48.5288 43.3073 48.5288C43.1797 48.5288 43.067 48.557 42.9692 48.6133C42.8731 48.668 42.7977 48.7467 42.743 48.8495C42.69 48.9522 42.6627 49.0765 42.661 49.2223ZM47.678 51.472C47.2769 51.472 46.9322 51.39 46.6439 51.2259C46.3572 51.0602 46.1359 50.8298 45.9802 50.5348C45.826 50.2382 45.749 49.8943 45.749 49.5032C45.749 49.1105 45.826 48.7666 45.9802 48.4716C46.1359 48.175 46.3572 47.9446 46.6439 47.7806C46.9322 47.6149 47.2769 47.532 47.678 47.532C48.079 47.532 48.4229 47.6149 48.7096 47.7806C48.9979 47.9446 49.2192 48.175 49.3733 48.4716C49.5291 48.7666 49.6069 49.1105 49.6069 49.5032C49.6069 49.8943 49.5291 50.2382 49.3733 50.5348C49.2192 50.8298 48.9979 51.0602 48.7096 51.2259C48.4229 51.39 48.079 51.472 47.678 51.472ZM47.6854 50.5547C47.8313 50.5547 47.9547 50.51 48.0558 50.4205C48.1569 50.331 48.234 50.2067 48.287 50.0476C48.3417 49.8885 48.369 49.7046 48.369 49.4958C48.369 49.2837 48.3417 49.0981 48.287 48.939C48.234 48.7799 48.1569 48.6556 48.0558 48.5661C47.9547 48.4766 47.8313 48.4319 47.6854 48.4319C47.5346 48.4319 47.407 48.4766 47.3026 48.5661C47.1999 48.6556 47.1211 48.7799 47.0665 48.939C47.0134 49.0981 46.9869 49.2837 46.9869 49.4958C46.9869 49.7046 47.0134 49.8885 47.0665 50.0476C47.1211 50.2067 47.1999 50.331 47.3026 50.4205C47.407 50.51 47.5346 50.5547 47.6854 50.5547ZM53.5631 48.7476L52.447 48.7774C52.4354 48.6978 52.4039 48.6274 52.3525 48.5661C52.3011 48.5031 52.234 48.4542 52.1512 48.4194C52.07 48.383 51.9755 48.3647 51.8678 48.3647C51.7269 48.3647 51.6068 48.3929 51.5073 48.4493C51.4096 48.5056 51.3615 48.5818 51.3632 48.678C51.3615 48.7525 51.3913 48.8172 51.4526 48.8718C51.5156 48.9265 51.6275 48.9705 51.7882 49.0036L52.524 49.1428C52.9052 49.2157 53.1886 49.3367 53.3742 49.5057C53.5614 49.6748 53.6559 49.8985 53.6575 50.1769C53.6559 50.4387 53.578 50.6666 53.4239 50.8605C53.2714 51.0544 53.0626 51.2052 52.7975 51.3129C52.5323 51.419 52.229 51.472 51.8877 51.472C51.3424 51.472 50.9124 51.3601 50.5975 51.1364C50.2843 50.911 50.1053 50.6094 50.0606 50.2316L51.2612 50.2017C51.2878 50.341 51.3565 50.447 51.4676 50.5199C51.5786 50.5928 51.7203 50.6293 51.8926 50.6293C52.0484 50.6293 52.1752 50.6003 52.273 50.5423C52.3707 50.4843 52.4205 50.4072 52.4221 50.3111C52.4205 50.2249 52.3823 50.1562 52.3078 50.1048C52.2332 50.0518 52.1164 50.0103 51.9573 49.9805L51.2911 49.8537C50.9083 49.7841 50.6232 49.6557 50.436 49.4684C50.2487 49.2795 50.1559 49.0392 50.1575 48.7476C50.1559 48.4924 50.2238 48.2744 50.3614 48.0938C50.4989 47.9115 50.6945 47.7723 50.948 47.6762C51.2016 47.5801 51.5007 47.532 51.8454 47.532C52.3624 47.532 52.7701 47.6406 53.0684 47.8576C53.3667 48.0731 53.5316 48.3697 53.5631 48.7476ZM56.0408 51.472C55.6414 51.472 55.2967 51.3933 55.0067 51.2358C54.7184 51.0767 54.4963 50.8505 54.3405 50.5572C54.1864 50.2622 54.1093 49.9117 54.1093 49.5057C54.1093 49.1113 54.1872 48.7666 54.343 48.4716C54.4988 48.175 54.7184 47.9446 55.0017 47.7806C55.2851 47.6149 55.619 47.532 56.0035 47.532C56.2753 47.532 56.5239 47.5743 56.7493 47.6588C56.9746 47.7433 57.1694 47.8684 57.3334 48.0341C57.4975 48.1999 57.6251 48.4045 57.7162 48.6481C57.8074 48.8901 57.8529 49.1677 57.8529 49.4809V49.7841H54.5344V49.0782H56.7219C56.7203 48.9489 56.6896 48.8337 56.6299 48.7326C56.5703 48.6316 56.4882 48.5528 56.3838 48.4965C56.2811 48.4385 56.1626 48.4095 56.0284 48.4095C55.8925 48.4095 55.7707 48.4401 55.663 48.5015C55.5552 48.5611 55.4699 48.6432 55.4069 48.7476C55.344 48.8503 55.3108 48.9671 55.3075 49.0981V49.8165C55.3075 49.9722 55.3382 50.1089 55.3995 50.2266C55.4608 50.3426 55.5478 50.4329 55.6605 50.4976C55.7732 50.5622 55.9074 50.5945 56.0632 50.5945C56.1709 50.5945 56.2687 50.5796 56.3565 50.5498C56.4443 50.5199 56.5197 50.476 56.5827 50.418C56.6457 50.36 56.6929 50.2888 56.7244 50.2042L57.8405 50.2366C57.7941 50.4868 57.6922 50.7047 57.5348 50.8903C57.379 51.0743 57.1743 51.2176 56.9208 51.3204C56.6672 51.4214 56.3739 51.472 56.0408 51.472ZM26.0543 56.1535H24.8114C24.7949 56.0258 24.7609 55.9107 24.7095 55.8079C24.6582 55.7052 24.5902 55.6174 24.5057 55.5444C24.4212 55.4715 24.3209 55.416 24.2049 55.3779C24.0906 55.3381 23.9638 55.3182 23.8246 55.3182C23.5777 55.3182 23.3647 55.3787 23.1857 55.4997C23.0084 55.6207 22.8717 55.7955 22.7756 56.0242C22.6811 56.2529 22.6339 56.5296 22.6339 56.8544C22.6339 57.1925 22.6819 57.4759 22.7781 57.7046C22.8758 57.9316 23.0126 58.1031 23.1882 58.2191C23.3655 58.3335 23.5752 58.3907 23.8171 58.3907C23.953 58.3907 24.0765 58.3733 24.1875 58.3385C24.3002 58.3037 24.3988 58.2531 24.4833 58.1868C24.5695 58.1189 24.6399 58.0369 24.6946 57.9407C24.751 57.843 24.7899 57.7328 24.8114 57.6101L26.0543 57.6176C26.0328 57.843 25.9673 58.065 25.858 58.2838C25.7502 58.5025 25.6019 58.7022 25.413 58.8829C25.2241 59.0618 24.9937 59.2044 24.722 59.3104C24.4518 59.4165 24.1419 59.4695 23.7923 59.4695C23.3316 59.4695 22.9189 59.3684 22.5543 59.1662C22.1914 58.9624 21.9047 58.6658 21.6943 58.2763C21.4838 57.8869 21.3786 57.4129 21.3786 56.8544C21.3786 56.2943 21.4854 55.8195 21.6992 55.4301C21.913 55.0406 22.2022 54.7448 22.5668 54.5427C22.9314 54.3405 23.3399 54.2394 23.7923 54.2394C24.1005 54.2394 24.3855 54.2825 24.6474 54.3687C24.9092 54.4532 25.1396 54.5775 25.3384 54.7415C25.5373 54.9039 25.6989 55.1036 25.8232 55.3406C25.9475 55.5776 26.0245 55.8485 26.0543 56.1535ZM26.7584 59.3999V54.309H27.9889V56.3523H29.9949V54.309H31.2229V59.3999H29.9949V57.3541H27.9889V59.3999H26.7584ZM33.2252 54.309V59.3999H31.9948V54.309H33.2252ZM33.9977 59.3999V54.309H36.1206C36.5017 54.309 36.8207 54.3629 37.0776 54.4706C37.3361 54.5783 37.53 54.7291 37.6593 54.923C37.7902 55.1169 37.8557 55.3414 37.8557 55.5966C37.8557 55.7905 37.8151 55.9637 37.7339 56.1162C37.6526 56.267 37.5408 56.3921 37.3983 56.4915C37.2557 56.591 37.0909 56.6606 36.9036 56.7003V56.75C37.1091 56.76 37.2988 56.8155 37.4728 56.9166C37.6485 57.0177 37.7894 57.1585 37.8954 57.3392C38.0015 57.5182 38.0545 57.7303 38.0545 57.9755C38.0545 58.249 37.9849 58.4934 37.8457 58.7089C37.7065 58.9226 37.5052 59.0917 37.2417 59.216C36.9782 59.3386 36.6583 59.3999 36.2821 59.3999H33.9977ZM35.2282 58.4081H35.9888C36.2556 58.4081 36.452 58.3575 36.578 58.2564C36.7056 58.1553 36.7694 58.0145 36.7694 57.8339C36.7694 57.7029 36.7387 57.5902 36.6774 57.4958C36.6161 57.3997 36.5291 57.3259 36.4164 57.2745C36.3037 57.2215 36.1686 57.195 36.0112 57.195H35.2282V58.4081ZM35.2282 56.402H35.9093C36.0435 56.402 36.1628 56.3797 36.2672 56.3349C36.3716 56.2902 36.4528 56.2255 36.5108 56.141C36.5705 56.0565 36.6003 55.9546 36.6003 55.8353C36.6003 55.6646 36.5398 55.5303 36.4189 55.4326C36.2979 55.3348 36.1347 55.2859 35.9292 55.2859H35.2282V56.402ZM39.8766 54.309V59.3999H38.6461V54.309H39.8766ZM43.4008 55.8353C43.3843 55.653 43.3105 55.5113 43.1796 55.4102C43.0503 55.3075 42.8656 55.2561 42.6253 55.2561C42.4662 55.2561 42.3336 55.2768 42.2275 55.3182C42.1215 55.3597 42.0419 55.4168 41.9889 55.4897C41.9359 55.561 41.9085 55.643 41.9069 55.7358C41.9036 55.8121 41.9185 55.8792 41.9516 55.9372C41.9864 55.9952 42.0361 56.0466 42.1008 56.0913C42.1671 56.1344 42.2466 56.1725 42.3394 56.2057C42.4322 56.2388 42.5366 56.2678 42.6526 56.2927L43.0901 56.3921C43.342 56.4468 43.5641 56.5197 43.7563 56.6108C43.9502 56.702 44.1126 56.8105 44.2435 56.9365C44.3761 57.0624 44.4764 57.2074 44.5443 57.3715C44.6123 57.5356 44.6471 57.7195 44.6487 57.9233C44.6471 58.2448 44.5659 58.5208 44.4051 58.7511C44.2444 58.9815 44.0132 59.158 43.7116 59.2806C43.4116 59.4032 43.0495 59.4645 42.6253 59.4645C42.1994 59.4645 41.8282 59.4007 41.5116 59.2731C41.1951 59.1455 40.949 58.9516 40.7734 58.6915C40.5977 58.4313 40.5074 58.1023 40.5024 57.7046H41.6807C41.6906 57.8687 41.7345 58.0054 41.8124 58.1147C41.8903 58.2241 41.9972 58.307 42.1331 58.3633C42.2706 58.4197 42.4297 58.4478 42.6104 58.4478C42.7761 58.4478 42.9169 58.4255 43.0329 58.3807C43.1506 58.336 43.2409 58.2738 43.3039 58.1943C43.3669 58.1147 43.3992 58.0236 43.4008 57.9209C43.3992 57.8247 43.3694 57.7427 43.3114 57.6748C43.2534 57.6052 43.1639 57.5455 43.0429 57.4958C42.9236 57.4444 42.7711 57.3972 42.5855 57.3541L42.0535 57.2298C41.6127 57.1287 41.2655 56.9655 41.012 56.7401C40.7584 56.5131 40.6325 56.2065 40.6342 55.8204C40.6325 55.5055 40.717 55.2296 40.8877 54.9926C41.0584 54.7556 41.2945 54.5708 41.5962 54.4383C41.8978 54.3057 42.2416 54.2394 42.6278 54.2394C43.0222 54.2394 43.3644 54.3065 43.6544 54.4407C43.9461 54.5733 44.1723 54.7598 44.333 55C44.4938 55.2403 44.5758 55.5187 44.5791 55.8353H43.4008ZM46.2272 57.8413V57.7394C46.2272 57.4577 46.2504 57.2331 46.2968 57.0657C46.3449 56.8984 46.4145 56.7641 46.5056 56.663C46.5967 56.5603 46.7078 56.4667 46.8387 56.3821C46.9431 56.3159 47.0359 56.2487 47.1171 56.1808C47.2 56.1112 47.2654 56.0366 47.3135 55.9571C47.3615 55.8775 47.3856 55.7872 47.3856 55.6861C47.3856 55.5883 47.3624 55.5022 47.316 55.4276C47.2696 55.353 47.2058 55.2959 47.1246 55.2561C47.045 55.2147 46.9564 55.1939 46.8586 55.1939C46.7608 55.1939 46.6688 55.2163 46.5827 55.2611C46.4981 55.3058 46.4285 55.3696 46.3739 55.4525C46.3208 55.5337 46.2935 55.6323 46.2918 55.7483H45.1484C45.1533 55.4003 45.2337 55.1152 45.3895 54.8932C45.5469 54.6711 45.7549 54.507 46.0134 54.401C46.2719 54.2932 46.557 54.2394 46.8685 54.2394C47.2099 54.2394 47.5132 54.2924 47.7783 54.3985C48.0451 54.5045 48.2548 54.6611 48.4072 54.8683C48.5597 55.0754 48.6359 55.329 48.6359 55.629C48.6359 55.8262 48.6028 56.0002 48.5365 56.151C48.4702 56.3018 48.3774 56.4352 48.2581 56.5512C48.1404 56.6655 48.0021 56.7699 47.843 56.8644C47.7187 56.9373 47.6151 57.0135 47.5322 57.0931C47.451 57.1726 47.3897 57.2638 47.3483 57.3665C47.3069 57.4676 47.2861 57.5919 47.2861 57.7394V57.8413H46.2272ZM46.7766 59.472C46.5976 59.472 46.4443 59.409 46.3167 59.2831C46.1907 59.1571 46.1286 59.0047 46.1302 58.8257C46.1286 58.65 46.1907 58.5 46.3167 58.3758C46.4443 58.2498 46.5976 58.1868 46.7766 58.1868C46.9472 58.1868 47.0972 58.2498 47.2265 58.3758C47.3557 58.5 47.4212 58.65 47.4229 58.8257C47.4212 58.945 47.3897 59.0535 47.3284 59.1513C47.2687 59.2491 47.19 59.327 47.0923 59.385C46.9961 59.443 46.8909 59.472 46.7766 59.472Z" fill="white"/>
<defs>
<radialGradient id="paint0_radial_411_34648" cx="0" cy="0" r="1" gradientUnits="userSpaceOnUse" gradientTransform="translate(35 35) rotate(84.1765) scale(44.8 35.1816)">
<stop offset="0.5" stop-color="#76CFFF"/>
<stop offset="1" stop-color="#0A2939"/>
</radialGradient>
</defs>
</svg>
