<svg width="649" height="461" viewBox="0 0 649 461" fill="none" xmlns="http://www.w3.org/2000/svg">
<path d="M76.8 352.337C160.561 356.604 146.863 373.221 200.084 352.337C253.305 331.453 257.42 251.214 337.516 247.242C417.82 243.26 529.508 219.01 481.282 179.644C480.406 178.929 480.614 177.436 481.709 177.155L604.968 145.516L640 137.432" stroke="url(#paint0_radial_368_23081)" stroke-opacity="0.86" stroke-width="17.5158" stroke-linecap="round"/>
<path d="M76.8 352.337C160.561 356.604 146.863 373.221 200.084 352.337C253.305 331.453 257.42 251.214 337.516 247.242C417.82 243.26 529.508 219.01 481.282 179.644C480.406 178.929 480.614 177.436 481.709 177.155L604.968 145.516L640 137.432" stroke="#01DEE8" stroke-opacity="0.64" stroke-width="17.5158" stroke-linecap="round"/>
<g filter="url(#filter0_d_368_23081)">
<path d="M162.059 299.108C158.478 275.278 167.798 254.169 172.906 246.593C183.18 238.615 205.69 222.108 213.541 219.905C223.356 217.15 321.327 214.395 332.003 215.772C342.678 217.15 372.982 241.427 381.419 261.056C388.169 276.759 384.231 305.594 381.419 318.048C381.706 323.271 377.872 337.126 360.241 350.763C338.201 367.809 282.586 376.59 258.481 375.385C234.375 374.18 178.244 352.14 169.807 332.167C161.37 312.194 166.536 328.896 162.059 299.108Z" fill="#081825"/>
<path d="M162.059 299.108C158.478 275.278 167.798 254.169 172.906 246.593C183.18 238.615 205.69 222.108 213.541 219.905C223.356 217.15 321.327 214.395 332.003 215.772C342.678 217.15 372.982 241.427 381.419 261.056C388.169 276.759 384.231 305.594 381.419 318.048C381.706 323.271 377.872 337.126 360.241 350.763C338.201 367.809 282.586 376.59 258.481 375.385C234.375 374.18 178.244 352.14 169.807 332.167C161.37 312.194 166.536 328.896 162.059 299.108Z" stroke="#030F1B" stroke-width="2.75492"/>
</g>
<path d="M167.396 284.295C157.523 249.669 194.085 218.084 211.131 212.495C242.64 202.164 260.375 186.324 347.843 218.866C388.306 233.919 383.657 289.632 379.869 298.414C376.081 307.195 345.777 334.227 278.282 341.631C210.786 349.035 179.621 327.168 167.396 284.295Z" fill="#0E1F29" stroke="#0E1F29" stroke-width="0.344364"/>
<path d="M242.278 208.882C260.263 205.435 275.663 205.947 281.54 206.024L282.586 206.032C283.4 206.032 285.603 206.311 289.08 207.036C292.447 207.738 296.764 208.806 301.664 210.258C311.476 213.164 323.511 217.57 334.885 223.565C346.295 229.579 356.805 237.071 363.811 246.046C370.63 254.783 374.096 264.858 371.951 276.573L371.845 277.132C367.095 301.187 342.619 314.991 313.681 321.902C285.03 328.744 253.891 328.328 239.029 325.422L238.977 325.412L238.107 325.249C228.829 323.443 210.607 317.871 196.661 305.916C189.515 299.789 183.574 292.059 180.444 282.362C177.419 272.989 176.934 261.518 180.852 247.481L181.244 246.115C182.055 243.375 183.414 240.821 185.232 238.675L185.603 238.252C201.402 220.676 223.081 212.56 242.278 208.882Z" fill="#1A303E" stroke="url(#paint1_radial_368_23081)" stroke-width="7.23165"/>
<path d="M244.092 213.876C261.032 210.63 275.545 211.112 281.055 211.185L282.036 211.193C282.854 211.193 284.966 211.464 288.23 212.145C291.406 212.807 295.472 213.815 300.086 215.181C309.322 217.917 320.655 222.065 331.371 227.713C342.116 233.377 352.051 240.45 358.687 248.952C365.158 257.242 368.468 266.837 366.426 277.994L366.324 278.526C361.805 301.414 338.548 314.442 311.347 320.938C284.38 327.378 255.067 326.991 241.039 324.248L241.017 324.243L240.997 324.239L240.176 324.085C231.417 322.381 214.215 317.125 201.033 305.824C194.271 300.026 188.634 292.698 185.662 283.492C182.788 274.59 182.339 263.722 186.039 250.463L186.41 249.172C187.189 246.539 188.496 244.083 190.248 242.015L190.604 241.607C205.537 224.994 226.01 217.341 244.092 213.876Z" stroke="url(#paint2_radial_368_23081)" stroke-width="5.8542"/>
<path d="M372.81 315.294C378.226 315.294 375.565 322.353 375.048 327.002C369.366 331.823 365.062 338.366 350.943 349.73C336.824 361.094 256.759 368.498 239.196 366.776C221.634 365.054 187.37 345.253 178.588 338.366C169.807 331.479 171.185 311.161 171.185 316.843C171.185 322.525 212.853 345.77 226.972 349.73C241.09 353.69 291.889 349.437 310.996 345.77C328.042 342.499 365.578 315.294 372.81 315.294Z" fill="url(#paint3_linear_368_23081)"/>
<g filter="url(#filter1_d_368_23081)">
<path d="M293.247 294.366C291.623 295.285 289.864 295.865 287.971 296.109C286.09 296.307 284.24 295.962 282.421 295.072C280.585 294.155 278.91 292.488 277.394 290.073C276.657 288.836 275.917 287.561 275.176 286.251C272.292 281.15 269.723 276.208 267.471 271.427C265.307 266.934 263.008 262.537 260.575 258.234C260.091 257.379 259.629 256.794 259.188 256.479C258.747 256.165 258.256 256.16 257.714 256.466C257.458 256.611 257.111 256.996 256.673 257.619C255.889 258.627 255.269 259.259 254.813 259.517C253.958 260 252.767 259.922 251.239 259.282C249.695 258.613 248.15 257.643 246.605 256.374C245.088 255.088 243.935 253.747 243.145 252.35C242.017 250.355 242.002 248.766 243.1 247.581C244.197 246.396 245.268 245.264 246.313 244.184C247.357 243.105 248.393 242.011 249.422 240.903C250.74 239.443 252.104 238.032 253.516 236.67C254.927 235.308 256.387 234.2 257.898 233.346C259.579 232.396 261.337 231.947 263.172 232C265.008 232.053 266.971 232.898 269.063 234.536C272.336 237.198 275.69 240.868 279.124 245.545C282.587 250.206 285.809 255.172 288.79 260.444C291.336 264.947 293.57 269.363 295.491 273.692C297.412 278.021 298.816 281.834 299.703 285.131C300.009 286.537 299.541 288.137 298.299 289.93C297.04 291.695 295.356 293.174 293.247 294.366Z" fill="#4B616E"/>
</g>
<ellipse cx="274.863" cy="230.4" rx="274.863" ry="230.4" fill="url(#paint4_radial_368_23081)" style="mix-blend-mode:color-dodge"/>
<g filter="url(#filter2_d_368_23081)">
<path d="M497.716 170.662C496.599 163.236 499.504 156.657 501.096 154.296C504.298 151.809 511.314 146.665 513.76 145.978C516.819 145.119 547.353 144.261 550.68 144.69C554.007 145.119 563.451 152.686 566.081 158.803C568.184 163.697 566.957 172.684 566.081 176.565C566.17 178.193 564.975 182.511 559.48 186.761C552.612 192.073 535.279 194.81 527.766 194.435C520.254 194.059 502.76 187.19 500.13 180.965C497.501 174.741 499.111 179.946 497.716 170.662Z" fill="#081825"/>
<path d="M497.716 170.662C496.599 163.236 499.504 156.657 501.096 154.296C504.298 151.809 511.314 146.665 513.76 145.978C516.819 145.119 547.353 144.261 550.68 144.69C554.007 145.119 563.451 152.686 566.081 158.803C568.184 163.697 566.957 172.684 566.081 176.565C566.17 178.193 564.975 182.511 559.48 186.761C552.612 192.073 535.279 194.81 527.766 194.435C520.254 194.059 502.76 187.19 500.13 180.965C497.501 174.741 499.111 179.946 497.716 170.662Z" stroke="#030F1B" stroke-width="0.858588"/>
</g>
<path d="M499.379 166.046C496.302 155.254 507.697 145.41 513.009 143.669C522.829 140.449 528.356 135.512 555.617 145.654C568.227 150.346 566.778 167.709 565.598 170.446C564.417 173.183 554.973 181.607 533.937 183.915C512.902 186.222 503.189 179.407 499.379 166.046Z" fill="#0E1F29" stroke="#0E1F29" stroke-width="0.107323"/>
<path d="M535.279 141.655C535.532 141.655 536.219 141.741 537.303 141.967C538.352 142.186 539.698 142.519 541.225 142.971C544.283 143.877 548.034 145.25 551.578 147.119C555.134 148.993 558.41 151.328 560.593 154.125C562.685 156.804 563.764 159.888 563.16 163.465L563.097 163.813C561.617 171.31 553.989 175.612 544.97 177.766C536.041 179.898 526.336 179.768 521.704 178.863L521.696 178.862L521.688 178.86L521.128 178.751C518.16 178.133 512.705 176.39 508.499 172.784C506.272 170.874 504.421 168.465 503.446 165.443C502.533 162.616 502.362 159.177 503.458 154.994L503.695 154.147C503.93 153.35 504.315 152.603 504.826 151.963L505.053 151.696C509.977 146.218 516.733 143.689 522.716 142.542C527.2 141.683 531.169 141.614 533.515 141.632L535.279 141.655Z" fill="#1A303E" stroke="url(#paint5_radial_368_23081)" stroke-width="2.25379"/>
<path d="M535.108 143.262C535.363 143.263 536.021 143.347 537.037 143.559C538.027 143.766 539.295 144.08 540.733 144.506C543.611 145.358 547.143 146.652 550.483 148.412C553.832 150.177 556.928 152.381 558.996 155.031C560.981 157.574 562.011 160.51 561.437 163.917L561.376 164.248C559.968 171.381 552.719 175.441 544.242 177.466C536.101 179.41 527.273 179.357 522.754 178.575L522.33 178.497L522.317 178.495L521.789 178.391C518.987 177.808 513.838 176.163 509.863 172.755C507.755 170.948 505.998 168.664 505.072 165.795C504.205 163.11 504.046 159.852 505.081 155.899L505.305 155.099C505.532 154.333 505.901 153.615 506.394 152.999L506.612 152.742C511.266 147.565 517.646 145.179 523.281 144.099C527.505 143.29 531.245 143.224 533.451 143.242L535.108 143.262Z" stroke="url(#paint6_radial_368_23081)" stroke-width="1.8245"/>
<path d="M563.398 175.707C565.085 175.707 564.256 177.907 564.095 179.356C562.324 180.858 560.983 182.897 556.582 186.439C552.182 189.981 527.23 192.288 521.756 191.751C516.283 191.215 505.604 185.044 502.867 182.897C500.13 180.751 500.56 174.419 500.56 176.19C500.56 177.96 513.546 185.205 517.946 186.439C522.346 187.673 538.178 186.348 544.133 185.205C549.445 184.185 561.144 175.707 563.398 175.707Z" fill="url(#paint7_linear_368_23081)"/>
<g filter="url(#filter3_d_368_23081)">
<path d="M537.553 170.626C536.638 171.143 535.762 171.574 534.926 171.918C534.164 172.208 533.533 172.254 533.034 172.056C532.539 171.843 532.153 171.493 531.877 171.005C531.546 170.418 531.342 169.737 531.266 168.959C531.185 168.173 531.185 167.458 531.266 166.814C531.401 165.788 531.552 164.49 531.718 162.919C531.88 161.339 532.006 159.873 532.097 158.521C532.192 157.154 532.179 156.365 532.058 156.151C531.86 155.842 531.61 155.649 531.309 155.573C531.003 155.488 530.73 155.513 530.491 155.649C530.242 155.79 530.077 156.047 529.996 156.421C529.923 156.79 530.027 157.265 530.308 157.844C530.535 158.349 530.473 158.841 530.123 159.32C529.768 159.791 529.301 160.189 528.724 160.516C528.12 160.857 527.506 161.076 526.88 161.172C526.254 161.268 525.851 161.156 525.67 160.836C524.857 159.315 524.483 157.897 524.549 156.583C524.614 155.268 524.993 154.104 525.686 153.091C526.379 152.078 527.245 151.278 528.285 150.69C529.048 150.258 529.853 149.961 530.699 149.799C531.54 149.629 532.371 149.616 533.192 149.761C534.021 149.902 534.791 150.217 535.502 150.706C536.221 151.19 536.831 151.876 537.334 152.764C537.72 153.448 537.941 154.273 537.994 155.239C538.057 156.199 538.032 157.233 537.92 158.34C537.802 159.438 537.655 160.547 537.479 161.666L537.307 162.853C537.235 163.41 537.252 163.781 537.357 163.968C537.473 164.172 537.672 164.194 537.957 164.033C538.152 163.923 538.363 163.757 538.589 163.535C538.819 163.299 539.056 163.054 539.299 162.8C539.839 162.201 540.207 161.846 540.402 161.736C540.696 161.57 541.03 161.592 541.406 161.801C541.778 162.002 542.145 162.309 542.509 162.725C542.873 163.14 543.183 163.575 543.439 164.028C543.67 164.436 543.833 164.818 543.929 165.174C544.02 165.522 544.004 165.783 543.88 165.958C543.442 166.51 542.616 167.236 541.401 168.134C540.185 169.032 538.903 169.863 537.553 170.626Z" fill="#4B616E"/>
</g>
<defs>
<filter id="filter0_d_368_23081" x="158.505" y="214.028" width="229.396" height="172.142" filterUnits="userSpaceOnUse" color-interpolation-filters="sRGB">
<feFlood flood-opacity="0" result="BackgroundImageFix"/>
<feColorMatrix in="SourceAlpha" type="matrix" values="0 0 0 0 0 0 0 0 0 0 0 0 0 0 0 0 0 0 127 0" result="hardAlpha"/>
<feOffset dy="7.92038"/>
<feGaussianBlur stdDeviation="0.688729"/>
<feComposite in2="hardAlpha" operator="out"/>
<feColorMatrix type="matrix" values="0 0 0 0 0 0 0 0 0 0 0 0 0 0 0 0 0 0 0.25 0"/>
<feBlend mode="normal" in2="BackgroundImageFix" result="effect1_dropShadow_368_23081"/>
<feBlend mode="normal" in="SourceGraphic" in2="effect1_dropShadow_368_23081" result="shape"/>
</filter>
<filter id="filter1_d_368_23081" x="235.779" y="226.675" width="70.3045" height="87.3733" filterUnits="userSpaceOnUse" color-interpolation-filters="sRGB">
<feFlood flood-opacity="0" result="BackgroundImageFix"/>
<feColorMatrix in="SourceAlpha" type="matrix" values="0 0 0 0 0 0 0 0 0 0 0 0 0 0 0 0 0 0 127 0" result="hardAlpha"/>
<feOffset dx="-0.55967" dy="6.15637"/>
<feGaussianBlur stdDeviation="1.11934"/>
<feComposite in2="hardAlpha" operator="out"/>
<feColorMatrix type="matrix" values="0 0 0 0 0 0 0 0 0 0 0 0 0 0 0 0 0 0 0.25 0"/>
<feBlend mode="normal" in2="BackgroundImageFix" result="effect1_dropShadow_368_23081"/>
<feBlend mode="normal" in="SourceGraphic" in2="effect1_dropShadow_368_23081" result="shape"/>
</filter>
<filter id="filter2_d_368_23081" x="496.608" y="144.146" width="71.4929" height="53.6492" filterUnits="userSpaceOnUse" color-interpolation-filters="sRGB">
<feFlood flood-opacity="0" result="BackgroundImageFix"/>
<feColorMatrix in="SourceAlpha" type="matrix" values="0 0 0 0 0 0 0 0 0 0 0 0 0 0 0 0 0 0 127 0" result="hardAlpha"/>
<feOffset dy="2.46844"/>
<feGaussianBlur stdDeviation="0.214647"/>
<feComposite in2="hardAlpha" operator="out"/>
<feColorMatrix type="matrix" values="0 0 0 0 0 0 0 0 0 0 0 0 0 0 0 0 0 0 0.25 0"/>
<feBlend mode="normal" in2="BackgroundImageFix" result="effect1_dropShadow_368_23081"/>
<feBlend mode="normal" in="SourceGraphic" in2="effect1_dropShadow_368_23081" result="shape"/>
</filter>
<filter id="filter3_d_368_23081" x="521.085" y="147.315" width="24.4784" height="28.6462" filterUnits="userSpaceOnUse" color-interpolation-filters="sRGB">
<feFlood flood-opacity="0" result="BackgroundImageFix"/>
<feColorMatrix in="SourceAlpha" type="matrix" values="0 0 0 0 0 0 0 0 0 0 0 0 0 0 0 0 0 0 127 0" result="hardAlpha"/>
<feOffset dx="-0.174425" dy="1.91867"/>
<feGaussianBlur stdDeviation="0.34885"/>
<feComposite in2="hardAlpha" operator="out"/>
<feColorMatrix type="matrix" values="0 0 0 0 0 0 0 0 0 0 0 0 0 0 0 0 0 0 0.25 0"/>
<feBlend mode="normal" in2="BackgroundImageFix" result="effect1_dropShadow_368_23081"/>
<feBlend mode="normal" in="SourceGraphic" in2="effect1_dropShadow_368_23081" result="shape"/>
</filter>
<radialGradient id="paint0_radial_368_23081" cx="0" cy="0" r="1" gradientUnits="userSpaceOnUse" gradientTransform="translate(534.791 125.991) rotate(126.699) scale(295.157 477.67)">
<stop stop-color="#00A4EA" stop-opacity="0"/>
<stop offset="0.189973" stop-color="#05A9ED" stop-opacity="0"/>
<stop offset="0.411687" stop-color="#07ABEF"/>
<stop offset="0.610435" stop-color="#38BDE2"/>
<stop offset="0.765818" stop-color="#07C9FF"/>
</radialGradient>
<radialGradient id="paint1_radial_368_23081" cx="0" cy="0" r="1" gradientUnits="userSpaceOnUse" gradientTransform="translate(270.878 257.434) scale(25.1386 57.8991)">
<stop stop-color="#283E4C"/>
<stop offset="1" stop-color="#5E91B2" stop-opacity="0.47"/>
</radialGradient>
<radialGradient id="paint2_radial_368_23081" cx="0" cy="0" r="1" gradientUnits="userSpaceOnUse" gradientTransform="translate(271.04 259.936) scale(23.6091 54.3764)">
<stop stop-color="#5E91B2" stop-opacity="0.26"/>
<stop offset="1" stop-color="#233645" stop-opacity="0.63"/>
</radialGradient>
<linearGradient id="paint3_linear_368_23081" x1="254.865" y1="330.962" x2="255.382" y2="458.722" gradientUnits="userSpaceOnUse">
<stop stop-color="#051522"/>
<stop offset="1" stop-color="#081825"/>
</linearGradient>
<radialGradient id="paint4_radial_368_23081" cx="0" cy="0" r="1" gradientUnits="userSpaceOnUse" gradientTransform="translate(274.863 271.872) rotate(90) scale(188.928 225.388)">
<stop stop-color="#6BC7EA"/>
<stop offset="1" stop-color="#737373" stop-opacity="0"/>
</radialGradient>
<radialGradient id="paint5_radial_368_23081" cx="0" cy="0" r="1" gradientUnits="userSpaceOnUse" gradientTransform="translate(531.63 157.674) scale(7.83461 18.0446)">
<stop stop-color="#283E4C"/>
<stop offset="1" stop-color="#5E91B2" stop-opacity="0.47"/>
</radialGradient>
<radialGradient id="paint6_radial_368_23081" cx="0" cy="0" r="1" gradientUnits="userSpaceOnUse" gradientTransform="translate(531.68 158.454) scale(7.35794 16.9468)">
<stop stop-color="#5E91B2" stop-opacity="0.26"/>
<stop offset="1" stop-color="#233645" stop-opacity="0.63"/>
</radialGradient>
<linearGradient id="paint7_linear_368_23081" x1="526.639" y1="180.59" x2="526.8" y2="220.407" gradientUnits="userSpaceOnUse">
<stop stop-color="#051522"/>
<stop offset="1" stop-color="#081825"/>
</linearGradient>
</defs>
</svg>
