<svg width="121" height="235" viewBox="0 0 121 235" fill="none" xmlns="http://www.w3.org/2000/svg">
<path d="M119.938 229.738C100.474 223.72 24.3856 225.028 5.511 226.86C1.18557 228.081 -10.5324 231.099 29.1043 233.402C78.6501 236.28 126.229 231.683 119.938 229.738Z" fill="#0A304A" fill-opacity="0.81"/>
<path d="M97.5 162.325C100.3 159.925 99.3334 153.325 98.5 150.325L87.5 153.325C87.8334 157.991 88.7 167.425 89.5 167.825C90.5 168.325 94 165.325 97.5 162.325Z" fill="#F1DFCB"/>
<path d="M24.5 169.325C20.5 166.525 18.8333 157.825 18.5 153.825L32.5 156.325L31.5 169.825C30.8333 170.825 28.5 172.125 24.5 169.325Z" fill="#F1DFCB"/>
<path d="M91 154.325C90 156.491 88.4 160.825 90 160.825C91.6 160.825 92.6667 160.158 93 159.825M25.5 156.825C24.5 157.991 22.8 160.625 24 161.825C25.5 163.325 28 163.825 28 163.825M98.5 150.325C99.3333 153.325 100.3 159.925 97.5 162.325C94 165.325 90.5 168.325 89.5 167.825C88.7 167.425 87.8333 157.991 87.5 153.325L98.5 150.325ZM18.5 153.825C18.8333 157.825 20.5 166.525 24.5 169.325C28.5 172.125 30.8333 170.825 31.5 169.825L32.5 156.325L18.5 153.825Z" stroke="#2F2F2F"/>
<path d="M54.8924 111C55.1561 111.177 55.1525 111.884 55.1709 111.957C55.2192 112.101 55.2775 112.476 55.2782 112.534C55.279 112.592 55.6051 115.894 55.7848 117.664C55.7906 118.11 55.8341 118.777 55.8356 118.893C55.8374 119.038 55.5484 118.607 55.4961 118.608C55.4439 118.609 54.7981 118.183 54.6922 118.076C54.5862 117.969 53.4278 117.333 53.3246 117.442C53.2684 117.502 53.0223 117.702 52.7962 117.859C52.6986 117.926 52.5922 117.834 52.6362 117.723C52.6411 117.711 52.6442 117.698 52.6451 117.684C52.6944 116.95 52.4962 115.951 52.6184 115.751C52.9985 115.132 52.8112 114.121 52.7749 114.013C52.7386 113.905 52.6456 112.098 52.6419 111.808C52.6381 111.519 52.5358 110.704 52.7591 110.448C52.9823 110.192 53.5253 110.402 54.0137 110.432C54.5021 110.462 54.6287 110.822 54.8924 111Z" fill="#8C8C8C" fill-opacity="0.15" style="mix-blend-mode:color-dodge"/>
<path d="M65.7278 110.859C65.9915 111.037 65.9879 111.744 66.0062 111.816C66.0546 111.96 66.1129 112.336 66.1136 112.394C66.1144 112.452 66.4405 115.754 66.6202 117.524C66.626 117.97 66.6695 118.637 66.671 118.753C66.6728 118.898 66.3838 118.467 66.3315 118.468C66.2792 118.469 65.6335 118.043 65.5276 117.936C65.4216 117.829 64.2631 117.192 64.16 117.302C64.1038 117.362 63.8577 117.562 63.6316 117.719C63.5339 117.786 63.4275 117.693 63.4716 117.583C63.4765 117.571 63.4795 117.558 63.4804 117.544C63.5298 116.81 63.3316 115.811 63.4538 115.611C63.8339 114.991 63.6465 113.981 63.6103 113.873C63.574 113.765 63.481 111.958 63.4772 111.668C63.4735 111.379 63.3712 110.564 63.5944 110.308C63.8177 110.052 64.3607 110.262 64.8491 110.292C65.3374 110.322 65.4641 110.682 65.7278 110.859Z" fill="#8C8C8C" fill-opacity="0.15" style="mix-blend-mode:color-dodge"/>
<path d="M22.5 46.8247C14.9001 27.6247 27.1668 14.658 40.0001 7.82471L51.5001 5.82471C86.5001 6.32471 83.5001 23.8247 90.0001 31.8247C95.2001 38.2247 92.5001 52.158 90.5001 58.3247L90.0001 68.3247C90.3334 69.158 90.8001 77.7247 90.0001 83.3247C89.2001 88.9247 72.5001 88.3683 64.0001 91.0349C56.1668 91.2016 31.6699 93.428 26.5001 86.5349C22.0001 80.5349 22.3335 79.158 24.0002 75.8247C20 61.8247 23 51.4914 22.5 46.8247Z" fill="#F1DFCB" stroke="#2F2F2F"/>
<path d="M104 68.8247C106.4 62.0247 98.0002 61.9914 93.5001 62.8247L90.4999 67.8247C90.1666 71.4914 89.6999 78.9247 90.4999 79.3247C91.4999 79.8247 101 77.3248 104 68.8247Z" fill="#F1DFCB" stroke="#2F2F2F"/>
<path d="M14.3282 81.8247C11.5283 77.0247 17.6668 72.3247 20.5001 70.8247L24.3281 74.8247L22.8281 78.8247L25.3281 86.3247C22.8281 86.8247 17.1281 86.6247 14.3282 81.8247Z" fill="#F1DFCB" stroke="#2F2F2F"/>
<path d="M90 65.8247C90 60.8247 92.0002 42.6247 92.0001 41.8247C92 40.8247 86.581 31.3247 84.9999 31.3247C84.4394 31.3247 84.2666 31.4877 84.2354 31.5265C84.2273 31.5366 84.2287 31.5383 84.2354 31.5265C84.2718 31.4623 84.463 30.9996 84.1104 29.3247C77.6106 38.3247 75.6325 35.7717 64.6106 38.3247C49.5001 41.8247 39.1666 32.3247 35.4999 32.8247C33.5106 33.0237 30.441 32.8071 28.544 31.3247L19.9999 41.8247L22.4999 48.8247L22.4997 72.3247C18.5003 72.3247 13.8999 50.9247 15.4999 45.3247C17.4999 38.3247 12.5001 25.3247 18.5001 23.8247L23.0736 18.8247C22.9469 16.4168 23.8429 13.5608 27 10.8247C34.5001 4.32472 49.0001 -2.17528 62.0001 2.32472C75.0001 6.82472 84.5001 4.82471 86.5001 11.8247C87.1926 14.2485 87.0359 16.0729 86.5001 17.4032C91.6668 16.877 97.5 22.8247 97.5 38.3247C98 38.8247 96 62.8247 90 65.8247Z" fill="#242424"/>
<path d="M84.1104 29.3247C84.7771 32.4914 83.5 31.3247 84.9999 31.3247C86.581 31.3247 92 40.8247 92.0001 41.8247C92.0002 42.6247 90 60.8247 90 65.8247C96 62.8247 98 38.8247 97.5 38.3247C97.5 22.8247 91.6668 16.877 86.5001 17.4032M84.1104 29.3247C77.6106 38.3247 75.6325 35.7717 64.6106 38.3247C49.5001 41.8247 39.1666 32.3247 35.4999 32.8247C33.5106 33.0237 30.441 32.8071 28.544 31.3247M84.1104 29.3247C85.0558 29.0411 85.7981 19.1464 86.5001 17.4032M27 26.3247C26.5161 28.744 27.2624 30.3232 28.544 31.3247M28.544 31.3247L19.9999 41.8247L22.4999 48.8247L22.4997 72.3247C18.5003 72.3247 13.8999 50.9247 15.4999 45.3247C17.4999 38.3247 12.5001 25.3247 18.5001 23.8247L23.0736 18.8247M25.0001 23.8247C24.1314 22.7981 23.1878 20.9931 23.0736 18.8247M23.0736 18.8247C22.9469 16.4168 23.8429 13.5608 27 10.8247C34.5001 4.32472 49.0001 -2.17528 62.0001 2.32472C75.0001 6.82472 84.5001 4.82471 86.5001 11.8247C87.1926 14.2485 87.0359 16.0729 86.5001 17.4032" stroke="#2F2F2F"/>
<path d="M60.5327 51.0424C60.5462 49.5231 61.9198 48.3962 63.4059 48.6852L78.7196 51.6636C79.869 51.8871 80.6215 53.0132 80.3898 54.1631C80.1558 55.324 79.0115 56.0514 77.8628 55.7695L76.5256 55.4414L62.6919 53.7542C61.4528 53.6031 60.5194 52.5353 60.5306 51.2817L60.5327 51.0424Z" fill="#242424"/>
<path d="M50.9041 51.5221C50.8615 50.0446 49.5344 48.9546 48.0827 49.2049L32.8931 51.8242C31.5707 52.0522 30.6909 53.337 30.9545 54.6551C31.2146 55.9553 32.4867 56.7785 33.7775 56.482L34.8773 56.2295L48.6961 54.9708C49.986 54.8534 50.968 53.7418 50.9306 52.4415L50.9041 51.5221Z" fill="#242424"/>
<path d="M67.595 55.7281C67.6273 54.9674 68.2483 54.3644 69.0097 54.3545L69.7309 54.3452C70.5791 54.3343 71.2541 55.0529 71.1902 55.8986C71.1383 56.5865 70.6073 57.1417 69.9224 57.2242L69.7479 57.2453C69.6459 57.2576 69.543 57.2603 69.4406 57.2536L68.9341 57.2203C68.1566 57.1691 67.562 56.5067 67.595 55.7281Z" fill="#242424"/>
<path d="M44.2492 56.6808C44.1973 55.9211 43.5609 55.3344 42.7995 55.3442L42.0783 55.3535C41.2302 55.3645 40.5739 56.1003 40.6596 56.9441C40.7293 57.6304 41.2745 58.1717 41.9613 58.2365L42.1363 58.2531C42.2385 58.2627 42.3414 58.2628 42.4437 58.2535L42.9492 58.2071C43.7251 58.1358 44.3023 57.4582 44.2492 56.6808Z" fill="#242424"/>
<path d="M52.5 75.8247C52.5 77.8247 63.0219 78.0747 63.5 75.8247" stroke="#2F2F2F"/>
<path d="M67.7644 75.9937L65.4942 74.0569C64.6983 73.7863 61.1062 73.7869 60.4711 73.7005C59.6774 73.5925 55.0556 73.63 52.5486 73.8028C50.0416 73.9757 49.3813 73.9842 48.8731 75.5356C48.3649 77.0869 48.2492 78.3524 48.8064 80.5922C49.2522 82.384 47.8008 84.5374 47.0195 85.3901C46.4063 85.6321 44.6198 85.702 43.9498 82.9019C43.1121 79.4018 43.8065 71.8092 47.4909 70.7785C49.3321 70.2635 61.2056 69.386 63.4537 69.4489C66.8887 69.5449 69.5495 71.0554 71.306 74.1223C72.4238 76.074 72.3404 78.5467 72.5778 80.566C72.8152 82.5852 71.1115 82.9255 70.6279 82.9786C70.0069 82.6121 69.0784 82.2964 68.8951 81.737C68.7851 81.4014 68.4373 76.9681 67.7644 75.9937Z" fill="#2F2F2F" fill-opacity="0.92"/>
<path d="M54.2767 85.2155C54.2767 85.2155 52.3726 86.4573 50.4086 86.5294C50.4086 86.5294 46.2138 85.3759 44.5095 86.1843C42.379 87.1949 42.6523 91.0127 42.6523 91.0127L62.3898 91.0091C62.3898 91.0091 69.3404 89.5284 71.5638 88.7975C73.7871 88.0666 75.5179 85.2936 73.4222 84.266C71.3836 83.2664 67.7776 87.0493 65.8071 85.9092C63.795 84.745 63.6295 80.5208 61.441 79.7864C60.3943 79.4351 57.5468 79.0877 56.3655 80.9754C55.1842 82.8632 54.2767 85.2155 54.2767 85.2155Z" fill="#2F2F2F" fill-opacity="0.92"/>
<path d="M44.5002 94.8247C44.9002 91.2247 49.3335 91.658 51.5002 92.3247L52.0001 95.8247L68.5001 95.8247L68.5001 90.8247L69.0001 90.8247C74.0001 91.658 82.4001 93.9247 76.0001 96.3247C75.3489 96.5689 74.7319 96.7893 74.1488 96.9882C77.0992 97.267 83.3999 99.1247 84.9999 104.325C86.9999 110.825 97.9999 148.825 98.4999 149.825C98.8999 150.625 90.9999 152.491 86.9999 153.325L84.9999 149.825L84.9995 149.825C83.9976 150.326 75.9999 154.325 74.4999 154.325C72.9997 154.325 57.4999 156.325 50.9999 155.825C45.7999 155.425 38.1666 150.325 34.9999 147.825C34.9999 150.325 33.4999 156.825 32.9999 156.325C32.4999 155.825 18.5001 154.325 18.0001 153.325C17.5001 152.325 35.5001 105.325 36.5001 102.825C37.3001 100.825 42.385 98.1004 44.8274 96.9882C44.5358 96.4593 44.3968 95.7543 44.5002 94.8247Z" fill="#464646"/>
<path d="M68.5001 95.8247L68.5001 90.8247L69.0001 90.8247C74.0001 91.658 82.4001 93.9247 76.0001 96.3247C75.3489 96.5689 74.7319 96.7893 74.1488 96.9882M68.5001 95.8247L52.0001 95.8247M68.5001 95.8247L66.5001 98.8247C66.5001 98.8247 69.0014 98.744 74.1488 96.9882M52.0001 95.8247L51.5002 92.3247C49.3335 91.658 44.9002 91.2247 44.5002 94.8247C44.3968 95.7543 44.5358 96.4593 44.8274 96.9882M52.0001 95.8247L55.5001 98.3247C52.9616 98.3247 48.9999 98.3247 48.9999 98.3247C47.7636 98.572 45.6653 98.5074 44.8274 96.9882M44.8274 96.9882C42.385 98.1004 37.3001 100.825 36.5001 102.825C35.5001 105.325 17.5001 152.325 18.0001 153.325C18.5001 154.325 32.4999 155.825 32.9999 156.325C33.4999 156.825 34.9999 150.325 34.9999 147.825M34.9999 147.825C34.9999 145.325 38.4999 114.825 39.4999 110.825C40.2999 107.625 41.1666 105.825 41.4999 105.325M34.9999 147.825C38.1666 150.325 45.7999 155.425 50.9999 155.825C57.4999 156.325 72.9997 154.325 74.4999 154.325C76.0001 154.325 83.9999 150.325 84.9999 149.825M84.9999 149.825C85.7999 149.425 83.3332 120.991 81.9999 106.825M84.9999 149.825L86.9999 153.325C90.9999 152.491 98.8999 150.625 98.4999 149.825C97.9999 148.825 86.9999 110.825 84.9999 104.325C83.3999 99.1247 77.0992 97.267 74.1488 96.9882" stroke="#2F2F2F"/>
<path d="M68.0002 95.8247L68.0002 90.3247L51.9999 91.3247L51.9999 95.8247L68.0002 95.8247Z" fill="#F1DFCB" stroke="#2F2F2F"/>
<path d="M55 97.8247C53.8333 100.158 51.6002 106.025 52.0002 106.825C52.5 107.825 52 111.325 51.5 111.825M67 98.8247C66 100.825 64.3298 105.516 64 107.825C63.5 111.325 65.5 109.825 66.5 110.325" stroke="#2F2F2F"/>
<path d="M52.5 54.1167C53.4999 53.6167 57.5 52.8245 60 54.1167" stroke="#CDBBA7" stroke-width="2" stroke-linecap="round"/>
<path d="M28.5 212.825L33 155.825C33.6667 153.991 35 150.125 35 149.325C35 148.525 36.6667 149.325 37.5 149.825C40.3 152.625 52.3333 155.658 58 156.825C59.4925 156.638 62.1647 156.285 65 155.869C67.2308 155.542 69.5625 155.177 71.5 154.825C75.9 154.025 81.6667 151.491 84 150.325L87 153.325L94 214.325C92.5 213.991 88.7 213.725 85.5 215.325C81.5 217.325 66 229.325 65.5 228.825C65.1 228.425 65 181.991 65 158.825V155.869C62.1647 156.285 59.4925 156.638 58 156.825V223.325H50C49 223.325 42.5 219.325 39 215.325C36.2 212.125 30.8333 212.325 28.5 212.825Z" fill="#2C2C2C"/>
<path d="M58 156.825V223.325C55.6667 223.325 50.8 223.325 50 223.325C49 223.325 42.5 219.325 39 215.325C36.2 212.125 30.8333 212.325 28.5 212.825L33 155.825C33.6667 153.991 35 150.125 35 149.325C35 148.525 36.6667 149.325 37.5 149.825C40.3 152.625 52.3333 155.658 58 156.825ZM58 156.825C59.4925 156.638 62.1647 156.285 65 155.869M65 155.869C67.2308 155.542 69.5625 155.177 71.5 154.825C75.9 154.025 81.6667 151.491 84 150.325L87 153.325L94 214.325C92.5 213.991 88.7 213.725 85.5 215.325C81.5 217.325 66 229.325 65.5 228.825C65.1 228.425 65 181.991 65 158.825V155.869ZM67 182.825C68 182.825 78.5 186.825 84 183.825M51.5 181.325C46.6667 182.991 35 182.825 35 182.825" stroke="#2F2F2F"/>
<path d="M11 229.825C17 224.158 29.1 212.825 29.5 212.825C31.1667 213.158 34.7 213.825 35.5 213.825C36.5 213.825 46.5 222.825 48 223.825C49.2 224.625 54.8333 224.158 57.5 223.825V228.825L11 229.825Z" fill="#EEEEEE"/>
<path d="M86 215.325L65 229.825L112 228.825L94 215.325H86Z" fill="#EEEEEE"/>
<path d="M11 229.825C17 224.158 29.1 212.825 29.5 212.825C31.1667 213.158 34.7 213.825 35.5 213.825C36.5 213.825 46.5 222.825 48 223.825C49.2 224.625 54.8333 224.158 57.5 223.825V228.825L11 229.825Z" stroke="#2F2F2F"/>
<path d="M86 215.325L65 229.825L112 228.825L94 215.325H86Z" stroke="#2F2F2F"/>
</svg>
