<svg width="135" height="212" viewBox="0 0 135 212" fill="none" xmlns="http://www.w3.org/2000/svg">
<path d="M123.978 205.686C107.433 197.662 42.7583 199.406 26.7149 201.848C23.0383 203.477 13.078 207.501 46.7692 210.571C88.8832 214.409 129.325 208.28 123.978 205.686Z" fill="#0A304A" fill-opacity="0.81"/>
<path d="M53.5445 86.3018C54.7445 83.1018 62.3778 81.3018 66.0445 80.8018C67.3778 81.9684 70.5444 84.3018 72.5444 84.3018C75.0444 84.3018 76.0444 83.8018 78.0444 83.3018C80.0444 82.8018 85.0444 85.3018 86.0444 86.3018C86.8444 87.1018 91.7111 96.3018 94.0444 100.802C92.7437 100.904 92.5025 100.845 92.5444 100.802C92.5444 100.802 88.4445 104.902 88.0444 107.302C87.5444 110.302 91.0444 117.302 90.0444 118.302C91.7111 117.968 95.2444 117.302 96.0444 117.302C96.8444 117.302 96.3778 118.635 96.0444 119.302C96.0444 121.302 96.3444 125.702 97.5444 127.302C99.0444 129.302 97.5444 132.302 96.0444 133.302C94.8444 134.102 88.2111 138.635 85.0444 140.802C84.7111 140.302 84.0444 139.002 84.0444 137.802C84.0444 136.602 79.3778 136.635 77.0444 136.802L80.5444 133.302C79.3778 132.802 77.0444 131.302 77.0444 129.302C77.0444 126.802 74.0444 123.302 73.0444 122.802C72.0444 122.302 64.5444 127.302 63.5444 127.302C62.5444 127.302 61.5444 126.302 61.0444 125.302C60.5444 124.302 59.0444 122.802 57.5444 119.302C56.3444 116.502 55.0444 116.802 54.5444 117.302L52.7279 102.302C51.7456 98.074 52.302 89.615 53.5445 86.3018Z" fill="#E9ABB4"/>
<path d="M90.0444 118.302C89.0444 119.302 77.5444 116.802 69.0444 117.302C60.5444 117.802 55.5445 106.802 53.5445 104.302C53.2011 103.873 52.9314 103.178 52.7279 102.302M90.0444 118.302C91.0444 117.302 87.5444 110.302 88.0444 107.302C88.4444 104.902 92.5444 100.802 92.5444 100.802M90.0444 118.302C91.7111 117.968 95.2444 117.302 96.0444 117.302C96.8444 117.302 96.3778 118.635 96.0444 119.302C96.0444 121.302 96.3444 125.702 97.5444 127.302C99.0444 129.302 97.5444 132.302 96.0444 133.302C94.8444 134.102 88.2111 138.635 85.0444 140.802C84.7111 140.302 84.0444 139.002 84.0444 137.802C84.0444 136.602 79.3778 136.635 77.0444 136.802L80.5444 133.302C79.3778 132.802 77.0444 131.302 77.0444 129.302C77.0444 126.802 74.0444 123.302 73.0444 122.802C72.0444 122.302 64.5444 127.302 63.5444 127.302C62.5444 127.302 61.5444 126.302 61.0444 125.302C60.5444 124.302 59.0444 122.802 57.5444 119.302C56.3444 116.502 55.0444 116.802 54.5444 117.302L52.7279 102.302M92.5444 100.802C92.5444 100.802 75.2444 100.802 74.0444 100.802C72.5444 100.802 69.0444 98.3018 69.0444 94.8018M92.5444 100.802C92.5025 100.845 92.7437 100.904 94.0444 100.802C91.7111 96.3018 86.8444 87.1018 86.0444 86.3018C85.0444 85.3018 80.0444 82.8018 78.0444 83.3018C76.0444 83.8018 75.0444 84.3018 72.5444 84.3018C70.5444 84.3018 67.3778 81.9684 66.0445 80.8018C62.3778 81.3018 54.7445 83.1018 53.5445 86.3018C52.302 89.615 51.7456 98.074 52.7279 102.302" stroke="#4C4C4C"/>
<g filter="url(#filter0_d_214_42918)">
<path d="M63.5444 81.3018C65.5444 81.8018 75.5444 99.3018 76.0444 99.8018L73.5444 100.302C73.3778 100.635 72.4445 100.102 70.0444 95.3018C67.0444 89.3018 59.0444 83.8018 58.0444 83.3018C57.0444 82.8018 55.0444 84.8018 54.0444 85.3018C53.2444 85.7018 52.0444 92.4684 51.5444 95.8018V99.8018L47.0444 116.802C45.8778 115.635 43.4444 113.102 43.0444 112.302C42.6444 111.502 43.8778 108.968 44.5444 107.802L49.8675 98.6766C46.525 104.338 41.8823 111.815 41.5444 110.802C41.1444 109.602 39.3778 108.968 38.5444 108.802C36.0444 111.302 31.0444 116.502 31.0444 117.302C31.0444 118.302 24.0444 120.302 23.0444 121.802C22.0444 123.302 23.5444 126.302 26.0444 127.802C28.5444 129.302 24.5444 128.302 24.5444 129.302C24.5444 130.302 26.0444 131.802 26.5444 131.802C27.0444 131.802 31.5444 132.302 32.5444 132.802C32.6189 132.839 32.7906 132.865 33.0444 132.882C34.2701 132.787 36.1207 132.718 37.736 132.813C43.5247 132.596 52.0444 132.123 52.0444 132.802C52.0444 133.423 59.9526 133.658 66.5444 134.227C70.5658 134.573 74.0972 135.044 75.0444 135.802C77.5444 137.802 83.0444 136.302 83.5444 137.302C84.0444 138.302 89.0444 178.302 86.0444 180.802C84.3778 184.302 78.5444 190.902 68.5444 189.302C56.0444 187.302 41.5444 183.302 37.0444 184.302C32.5444 185.302 21.5444 181.802 20.0444 177.302C18.5444 172.802 16.0444 173.802 15.5444 170.302C15.1444 167.502 14.7111 165.802 14.5444 165.302C15.3778 166.302 17.3444 168.202 18.5444 167.802C20.0444 167.302 21.5444 161.802 21.0444 160.802C20.5444 159.802 25.0444 157.302 26.0444 157.302C27.0444 157.302 27.5444 154.802 24.5444 153.302C22.1444 152.102 22.2111 149.135 22.5444 147.802L24.0444 145.302L24.5444 129.302C24.5444 128.302 28.5444 129.302 26.0444 127.802C23.5444 126.302 22.0444 123.302 23.0444 121.802C24.0444 120.302 31.0444 118.302 31.0444 117.302C31.0444 116.502 36.0444 111.302 38.5444 108.802C41.7111 102.468 48.7444 88.9018 51.5444 85.3018C55.0444 80.8018 61.5444 80.8018 63.5444 81.3018Z" fill="#C74949"/>
<path d="M38.5444 108.802C41.7111 102.468 48.7444 88.9018 51.5444 85.3018C55.0444 80.8018 61.5444 80.8018 63.5444 81.3018C65.5444 81.8018 75.5444 99.3018 76.0444 99.8018L73.5444 100.302C73.3778 100.635 72.4444 100.102 70.0444 95.3018C67.0444 89.3018 59.0444 83.8018 58.0444 83.3018C57.0444 82.8018 55.0444 84.8018 54.0444 85.3018C53.2444 85.7018 52.0444 92.4684 51.5444 95.8018M38.5444 108.802C39.3778 108.968 41.1444 109.602 41.5444 110.802C41.9444 112.002 48.3778 101.302 51.5444 95.8018M38.5444 108.802C36.0444 111.302 31.0444 116.502 31.0444 117.302C31.0444 118.302 24.0444 120.302 23.0444 121.802C22.0444 123.302 23.5444 126.302 26.0444 127.802C28.5444 129.302 24.5444 128.302 24.5444 129.302M51.5444 95.8018L44.5444 107.802C43.8778 108.968 42.6444 111.502 43.0444 112.302C43.4444 113.102 45.8778 115.635 47.0444 116.802L51.5444 99.8018V95.8018ZM24.5444 129.302C24.5444 130.302 26.0444 131.802 26.5444 131.802C27.0444 131.802 31.5444 132.302 32.5444 132.802C32.6189 132.839 32.7906 132.865 33.0444 132.882M24.5444 129.302L24.0444 145.302L22.5444 147.802C22.2111 149.135 22.1444 152.102 24.5444 153.302C27.5444 154.802 27.0444 157.302 26.0444 157.302C25.0444 157.302 20.5444 159.802 21.0444 160.802C21.5444 161.802 20.0444 167.302 18.5444 167.802C17.3444 168.202 15.3778 166.302 14.5444 165.302C14.7111 165.802 15.1444 167.502 15.5444 170.302C16.0444 173.802 18.5444 172.802 20.0444 177.302C21.5444 181.802 32.5444 185.302 37.0444 184.302C41.5444 183.302 56.0444 187.302 68.5444 189.302C78.5444 190.902 84.3778 184.302 86.0444 180.802M86.0444 180.802C89.0444 178.302 84.0444 138.302 83.5444 137.302C83.0444 136.302 77.5444 137.802 75.0444 135.802C74.0972 135.044 70.5658 134.573 66.5444 134.227M86.0444 180.802C83.0444 183.302 71.5444 177.802 71.5444 177.802M73.0444 138.302C73.5444 149.468 73.8444 172.202 71.0444 173.802M59.5444 134.302C59.2111 139.635 58.0444 150.602 56.0444 151.802C53.5444 153.302 46.0444 158.802 41.0444 155.302C36.0444 151.802 41.5444 135.302 41.0444 133.802C40.6444 132.602 35.5444 132.689 33.0444 132.882M33.0444 132.882C36.1983 133.092 52.0444 131.876 52.0444 132.802C52.0444 133.423 59.9526 133.658 66.5444 134.227M33.0444 132.882C32.5444 135.189 31.6444 140.302 32.0444 142.302C32.5444 144.802 30.5444 154.302 33.5444 156.302C36.5444 158.302 41.0444 162.302 45.5444 162.302C50.0444 162.302 57.0444 160.802 59.5444 156.302C62.0444 151.802 66.5444 142.377 66.5444 138.302C66.5444 135.042 66.5444 135.61 66.5444 136.302V134.227" stroke="#4C4C4C"/>
</g>
<path d="M115.044 177.802L97.5444 132.302L84.5444 141.302C85.3778 146.635 87.0444 159.002 87.0444 165.802C87.0444 174.302 90.0444 176.302 90.0444 184.802C90.0444 191.602 96.3778 201.302 99.5444 205.302C100.878 202.802 103.744 196.202 104.544 189.802C105.344 183.402 111.878 179.135 115.044 177.802Z" fill="#55738B" stroke="#4C4C4C"/>
<path d="M31.0444 189.302L36.5444 184.802L62.5444 187.802C61.5444 188.968 59.2444 191.602 58.0444 192.802C56.8444 194.002 59.2111 198.302 60.5444 200.302C58.8778 199.135 54.6444 196.902 51.0444 197.302C47.4444 197.702 36.2111 192.135 31.0444 189.302Z" fill="#55738B" stroke="#4C4C4C"/>
<path d="M103.544 104.302C103.944 102.702 96.7111 101.302 93.0445 100.802C87.0445 104.802 88.8778 113.135 90.5445 116.802H92.0445C93.8778 116.468 97.9445 116.602 99.5445 119.802C101.144 123.002 102.211 121.802 102.544 120.802C102.878 119.302 103.544 116.402 103.544 116.802C103.544 117.302 108.044 120.302 109.044 120.302C109.844 120.302 109.044 118.635 108.544 117.802C109.544 118.802 110.044 117.802 110.544 116.802C110.944 116.002 106.378 111.135 104.044 108.802C105.211 109.468 107.844 110.902 109.044 111.302C110.544 111.802 111.544 109.802 111.044 109.302C110.644 108.902 105.878 105.802 103.544 104.302Z" fill="#EDCBB6"/>
<path d="M103.544 104.302C103.944 102.702 96.7111 101.302 93.0445 100.802C87.0445 104.802 88.8778 113.135 90.5445 116.802H92.0445C93.8778 116.468 97.9445 116.602 99.5445 119.802C101.144 123.002 102.211 121.802 102.544 120.802C102.878 119.302 103.544 116.402 103.544 116.802C103.544 117.302 108.044 120.302 109.044 120.302C109.844 120.302 109.044 118.635 108.544 117.802M103.544 104.302C103.044 106.302 103.044 113.302 101.544 114.802M103.544 104.302C105.878 105.802 110.644 108.902 111.044 109.302C111.544 109.802 110.544 111.802 109.044 111.302C107.844 110.902 105.211 109.468 104.044 108.802C106.378 111.135 110.944 116.002 110.544 116.802C110.044 117.802 109.544 118.802 108.544 117.802M108.544 117.802C107.744 117.002 104.544 112.802 104.544 112.802" stroke="#4C4C4C"/>
<path d="M82.9164 3.88867C75.0831 2.31474 67.4869 2.24636 63.6332 2.36719C59.1394 2.90863 52.0258 4.8058 45.39 8.73633C38.9447 12.5541 33.057 18.222 30.3441 26.3271L30.0912 27.1191C26.7384 38.1772 26.7625 45.3977 27.4144 50.2861C27.745 52.7648 28.2328 54.6418 28.5873 56.2871C28.8958 57.7189 29.1727 59.2192 28.7924 60.5918L28.7074 60.8643C28.6918 60.9091 28.6456 61.1037 28.6215 61.5195C28.5988 61.9092 28.5995 62.4112 28.6293 63.0166C28.6887 64.2258 28.8606 65.7727 29.1478 67.5225C29.7227 71.0246 30.7468 75.2446 32.2006 79.0713C33.6725 82.9456 35.5086 86.21 37.599 88.0117C38.6193 88.8911 39.6359 89.3671 40.6557 89.4658C41.601 89.5573 42.7008 89.3398 43.9867 88.5791L44.2465 88.4189C47.6878 86.2293 50.1021 84.7108 51.8353 83.6885C53.5294 82.6892 54.7076 82.0796 55.6244 81.8164C56.1177 81.6748 56.6009 81.6125 57.0922 81.6709C57.5823 81.7293 57.9703 81.8964 58.265 82.0449C58.7826 82.3058 59.0442 82.5001 59.5902 82.6865L59.8432 82.7656C60.6104 82.9885 62.3749 83.2793 64.8168 83.5498C67.2163 83.8156 70.1646 84.0516 73.2328 84.1895C79.4519 84.4688 85.8913 84.3293 89.3373 83.3486C93.1271 82.2701 96.1256 81.8111 98.0971 81.4082C99.1208 81.199 99.7843 81.0211 100.219 80.8242C100.423 80.7317 100.526 80.6568 100.574 80.6133C100.592 80.5962 100.603 80.5836 100.61 80.5742L100.62 80.5527C100.636 80.5131 100.646 80.4837 100.652 80.4639L100.925 79.5859L101.829 79.417L102.084 79.3535L102.522 79.208C103.222 78.9525 104.354 78.0985 105.787 76.6279C107.165 75.2137 108.661 73.4005 110.091 71.4824C112.913 67.698 115.309 63.7321 116.05 61.8184L117.028 53.249L117.031 53.2266L117.034 53.2051L117.062 52.9736C117.185 51.7542 117.053 49.5929 116.59 46.7314C116.105 43.7303 115.278 40.0996 114.118 36.2568C111.859 28.7812 108.381 20.6559 103.807 14.8076L103.362 14.248C98.7277 8.56282 90.8505 5.48288 82.9164 3.88867Z" fill="#B18C8C"/>
<path d="M82.9164 3.88867C75.0831 2.31474 67.4869 2.24636 63.6332 2.36719C59.1394 2.90863 52.0258 4.8058 45.39 8.73633C38.9447 12.5541 33.057 18.222 30.3441 26.3271L30.0912 27.1191C26.7384 38.1772 26.7625 45.3977 27.4144 50.2861C27.745 52.7648 28.2328 54.6418 28.5873 56.2871C28.8958 57.7189 29.1727 59.2192 28.7924 60.5918L28.7074 60.8643C28.6918 60.9091 28.6456 61.1037 28.6215 61.5195C28.5988 61.9092 28.5995 62.4112 28.6293 63.0166C28.6887 64.2258 28.8606 65.7727 29.1478 67.5225C29.7227 71.0246 30.7468 75.2446 32.2006 79.0713C33.6725 82.9456 35.5086 86.21 37.599 88.0117C38.6193 88.8911 39.6359 89.3671 40.6557 89.4658C41.601 89.5573 42.7008 89.3398 43.9867 88.5791L44.2465 88.4189C47.6878 86.2293 50.1021 84.7108 51.8353 83.6885C53.5294 82.6892 54.7076 82.0796 55.6244 81.8164C56.1177 81.6748 56.6009 81.6125 57.0922 81.6709C57.5823 81.7293 57.9703 81.8964 58.265 82.0449C58.7826 82.3058 59.0442 82.5001 59.5902 82.6865L59.8432 82.7656C60.6104 82.9885 62.3749 83.2793 64.8168 83.5498C67.2163 83.8156 70.1646 84.0516 73.2328 84.1895C79.4519 84.4688 85.8913 84.3293 89.3373 83.3486C93.1271 82.2701 96.1256 81.8111 98.0971 81.4082C99.1208 81.199 99.7843 81.0211 100.219 80.8242C100.423 80.7317 100.526 80.6568 100.574 80.6133C100.592 80.5962 100.603 80.5836 100.61 80.5742L100.62 80.5527C100.636 80.5131 100.646 80.4837 100.652 80.4639L100.925 79.5859L101.829 79.417L102.084 79.3535L102.522 79.208C103.222 78.9525 104.354 78.0985 105.787 76.6279C107.165 75.2137 108.661 73.4005 110.091 71.4824C112.913 67.698 115.309 63.7321 116.05 61.8184L117.028 53.249L117.031 53.2266L117.034 53.2051L117.062 52.9736C117.185 51.7542 117.053 49.5929 116.59 46.7314C116.105 43.7303 115.278 40.0996 114.118 36.2568C111.859 28.7812 108.381 20.6559 103.807 14.8076L103.362 14.248C98.7277 8.56282 90.8505 5.48288 82.9164 3.88867Z" stroke="#4C4C4C" stroke-width="3.05269" stroke-linecap="round"/>
<path d="M82.9164 3.88867C75.0831 2.31474 67.4869 2.24636 63.6332 2.36719C59.1394 2.90863 52.0258 4.8058 45.39 8.73633C38.9447 12.5541 33.057 18.222 30.3441 26.3271L30.0912 27.1191C26.7384 38.1772 26.7625 45.3977 27.4144 50.2861C27.745 52.7648 28.2328 54.6418 28.5873 56.2871C28.8958 57.7189 29.1727 59.2192 28.7924 60.5918L28.7074 60.8643C28.6918 60.9091 28.6456 61.1037 28.6215 61.5195C28.5988 61.9092 28.5995 62.4112 28.6293 63.0166C28.6887 64.2258 28.8606 65.7727 29.1478 67.5225C29.7227 71.0246 30.7468 75.2446 32.2006 79.0713C33.6725 82.9456 35.5086 86.21 37.599 88.0117C38.6193 88.8911 39.6359 89.3671 40.6557 89.4658C41.601 89.5573 42.7008 89.3398 43.9867 88.5791L44.2465 88.4189C47.6878 86.2293 50.1021 84.7108 51.8353 83.6885C53.5294 82.6892 54.7076 82.0796 55.6244 81.8164C56.1177 81.6748 56.6009 81.6125 57.0922 81.6709C57.5823 81.7293 57.9703 81.8964 58.265 82.0449C58.7826 82.3058 59.0442 82.5001 59.5902 82.6865L59.8432 82.7656C60.6104 82.9885 62.3749 83.2793 64.8168 83.5498C67.2163 83.8156 70.1646 84.0516 73.2328 84.1895C79.4519 84.4688 85.8913 84.3293 89.3373 83.3486C93.1271 82.2701 96.1256 81.8111 98.0971 81.4082C99.1208 81.199 99.7843 81.0211 100.219 80.8242C100.423 80.7317 100.526 80.6568 100.574 80.6133C100.592 80.5962 100.603 80.5836 100.61 80.5742L100.62 80.5527C100.636 80.5131 100.646 80.4837 100.652 80.4639L100.925 79.5859L101.829 79.417L102.084 79.3535L102.522 79.208C103.222 78.9525 104.354 78.0985 105.787 76.6279C107.165 75.2137 108.661 73.4005 110.091 71.4824C112.913 67.698 115.309 63.7321 116.05 61.8184L117.028 53.249L117.031 53.2266L117.034 53.2051L117.062 52.9736C117.185 51.7542 117.053 49.5929 116.59 46.7314C116.105 43.7303 115.278 40.0996 114.118 36.2568C111.859 28.7812 108.381 20.6559 103.807 14.8076L103.362 14.248C98.7277 8.56282 90.8505 5.48288 82.9164 3.88867Z" stroke="black" stroke-opacity="0.2" stroke-width="3.05269" stroke-linecap="round"/>
<path d="M78.5717 16.3187C76.9152 15.884 63.5941 19.7961 60.0058 22.5185C56.5308 25.1548 57.3535 24.9379 55.6373 26.7525C55.4957 26.9022 55.3838 27.0159 55.301 27.0977C55.0649 27.3025 55.0591 27.3364 55.301 27.0977C55.9636 26.5226 58.4408 24.6 62.346 23.577C68.1186 22.0649 66.4024 21.9137 71.395 21.3088C76.3875 20.704 78.8837 20.704 82.3161 21.3088C85.7485 21.9137 96.9817 24.8355 98.0738 25.3911C90.9639 21.7794 86.0605 18.284 78.5717 16.3187Z" fill="#393939"/>
<path d="M100.57 27.9617C100.57 26.7525 98.7994 25.7597 98.0738 25.3911M98.0738 25.3911C90.9639 21.7794 86.0605 18.284 78.5717 16.3187C76.9152 15.884 63.5941 19.7961 60.0058 22.5185C56.5308 25.1548 57.3535 24.9379 55.6373 26.7525C53.9211 28.5671 56.5734 25.0892 62.346 23.577C68.1186 22.0649 66.4024 21.9137 71.395 21.3088C76.3875 20.704 78.8837 20.704 82.3161 21.3088C85.7485 21.9137 96.9817 24.8355 98.0738 25.3911Z" stroke="#2F2F2F" stroke-width="3.05269"/>
<path d="M40.4579 22.4622C47.0582 11.4966 62.5878 5.93079 68.6897 4.51855H66.4982L56.443 7.01073C53.2202 8.38142 47.8059 11.2474 43.8096 13.8642C39.8295 16.4704 35.0006 23.0852 33.4967 27.4465C31.477 33.3032 28.1855 45.8886 30.1449 51.8698C32.1044 57.8511 31.8208 60.7171 31.0473 67.5705C31.4341 67.1967 31.795 66.6484 32.7232 63.4584C33.8834 59.471 32.2075 36.1692 40.4579 22.4622Z" fill="#FFDEDE"/>
<path d="M76.209 19.856C67.3905 19.856 59.6031 22.4975 53.6338 27.3892C47.6613 32.2836 43.5812 39.3721 42.083 48.1304L41.8604 49.5024C40.8096 56.3733 40.7744 63.3596 45.1084 68.7739C49.726 74.5422 58.962 78.1138 75.7168 78.4341H75.7412C84.3573 78.4341 93.7258 77.2516 100.447 72.7778C103.84 70.5195 106.559 67.4218 108.143 63.2495C109.711 59.1185 110.132 54.0223 109.109 47.7817C109.423 38.5374 105.611 31.5055 99.4678 26.8198C93.3405 22.1464 84.9708 19.856 76.209 19.856Z" fill="#EDCBB6" stroke="#2F2F2F" stroke-width="2.54391"/>
<path d="M89.6379 61.3123C88.3682 62.1793 82.7602 65.488 75.3731 61.7037" stroke="black" stroke-width="1.68239" stroke-linecap="round"/>
<path d="M73.7066 37.6824C71.7682 37.0203 71.5097 36.8879 65.3067 35.9609C59.3621 35.0726 58.108 35.5654 57.2945 37.9472" stroke="#2F2F2F" stroke-width="0.841196" stroke-linecap="round"/>
<path d="M102.146 36.8345C100.563 35.314 95.9322 36.6175 89.6048 37.7066" stroke="#2F2F2F" stroke-width="0.841196" stroke-linecap="round"/>
<rect width="6" height="8.30434" rx="3" transform="matrix(-1 0 0 1 97.5444 44.1951)" fill="#2F2F2F"/>
<path d="M99.0214 44.4419L96.9413 48.1006L96.4467 44.8297L99.0214 44.4419Z" fill="#2F2F2F"/>
<path d="M99.0206 46.1018L96.4237 49.4675L96.4128 46.165L99.0206 46.1018Z" fill="#2F2F2F"/>
<path d="M97.4676 42.9842L97.3677 47.1966L95.3766 44.9359L97.4676 42.9842Z" fill="#2F2F2F"/>
<rect x="63.3069" y="43.9429" width="6" height="8.30434" rx="3" fill="#2F2F2F"/>
<path d="M61.83 44.1897L63.9101 47.8484L64.4047 44.5775L61.83 44.1897Z" fill="#2F2F2F"/>
<path d="M61.8308 45.8496L64.4277 49.2153L64.4386 45.9128L61.8308 45.8496Z" fill="#2F2F2F"/>
<path d="M63.3838 42.732L63.4837 46.9444L65.4748 44.6837L63.3838 42.732Z" fill="#2F2F2F"/>
<path d="M91.6327 23.662C86.5679 21.985 78.2412 17.9739 63.6908 22.6054C58.1947 24.3548 52.102 29.6227 49.7842 32.6679C47.4665 35.7131 45.3856 40.386 44.1186 43.922C41.4146 51.4689 42.3761 62.1114 45.4063 66.5626C48.1103 70.5346 46.0501 68.5486 45.7926 57.0297C45.2597 33.1952 53.6472 31.9641 56.7375 29.6227C64.581 23.68 74.2495 22.7345 75.9234 22.6054C78.8608 22.3789 84.3576 21.2671 91.7502 23.7159L93.9504 24.7238L93.1034 24.2339C92.9816 24.1634 92.8523 24.1024 92.7201 24.054C92.3933 23.9344 92.07 23.8218 91.7502 23.7159L91.6327 23.662Z" fill="#D6B3A0"/>
<path d="M86.8304 62.3681C87.2135 62.3035 87.4795 61.9509 87.4365 61.5648C87.4045 61.2788 87.2081 61.0381 86.9344 60.9496L85.4108 60.4566C85.0914 60.3532 84.7576 60.3005 84.4218 60.3005L82.6025 60.3005L80.5854 60.3005C80.1258 60.3005 79.671 60.3945 79.2489 60.5766L77.8291 61.1891C77.5847 61.2946 77.4163 61.5239 77.3888 61.7886C77.347 62.1917 77.6392 62.5525 78.0421 62.5954L82.0461 63.0221C82.4153 63.0614 82.7882 63.05 83.1544 62.9883L86.8304 62.3681Z" fill="#DB6E70" fill-opacity="0.57"/>
<path d="M86.2237 64.8786C86.307 64.8288 86.379 64.762 86.4348 64.6825C86.7861 64.1826 86.3643 63.5062 85.7609 63.6017L82.6745 64.0902C82.4624 64.1238 82.2462 64.1233 82.0343 64.0886L79.4471 63.6658C79.2413 63.6322 79.0334 63.7135 78.905 63.878C78.7284 64.1041 78.7471 64.4261 78.9486 64.6303L79.3397 65.0265C79.4529 65.1412 79.5879 65.232 79.7369 65.2935L80.1591 65.468C80.5778 65.641 81.0264 65.73 81.4794 65.73L82.6024 65.73L83.7794 65.73C84.4469 65.73 85.1019 65.5491 85.6749 65.2066L86.2237 64.8786Z" fill="#DB6E70" fill-opacity="0.57"/>
<rect width="5.98437" height="10.0049" rx="2.99218" transform="matrix(-0.00521442 -0.999986 -0.999985 0.00547495 105.576 59.4062)" fill="#E5B0B1" fill-opacity="0.57"/>
<rect width="5.98437" height="10.0049" rx="2.99218" transform="matrix(-0.00521442 -0.999986 -0.999985 0.00547495 65.5804 59.4062)" fill="#E5B0B1" fill-opacity="0.57"/>
<path d="M78.5444 131.302C78.5444 130.502 76.8778 122.302 76.0444 118.302L81.0444 117.802C81.5444 118.302 82.6444 119.502 83.0444 120.302C83.4444 121.102 82.8778 131.302 82.5444 136.302H79.0444V135.802L80.5444 133.802C79.8778 133.302 78.5444 132.102 78.5444 131.302Z" fill="#C74949" stroke="#4C4C4C"/>
<path d="M104.544 135.802C105.744 133.402 103.044 126.468 101.544 123.302C100.544 121.635 98.2444 118.202 97.0444 117.802C95.5445 117.302 97.5444 118.302 96.5444 120.302C95.5444 122.302 97.5444 127.302 98.5444 128.302C99.3444 129.102 98.2111 130.968 97.5444 131.802L100.544 140.302C101.378 139.802 103.344 138.202 104.544 135.802Z" fill="#EDCBB6"/>
<path d="M99.5444 126.302C100.378 127.968 101.844 131.602 101.044 132.802M101.544 123.302C103.044 126.468 105.744 133.402 104.544 135.802C103.344 138.202 101.378 139.802 100.544 140.302L97.5444 131.802C98.2111 130.968 99.3444 129.102 98.5444 128.302C97.5444 127.302 95.5444 122.302 96.5444 120.302C97.5444 118.302 95.5445 117.302 97.0444 117.802C98.2444 118.202 100.544 121.635 101.544 123.302Z" stroke="#4C4C4C"/>
<path d="M124.544 179.302C122.144 176.502 117.211 177.135 115.044 177.802C111.544 180.468 104.644 186.302 105.044 188.302C105.444 190.302 101.878 199.802 100.044 204.302L133.544 188.302C131.544 186.468 126.944 182.102 124.544 179.302Z" fill="#D9D9D9" stroke="#4C4C4C"/>
<path d="M64.0444 205.802L60.5444 199.802C58.2111 198.802 53.0444 196.902 51.0444 197.302C49.0444 197.702 44.5444 196.135 42.5444 195.302L31.0444 189.302L30.5444 190.302C33.3778 196.135 40.6444 207.902 47.0444 208.302C53.4444 208.702 61.0444 206.802 64.0444 205.802Z" fill="#D9D9D9" stroke="#4C4C4C"/>
<path d="M21.0445 139.302C20.6445 138.902 15.5445 143.468 13.0445 145.802V146.302C9.54444 146.135 2.34442 146.202 1.54442 147.802C0.744417 149.402 5.54442 152.802 8.04442 154.302C7.37776 154.135 5.94445 154.002 5.54445 154.802C5.04445 155.802 1.54445 162.802 2.04445 163.302C2.44445 163.702 7.87779 162.802 10.5445 162.302C11.8778 162.968 14.9445 164.702 16.5445 166.302C18.5445 168.302 20.0445 165.802 20.5445 163.302C21.0445 160.802 22.0445 159.802 22.5445 159.302C22.9445 158.902 25.3778 156.802 26.5445 155.802C26.2111 155.135 25.1445 153.602 23.5445 152.802C21.5445 151.802 23.0445 148.802 22.0445 147.802C21.0445 146.802 21.5445 139.802 21.0445 139.302Z" fill="url(#paint0_radial_214_42918)" stroke="#4C4C4C"/>
<path d="M40.5444 127.802C40.2845 129.737 43.5444 131.802 43.5444 131.802L49.0444 132.302L54.5444 133.302C57.5444 133.302 63.7444 133.402 64.5444 133.802C65.5444 134.302 67.3255 131.622 67.0444 129.802C66.6845 127.47 61.5444 127.302 61.5444 127.302C61.5444 127.302 59.2974 117.667 54.5444 117.302C49.9994 116.953 49.9584 122.965 46.0444 125.302C44.0186 126.511 40.8585 125.463 40.5444 127.802Z" fill="url(#paint1_radial_214_42918)" stroke="#4C4C4C"/>
<path d="M46.0444 116.802C46.8444 118.402 50.0444 118.135 51.5444 117.802C49.7111 120.302 45.9444 125.302 45.5444 125.302C45.1444 125.302 42.3778 126.302 41.0444 126.802V129.302L43.5444 132.302L42.0444 132.802H36.0444L31.5444 132.302L25.0444 130.802C25.5444 130.302 26.4444 129.202 26.0444 128.802C25.5444 128.302 22.5444 122.802 22.5444 121.802C22.5444 120.802 30.5444 117.802 31.0444 117.302C31.5444 116.802 37.0444 109.302 38.5444 108.802C40.0444 108.302 45.0444 114.802 46.0444 116.802Z" fill="url(#paint2_radial_214_42918)" stroke="#4C4C4C"/>
<path d="M72.5444 122.802L65.0444 126.802V127.802L67.0444 128.802C68.0444 129.302 67.0444 130.802 66.5444 131.802C66.0444 132.802 66.0444 133.802 66.5444 133.802C66.9444 133.802 73.7111 135.468 77.0444 136.302C78.2111 135.468 80.2444 133.502 79.0444 132.302C77.5444 130.802 77.0444 129.802 77.0444 128.802C77.0444 128.002 74.0444 124.468 72.5444 122.802Z" fill="url(#paint3_radial_214_42918)" stroke="#4C4C4C"/>
<path d="M69.0445 103.302C68.0124 104.629 66.2237 107.678 66.3787 110.302M66.3787 110.302C66.3989 110.644 66.4522 110.979 66.5445 111.302C67.3445 114.102 66.7673 111.802 66.3787 110.302Z" stroke="#4C4C4C"/>
<path d="M78.5444 90.3018C79.7111 92.4684 81.8444 97.1018 81.0444 98.3018" stroke="#4C4C4C"/>
<path d="M95.0444 123.302C95.5444 126.468 95.1444 133.102 89.5444 134.302" stroke="#4C4C4C"/>
<path d="M104.544 181.302C102.378 184.968 98.2445 193.202 99.0445 196.802" stroke="#4C4C4C"/>
<path d="M38.5444 188.302C39.5444 188.302 45.0444 194.802 48.0444 193.802" stroke="#4C4C4C"/>
<path d="M93.0444 154.302C94.7111 156.468 97.5444 163.102 95.5444 172.302" stroke="#4C4C4C"/>
<path d="M74.0445 173.302C76.0445 172.102 74.8778 150.135 74.0445 139.302C76.5445 139.302 81.8444 139.602 83.0444 140.802C84.2444 142.002 84.5445 167.302 84.5445 179.802C80.2112 178.135 72.0445 174.502 74.0445 173.302Z" fill="#803B3B" fill-opacity="0.67"/>
<path d="M20.0445 169.302C21.2445 168.102 57.8778 178.135 76.0445 183.302C76.0445 184.135 75.7445 186.202 74.5444 187.802C73.0444 189.802 63.0444 186.302 59.5444 185.802C56.7444 185.402 35.3778 181.635 25.0445 179.802C22.8778 176.802 18.8445 170.502 20.0445 169.302Z" fill="#973F3F"/>
<path d="M61.5445 154.802C63.9445 152.802 66.2112 141.302 67.0445 135.802C67.3778 135.802 68.1444 135.902 68.5444 136.302C68.9444 136.702 67.3778 144.802 66.5444 148.802L60.0444 158.802C58.5445 159.968 55.3445 162.402 54.5445 162.802C53.5445 163.302 51.5445 161.302 53.5445 161.302C55.5445 161.302 58.5445 157.302 61.5445 154.802Z" fill="#973F3F"/>
<defs>
<filter id="filter0_d_214_42918" x="10.0701" y="80.583" width="81.4269" height="117.465" filterUnits="userSpaceOnUse" color-interpolation-filters="sRGB">
<feFlood flood-opacity="0" result="BackgroundImageFix"/>
<feColorMatrix in="SourceAlpha" type="matrix" values="0 0 0 0 0 0 0 0 0 0 0 0 0 0 0 0 0 0 127 0" result="hardAlpha"/>
<feOffset dy="4"/>
<feGaussianBlur stdDeviation="2"/>
<feComposite in2="hardAlpha" operator="out"/>
<feColorMatrix type="matrix" values="0 0 0 0 0 0 0 0 0 0 0 0 0 0 0 0 0 0 0.25 0"/>
<feBlend mode="normal" in2="BackgroundImageFix" result="effect1_dropShadow_214_42918"/>
<feBlend mode="normal" in="SourceGraphic" in2="effect1_dropShadow_214_42918" result="shape"/>
</filter>
<radialGradient id="paint0_radial_214_42918" cx="0" cy="0" r="1" gradientUnits="userSpaceOnUse" gradientTransform="translate(14 153.153) rotate(90) scale(13.8757 10.2782)">
<stop stop-color="#68B6FF"/>
<stop offset="0.456731" stop-color="#408BDB"/>
<stop offset="1" stop-color="#16427B"/>
</radialGradient>
<radialGradient id="paint1_radial_214_42918" cx="0" cy="0" r="1" gradientUnits="userSpaceOnUse" gradientTransform="translate(53.8019 125.575) rotate(90) scale(8.28784 10.8745)">
<stop stop-color="#68B6FF"/>
<stop offset="0.456731" stop-color="#408BDB"/>
<stop offset="1" stop-color="#16427B"/>
</radialGradient>
<radialGradient id="paint2_radial_214_42918" cx="0" cy="0" r="1" gradientUnits="userSpaceOnUse" gradientTransform="translate(37.0445 120.788) rotate(90) scale(12.0137 11.8805)">
<stop stop-color="#68B6FF"/>
<stop offset="0.456731" stop-color="#408BDB"/>
<stop offset="1" stop-color="#16427B"/>
</radialGradient>
<radialGradient id="paint3_radial_214_42918" cx="0" cy="0" r="1" gradientUnits="userSpaceOnUse" gradientTransform="translate(72.2276 129.552) rotate(90) scale(6.75 5.88551)">
<stop stop-color="#68B6FF"/>
<stop offset="0.456731" stop-color="#408BDB"/>
<stop offset="1" stop-color="#16427B"/>
</radialGradient>
</defs>
</svg>
