<svg width="141" height="130" viewBox="0 0 141 130" fill="none" xmlns="http://www.w3.org/2000/svg">
<path d="M139.879 115.607C117.157 104.587 28.3361 106.983 6.30298 110.337C1.25372 112.573 -12.4251 118.099 33.8444 122.316C91.6814 127.586 147.222 119.169 139.879 115.607Z" fill="#0A304A" fill-opacity="0.81"/>
<path d="M73.2719 58.45C74.3405 58.7553 76.7981 59.2286 78.0804 58.679C79.6832 57.9921 81.286 58.2211 81.9729 58.45C82.6598 58.679 84.9496 57.7631 84.9496 57.3052" stroke="black" stroke-width="0.457948"/>
<path d="M73.2719 59.1365C73.1956 60.0524 73.2719 62.0216 74.1878 62.5711C75.3327 63.2581 75.5616 64.8609 76.9355 63.716C78.3093 62.5711 81.7439 60.7393 81.286 59.1365M81.286 59.1365C81.2422 58.9832 81.2067 58.8501 81.1783 58.7351C81.0356 58.1552 81.286 58.5393 81.286 59.1365V59.1365Z" stroke="black" stroke-width="0.457948"/>
<path d="M29.3089 35.323C29.6752 20.1192 40.147 10.5175 45.3371 7.61718C49.9165 5.09847 60.9072 0.518984 68.2344 2.35078C77.3934 4.64052 83.8046 6.24337 87.6972 10.3649C91.5898 14.4864 97.0851 23.8744 97.0851 29.5987C97.0851 35.323 98.001 47.9166 96.3982 49.5195C95.116 50.8017 99.0788 53.8743 98.688 56.8466C98.2609 60.0948 94.2107 63.8533 93.8977 63.7334C92.9757 63.5749 90.9944 63.2579 90.4449 63.2579C89.758 63.2579 89.9869 62.8 88.3841 62.571C86.7813 62.342 85.1785 62.8 84.2626 63.2579C83.3467 63.7159 79.9121 65.3187 79.9121 66.0056C79.9121 66.1505 79.753 66.3304 79.4976 66.5251C77.8934 67.7487 75.6246 66.9808 74.2979 65.4607C72.4943 63.3942 70.4655 61.3005 69.8372 61.4261C68.6924 61.6551 66.1736 61.6551 64.5708 66.6925C63.8356 69.0033 61.0924 70.1462 58.6772 69.9292C56.0197 69.6903 53.1221 69.4402 53.1221 69.4402C44.8536 68.8161 37.3269 61.5043 33.3429 56.3313C32.2248 54.8796 30.6165 53.1637 30.188 51.3821C29.5731 48.8259 29.1006 43.9664 29.3089 35.323Z" fill="#EEDAC2"/>
<path d="M93.8795 63.7159C93.8839 63.7247 93.89 63.7305 93.8977 63.7334M93.8977 63.7334C94.2107 63.8533 98.2609 60.0948 98.688 56.8466C99.0788 53.8743 95.116 50.8017 96.3982 49.5195C98.001 47.9166 97.0851 35.323 97.0851 29.5987C97.0851 23.8744 91.5898 14.4864 87.6972 10.3649C83.8047 6.24337 77.3934 4.64052 68.2344 2.35078C60.9072 0.518984 49.9165 5.09847 45.3371 7.61718C40.147 10.5175 29.6752 20.1192 29.3089 35.323C29.1006 43.9664 29.5731 48.8259 30.188 51.3821C30.6165 53.1637 32.2248 54.8796 33.3429 56.3313C37.3269 61.5043 44.8536 68.8161 53.1221 69.4402C53.1221 69.4402 56.0197 69.6903 58.6772 69.9292C61.0924 70.1462 63.8356 69.0033 64.5708 66.6925V66.6925C66.1736 61.6551 68.6924 61.6551 69.8372 61.4261C70.4655 61.3005 72.4943 63.3942 74.2979 65.4607C75.6246 66.9808 77.8934 67.7487 79.4976 66.5251C79.753 66.3304 79.9121 66.1505 79.9121 66.0056C79.9121 65.3187 83.3467 63.7159 84.2626 63.2579C85.1785 62.8 86.7813 62.342 88.3841 62.571C89.987 62.8 89.758 63.2579 90.4449 63.2579C90.9944 63.2579 92.9757 63.5749 93.8977 63.7334Z" stroke="#2E2E2E" stroke-width="0.915896"/>
<path d="M93.4955 34.711C92.9503 34.0031 89.9387 33.3811 86.7978 31.5365" stroke="#7B6561" stroke-width="0.555571" stroke-linecap="round"/>
<path d="M52.967 38.6514C53.4249 36.5906 57.3175 36.3616 61.621 33.0351" stroke="#7B6561" stroke-width="0.555571" stroke-linecap="round"/>
<path d="M50.643 52.1876L51.9293 55.2078L54.0381 53.8705L50.643 52.1876Z" fill="#4A413E"/>
<path d="M98.1905 47.9278L96.9042 50.948L94.7953 49.6107L98.1905 47.9278Z" fill="#4A413E"/>
<path d="M55.3057 17.9761C66.336 11.5402 73.8404 13.7056 78.3092 14.4214C78.3941 14.435 78.4779 14.4412 78.5638 14.4412L82.3495 14.4412C83.6411 14.4412 84.0802 16.1639 82.9463 16.7823C82.6906 16.9217 82.3936 16.9651 82.1063 16.9176C75.1891 15.774 68.617 19.7445 66.1736 20.4397C64.8218 20.8243 56.2254 22.3336 50.8285 28.9319C48.7022 31.5316 42.0313 33.9839 46.6544 55.3138C48.8887 65.6223 47.11 68.4536 44.1921 65.3186C40.9223 61.8056 40.7783 52.8417 41.6734 45.6269C42.0927 42.2464 44.2855 35.8921 45.6539 32.7839C47.0222 29.6758 51.1 20.43 55.3057 17.9761Z" fill="#DCB9A3"/>
<path d="M81.3244 58.2392C81.5081 58.1914 81.633 58.0211 81.6235 57.8316C81.6156 57.6744 81.5163 57.5365 81.3697 57.4793L80.0629 56.9695C79.9255 56.916 79.7841 56.8741 79.6389 56.8481C79.2396 56.7763 78.3791 56.6382 77.8142 56.6665C76.9738 56.7087 75.7678 57.0941 75.7678 57.0941L74.3598 57.7582C74.1062 57.8778 74.0074 58.1876 74.145 58.4317C74.2216 58.5675 74.3592 58.6578 74.5143 58.674L77.6994 59.007C78.0203 59.0406 78.3447 59.0161 78.6571 58.9346L81.3244 58.2392Z" fill="#DB6E70" fill-opacity="0.57"/>
<path d="M80.4823 63.0592C80.9534 62.85 81.2007 62.3274 81.0635 61.8307C80.866 61.1155 80.0045 60.8324 79.4205 61.2907L78.5367 61.9844C78.2401 62.2172 77.8777 62.3504 77.5012 62.3649L75.5389 62.4407C74.9277 62.4643 74.579 63.15 74.9202 63.6576C75.065 63.873 75.3075 64.0022 75.5672 64.0022L77.7886 64.0023C78.1644 64.0023 78.5361 63.9234 78.8797 63.7709L80.4823 63.0592Z" fill="#DB6E70" fill-opacity="0.57"/>
<path d="M53.3005 53.7651C58.1415 52.9472 65.9281 51.6782 66.758 51.7311L68.6157 51.8495C69.4279 51.9013 70.1623 52.96 69.4127 53.2769C69.0355 53.4364 58.7896 54.3588 53.7138 54.8001C53.0947 54.9136 51.7652 55.1347 51.3996 55.1114C50.4998 55.0541 52.4115 53.9152 53.3005 53.7651Z" fill="#352C29" stroke="#4A413E" stroke-width="0.457948"/>
<path d="M94.484 49.3659C91.4221 48.994 87.2688 48.5442 86.8898 48.7211C85.9661 49.152 85.5096 50.3647 86.2368 51.0789C86.2871 51.1284 86.3332 51.1656 86.3732 51.187C86.6547 51.3376 92.124 51.0992 95.2274 50.9413C95.5389 50.9255 95.849 50.9437 96.1589 50.9787C96.5514 51.0229 96.9929 51.0529 97.119 50.9941C97.1309 50.9885 97.1389 50.9795 97.1434 50.9673C97.5246 49.932 95.5792 49.499 94.484 49.3659Z" fill="#352C29" stroke="#4A413E" stroke-width="0.457948"/>
<path d="M76.9356 58.9074C76.6366 58.9821 75.997 58.7925 75.2876 58.5315C73.9347 58.0338 72.0443 57.5984 71.4402 58.9073C70.0663 61.8839 74.6458 62.3419 76.2487 62.3419H76.2489C77.2203 62.3419 78.3095 62.3419 79.9122 61.655C81.1945 61.1055 81.515 59.2821 81.515 58.4391C81.017 58.4205 80.4364 58.368 80.1412 58.2204C79.6832 57.9915 77.8514 58.6784 76.9356 58.9074Z" fill="#D9D9D9"/>
<path d="M84.9496 57.3045C84.9496 57.9914 82.6599 58.4494 82.202 58.4494C82.0392 58.4494 81.7897 58.4494 81.515 58.4391M81.515 58.4391C81.017 58.4205 80.4364 58.368 80.1412 58.2204C79.6832 57.9915 77.8514 58.6784 76.9356 58.9074C76.6366 58.9821 75.997 58.7925 75.2876 58.5315C73.9347 58.0338 72.0443 57.5984 71.4402 58.9073V58.9073C70.0663 61.8839 74.6458 62.3419 76.2487 62.3419C77.2201 62.3419 78.3094 62.3419 79.9122 61.655C81.1945 61.1055 81.515 59.2821 81.515 58.4391Z" stroke="black" stroke-width="0.457948"/>
<path d="M52.4353 57.5337L55.4119 61.6552" stroke="#EAC2B9" stroke-width="0.457948"/>
<path d="M50.6034 57.7627L54.038 61.8842" stroke="#EAC2B9" stroke-width="0.457948"/>
<path d="M48.5427 58.6787L51.7483 61.8843" stroke="#EAC2B9" stroke-width="0.457948"/>
<path d="M46.94 59.1367C47.1232 59.3199 48.6954 61.0448 49.4587 61.8844" stroke="#EAC2B9" stroke-width="0.457948"/>
<path d="M91.8187 53.8706L94.3374 56.8473" stroke="#EAC2B9" stroke-width="0.457948"/>
<path d="M94.7955 52.7251L95.2534 56.3887" stroke="#EAC2B9" stroke-width="0.457948"/>
<path d="M49.9165 101.497C45.3405 89.8933 49.7804 77.9131 53.4469 71.8331C54.2013 70.5821 55.5885 69.8984 57.0493 69.8984H59.3045C61.8337 69.8984 63.884 71.9487 63.884 74.4779V85.0987C66.8488 87.8929 71.0945 91.4855 73.9588 93.9407C74.4081 94.3258 74.6826 94.7084 74.8093 95.0856C75.748 97.8814 68.5623 100.384 64.1505 101.434C64.11 101.475 64.0231 101.497 63.884 101.497C61.8232 101.497 60.4493 103.787 57.4727 105.16C55.6814 105.987 56.2827 108.766 57.2104 111.002C57.7355 112.268 57.5264 114.111 56.4124 113.312C55.0642 112.346 52.9494 109.187 49.9165 101.497Z" fill="#4B4040"/>
<path d="M63.884 101.497C61.8232 101.497 60.4493 103.787 57.4727 105.16C55.6814 105.987 56.2827 108.766 57.2104 111.002C57.7355 112.268 57.5264 114.111 56.4124 113.312C55.0642 112.346 52.9494 109.187 49.9165 101.497C45.3405 89.8933 49.7804 77.9131 53.4469 71.8331C54.2013 70.5821 55.5885 69.8984 57.0493 69.8984H59.3045C61.8337 69.8984 63.884 71.9487 63.884 74.4779V85.0987M63.884 101.497C65.5326 101.497 59.8388 98.4439 56.7858 96.9174M63.884 101.497C68.2657 100.486 75.7672 97.9384 74.8093 95.0856C74.6826 94.7084 74.4081 94.3258 73.9588 93.9407C71.0945 91.4855 66.8488 87.8929 63.884 85.0987M60.4493 81.1182C60.4493 81.6736 61.8717 83.2022 63.884 85.0987" stroke="black" stroke-width="0.457948"/>
<path d="M74.8746 95.5436C74.8746 94.6277 77.7597 97.009 79.2251 97.3754C80.1903 97.6167 81.3408 97.805 82.232 97.9273C82.6386 97.9831 82.7902 98.5075 82.4697 98.7639L81.3591 99.6524C81.1846 99.792 81.1363 100.037 81.2448 100.232L81.9338 101.473C82.073 101.723 81.9503 102.039 81.6783 102.129L78.7853 103.094C78.5083 103.186 78.4671 103.561 78.7176 103.711C78.9432 103.847 78.9377 104.175 78.7077 104.303L77.3706 105.046C77.2412 105.118 77.087 105.124 76.9531 105.06C73.9583 103.642 68.4446 101.194 67.1168 101.2C66.8636 101.336 66.7584 101.37 66.8605 101.268C66.9062 101.222 66.9934 101.201 67.1168 101.2C68.5673 100.423 74.8746 96.3234 74.8746 95.5436Z" fill="#EEDAC2" stroke="black" stroke-width="0.457948"/>
<path d="M60.6784 102.871C61.5716 101.978 66.1675 101.084 67.2437 101.041C67.2945 101.039 67.3457 101.048 67.3929 101.067C68.514 101.514 65.8221 102.089 70.9822 102.476C76.2486 102.871 78.7609 106.715 80.5991 107.45C82.3277 108.142 85.2796 110.111 86.7612 111.164C86.9128 111.272 86.9817 111.459 86.9415 111.641C86.4283 113.961 85.9439 118.412 87.6973 119.815C89.987 121.647 85.6365 123.021 83.3468 121.647C81.057 120.273 78.9963 121.876 76.2486 121.647C73.5009 121.418 81.5149 118.212 69.1504 119.357C56.7858 120.502 56.3278 113.404 57.4727 112.946C58.6176 112.488 55.6409 108.824 56.7858 106.534C57.9307 104.245 59.7625 103.787 60.6784 102.871Z" fill="#DDB396" stroke="black" stroke-width="0.457948"/>
<path d="M89.7581 115.006C90.0551 114.264 88.6667 112.669 87.5204 111.562C87.238 111.29 86.7814 111.494 86.7814 111.887V118.899C86.7814 119.128 89.3002 116.151 89.7581 115.006Z" fill="#FFC5BD" stroke="black" stroke-width="0.457948"/>
<path d="M99.375 63.2578C99.9092 64.6317 100.749 68.0663 100.749 68.0663" stroke="black" stroke-width="0.457948"/>
<path d="M51.5193 106.534C51.7149 106.876 51.8609 107.239 51.9646 107.617C52.5194 109.04 53.2103 111.079 53.3511 112.487C53.5288 114.264 51.2788 116.616 50.0292 117.661C49.9562 117.722 49.8692 117.756 49.7742 117.763C43.762 118.147 31.159 118.898 27.706 118.898C25.6442 118.898 24.8167 118.435 24.5654 117.753C23.0887 118.197 20.227 118.789 18.776 118.241C16.8679 118.918 12.5937 120.135 10.762 119.585C8.47221 118.898 0.229149 117.818 0.458123 112.977C0.687097 108.137 0.000193059 102.87 1.83199 101.954C3.66155 101.039 6.17634 94.4142 18.0458 94.3981C18.0739 94.3981 18.1031 94.3955 18.1308 94.3903L28.622 92.4334C34.5041 89.1194 41.2035 89.468 41.9024 89.8138C45.0326 89.3942 46.999 93.0637 47.6268 93.4822C48.3137 93.9401 49.6875 103.328 51.5193 106.534Z" fill="#D9D9D9"/>
<path d="M38.4678 91.4214C37.6283 97.3747 36.6818 110.106 39.6127 113.403C43.2763 117.524 49.0006 117.982 49.9165 116.38C50.8324 114.777 53.3511 109.739 51.5193 106.534M51.5193 106.534C49.6875 103.328 48.3137 93.9401 47.6268 93.4822C46.999 93.0637 45.0327 89.3942 41.9024 89.8138M51.5193 106.534C52.0536 107.755 53.168 110.655 53.3511 112.487C53.5288 114.264 51.2788 116.616 50.0292 117.661C49.9562 117.722 49.8692 117.756 49.7742 117.763C43.762 118.147 31.159 118.898 27.706 118.898C25.6442 118.898 24.8167 118.435 24.5654 117.753M40.9865 90.0476C41.3021 89.9292 41.6074 89.8534 41.9024 89.8138M41.9024 89.8138C41.2035 89.468 34.5041 89.1194 28.622 92.4334M14.4255 106.076C16.2573 106.076 19.005 104.931 20.6078 104.702C21.8718 104.521 23.0913 99.4309 23.5645 96.8002C23.578 96.7252 23.6093 96.6564 23.6571 96.5971C25.1065 94.7983 26.8262 93.4451 28.622 92.4334M14.4255 106.076C13.4084 106.076 12.553 106.076 11.9973 106.076C11.7116 106.076 11.4961 106.334 11.5601 106.613C11.8049 107.68 12.2792 109.173 12.9964 110.426M14.4255 106.076C15.1888 106.763 16.5321 108.274 15.7994 108.823C15.0667 109.373 13.6254 110.121 12.9964 110.426M32.9724 112.487C31.217 112.563 27.3855 112.67 26.1032 112.487C24.8007 112.301 19.8692 113.325 16.7153 112.977M32.9724 112.716C31.1167 112.828 27.8441 113.223 26.1032 114.008M24.5654 117.753C24.2864 116.996 24.7174 115.969 24.9583 115.006C25.0548 114.62 25.4812 114.289 26.1032 114.008M24.5654 117.753C23.0887 118.197 20.227 118.789 18.776 118.241M16.7153 112.977C15.9881 112.897 15.3554 112.744 14.8835 112.487C14.1302 112.076 13.5027 111.311 12.9964 110.426M16.7153 112.977C16.7916 114.035 17.1732 116.471 18.0891 117.753C18.244 117.97 18.4808 118.129 18.776 118.241M16.7153 112.977L26.1032 114.008M16.7153 112.977C14.2729 113.043 8.6096 111.754 5.49555 106.076M18.776 118.241C16.8679 118.918 12.5937 120.135 10.762 119.585C8.47221 118.898 0.229149 117.818 0.458123 112.977C0.687097 108.137 0.000193073 102.87 1.83199 101.954C3.66155 101.039 6.17634 94.4142 18.0458 94.3981C18.0739 94.3981 18.1031 94.3955 18.1308 94.3903L28.622 92.4334M27.706 107.221C28.164 108.213 29.4463 110.243 30.9117 110.426C32.3771 110.609 34.4226 109.892 35.2622 109.51" stroke="black" stroke-width="0.457948"/>
<path d="M111.968 30.9727C111.618 28.8672 108.717 31.0755 107.132 32.6069C107.007 32.7274 106.828 32.7699 106.663 32.7164C105.45 32.3233 103.378 31.7188 103.038 31.8887C102.581 32.1177 104.641 34.8653 103.954 34.8653C103.267 34.8653 101.665 36.9261 101.436 38.071C101.207 39.2158 105.328 37.613 105.328 38.9869C105.328 40.3607 108.076 41.0476 108.763 41.0476C109.45 41.0476 109.679 38.9869 109.908 38.071C110.137 37.1551 111.968 37.3841 113.8 36.4682C114.975 35.8808 113.481 35.3522 112.056 35.0477C111.67 34.9651 111.472 34.398 111.642 34.0412C111.962 33.3702 112.197 32.3436 111.968 30.9727Z" stroke="#2D2D2D" stroke-width="0.457948"/>
<path d="M30.4538 73.333C29.2402 72.8129 29.0248 75.2602 29.07 76.7532C29.0746 76.9058 29.0083 77.055 28.8728 77.1251C28.5086 77.3135 27.9265 77.446 27.4771 76.9966C26.7902 76.3096 24.7294 78.8284 25.4164 79.0574C26.1033 79.2864 26.7902 79.5153 27.4771 80.4312C28.164 81.3471 28.164 83.4079 29.08 83.8659C29.9959 84.3238 31.3697 81.5761 32.5146 82.95C33.6594 84.3238 35.2622 82.263 34.8043 81.5761C34.3463 80.8892 34.3463 79.7443 35.7202 79.5153C37.094 79.2864 35.4912 76.9966 34.3463 76.9966C33.2015 76.9966 32.7435 77.4546 32.5146 76.3097L32.5145 76.3096C32.2856 75.1647 32.0566 74.0199 30.4538 73.333Z" stroke="#2D2D2D" stroke-width="0.457948"/>
<path d="M45.4783 65.4307C38.2996 55.6918 43.2939 22.9052 54.6293 20.6869C54.6922 20.6746 54.7493 20.6521 54.8025 20.6164C61.2783 16.2731 78.9009 10.6848 89.3001 21.8138C98.5042 31.6638 96.9967 38.5602 96.9808 41.6246C96.9787 42.0224 97.3687 42.0795 97.5042 41.7055C98.5513 38.8168 99.8143 31.858 99.8323 29.1979C99.8326 29.1583 99.828 29.1241 99.8183 29.0858C99.1482 26.4323 99.2851 18.3432 86.5521 6.70152C73.7295 -5.02195 50.6031 2.2746 43.047 7.38835C29.7668 14.9446 27.5684 34.499 28.8507 54.0991C30.4535 78.5994 50.5433 80.8683 52.4349 74.2488C54.1849 68.125 60.7394 69.9395 63.5185 71.5113C63.7285 71.63 64.0042 71.5685 64.1371 71.3672C68.3352 65.0061 53.3959 67.7618 45.7078 65.5887C45.6139 65.5622 45.5362 65.5093 45.4783 65.4307Z" fill="#D7BE91" stroke="#604F4F" stroke-width="0.457948"/>
<path d="M52.7901 19.3615C55.2254 16.1957 65.418 10.3383 66.8568 10.4866C73.3615 11.1571 78.9073 16.0813 85.4076 18.3792C84.4089 18.0255 73.7808 14.6613 70.8545 14.6356C67.9283 14.6099 65.3456 15.8586 61.3653 17.2341C57.3851 18.6097 59.3564 17.6299 54.9055 19.9939C50.4545 22.3578 46.0996 28.6239 47.1689 26.6221C48.2383 24.6202 50.4318 22.4271 52.7901 19.3615Z" fill="#534343"/>
<path d="M89.5291 21.8139C88.5676 21.0057 85.4076 18.3792 85.4076 18.3792M85.4076 18.3792C78.9073 16.0813 73.3615 11.1571 66.8568 10.4866C65.418 10.3383 55.2254 16.1957 52.7901 19.3615C50.4318 22.4271 48.2383 24.6202 47.1689 26.6221C46.0996 28.6239 50.4545 22.3578 54.9055 19.9939C59.3564 17.6299 57.3851 18.6097 61.3653 17.2341C65.3456 15.8586 67.9283 14.6099 70.8545 14.6356C73.7808 14.6613 84.4089 18.0255 85.4076 18.3792Z" stroke="#2F2F2F" stroke-width="0.915896"/>
<path d="M63.426 72.8749C62.5101 70.6767 63.1971 69.2113 63.426 68.7533L66.5699 63.364C66.6104 63.2945 66.6685 63.237 66.7382 63.1971L69.5896 61.5677C69.6905 61.4761 69.7745 61.4262 69.8373 61.4262L71.8981 63.4869C73.8062 65.1661 78.4468 68.6618 79.9122 66.4636L83.0517 63.9968C83.0954 63.9625 83.145 63.9364 83.1981 63.9198L86.7814 62.8L89.9871 63.258L91.8189 63.7159H93.1927L99.3751 60.9445C99.6209 60.8343 99.9079 60.9577 99.9928 61.2133C100.931 64.0393 102.413 69.2574 101.894 70.8141C101.344 72.4627 101.665 72.8749 101.894 72.8749C103.573 72.8749 106.931 73.9282 106.931 78.1413C106.931 81.3012 106.674 82.3402 106.448 82.5333C108.345 82.9406 111.36 84.1604 110.364 86.2274C110.256 86.4512 110.297 86.7302 110.497 86.8767L139.833 108.314C139.879 108.348 139.919 108.391 139.949 108.44C141.571 111.119 140.857 115.478 125.249 112.029C109.496 108.549 113.495 116.38 117.464 120.73C121.123 125.152 123.868 132.664 105.627 127.391C105.582 127.378 105.538 127.358 105.499 127.332L89.6383 116.833C89.4453 116.705 89.3795 116.454 89.4612 116.237C89.787 115.373 90.0172 113.963 89.0712 113.174C87.6973 112.029 87.4683 110.656 86.7814 110.656C86.2699 110.656 81.0905 107.482 78.037 105.565C77.7445 105.382 77.7551 104.954 78.055 104.782L78.6951 104.416C78.8732 104.315 78.9619 104.107 78.9122 103.908L78.8619 103.707C78.8074 103.489 78.9192 103.263 79.1258 103.175L80.3702 102.642L81.5268 102.311C81.7723 102.241 81.913 101.984 81.8396 101.739L81.3646 100.156C81.3162 99.9944 81.3603 99.8195 81.4795 99.7004L82.4322 98.7477C82.5682 98.6117 82.6019 98.404 82.5159 98.232C82.4616 98.1234 82.3654 98.0416 82.2496 98.0054L78.7673 96.9172C77.8514 96.734 74.8748 94.5511 73.5009 93.4825L64.0347 84.9179C63.9387 84.8311 63.884 84.7087 63.884 84.5793V78.8282C63.884 76.5385 64.5709 75.6226 63.426 72.8749Z" fill="#D9D9D9"/>
<path d="M69.8373 61.4262C69.0741 64.0975 67.1355 70.3104 68.2345 71.959C69.2456 73.4756 69.0424 74.5918 68.7656 75.0579C68.7223 75.1309 68.6506 75.1799 68.5702 75.2073C67.466 75.5836 65.4343 76.0468 65.2579 75.1646C65.0289 74.0198 65.4868 70.1272 65.7158 68.7533C65.9448 67.3795 69.1504 61.4262 69.8373 61.4262ZM69.8373 61.4262L71.8981 63.4869M69.8373 61.4262L66.7382 63.1971C66.6685 63.237 66.6104 63.2945 66.5699 63.364L63.426 68.7533C63.1971 69.2113 62.5101 70.6767 63.426 72.8749C64.5709 75.6226 63.884 76.5385 63.884 78.8282C63.884 80.5654 63.884 83.2637 63.884 84.5793C63.884 84.7087 63.9387 84.8311 64.0347 84.9179L73.5009 93.4825C74.8748 94.5511 77.8514 96.734 78.7673 96.9172L82.2496 98.0054C82.3654 98.0416 82.4616 98.1234 82.5159 98.232V98.232C82.6019 98.404 82.5682 98.6117 82.4322 98.7477L81.4795 99.7004C81.3603 99.8195 81.3162 99.9944 81.3646 100.156L81.8396 101.739C81.913 101.984 81.7723 102.241 81.5268 102.311L80.3702 102.642L79.1258 103.175C78.9192 103.263 78.8074 103.489 78.8619 103.707L78.9122 103.908C78.9619 104.107 78.8732 104.315 78.6951 104.416L78.055 104.782C77.7551 104.954 77.7445 105.382 78.037 105.565C81.0905 107.482 86.2699 110.656 86.7814 110.656C87.4683 110.656 87.6973 112.029 89.0712 113.174C90.0172 113.963 89.787 115.373 89.4612 116.237C89.3795 116.454 89.4453 116.705 89.6383 116.833L105.499 127.332C105.538 127.358 105.582 127.378 105.627 127.391C123.868 132.664 121.123 125.152 117.464 120.73C113.495 116.38 109.496 108.549 125.249 112.029C140.857 115.478 141.571 111.119 139.949 108.44C139.919 108.391 139.879 108.348 139.833 108.314L110.497 86.8767C110.297 86.7302 110.256 86.4512 110.364 86.2274C111.397 84.0846 108.119 82.8523 106.244 82.4918M71.8981 63.4869C73.5773 65.624 77.3935 71.73 77.3935 71.73M71.8981 63.4869C73.8062 65.1661 78.4468 68.6618 79.9122 66.4636M79.9122 66.4636C80.6383 66.7748 81.9846 67.1071 83.1178 66.7709M79.9122 66.4636L83.0517 63.9968C83.0954 63.9625 83.145 63.9364 83.1981 63.9198L86.7814 62.8M86.7814 62.8C86.4761 63.1053 85.5908 64.1281 84.4917 65.7767C84.1394 66.3051 83.6523 66.6123 83.1178 66.7709M86.7814 62.8L89.9871 63.258M83.1178 66.7709C83.1178 67.4778 83.539 68.5257 85.189 67.3181M89.9871 63.258C89.2238 63.9449 87.2394 65.6851 85.4076 67.1505C85.3324 67.2106 85.2596 67.2664 85.189 67.3181M89.9871 63.258L91.8189 63.7159M85.189 67.3181C85.2619 67.6029 85.8655 68.0017 87.6973 67.3181M87.6973 67.3181C89.5291 66.6345 91.2083 64.6318 91.8189 63.7159M87.6973 67.3181C87.7736 67.7556 88.3384 68.368 89.9871 67.3181C91.6357 66.2681 93.1927 63.7159 93.1927 63.7159M91.8189 63.7159H93.1927M93.1927 63.7159L99.3751 60.9445C99.6209 60.8343 99.9079 60.9577 99.9928 61.2133C100.931 64.0393 102.413 69.2574 101.894 70.8141C101.344 72.4627 101.665 72.8749 101.894 72.8749C103.573 72.8749 106.931 73.9282 106.931 78.1413C106.931 82.3544 106.473 82.7971 106.244 82.4918M106.244 82.4918C103.497 82.1865 98.0012 82.5834 98.0012 86.6133C98.0012 90.5673 99.0298 92.6403 99.5732 93.2217C99.5938 93.2437 99.6165 93.262 99.6418 93.2785C99.9384 93.4721 100.317 93.6722 100.749 93.8393M106.244 92.3377C104.672 94.6244 102.347 94.4579 100.749 93.8393M101.436 88.6741C100.825 90.1331 99.8329 93.2088 100.749 93.8393M103.954 90.0479C103.115 90.9727 101.527 93.0256 101.894 93.8393M74.6458 91.4218C75.3327 90.9638 79.6832 81.5759 86.7814 86.1554C92.46 89.819 93.4217 92.414 93.1927 93.2536C93.1244 93.4434 93.0361 93.6412 92.9273 93.8393M84.4917 93.4825C88.0389 96.4182 90.4222 96.182 91.8189 95.1329M88.6132 92.3377C89.8344 93.0563 92.1852 94.6213 91.8189 95.1329M91.8189 95.1329C92.3057 94.7671 92.6727 94.3027 92.9273 93.8393M90.445 90.9638C90.674 90.9638 93.4853 93.0512 92.9273 93.8393" stroke="black" stroke-width="0.457948"/>
<path d="M90.3932 74.9064C90.5654 74.8447 90.6835 74.6934 90.7623 74.5141C90.8993 74.2025 91.2512 73.99 91.521 74.1977C91.8771 74.4719 92.3158 74.8707 92.7346 75.3942C93.4215 78.3709 92.5057 80.2027 90.9028 80.6606C89.6206 81.027 88.7825 77.7603 88.5237 76.0811C88.9785 75.9083 89.4966 75.5841 90.0827 75.0582C90.169 74.9807 90.284 74.9456 90.3932 74.9064Z" fill="#0F0F0F"/>
<path d="M71.898 77.455C73.1106 77.455 81.1012 74.9578 83.4329 74.2141C83.7307 74.1191 84.0434 74.3491 83.955 74.6489C83.8881 74.8757 83.7709 75.0339 83.5757 74.9363C83.2166 74.7567 76.5223 77.3488 73.0226 78.7454C72.8896 78.7985 72.7417 78.7863 72.6209 78.7096C71.8638 78.2289 70.8877 77.455 71.898 77.455Z" fill="#0F0F0F"/>
<path d="M85.8654 74.4783C86.0995 75.4146 86.9168 76.6918 88.5237 76.0811M92.7346 75.3942C92.3158 74.8707 91.8771 74.4719 91.521 74.1977C91.2512 73.99 90.8993 74.2025 90.7623 74.5141C90.6835 74.6934 90.5654 74.8447 90.3932 74.9064C90.284 74.9456 90.169 74.9807 90.0827 75.0582C89.4966 75.5841 88.9785 75.9083 88.5237 76.0811M92.7346 75.3942C93.6505 76.5391 96.1692 74.2493 95.4823 73.5624M92.7346 75.3942C93.4215 78.3709 92.5057 80.2027 90.9028 80.6606C89.6206 81.027 88.7825 77.7603 88.5237 76.0811M89.758 71.9596C89.1474 72.4939 88.3841 73.6082 90.2159 73.7914C92.0477 73.9746 91.3608 71.9596 91.3608 71.9596M76.0195 79.7447C76.0195 79.7447 68.9023 82.6753 64.3418 84.5532M77.3934 81.8055L68.0054 87.7588M99.8328 74.9363C100.52 74.9363 105.786 75.1652 106.244 76.0811M103.496 78.1419C103.725 78.3709 106.015 78.3709 106.473 79.5157M82.8887 72.1886C82.0492 72.4175 80.2784 72.9671 79.9121 73.3334M93.8795 67.1511C96.1692 67.9907 101.436 71.0437 101.436 71.0437M99.8328 61.6558C99.3749 61.8847 95.0244 65.5483 95.0244 66.2352M96.3982 67.3801C97.5431 67.6091 99.9244 68.2502 100.291 68.9829M71.898 77.455C73.1106 77.455 81.1012 74.9578 83.4329 74.2141C83.7307 74.1191 84.0434 74.3491 83.955 74.6489C83.8881 74.8757 83.7709 75.0339 83.5757 74.9363C83.2166 74.7567 76.5223 77.3488 73.0226 78.7454C72.8896 78.7985 72.7417 78.7863 72.6209 78.7096C71.8638 78.2289 70.8877 77.455 71.898 77.455Z" stroke="black" stroke-width="0.457948"/>
<path d="M96.1282 71.5401L101.436 72.6458L103.979 73.2817C104.109 73.3141 104.219 73.4011 104.274 73.5228C104.551 74.13 104.781 74.9095 103.954 74.2487C102.81 73.3328 102.123 74.7066 98.6881 73.3328C96.556 72.4799 95.9405 71.9396 95.8787 71.669C95.8514 71.5493 96.0081 71.5151 96.1282 71.5401Z" fill="#282828" stroke="black" stroke-width="0.457948"/>
<rect x="-0.0437925" y="0.518886" width="3.26067" height="7.22144" rx="0.706963" transform="matrix(-0.735905 0.677085 0.612016 0.790845 43.2838 26.7832)" fill="#FFFDFB" stroke="black" stroke-width="0.706963"/>
<rect x="-0.0437925" y="0.518886" width="3.26068" height="7.22144" rx="0.706963" transform="matrix(-0.735905 0.677085 0.612016 0.790845 46.247 23.5552)" fill="#FFFDFB" stroke="black" stroke-width="0.706963"/>
<path d="M35.6545 25.3814C39.0218 13.8546 50.7203 6.05148 55.4613 3.7251L53.6639 4.0764L45.882 8.06751C43.4945 9.89273 39.5886 13.4968 36.7992 16.6356C34.0211 19.7618 31.2949 26.851 30.8751 31.2559C30.3115 37.1709 29.9602 49.7138 32.6833 55.11C35.4065 60.5061 35.7087 63.2878 36.3531 69.9547C36.6005 69.5359 36.7943 68.9546 36.9603 65.7603C37.1678 61.7675 31.4454 39.7899 35.6545 25.3814Z" fill="#FFFCFA"/>
</svg>
