<svg width="96" height="201" viewBox="0 0 96 201" fill="none" xmlns="http://www.w3.org/2000/svg">
<path d="M82.0419 195.682C69.8235 189.755 22.0607 191.044 10.2126 192.847C7.49736 194.05 0.141658 197.022 25.0228 199.289C56.1241 202.123 85.9907 197.597 82.0419 195.682Z" fill="#0A304A" fill-opacity="0.81"/>
<path d="M19.9906 153.672L17.7751 94.2227L22.5754 96.4382V153.672L43.992 158.473L45.4691 161.057L29.5912 161.796L30.0779 172.504L49.1616 173.243L58.7621 161.057L64.6702 194.29H55.8081L48.4231 179.889L30.4472 180.628L31.0682 194.29H19.9906L18.5136 161.796C18.2182 161.796 17.652 156.38 17.4059 153.672H19.9906Z" fill="#1C1C1C"/>
<path d="M68.732 99.7614V97.1767H72.7937V115.639L71.3167 111.947C71.4398 109.854 71.6121 105.448 71.3167 104.562C71.0213 103.676 69.4705 100.992 68.732 99.7614Z" fill="#1C1C1C"/>
<path d="M19.9906 153.672L17.7751 94.2227L22.5754 96.4382V153.672M19.9906 153.672H22.5754M19.9906 153.672H17.4059C17.652 156.38 18.2182 161.796 18.5136 161.796M22.5754 153.672L43.992 158.473L45.4691 161.057L29.5912 161.796M18.5136 161.796L19.9906 194.29H31.0682L30.4472 180.628M18.5136 161.796C18.6724 161.796 23.6773 161.796 29.5912 161.796M29.5912 161.796L30.0779 172.504M30.0779 172.504L49.1616 173.243M30.0779 172.504L30.4472 180.628M49.1616 173.243L48.4231 179.889M49.1616 173.243L58.7621 161.057L64.6702 194.29H55.8081L48.4231 179.889M30.4472 180.628L48.4231 179.889M68.732 97.1767V99.7614C69.4705 100.992 71.0213 103.676 71.3167 104.562C71.6121 105.448 71.4398 109.854 71.3167 111.947L72.7937 115.639V97.1767H68.732Z" stroke="black" stroke-width="0.738505"/>
<path d="M79.8096 164.38C77.9633 170.165 73.68 181.735 71.3168 181.735C69.7501 181.735 68.9624 182.276 68.6093 182.82C68.5215 183.099 68.438 183.356 68.3627 183.582C68.3627 183.374 68.4299 183.097 68.6093 182.82C69.2396 180.823 70.099 177.713 69.8397 176.935C69.4705 175.827 70.5782 174.72 71.3168 174.35C72.0553 173.981 73.163 166.965 73.5323 166.596C73.9015 166.227 75.3785 162.534 76.117 162.534C76.7078 162.534 78.8249 163.765 79.8096 164.38Z" fill="#171616" stroke="black" stroke-width="0.738505"/>
<path d="M56.1776 122.286C54.1098 122.286 49.1618 121.547 49.531 121.178C49.9003 120.809 45.8385 120.439 45.1 120.439C44.3615 120.439 35.4994 123.763 34.3917 123.763C33.5055 123.763 28.6067 126.471 26.2681 127.825C26.5143 127.825 27.0805 127.972 27.3759 128.563C27.7451 129.302 36.9764 124.501 37.715 124.501C38.4535 124.501 46.577 121.178 47.3155 121.178C48.054 121.178 51.7465 124.132 56.9161 125.24C61.0517 126.126 66.7628 125.609 69.1014 125.24C68.1167 124.994 66.0735 124.354 65.7781 123.763C65.4089 123.024 58.7623 122.286 56.1776 122.286Z" fill="#3F3F3F" stroke="black" stroke-width="0.738505"/>
<path d="M25.5296 130.04C25.2342 129.154 25.6527 127.702 25.8989 127.086C30.0837 125.24 38.7488 121.621 39.9304 121.917C41.1121 122.212 44.3615 120.563 45.8385 119.701C46.8232 120.07 49.3095 120.587 51.3773 119.701C53.962 118.593 63.9319 123.763 67.6244 124.132C70.5332 124.423 82.751 139.537 88.7652 147.403C88.9822 147.322 89.0829 147.429 89.041 147.764C88.9506 147.646 88.8587 147.525 88.7652 147.403C87.0702 148.034 78.2829 160.125 75.0094 164.381C71.3169 169.181 73.1632 173.981 70.5784 174.72C67.9936 175.458 71.3169 183.951 67.2551 182.843C63.1934 181.736 57.6546 192.813 56.1776 190.967C54.7006 189.121 46.9462 188.013 45.8385 186.905C44.7307 185.797 43.9922 180.628 45.8385 173.612C47.6847 166.596 44.7307 159.95 43.9922 158.842C43.2537 157.734 33.6532 156.257 29.2221 155.888C24.7911 155.519 23.6834 154.411 21.8372 152.934C19.991 151.457 24.0527 147.395 23.6835 144.441C23.3142 141.487 25.1605 135.579 25.5296 134.471C25.8988 133.364 25.8989 131.148 25.5296 130.04Z" fill="#262626"/>
<path d="M89.041 147.764C89.4103 144.81 78.702 159.58 75.0094 164.381C71.3169 169.181 73.1632 173.981 70.5784 174.72C67.9936 175.458 71.3169 183.951 67.2551 182.843C63.1934 181.736 57.6546 192.813 56.1776 190.967C54.7006 189.121 46.9462 188.013 45.8385 186.905C44.7307 185.797 43.9922 180.628 45.8385 173.612C47.6848 166.596 44.7307 159.95 43.9922 158.842C43.2537 157.734 33.6532 156.257 29.2221 155.888C24.7911 155.519 23.6834 154.411 21.8372 152.934C19.991 151.457 24.0527 147.395 23.6835 144.441C23.3142 141.487 25.1605 135.579 25.5296 134.471C25.8988 133.364 25.8989 131.148 25.5296 130.04C25.2342 129.154 25.6527 127.702 25.8989 127.086C30.0837 125.24 38.7488 121.621 39.9304 121.917C41.1121 122.212 44.3615 120.563 45.8385 119.701C46.8232 120.07 49.3095 120.587 51.3773 119.701C53.962 118.593 63.9319 123.763 67.6244 124.132C70.5784 124.428 83.133 140.01 89.041 147.764ZM89.041 147.764C88.7456 150.128 89.041 151.457 89.041 151.457" stroke="black" stroke-width="0.738505"/>
<path d="M94.5796 165.119L87.5638 148.872L76.8555 162.534C78.8248 163.519 83.4282 165.71 86.0868 166.596C88.7454 167.482 92.8564 165.981 94.5796 165.119Z" fill="#0C0C0C" stroke="black" stroke-width="0.738505"/>
<path d="M23.3142 104.193C23.905 97.6939 30.6993 94.3461 34.0225 93.4845C35.9919 93.4845 40.1522 93.706 41.0384 94.5922C42.1461 95.7 53.2237 92.0075 54.7007 92.746C56.1777 93.4845 63.932 92.746 66.1476 96.4385C68.3631 100.131 72.4249 101.239 71.3171 109.362C73.1634 120.44 74.2711 120.809 72.0556 122.286C69.8401 123.763 69.1016 125.609 67.9938 124.502C66.8861 123.394 57.6546 121.917 53.962 122.286C50.428 122.64 49.9382 119.949 49.579 120.041C49.5215 120.087 49.5035 120.098 49.5312 120.071L45.4694 120.44C43.8693 120.932 38.3796 123.025 36.6072 123.025C34.3917 123.025 24.7912 129.302 23.3142 126.348C22.3387 124.397 21.468 114.901 22.6487 113.055C23.8295 111.209 23.0635 106.951 23.3142 104.193Z" fill="#5F7BB7"/>
<path d="M45.4694 120.44C43.8693 120.932 38.3796 123.025 36.6072 123.025C34.3917 123.025 24.7912 129.302 23.3142 126.348C22.3387 124.397 21.468 114.901 22.6487 113.055C23.8295 111.209 23.0635 106.951 23.3142 104.193C23.905 97.6939 30.6993 94.3461 34.0225 93.4845C35.9919 93.4845 40.1522 93.706 41.0384 94.5922C42.1461 95.7 53.2237 92.0075 54.7007 92.746C56.1777 93.4845 63.932 92.746 66.1476 96.4385C68.3631 100.131 72.4248 101.239 71.3171 109.362C73.1634 120.44 74.2711 120.809 72.0556 122.286C69.8401 123.763 69.1016 125.609 67.9938 124.502C66.8861 123.394 57.6546 121.917 53.962 122.286C50.2695 122.655 49.9004 119.701 49.5312 120.071M45.4694 120.44C44.6078 118.101 42.4415 113.35 40.6691 113.055C38.4536 112.686 35.4997 114.901 34.7611 116.009C34.0225 117.117 30.3301 114.532 27.7453 117.486M45.4694 120.44L49.5312 120.071M27.7453 102.347C28.3607 102.716 29.5177 103.602 29.2223 104.193M29.9608 106.778C31.3147 107.639 33.9487 109.584 33.6533 110.47M49.5312 120.071C49.1619 120.44 56.9162 113.793 57.6547 113.793C58.3932 113.793 62.8243 108.993 63.1935 107.147C63.5628 105.301 63.932 103.824 64.6705 103.824M62.0856 96.0693C61.1125 96.3936 58.1446 99.2827 57.9383 100.731M57.9383 100.731C57.9098 100.931 57.9341 101.104 58.0238 101.239C58.6146 102.125 58.213 101.27 57.9383 100.731Z" stroke="black" stroke-width="0.738505"/>
<path d="M40.6689 100.869C41.5077 101.813 42.8468 103.668 42.4945 104.562M42.4945 104.562C42.4332 104.717 42.3208 104.843 42.1459 104.931C40.9643 105.522 41.8859 104.931 42.4945 104.562Z" stroke="black" stroke-width="0.738505"/>
<g filter="url(#filter0_d_214_44464)">
<path d="M0.671714 57.5949L1.66292 64.2092C0.176112 69.5374 1.33252 72.8446 1.66292 76.703C1.99332 80.5614 8.76655 84.7872 9.59255 87.1757C10.4186 89.5642 20.661 96.9135 28.7558 99.4857C36.8507 102.058 51.0579 103.528 55.0227 102.242C58.9875 100.956 55.6835 96.9135 73.8556 96.9135C92.0277 96.9135 91.5321 77.9891 90.0452 73.2121C88.5584 68.4351 95.9925 59.6159 88.5584 32.2399C82.6112 10.339 60.7497 2.16908 50.5623 0.821709C42.082 0.51549 22.4121 3.61443 11.575 18.46C0.737795 33.3055 -0.209356 50.7355 0.671714 57.5949Z" fill="#3C3C3C"/>
<path d="M50.4633 2.00488C55.398 2.66731 63.205 4.99012 70.4965 9.8125C77.5712 14.4915 84.1112 21.4882 87.1322 31.5654L87.4145 32.5508C91.0935 46.0992 91.0792 54.9947 90.3549 61.0596C89.9899 64.1155 89.4469 66.4503 89.0668 68.4199C88.7254 70.1894 88.4725 71.8266 88.8324 73.2773L88.9125 73.5645C89.5854 75.7263 90.0731 81.3825 88.2094 86.4443C87.2883 88.9461 85.8129 91.2499 83.5531 92.9307C81.3017 94.6052 78.1834 95.7275 73.8559 95.7275C64.7477 95.7275 60.7397 96.7277 58.4984 98.0801C57.3626 98.7655 56.7202 99.5264 56.2231 100.05C55.8093 100.485 55.4713 100.795 54.9115 101.021L54.6566 101.113C53.8556 101.373 52.3855 101.526 50.3822 101.529C48.4188 101.532 46.0613 101.392 43.5609 101.131C38.8629 100.64 33.7443 99.7324 29.8725 98.5879L29.1147 98.3555C25.2113 97.1151 20.7304 94.6982 17.1078 92.2764C15.3018 91.0689 13.7361 89.878 12.5834 88.8574C12.0061 88.3463 11.548 87.891 11.2191 87.5098C10.9563 87.2051 10.8182 86.996 10.7543 86.877L10.7133 86.7881C10.411 85.9141 9.64938 85.0309 8.90958 84.2559C8.14774 83.4577 7.15144 82.5228 6.28067 81.6523C5.37217 80.7441 4.52572 79.8356 3.89102 78.9434C3.32768 78.1514 2.99208 77.4549 2.8793 76.8535L2.84415 76.6016C2.5036 72.6251 1.46261 69.7647 2.68008 64.9951L2.80508 64.5283L2.87344 64.2842L2.83536 64.0332L1.84805 57.4434C1.00877 50.9084 1.889 34.2332 12.0424 19.8428L12.5326 19.1592C17.7702 11.9844 25.1675 7.61571 32.3481 5.07715C39.5017 2.54815 46.36 1.86514 50.4633 2.00488Z" stroke="#2F2F2F" stroke-width="2.37181" stroke-linecap="round"/>
<path d="M50.4633 2.00488C55.398 2.66731 63.205 4.99012 70.4965 9.8125C77.5712 14.4915 84.1112 21.4882 87.1322 31.5654L87.4145 32.5508C91.0935 46.0992 91.0792 54.9947 90.3549 61.0596C89.9899 64.1155 89.4469 66.4503 89.0668 68.4199C88.7254 70.1894 88.4725 71.8266 88.8324 73.2773L88.9125 73.5645C89.5854 75.7263 90.0731 81.3825 88.2094 86.4443C87.2883 88.9461 85.8129 91.2499 83.5531 92.9307C81.3017 94.6052 78.1834 95.7275 73.8559 95.7275C64.7477 95.7275 60.7397 96.7277 58.4984 98.0801C57.3626 98.7655 56.7202 99.5264 56.2231 100.05C55.8093 100.485 55.4713 100.795 54.9115 101.021L54.6566 101.113C53.8556 101.373 52.3855 101.526 50.3822 101.529C48.4188 101.532 46.0613 101.392 43.5609 101.131C38.8629 100.64 33.7443 99.7324 29.8725 98.5879L29.1147 98.3555C25.2113 97.1151 20.7304 94.6982 17.1078 92.2764C15.3018 91.0689 13.7361 89.878 12.5834 88.8574C12.0061 88.3463 11.548 87.891 11.2191 87.5098C10.9563 87.2051 10.8182 86.996 10.7543 86.877L10.7133 86.7881C10.411 85.9141 9.64938 85.0309 8.90958 84.2559C8.14774 83.4577 7.15144 82.5228 6.28067 81.6523C5.37217 80.7441 4.52572 79.8356 3.89102 78.9434C3.32768 78.1514 2.99208 77.4549 2.8793 76.8535L2.84415 76.6016C2.5036 72.6251 1.46261 69.7647 2.68008 64.9951L2.80508 64.5283L2.87344 64.2842L2.83536 64.0332L1.84805 57.4434C1.00877 50.9084 1.889 34.2332 12.0424 19.8428L12.5326 19.1592C17.7702 11.9844 25.1675 7.61571 32.3481 5.07715C39.5017 2.54815 46.36 1.86514 50.4633 2.00488Z" stroke="black" stroke-opacity="0.2" stroke-width="2.37181" stroke-linecap="round"/>
</g>
<path d="M40.7621 16.395C52.1155 16.395 73.5321 29.2498 74.6399 38.835C75.587 47.0307 70.4134 38.2009 72.8117 42.7917C73.0096 43.1706 73.1659 43.4582 73.2817 43.665C73.6115 44.1832 73.6197 44.2689 73.2817 43.665C72.3556 42.2102 68.894 37.346 63.4366 34.758C55.3697 30.9324 57.768 30.5498 50.7912 29.0196C43.8145 27.4893 40.3261 27.4893 35.5295 29.0196C30.733 30.5498 16.7164 41.3862 15.1902 42.7917C20.729 31.0808 29.1759 16.3951 40.7621 16.395Z" fill="#212121"/>
<path d="M12.2362 50.6512C12.2362 47.592 14.1762 43.7243 15.1902 42.7917M15.1902 42.7917C20.729 31.0808 29.1759 16.3951 40.7621 16.395C52.1155 16.395 73.5321 29.2498 74.6399 38.835C75.587 47.0307 70.4134 38.2009 72.8117 42.7917C75.2099 47.3825 71.5035 38.5836 63.4366 34.758C55.3697 30.9324 57.768 30.5498 50.7912 29.0196C43.8145 27.4893 40.3261 27.4893 35.5295 29.0196C30.733 30.5498 16.7164 41.3862 15.1902 42.7917Z" stroke="#2F2F2F" stroke-width="2.37181"/>
<path d="M78.6733 24.7999C71.6811 11.4339 55.2292 4.64961 48.765 2.92822H51.0867L61.739 5.96596C65.1531 7.63671 70.889 11.1301 75.1226 14.3197C79.3391 17.4965 84.4547 25.5594 86.048 30.8754C88.1875 38.0141 91.6745 53.3546 89.5987 60.6452C87.5229 67.9358 87.8233 71.4292 88.6427 79.7829C88.233 79.3273 87.8506 78.659 86.8674 74.7707C85.6383 69.9103 87.4136 41.5075 78.6733 24.7999Z" fill="#6A6A6A"/>
<path d="M9.65151 62.4667C10.7444 47.892 10.7593 53.9735 18.8828 37.3576C27.0063 24.8029 61.312 14.2938 72.7934 38.4653C79.8092 53.2356 80.5476 56.7513 79.4399 63.5745C78.0739 71.9892 81.2862 71.1349 72.7934 84.7973C64.3006 98.4596 41.407 92.3755 30.3295 89.7907C21.4674 87.7229 15.3132 82.0364 13.3439 78.7132C10.2804 73.5436 8.54394 77.2368 9.65151 62.4667Z" fill="#FFF3E4" stroke="#2F2F2F" stroke-width="2.95402"/>
<path d="M24.8038 43.6429C25.3744 42.9478 30.897 44.0364 34.1351 42.73" stroke="#6D6D6D" stroke-width="0.672443" stroke-linecap="round"/>
<path d="M68.0933 43.6429C67.5227 42.9478 62.0001 44.0364 58.7621 42.73" stroke="#6D6D6D" stroke-width="0.672443" stroke-linecap="round"/>
<path d="M29.2218 56.4745C29.2218 55.0936 30.3412 53.9741 31.7221 53.9741H34.309C35.6899 53.9741 36.8093 55.0936 36.8093 56.4745C36.8093 57.8554 35.6899 58.9748 34.309 58.9748H33.1615H31.7221C30.3412 58.9748 29.2218 57.8554 29.2218 56.4745Z" fill="#2F2F2F"/>
<path d="M28.6954 53.3426L32.2949 54.7888L29.3691 57.5326L28.6954 53.3426Z" fill="#2F2F2F"/>
<path d="M63.3957 56.8724C63.3957 55.4915 62.2762 54.3721 60.8953 54.3721H58.3084C56.9275 54.3721 55.8081 55.4915 55.8081 56.8724C55.8081 58.2533 56.9275 59.3728 58.3084 59.3728H59.456H60.8953C62.2762 59.3728 63.3957 58.2533 63.3957 56.8724Z" fill="#2F2F2F"/>
<path d="M63.6736 54.0809L60.0741 55.5271L62.9999 58.2709L63.6736 54.0809Z" fill="#2F2F2F"/>
<path d="M43.0301 76.6054C42.5345 76.5489 42.1759 76.1044 42.2256 75.6082C42.2759 75.1066 42.7241 74.7418 43.2256 74.7943L45.6471 75.0478C45.7182 75.0552 45.7899 75.0559 45.8611 75.0498L49.0263 74.7769C49.5249 74.7339 49.9652 75.1018 50.0117 75.6002C50.0582 76.0995 49.6921 76.5418 49.193 76.5892L45.8713 76.905C45.7933 76.9124 45.7148 76.9116 45.637 76.9028L43.0301 76.6054Z" fill="#DB6E70" fill-opacity="0.57"/>
<path d="M42.9781 79.4588C42.6652 79.4231 42.3853 79.2473 42.2172 78.981C41.7501 78.2411 42.3509 77.2919 43.219 77.3983L45.9313 77.7307C46.044 77.7445 46.1582 77.7412 46.2699 77.7209L48.9624 77.2311C49.7567 77.0866 50.4417 77.8005 50.2645 78.5882L50.2587 78.614C50.1527 79.0852 49.7579 79.4359 49.2774 79.4857L46.2233 79.8024C46.1423 79.8108 46.0605 79.8104 45.9795 79.8011L42.9781 79.4588Z" fill="#DB6E70" fill-opacity="0.57"/>
<rect width="6.56838" height="11.0462" rx="3.28419" transform="matrix(0.0048042 -0.999988 0.999982 0.00594244 20.3595 70.1421)" fill="#E5B0B1" fill-opacity="0.57"/>
<rect width="6.56838" height="11.0462" rx="3.28419" transform="matrix(0.0048042 -0.999988 0.999982 0.00594244 60.2388 70.8809)" fill="#E5B0B1" fill-opacity="0.57"/>
<path d="M38.0838 74.6523C39.4845 75.6907 45.6714 79.6531 53.821 75.1212" stroke="black" stroke-width="1.34489" stroke-linecap="round"/>
<path d="M49.5309 108.993C47.7585 108.697 43.1305 111.578 41.0381 113.055C41.9243 113.055 44.1152 117.239 45.0999 119.332C46.5769 120.193 49.9002 121.252 51.3772 118.593C53.2234 115.27 60.9778 112.685 60.6085 110.839C60.2392 108.993 51.7464 109.362 49.5309 108.993Z" fill="#FFF3E4" stroke="black" stroke-width="0.738505"/>
<path d="M32.5454 112.685C32.8408 110.912 39.315 111.208 42.5152 111.577C42.0228 112.069 40.8905 113.054 40.2997 113.054C39.5612 113.054 38.0842 113.792 37.3457 113.792C36.7549 113.792 34.884 115.516 34.0224 116.377C33.53 116.254 32.3977 115.934 31.8068 115.639C31.0683 115.269 32.1761 114.9 32.5454 112.685Z" fill="#FFF3E4" stroke="black" stroke-width="0.738505"/>
<path d="M34.7608 116.008C34.2685 116.378 33.4315 117.264 34.0223 117.855" stroke="black" stroke-width="0.738505"/>
<path d="M26.6374 118.593C26.0219 118.839 24.7911 119.627 24.7911 120.809" stroke="black" stroke-width="0.738505"/>
<path d="M63.5626 121.547C64.7934 121.424 67.1813 120.735 66.8858 118.962" stroke="black" stroke-width="0.738505"/>
<path d="M52.8541 196.506C53.7403 196.506 55.685 193.059 56.5466 191.336L56.3941 191.28L46.5768 187.644V191.705C46.5768 192.444 51.7463 196.506 52.8541 196.506Z" fill="#0C0C0C" stroke="black" stroke-width="0.738505"/>
<path d="M43.623 121.178C39.192 122.655 30.2561 125.683 29.9607 125.978L29.5914 125.978L27.3759 126.717L26.2681 129.301H27.7451C28.4836 129.301 39.192 124.87 41.0382 124.132C42.8845 123.393 47.6848 122.655 49.531 123.024C51.3773 123.393 62.4549 125.609 63.9319 125.978C65.1135 126.274 67.8706 125.609 69.1014 125.24L62.8241 123.024C59.6239 122.778 53.1497 122.286 52.8543 122.286C52.4851 122.286 48.7925 120.809 48.4233 120.439C48.1279 120.144 45.1 120.809 43.623 121.178Z" fill="#1B1A1A"/>
<path d="M52.2502 149.904C52.5456 143.109 36.6185 143.626 28.618 144.734C27.6334 145.842 25.3686 148.574 24.187 150.642C22.71 153.227 33.7875 155.812 38.5879 152.858C41.6851 150.952 47.261 153.021 48.1883 157.658C49.6654 165.043 46.7114 177.597 46.3422 177.597C45.9729 177.597 48.9269 180.182 51.1424 177.597C53.358 175.013 51.8809 158.396 52.2502 149.904Z" fill="#1B1A1A"/>
<defs>
<filter id="filter0_d_214_44464" x="0.420319" y="0.801758" width="92.2502" height="104.164" filterUnits="userSpaceOnUse" color-interpolation-filters="sRGB">
<feFlood flood-opacity="0" result="BackgroundImageFix"/>
<feColorMatrix in="SourceAlpha" type="matrix" values="0 0 0 0 0 0 0 0 0 0 0 0 0 0 0 0 0 0 127 0" result="hardAlpha"/>
<feOffset dx="0.750001" dy="2.25"/>
<feComposite in2="hardAlpha" operator="out"/>
<feColorMatrix type="matrix" values="0 0 0 0 0 0 0 0 0 0 0 0 0 0 0 0 0 0 0.25 0"/>
<feBlend mode="normal" in2="BackgroundImageFix" result="effect1_dropShadow_214_44464"/>
<feBlend mode="normal" in="SourceGraphic" in2="effect1_dropShadow_214_44464" result="shape"/>
</filter>
</defs>
</svg>
