<svg width="126" height="229" viewBox="0 0 126 229" fill="none" xmlns="http://www.w3.org/2000/svg">
<path d="M111.631 220.231C95.1306 208.731 30.6306 211.231 14.6306 214.731C10.964 217.065 1.03065 222.831 34.6306 227.231C76.6306 232.731 116.963 223.948 111.631 220.231Z" fill="#0A304A" fill-opacity="0.81"/>
<path d="M25.6306 217.231C24.8306 215.231 30.2973 182.065 33.1306 165.731C35.1306 162.231 43.6306 163.731 58.6306 167.231C70.6306 170.031 82.6306 160.731 87.1306 155.731C90.6306 173.065 97.1306 207.331 95.1306 205.731C92.6306 203.731 81.1306 214.231 79.1306 211.231C77.1306 208.231 61.6306 172.731 59.6306 173.231C57.6306 173.731 42.1306 213.731 40.6306 214.231C39.1306 214.731 26.6306 219.731 25.6306 217.231Z" fill="#353C40" stroke="#151515" stroke-width="2" stroke-linecap="round"/>
<path d="M46.5885 176.026C45.7039 169.283 38.4797 168.379 36.2542 177.233C33.3421 188.818 32.4067 185.287 32.3354 190.802C32.2622 196.464 31.4481 200.81 36.1002 204.804C41.4049 209.358 42.9381 203.758 43.315 196.776C43.9421 185.164 48.028 187 46.5885 176.026Z" fill="#2B3133"/>
<path d="M75.8402 176.026C76.7248 169.283 83.949 168.379 86.1745 177.233C89.0866 188.818 90.022 185.287 90.0933 190.802C90.1665 196.464 90.9806 200.81 86.3285 204.804C81.0238 209.358 79.4906 203.758 79.1137 196.776C78.4866 185.164 74.4007 187 75.8402 176.026Z" fill="#2B3133"/>
<path d="M92.5773 66.2807C86.9005 79.1774 68.742 95.2983 60.3723 101.747C48.7276 111.24 25.1107 130.764 23.8007 132.914C22.1632 135.601 15.0671 138.287 10.7003 146.885C6.33356 155.483 20.5256 150.647 22.1631 153.333C23.8006 156.02 27.6216 151.184 30.3508 149.035C32.5342 147.315 36.1121 146.169 37.6282 145.81C36.386 148.53 35.1858 151.115 34.1717 153.333C29.2591 164.081 29.2591 166.23 36.9009 164.081C44.5428 161.931 52.7305 165.693 68.56 166.23C84.3896 166.768 95.3065 155.483 95.3065 153.333C95.3065 151.184 92.5773 120.017 95.3065 111.419C98.0358 102.821 102.948 104.971 104.586 96.9104C106.223 88.8499 119.87 60.907 119.87 57.1455C119.87 54.1363 109.68 47.2938 104.586 44.2488C102.948 46.2191 98.2541 53.384 92.5773 66.2807Z" fill="#4778B0"/>
<path d="M45.6345 121.629C47.8004 122.908 42.4037 135.355 37.6282 145.81M37.6282 145.81C36.386 148.53 35.1858 151.115 34.1717 153.333C29.2591 164.081 29.2591 166.23 36.9009 164.081C44.5428 161.931 52.7305 165.693 68.56 166.23C84.3896 166.768 95.3065 155.483 95.3065 153.333C95.3065 151.184 92.5773 120.017 95.3065 111.419C98.0358 102.821 102.948 104.971 104.586 96.9104C106.223 88.8499 119.87 60.907 119.87 57.1455C119.87 54.1363 109.68 47.2938 104.586 44.2488C102.948 46.2191 98.2541 53.384 92.5773 66.2807C86.9005 79.1774 68.742 95.2983 60.3723 101.747C48.7276 111.24 25.1107 130.764 23.8007 132.914C22.1632 135.601 15.0671 138.287 10.7003 146.885C6.33356 155.483 20.5256 150.647 22.1631 153.333C23.8006 156.02 27.6216 151.184 30.3508 149.035C32.5342 147.315 36.1121 146.169 37.6282 145.81Z" stroke="#212121" stroke-width="2" stroke-linecap="round"/>
<path d="M20.6305 221.231C19.4305 219.631 23.7972 218.231 26.1305 217.731C30.4639 216.898 39.4305 215.031 40.6305 214.231C42.1305 213.231 38.1305 221.231 36.6305 222.731C35.1305 224.231 22.1305 223.231 20.6305 221.231Z" fill="#D9D9D9" stroke="#4C4C4C" stroke-width="2" stroke-linecap="round"/>
<path d="M97.1306 210.731L95.6306 205.231L80.6306 211.731C80.6306 212.565 80.2306 214.731 78.6306 216.731C76.6306 219.231 82.1306 221.231 87.1306 219.231C91.1306 217.631 95.4639 212.898 97.1306 210.731Z" fill="#D9D9D9" stroke="#4C4C4C" stroke-width="2" stroke-linecap="round"/>
<path d="M104.368 39.4085C102.784 40.2303 105.483 43.7469 105.483 43.7469C105.483 43.7469 121.098 56.9432 121.098 56.2201V52.4239C121.098 50.797 126.377 48.6024 124.444 47.0008C123.436 46.1654 123.329 46.4586 122.213 46.4586C121.098 46.4586 120.54 44.8316 121.098 44.2893C121.544 43.8554 120.912 41.5777 120.54 40.4931C120.169 39.4085 117.752 39.4085 117.752 39.4085C117.938 38.6854 119.048 36.3926 117.752 35.6123C116.581 34.9073 115.521 37.7815 114.406 36.6969C113.514 35.8292 113.123 31.7084 110.502 31.2738C106.949 30.6844 107.045 40.71 106.599 39.4085C106.153 38.1069 105.137 39.0098 104.368 39.4085Z" fill="#D0BEC2" stroke="#161616" stroke-width="2" stroke-linecap="round"/>
<path d="M45.9787 17.5279C79.1826 11.5646 98.8729 35.7558 101.692 55.9409L101.735 56.2818C102.14 59.8527 101.292 64.8155 99.4421 70.2379C97.5212 75.8676 94.4793 82.1111 90.4587 88.0125C82.4485 99.7697 70.409 110.366 55.4077 111.778C43.2427 114.076 31.5515 112.941 23.9023 108.225C20.0481 105.849 17.2004 102.548 15.8986 98.3203C14.6584 94.2923 14.8558 89.5356 16.7582 84.106C10.4582 79.5446 7.42596 73.3055 6.84751 66.4898C6.25194 59.471 8.25585 51.8805 11.8541 44.8558C15.4559 37.8241 20.6906 31.2872 26.6584 26.3636C32.5986 21.4629 39.338 18.1034 45.9787 17.5279Z" fill="#F0D6D6" fill-opacity="0.86" stroke="#4C4C4C" stroke-width="2.14284"/>
<path d="M19.6347 14.2857C26.2402 2.27166 43.7523 -0.32598 45.4421 0.323429C47.1318 0.972838 61.8789 -0.488319 66.9482 3.89519C72.0175 8.2787 88.9151 14.2857 89.376 21.4292C89.4192 22.0997 89.4557 22.7715 89.4836 23.4392C90.9668 23.2233 92.6581 23.5852 94.5989 24.8386C102.894 30.1963 106.274 50.1656 108.424 58.6079C110.145 65.3618 108.322 70.5138 107.195 72.2455C105.198 69.8643 99.914 67.0827 96.5959 68.5114C92.4483 70.2973 88.9151 70.4596 86.9181 71.109C84.9211 71.7585 87.9934 56.9844 87.379 50.1656C86.8874 44.7106 80.9271 44.3209 78.0085 44.808L80.1591 33.7584C76.2744 31.2413 71.8462 28.0797 69.7132 29.0598C66.1801 30.6833 56.8096 34.4174 48.9752 36.528C42.7077 38.2165 35.6107 36.2574 32.8456 35.0668C30.7344 34.1328 28.0833 32.6547 25.6257 30.762L18.6306 36.528L11.61 50.1656L10.0447 75.2314L1.69599 72.2455L0.130615 50.1656L4.82675 38.2829L11.61 29.0598L21.0599 26.2998C18.4076 22.841 17.2035 18.7077 19.6347 14.2857Z" fill="#242424"/>
<path d="M60.9469 53.2728C62.3972 52.9461 63.8379 53.857 64.1646 55.3073L66.1532 64.134C66.2755 64.6772 66.2001 65.2144 65.6433 65.2179C64.9835 65.222 62.8949 65.7034 62.2798 65.9425C62.2396 65.9581 62.1996 65.974 62.16 65.99C61.6429 66.1992 61.0361 65.9173 60.9135 65.3731L58.9124 56.4906C58.5857 55.0402 59.4965 53.5996 60.9469 53.2728Z" fill="black"/>
<path d="M32.2518 63.3623C33.5172 63.0389 34.8051 63.8025 35.1285 65.0679L37.4872 74.2966C37.6045 74.7557 37.554 75.2264 37.0802 75.2268C36.5146 75.2272 34.6305 75.7162 34.1142 75.9472C34.075 75.9647 34.0361 75.9826 33.9978 76.0005C33.5675 76.202 33.0367 75.9836 32.919 75.5233L30.5462 66.239C30.2228 64.9736 30.9864 63.6857 32.2518 63.3623Z" fill="black"/>
<path d="M47.5404 38.8965C47.7161 37.1556 49.4118 35.9882 51.1007 36.4453L72.5556 42.2517C73.8701 42.6074 74.7458 43.8477 74.6411 45.2054L74.5289 46.6606C74.3328 49.2033 71.1406 50.2137 69.5171 48.2469L69.2324 47.902C68.8139 47.395 68.2322 47.0492 67.5868 46.9239L49.6705 43.4456C48.232 43.1664 47.2435 41.8366 47.3907 40.3786L47.5404 38.8965Z" fill="#242424"/>
<path d="M39.3576 51.4439C39.2505 49.6975 37.6021 48.4643 35.8965 48.8546L14.2297 53.8122C12.9023 54.116 11.9784 55.3208 12.0296 56.6817L12.0845 58.1401C12.1804 60.6886 15.3303 61.8238 17.0299 59.9224L17.328 59.589C17.7661 59.0988 18.361 58.7762 19.0109 58.6764L37.0501 55.9058C38.4985 55.6833 39.5386 54.3934 39.4488 52.9308L39.3576 51.4439Z" fill="#242424"/>
<path d="M46.1751 45.7597C46.1505 45.517 46.3273 45.3004 46.57 45.2759C46.8126 45.2513 47.0292 45.4281 47.0538 45.6708L47.2908 48.014C47.3153 48.2567 47.1385 48.4733 46.8958 48.4978C46.6532 48.5224 46.4366 48.3456 46.412 48.1029L46.2935 46.9313L46.1751 45.7597Z" fill="#242424"/>
<path d="M43.1751 43.7597C43.1505 43.517 43.3273 43.3004 43.57 43.2759C43.8126 43.2513 44.0292 43.4281 44.0538 43.6708L44.2908 46.014C44.3153 46.2567 44.1385 46.4733 43.8958 46.4978C43.6532 46.5224 43.4366 46.3456 43.412 46.1029L43.2935 44.9313L43.1751 43.7597Z" fill="#242424"/>
<path d="M41.1751 46.7597C41.1505 46.517 41.3273 46.3004 41.57 46.2759C41.8126 46.2513 42.0292 46.4281 42.0538 46.6708L42.2908 49.014C42.3153 49.2567 42.1385 49.4733 41.8958 49.4978C41.6532 49.5224 41.4366 49.3456 41.412 49.1029L41.2935 47.9313L41.1751 46.7597Z" fill="#242424"/>
<path d="M90.0053 106.017C94.9653 102.616 102.255 91.1168 101.192 88.4597C100.531 84.9168 107.964 60.1138 101.192 64.8242C94.1269 60.5554 82.9194 85.0231 80.0851 88.9911C76.5422 93.9511 80.0851 88.9911 77.7889 85.4482C76.0985 82.8401 78.6306 82.9383 72.6306 79.2314C70.9724 73.6387 70.1307 74.7314 64.6307 73.2314C61.8017 72.4599 58.1307 73.7314 51.6307 75.2314C49.8286 75.6473 44.6307 74.7314 39.6307 80.3242C38.45 81.6448 36.1307 81.7314 34.3822 85.4482C32.8441 88.7175 30.8393 91.8254 30.1307 91.6482C29.4221 91.4711 25.7045 92.5725 23.2889 88.4597C19.6307 82.2314 9.75096 71.5509 8.6306 73.2314C5.63058 77.7314 15.1305 85.4482 12.6305 95.2314C11.9232 97.9989 20.3289 111.518 25.2889 112.935L34.3822 116.324L45.7889 117.824C54.3264 117.824 56.6625 116.502 65.7889 115.324C73.3803 114.344 85.0453 109.418 90.0053 106.017Z" fill="#242424"/>
<path d="M40.452 84.6782L63.9186 76.2314C65.3226 76.7594 68.1306 79.9269 68.1306 88.3736C68.1306 98.9321 56.0964 101.044 47.0708 99.9879C39.8503 99.1432 39.6497 89.4295 40.452 84.6782Z" fill="white" stroke="black" stroke-linecap="round"/>
<path d="M84.9021 66.2751C85.225 62.1801 87.204 53.6464 92.5377 52.271C99.2049 50.5519 107.601 54.1417 107.672 63.3779C107.743 72.6141 98.5217 80.3594 93.8395 79.8514" stroke="#242424" stroke-width="3.4359" stroke-linecap="round"/>
<path d="M91.1171 76.4199L85.8771 69.048C85.2981 68.2334 85.0213 67.2425 85.0943 66.2458L85.1138 65.9803C85.1573 65.3858 85.3242 64.8068 85.6037 64.2803L89.966 56.0633C90.6291 54.8142 91.8647 53.9716 93.2697 53.8103L97.7402 53.2971C98.5567 53.2034 99.383 53.3459 100.121 53.7077L102.758 55.0006C103.597 55.4124 104.287 56.0834 104.663 56.9399C105.877 59.7063 107.457 64.3204 107.116 67.7074C106.798 70.8807 101.066 74.9821 96.4866 77.6602C94.6561 78.7306 92.3456 78.1483 91.1171 76.4199Z" fill="#D2BBBB"/>
<path d="M41.1306 93.7313C42.2973 92.7313 44.9306 90.9313 46.1306 91.7313C47.3306 92.5313 48.6306 91.0647 49.1306 90.2314" stroke="#4C4C4C" stroke-linecap="round"/>
<path d="M67.6306 84.2314C66.6306 85.3981 64.4306 87.6314 63.6306 87.2314C62.6306 86.7314 60.1306 86.2314 59.6306 87.2314" stroke="#4C4C4C"/>
<path d="M52.6121 124.478C53.0872 124.41 53.5259 124.726 53.6208 125.186L53.6345 125.279L53.9216 128.142C53.9746 128.671 53.5576 129.132 53.0251 129.132H51.1306C50.6336 129.132 50.2302 128.729 50.2302 128.231V125.599C50.2303 125.179 50.5202 124.819 50.9216 124.724L51.0037 124.708L52.6121 124.478Z" fill="#E8E864" stroke="black" stroke-width="0.2"/>
<path d="M85.8695 148.259C94.3908 150.898 89.4817 132.741 76.9139 132.257C72.2194 132.077 55.5579 132.897 55.5579 132.897C55.5579 132.897 47.6829 134.184 45.9132 141.858C43.8954 150.61 45.483 153.387 54.1801 149.539C68.647 143.138 71.4026 143.779 85.8695 148.259Z" fill="#2C5079"/>
<path d="M78.7591 111.295C82.8361 109.683 80.961 111.684 74.9626 116.074C72.8578 117.614 67.3221 122.363 61.9691 121.498C58.9705 121.013 57.8344 120.113 54.6515 117.934C53.1834 116.928 55.9354 116.397 60.7401 115.604C68.7324 114.284 71.256 114.261 78.7591 111.295Z" fill="#2C5079"/>
<path d="M73.1248 126.307C73.0828 126.58 72.8275 126.768 72.5546 126.726C72.2817 126.684 72.0944 126.428 72.1364 126.155L73.1248 126.307ZM70.1306 114.231H70.6306C70.6306 114.612 70.8027 115.114 71.1196 115.835C71.4211 116.521 71.8419 117.382 72.2219 118.363C72.9934 120.356 73.6418 122.947 73.1248 126.307L72.6306 126.231L72.1364 126.155C72.6194 123.016 72.0178 120.606 71.2893 118.724C70.9193 117.769 70.5276 116.973 70.2041 116.237C69.896 115.536 69.6306 114.851 69.6306 114.231H70.1306Z" fill="#2F2F2F"/>
<path d="M59.8161 127.307C59.8581 127.58 60.1134 127.768 60.3863 127.726C60.6593 127.684 60.8465 127.428 60.8045 127.155L59.8161 127.307ZM62.8103 115.231H62.3103C62.3103 115.612 62.1382 116.114 61.8213 116.835C61.5198 117.521 61.099 118.382 60.719 119.363C59.9475 121.356 59.2991 123.947 59.8161 127.307L60.3103 127.231L60.8045 127.155C60.3215 124.016 60.9231 121.606 61.6516 119.724C62.0216 118.769 62.4133 117.973 62.7368 117.237C63.0449 116.536 63.3103 115.851 63.3103 115.231H62.8103Z" fill="#2F2F2F"/>
<path d="M4.13047 153.731C3.73047 151.731 7.9638 150.898 10.1305 150.731C11.9638 151.565 15.9305 153.131 17.1305 152.731C18.3305 152.331 21.9638 153.898 23.6305 154.731C23.4638 155.898 23.0305 158.531 22.6305 159.731C22.1305 161.231 19.6305 161.731 18.6305 160.231C17.6305 158.731 14.6305 161.731 12.6305 161.731C10.6305 161.731 10.1305 162.231 9.63049 160.231C9.13052 158.231 4.63047 156.231 4.13047 153.731Z" fill="#D0BEC2" stroke="#4C4C4C"/>
</svg>
