<svg width="84" height="71" viewBox="0 0 84 71" fill="none" xmlns="http://www.w3.org/2000/svg">
<g filter="url(#filter0_d_417_37639)">
<path d="M1.62419 37.1421C0.325829 28.503 3.7049 20.8501 5.55673 18.1036C9.2812 15.2114 17.4417 9.22729 20.2882 8.4283C23.8462 7.42956 59.3639 6.43082 63.234 6.93019C67.1041 7.42956 78.0903 16.231 81.1489 23.347C83.5958 29.0398 82.1685 39.4933 81.1489 44.0084C81.253 45.9019 79.863 50.9247 73.4711 55.8685C65.4812 62.0482 45.3191 65.2317 36.5801 64.7947C27.8411 64.3578 7.49179 56.3678 4.43315 49.127C1.37451 41.8861 3.24715 47.941 1.62419 37.1421Z" fill="#081825"/>
<path d="M1.62419 37.1421C0.325829 28.503 3.7049 20.8501 5.55673 18.1036C9.2812 15.2114 17.4417 9.22729 20.2882 8.4283C23.8462 7.42956 59.3639 6.43082 63.234 6.93019C67.1041 7.42956 78.0903 16.231 81.1489 23.347C83.5958 29.0398 82.1685 39.4933 81.1489 44.0084C81.253 45.9019 79.863 50.9247 73.4711 55.8685C65.4812 62.0482 45.3191 65.2317 36.5801 64.7947C27.8411 64.3578 7.49179 56.3678 4.43315 49.127C1.37451 41.8861 3.24715 47.941 1.62419 37.1421Z" stroke="#030F1B" stroke-width="0.998741"/>
</g>
<path d="M3.55932 31.7715C-0.0200608 19.2185 13.2347 7.76791 19.4143 5.74178C30.8374 1.99652 37.2667 -3.74599 68.9768 8.05139C83.6458 13.5088 81.9605 33.7065 80.5872 36.89C79.2139 40.0735 68.2278 49.8735 43.7586 52.5576C19.2895 55.2417 7.99124 47.3144 3.55932 31.7715Z" fill="#0E1F29" stroke="#0E1F29" stroke-width="0.124843"/>
<path d="M45.3193 3.39893C45.6145 3.39898 46.4138 3.50035 47.6738 3.76318C48.8944 4.0178 50.4591 4.40505 52.2354 4.93115C55.7925 5.98474 60.1561 7.5821 64.2793 9.75537C68.4158 11.9357 72.2261 14.6512 74.7656 17.9048C77.1987 21.0221 78.4537 24.6091 77.752 28.77L77.6777 29.1753C75.9556 37.8958 67.0828 42.9005 56.5918 45.4058C46.2051 47.8861 34.9161 47.7346 29.5283 46.6812L29.5186 46.6792L29.5098 46.6782L28.8584 46.5513C25.4055 45.8316 19.0614 43.8042 14.1689 39.6099C11.5781 37.3886 9.42382 34.5861 8.28906 31.0708C7.19222 27.6727 7.01716 23.5142 8.4375 18.4253L8.5791 17.9302C8.85343 17.0033 9.30113 16.1353 9.89551 15.3911L10.1592 15.0796C15.8869 8.70778 23.7464 5.76581 30.7061 4.43213C35.9221 3.43258 40.5388 3.35167 43.2676 3.37354L45.3193 3.39893Z" fill="#1A303E" stroke="url(#paint0_radial_417_37639)" stroke-width="2.62169"/>
<path d="M45.1199 5.27002C45.4166 5.27011 46.1821 5.36803 47.365 5.61475C48.5163 5.85489 49.9905 6.22001 51.6628 6.71533C55.0111 7.70705 59.1199 9.21171 63.0046 11.2593C66.9002 13.3126 70.5021 15.8762 72.908 18.9585C75.2166 21.9163 76.4149 25.3317 75.7468 29.2944L75.6765 29.6802C74.0381 37.9779 65.6067 42.7003 55.7458 45.0552C45.9694 47.3898 35.3423 47.2498 30.2566 46.2554L30.2488 46.2544L30.241 46.2524L29.6267 46.1333C26.3673 45.454 20.3782 43.5413 15.7537 39.5767C13.3021 37.4749 11.2587 34.8175 10.1814 31.48C9.13966 28.2528 8.97656 24.3132 10.3181 19.5063L10.4519 19.0386C10.7156 18.1476 11.1459 17.3121 11.7185 16.5952L11.9724 16.2954C17.3862 10.2729 24.8089 7.49882 31.364 6.24268C36.2771 5.30123 40.627 5.22505 43.1931 5.24561L45.1199 5.27002Z" stroke="url(#paint1_radial_417_37639)" stroke-width="2.12232"/>
<path d="M78.0278 43.0098C79.9913 43.0098 79.0266 45.5691 78.8393 47.2544C76.7794 49.0022 75.2189 51.3742 70.1003 55.494C64.9818 59.6139 35.9559 62.2979 29.5889 61.6737C23.222 61.0495 10.8001 53.8711 7.61665 51.3742C4.43316 48.8774 4.93253 41.5117 4.93253 43.5716C4.93253 45.6315 20.0385 54.0583 25.157 55.494C30.2756 56.9297 48.6914 55.3878 55.6186 54.0584C61.7983 52.8724 75.4062 43.0098 78.0278 43.0098Z" fill="url(#paint2_linear_417_37639)"/>
<g filter="url(#filter1_d_417_37639)">
<path d="M49.1027 35.2785C48.5138 35.6115 47.8762 35.8221 47.1898 35.9102C46.5079 35.9822 45.8372 35.857 45.1777 35.5346C44.5124 35.2019 43.9049 34.5978 43.3554 33.7223C43.088 33.2736 42.82 32.8116 42.5513 32.3364C41.5056 30.4872 40.5745 28.6958 39.758 26.9625C38.9734 25.3337 38.14 23.7394 37.2579 22.1794C37.0827 21.8695 36.9151 21.6575 36.7551 21.5434C36.5952 21.4293 36.4171 21.4278 36.2208 21.5388C36.1278 21.5914 36.0021 21.7306 35.8435 21.9566C35.5592 22.3219 35.3344 22.5512 35.1692 22.6447C34.8592 22.82 34.4273 22.7915 33.8734 22.5594C33.3136 22.3169 32.7536 21.9655 32.1933 21.5051C31.6434 21.0389 31.2253 20.5527 30.9391 20.0465C30.5302 19.3233 30.5247 18.747 30.9226 18.3175C31.3206 17.8879 31.7088 17.4775 32.0874 17.0862C32.4661 16.6948 32.8418 16.2983 33.2146 15.8967C33.6924 15.3674 34.1872 14.8559 34.6987 14.3621C35.2103 13.8683 35.7399 13.4666 36.2874 13.157C36.8969 12.8124 37.5343 12.6497 38.1996 12.6689C38.8649 12.6881 39.5768 12.9945 40.3351 13.5883C41.5217 14.5534 42.7375 15.8838 43.9826 17.5794C45.238 19.2691 46.4061 21.0696 47.4868 22.9808C48.4097 24.6131 49.2195 26.214 49.9161 27.7834C50.6126 29.3529 51.1216 30.7353 51.443 31.9306C51.554 32.4404 51.3843 33.0204 50.9339 33.6705C50.4776 34.3102 49.8672 34.8463 49.1027 35.2785Z" fill="#4B616E"/>
</g>
<defs>
<filter id="filter0_d_417_37639" x="0.335713" y="6.29785" width="83.163" height="62.4069" filterUnits="userSpaceOnUse" color-interpolation-filters="sRGB">
<feFlood flood-opacity="0" result="BackgroundImageFix"/>
<feColorMatrix in="SourceAlpha" type="matrix" values="0 0 0 0 0 0 0 0 0 0 0 0 0 0 0 0 0 0 127 0" result="hardAlpha"/>
<feOffset dy="2.87138"/>
<feGaussianBlur stdDeviation="0.249685"/>
<feComposite in2="hardAlpha" operator="out"/>
<feColorMatrix type="matrix" values="0 0 0 0 0 0 0 0 0 0 0 0 0 0 0 0 0 0 0.25 0"/>
<feBlend mode="normal" in2="BackgroundImageFix" result="effect1_dropShadow_417_37639"/>
<feBlend mode="normal" in="SourceGraphic" in2="effect1_dropShadow_417_37639" result="shape"/>
</filter>
<filter id="filter1_d_417_37639" x="28.2685" y="10.7388" width="25.4876" height="31.6753" filterUnits="userSpaceOnUse" color-interpolation-filters="sRGB">
<feFlood flood-opacity="0" result="BackgroundImageFix"/>
<feColorMatrix in="SourceAlpha" type="matrix" values="0 0 0 0 0 0 0 0 0 0 0 0 0 0 0 0 0 0 127 0" result="hardAlpha"/>
<feOffset dx="-0.202897" dy="2.23187"/>
<feGaussianBlur stdDeviation="0.405794"/>
<feComposite in2="hardAlpha" operator="out"/>
<feColorMatrix type="matrix" values="0 0 0 0 0 0 0 0 0 0 0 0 0 0 0 0 0 0 0.25 0"/>
<feBlend mode="normal" in2="BackgroundImageFix" result="effect1_dropShadow_417_37639"/>
<feBlend mode="normal" in="SourceGraphic" in2="effect1_dropShadow_417_37639" result="shape"/>
</filter>
<radialGradient id="paint0_radial_417_37639" cx="0" cy="0" r="1" gradientUnits="userSpaceOnUse" gradientTransform="translate(41.0745 22.0339) scale(9.11351 20.9902)">
<stop stop-color="#283E4C"/>
<stop offset="1" stop-color="#5E91B2" stop-opacity="0.47"/>
</radialGradient>
<radialGradient id="paint1_radial_417_37639" cx="0" cy="0" r="1" gradientUnits="userSpaceOnUse" gradientTransform="translate(41.1331 22.9406) scale(8.55902 19.7131)">
<stop stop-color="#5E91B2" stop-opacity="0.26"/>
<stop offset="1" stop-color="#233645" stop-opacity="0.63"/>
</radialGradient>
<linearGradient id="paint2_linear_417_37639" x1="35.2693" y1="48.6901" x2="35.4565" y2="95.0067" gradientUnits="userSpaceOnUse">
<stop stop-color="#051522"/>
<stop offset="1" stop-color="#081825"/>
</linearGradient>
</defs>
</svg>
