<svg width="121" height="233" viewBox="0 0 121 233" fill="none" xmlns="http://www.w3.org/2000/svg">
<path d="M119.938 227.738C100.474 221.72 24.3856 223.028 5.51099 224.86C1.18556 226.081 -10.5324 229.099 29.1043 231.402C78.6501 234.28 126.229 229.683 119.938 227.738Z" fill="#0A304A" fill-opacity="0.81"/>
<path d="M75.5 230.325C68.725 230.325 63.8625 227.934 61.52 226.19C60.9838 225.79 61.0896 225.005 61.677 224.686L77.4505 216.123C77.7867 215.941 78.1975 215.966 78.5088 216.188L88.5 223.325C89.1667 223.825 90.5 225.125 90.5 226.325C90.5 227.825 85.5 230.325 75.5 230.325Z" fill="#D9D9D9" stroke="black"/>
<path d="M38.5 228.825C34.3381 228.825 28.0589 225.842 24.9936 224.109C24.6852 223.935 24.4933 223.595 24.6622 223.283C26.1715 220.501 37.7956 214.858 42 215.325C46.5 215.825 57 224.825 56.5 226.825C56 228.825 44 228.825 38.5 228.825Z" fill="#D9D9D9" stroke="black"/>
<path d="M38.1463 215.462C35.7641 215.067 27.8895 220.564 24.25 223.362L28.5 185.325L31.6944 147.325L57.0056 153.743L84.7981 150.287L89 188.825L91.25 225.831C87.9414 222.704 80.6293 216.45 77.85 216.45C75.0707 216.45 65.4426 221.716 60.9759 224.35L57.0056 153.743V226.325C56.5093 225.502 54.5241 222.967 50.5537 219.412C45.5907 214.968 41.1241 215.956 38.1463 215.462Z" fill="#61727A"/>
<path d="M57.0056 153.743V226.325C56.5093 225.502 54.5241 222.967 50.5537 219.412C45.5907 214.968 41.1241 215.956 38.1463 215.462C35.7641 215.067 27.8895 220.564 24.25 223.362L28.5 185.325L31.6944 147.325L57.0056 153.743ZM57.0056 153.743L84.7981 150.287L89 188.825L91.25 225.831C87.9414 222.704 80.6293 216.45 77.85 216.45C75.0707 216.45 65.4426 221.716 60.9759 224.35L57.0056 153.743Z" stroke="black"/>
<path d="M19.4314 137.868C7.41006 128.528 15.9252 119.189 17.9287 111.497C18.8854 107.825 19.4313 101.059 26.4438 94.4666C34.458 92.2691 41.1779 89.5393 44.4758 87.3247L70.0211 88.9728C70.1881 89.7054 71.3234 91.3901 74.5291 92.2691C78.5362 93.3679 90.0794 100.463 91.0584 101.059C95.5664 103.806 105.584 125.232 102.579 129.078C101.367 130.628 93.5631 132.267 84.5469 133.708C85.3817 140.039 86.7508 153.14 85.5487 154.898C84.046 157.096 58.5007 158.744 55.4953 159.293C53.0911 159.733 35.6267 155.448 28.4473 152.701L29.4491 140.822C25.7013 140.845 22.2276 140.04 19.4314 137.868Z" fill="#4C4C4C"/>
<path d="M24.9411 118.09C31.9535 110.399 60.0033 122.485 59.5024 125.781C59.0016 129.078 61.1721 130.909 61.0051 132.923C59.8066 132.529 57.4897 133.141 54.4936 134.173M54.4936 134.173C53.6587 135.587 52.3898 138.307 53.9927 137.868C55.1886 137.54 71.1963 135.842 84.5469 133.708M54.4936 134.173C49.1464 136.014 41.6358 139.191 34.458 140.367M84.5469 133.708C93.5631 132.267 101.367 130.628 102.579 129.078C105.584 125.232 95.5664 103.806 91.0584 101.059C90.0794 100.463 78.5362 93.3679 74.5291 92.2691C71.3234 91.3901 70.1881 89.7054 70.0211 88.9728L44.4758 87.3247C41.1779 89.5393 34.458 92.2691 26.4438 94.4666C19.4313 101.059 18.8854 107.825 17.9287 111.497C15.9252 119.189 7.41006 128.528 19.4314 137.868C23.4429 140.984 28.8489 141.287 34.458 140.367M84.5469 133.708C85.3817 140.039 86.7508 153.14 85.5487 154.898C84.046 157.096 58.5007 158.744 55.4953 159.293C53.0911 159.733 35.6267 155.448 28.4473 152.701L29.4491 140.822L34.458 140.367M87.0513 112.596C86.0495 112.23 83.0442 112.157 79.0371 114.794C75.03 117.431 72.6925 119.921 72.0247 120.837" stroke="black"/>
<path d="M39.5 104.325L36 113.325" stroke="black"/>
<path d="M48.1317 136.125L52.2226 137.325L53.1317 134.325L48.1317 136.125Z" fill="#D0BEAA" stroke="black"/>
<path d="M70.6959 120.638C67.5416 119.265 61.8244 122.737 59.3601 124.644C58.3744 125.789 60.8387 133.801 61.8244 132.085C62.613 130.711 71.0245 126.552 75.1317 124.644C74.9674 123.881 73.8503 122.012 70.6959 120.638Z" fill="#D0BEAA" stroke="black"/>
<path d="M79 111.825C78.3333 109.825 76.4 105.125 74 102.325" stroke="black"/>
<path d="M50.5626 97.981L43.2648 91.4131C42.6069 90.8209 42.9861 89.7288 43.8694 89.6718L57 88.8247L68.2198 90.1711C68.8684 90.2489 69.2694 90.9176 69.0327 91.5264L66.605 97.769C66.3312 98.4732 65.4054 98.631 64.9137 98.0574L62.5 95.2414L62.9761 116.744C62.989 117.327 62.5028 117.797 61.9209 117.765L54.9223 117.376C54.4015 117.347 53.9904 116.923 53.978 116.401L53.5056 96.559C53.5019 96.4049 53.5339 96.252 53.5991 96.1123L57 88.8247L52.1078 97.7197C51.7972 98.2843 51.0416 98.4121 50.5626 97.981Z" fill="#373737"/>
<path d="M57 88.8247L52.1078 97.7197C51.7972 98.2843 51.0416 98.4121 50.5626 97.981L43.2648 91.4131C42.6069 90.8209 42.9861 89.7288 43.8694 89.6718L57 88.8247ZM57 88.8247L68.2198 90.1711C68.8684 90.2489 69.2694 90.9176 69.0327 91.5264L66.605 97.769C66.3312 98.4732 65.4054 98.631 64.9137 98.0574L62.5 95.2414M57 88.8247L62.5 95.2414M57 88.8247L53.5991 96.1123C53.5339 96.252 53.5019 96.4049 53.5056 96.559L53.978 116.401C53.9904 116.923 54.4015 117.347 54.9223 117.376L61.9209 117.765C62.5028 117.797 62.989 117.327 62.9761 116.744L62.5 95.2414M59.5776 110.517L59.0379 110.921C58.7127 111.165 58.2721 111.188 57.9234 110.979L56.7941 110.301C56.346 110.032 56.1804 109.464 56.4141 108.996L56.8795 108.066C57.1848 107.455 57.9984 107.323 58.4811 107.806L59.6847 109.009C60.115 109.44 60.0644 110.151 59.5776 110.517ZM56.6405 101.701L56.8393 100.11C56.9206 99.4602 57.5946 99.0626 58.203 99.3059L58.8714 99.5733C59.251 99.7251 59.5 100.093 59.5 100.502V101.825C59.5 102.377 59.0523 102.825 58.5 102.825H57.6328C57.0313 102.825 56.5659 102.298 56.6405 101.701Z" stroke="black"/>
<path d="M13.5184 70.6374C13.1184 65.4374 19.3517 64.4708 22.5184 64.6374C22.8517 65.3041 23.3183 67.5375 22.5184 71.1375C21.7184 74.7375 24.5183 79.9708 26.0183 82.1375C24.3516 81.9708 20.8183 81.5375 20.0183 81.1375C19.0183 80.6375 14.0184 77.1374 13.5184 70.6374Z" fill="#D0BEAA" stroke="black"/>
<path d="M24.0183 17.1373C36.0183 1.93727 53.685 0.470604 61.0183 1.63727C84.6183 3.63732 89 18.9914 92 26.3247C102 42.3247 97.685 60.1372 90.5183 67.1372C95.5183 80.1372 83.5183 87.1372 83.5183 87.1372C83.5183 87.1372 76.5183 93.1372 58.5183 93.1372C40.4075 93.1372 27.0183 83.1372 24.0183 79.6372C21.6183 76.8372 22.3516 67.8039 23.0183 63.6372C18.3516 54.4706 12.0183 32.3373 24.0183 17.1373Z" fill="#D0BEAA" stroke="black"/>
<path d="M102.518 67.1369C101.318 64.7369 95.685 64.8035 93.0183 65.1369C91.8516 65.4702 89.8183 66.737 91.0183 69.137C92.2183 71.537 90.5183 78.137 89.5183 81.137C90.3516 81.637 93.0183 82.337 97.0183 81.137C102.018 79.637 104.018 70.1369 102.518 67.1369Z" fill="#D0BEAA" stroke="black"/>
<path d="M34.6928 29.5935C34.5964 28.9459 35.0433 28.3428 35.6909 28.2465L41.9685 27.3126C42.6188 27.2158 43.2244 27.6646 43.3212 28.3149C43.4302 29.048 42.8501 29.7014 42.1093 29.6801L39.325 29.5997C39.1152 29.5936 38.9061 29.6256 38.7076 29.6939L36.2515 30.54C35.5502 30.7815 34.8019 30.3271 34.6928 29.5935Z" fill="#4C4C4C"/>
<path d="M81.0061 28.8458C81.0537 28.2045 80.5724 27.646 79.931 27.5984L74.8786 27.2237C74.2341 27.1759 73.6728 27.6596 73.625 28.3042C73.57 29.0453 74.2109 29.6493 74.9475 29.5506L76.9753 29.2789C77.2197 29.2461 77.4683 29.2657 77.7045 29.3362L79.5119 29.8755C80.2245 30.0882 80.9511 29.5875 81.0061 28.8458Z" fill="#4C4C4C"/>
<path d="M87.5183 47.1372H60.5183C59.966 47.1372 59.5183 47.5849 59.5183 48.1372V65.1372C59.5183 65.6895 59.966 66.1372 60.5183 66.1372H87.5183C88.0706 66.1372 88.5183 65.6895 88.5183 65.1372V48.1372C88.5183 47.5849 88.0706 47.1372 87.5183 47.1372Z" fill="#D9D9D9" stroke="#3A2B2B" stroke-width="2"/>
<path d="M53.5183 47.1372H26.5183C25.966 47.1372 25.5183 47.5849 25.5183 48.1372V65.1372C25.5183 65.6895 25.966 66.1372 26.5183 66.1372H53.5183C54.0706 66.1372 54.5183 65.6895 54.5183 65.1372V48.1372C54.5183 47.5849 54.0706 47.1372 53.5183 47.1372Z" fill="#D9D9D9" stroke="#3A2B2B" stroke-width="2"/>
<rect x="68.5" y="50.3247" width="9.98169" height="11.156" rx="2.34863" fill="#242424" fill-opacity="0.75"/>
<rect x="35.5" y="50.3247" width="9.98169" height="11.156" rx="2.34863" fill="#242424" fill-opacity="0.75"/>
<path d="M55.5183 54.6372H58.5565C58.8116 54.6372 59.0183 54.844 59.0183 55.099C59.0183 55.1244 59.0204 55.1498 59.0246 55.1749L59.3242 56.9728C59.4258 57.5823 58.9558 58.1372 58.3379 58.1372H55.5183C54.966 58.1372 54.5183 57.6895 54.5183 57.1372V55.6372C54.5183 55.0849 54.966 54.6372 55.5183 54.6372Z" fill="#3A2B2B"/>
<path d="M41.2079 75.1372C37.6079 76.3372 27.3516 69.4705 23.0183 66.6372C20.0183 69.6372 24.208 80.6372 25.2079 81.1372C26.2079 81.6372 38.2079 91.6372 48.7079 93.1372C56.2634 94.2166 68.2079 93.1372 70.7079 93.1372C73.2079 93.1372 80.2079 89.6372 86.7079 86.6372C91.9079 84.2372 91.8746 73.9705 91.2079 69.1372C87.7079 72.9705 79.0079 79.7372 72.2079 76.1372C63.7079 71.6372 45.7079 73.6372 41.2079 75.1372Z" fill="#B9B3AD" stroke="black" stroke-width="0.5"/>
<path d="M54.5183 80.6372C57.3516 80.4705 63.6183 79.7372 66.0183 78.1372" stroke="#0C0B0B" stroke-width="2" stroke-linecap="round"/>
<path d="M41.5183 84.1372L24.5183 78.6372L25.0183 80.6372C26.5183 82.1372 29.215 84.4552 34.5183 87.6372C37.0183 89.1372 41.3513 91.6372 46.0183 92.6372C50.6853 93.6372 50.3705 92.6003 52.5183 93.1372C55.7183 93.9372 63.8516 93.8039 68.5183 93.1372C73.5183 93.1372 82.8321 88.1372 86.0183 86.6372C89.2046 85.1372 88.9737 83.7564 90.0183 82.6372L78.0183 85.6372C78.0183 85.6372 73.1178 80.8501 70.5183 82.6372C68.7853 83.8286 65.0183 87.6372 65.0183 87.6372H53.5183C53.1183 87.6372 49.3516 84.3039 47.5183 82.6372C45.685 80.9705 41.5183 84.1372 41.5183 84.1372Z" fill="#333333" fill-opacity="0.19"/>
<path d="M78 6.82471C81.1024 6.82471 80.6755 8.5014 85.0001 11.3247C97.5 21.8247 98.5 34.248 98.5 40.271C98.5 41.3248 98.5 42.3248 97.5 45.3248C94.7602 45.3248 95.0683 43.0526 93.7602 41.2749C91.175 37.7614 89.688 24.1247 86.4352 22.7038C76.0941 18.1865 74.122 6.82471 78 6.82471Z" fill="#CDC6BE" stroke="black" stroke-width="0.5"/>
<path d="M40.5183 8.1377C41.8562 4.79555 32.5177 10.1367 34.0174 8.13745C15.5183 17.637 17.6187 34.6375 16.6187 38.6375C15.8187 41.8375 16.8507 49.3041 19.0174 52.6374C19.0174 50.9708 23.2174 42.1374 22.0174 40.1374C20.5174 37.6374 24.0175 26.1375 27.5175 24.1375C31.0175 22.1375 38.917 12.1377 40.5183 8.1377Z" fill="#CDC6BE" stroke="black" stroke-width="0.5"/>
</svg>
