<svg width="109" height="193" viewBox="0 0 109 193" fill="none" xmlns="http://www.w3.org/2000/svg">
<path d="M85.591 188.248C74.0746 182.898 29.0557 184.061 17.8882 185.689C15.329 186.775 8.39587 189.457 31.8476 191.504C61.1622 194.063 89.313 189.977 85.591 188.248Z" fill="#0A304A" fill-opacity="0.81"/>
<path d="M20.7481 165.844C23.0985 162.567 29.205 152.682 26.8898 147.285C26.8535 147.2 26.8094 147.137 26.7624 147.058C24.9982 144.085 29.2416 113.335 33.2504 98.2582C33.3599 97.8465 33.7179 97.5635 34.1431 97.5354L52.1602 96.3438H65.5481C66.0805 96.3438 66.5196 96.761 66.5468 97.2927L68.9501 144.341C68.9604 144.542 69.0311 144.735 69.1529 144.895L75.8009 153.635C75.8501 153.7 75.8901 153.767 75.9216 153.842C78.8482 160.798 79.9924 178.204 81.9561 178.204C83.5616 178.204 82.6381 182.869 82.083 186.357C81.9219 187.369 79.6804 188.699 78.6619 188.583C72.6444 187.898 60.5314 190.107 58.6159 188.825C56.1484 187.173 53.1734 188.001 50.7058 188.414C48.2383 188.826 38.2307 192.542 34.2826 188.414C31.2927 185.287 26.0535 189.275 20.237 191.064C19.6989 191.229 19.1436 190.889 19.027 190.338C16.3582 177.742 18.4401 169.062 20.7481 165.844Z" fill="#222222" stroke="black"/>
<path d="M81.7481 147.844C83.3481 147.444 82.4147 141.677 81.7481 138.844L69.2481 140.344V145.344C69.2481 146.344 74.2481 151.844 75.2481 152.344C76.2481 152.844 79.7481 148.344 81.7481 147.844Z" fill="#FFEFDB" stroke="black"/>
<g filter="url(#filter0_d_214_48328)">
<path d="M98.653 54.564C101.906 76.0984 99.8727 96.2085 56.3699 97.1501C34.028 97.1501 3.71922 81.7718 14.4933 53.8542C13.6101 27.5928 33.4181 14.3438 55.76 14.3438C78.1019 14.3438 94.8659 29.4902 98.653 54.564Z" fill="#FFEFDB"/>
<path d="M55.7598 12.9746C67.2537 12.9746 77.3696 16.8773 85.0957 24.0479C92.8152 31.2121 98.0737 41.5674 100.006 54.3594L100.155 55.3701C101.653 65.8134 101.859 76.3092 96.1621 84.3691C90.2401 92.7474 78.2889 98.0448 56.3994 98.5186H56.3701C44.943 98.5186 31.4582 94.5996 22.1494 87.0332C17.4793 83.2371 13.8159 78.4845 12.043 72.8047C10.2866 67.1778 10.4219 60.7522 13.1172 53.623C12.7382 40.2422 17.6097 30.0503 25.5225 23.2148C33.4561 16.3615 44.3343 12.9747 55.7598 12.9746Z" stroke="#222222" stroke-width="2.73734"/>
</g>
<path d="M48.7481 85.3438L57.2481 75.8438C53.2481 78.8438 48.7481 77.8438 46.7481 78.3438C45.1481 78.7438 38.7481 76.3438 38.7481 76.3438L43.7481 85.3438H48.7481Z" fill="white" stroke="black"/>
<path d="M38.2481 75.8438C39.7481 77.8438 51.7481 80.3438 56.7481 76.3438" stroke="black" stroke-width="1.81031" stroke-linecap="round"/>
<path d="M60.1423 39.4375C62.9992 37.6773 70.3934 41.7845 75.603 43.3492" stroke="#272727" stroke-width="2.26289" stroke-linecap="round"/>
<path d="M28.2803 42.495C29.1567 41.8424 34.1753 42.4951 39.7077 40.3436" stroke="#1C1C1C" stroke-width="2.26289" stroke-linecap="round"/>
<path d="M71.3192 51.2977L72.4333 55.0722L69.1763 54.049L71.3192 51.2977Z" fill="#2F2F2F"/>
<path d="M75.3215 52.9351L74.7968 56.8199L72.0847 54.0637L75.3215 52.9351Z" fill="#2F2F2F"/>
<path d="M73.5096 51.1745L74.2186 55.0194L70.8369 53.5806L73.5096 51.1745Z" fill="#2F2F2F"/>
<path d="M61.6551 55.7346C61.6551 54.5113 62.6468 53.5195 63.8701 53.5195H73.6825C74.9948 53.5195 75.9657 54.7406 75.67 56.0192C75.4314 57.0512 74.4426 57.7289 73.3939 57.5791L71.7481 57.344L67.1046 56.9219C66.5494 56.8714 65.9931 57.0069 65.5233 57.307L65.0626 57.6013C63.5882 58.5432 61.6551 57.4843 61.6551 55.7346Z" fill="#2F2F2F"/>
<path d="M27.8471 50.6472L26.8704 54.4595L30.0882 53.3191L27.8471 50.6472Z" fill="#2F2F2F"/>
<path d="M23.9067 52.4282L24.5717 56.2915L27.1823 53.4389L23.9067 52.4282Z" fill="#2F2F2F"/>
<path d="M25.6537 50.603L25.0843 54.4711L28.4117 52.9108L25.6537 50.603Z" fill="#2F2F2F"/>
<path d="M37.6655 54.7307C37.6212 53.5082 36.5943 52.553 35.3717 52.5973L25.5658 52.9525C24.2544 53 23.3283 54.2555 23.67 55.5225C23.9459 56.5452 24.9586 57.1867 26.0011 56.999L27.6374 56.7044L32.2625 56.1145C32.8156 56.0439 33.3764 56.1592 33.8568 56.4421L34.3278 56.7195C35.8354 57.6075 37.7289 56.4792 37.6655 54.7307Z" fill="#2F2F2F"/>
<path d="M35.2681 18.8997C41.8675 16.5231 52.7173 10.8392 71.6765 17.4024C78.8379 19.8814 86.7768 27.3464 89.7968 31.6618C92.8169 35.9771 95.5283 42.599 97.1792 47.6099C100.703 58.3044 99.4497 73.3858 95.5014 79.6935C91.978 85.3222 94.6625 82.5078 94.998 66.1845C95.6924 32.4091 84.7634 30.6644 80.7367 27.3464C70.5166 18.9252 57.9185 17.5853 55.7374 17.4024C51.9099 17.0814 44.7476 15.5059 35.115 18.976L32.2481 20.4043L33.3876 19.6875C33.5225 19.6027 33.6668 19.5287 33.8148 19.4696C34.253 19.2947 34.6865 19.1304 35.115 18.976L35.2681 18.8997Z" fill="#E2D3BD"/>
<rect width="16.4744" height="14.0009" rx="1.75044" transform="matrix(0.00434407 -0.999991 0.999978 0.00657187 20.2481 78.0312)" fill="#E5B0B1" fill-opacity="0.57"/>
<path d="M42.8833 87.5286C42.4893 87.4802 42.1403 87.2505 41.9396 86.9077C41.4055 85.9953 42.1519 84.8698 43.1993 85.0082L46.0877 85.3899C46.2762 85.4148 46.4674 85.4089 46.6539 85.3723L49.4727 84.8193C50.4489 84.6278 51.3062 85.4954 51.103 86.4693C50.9806 87.0557 50.4959 87.4967 49.9004 87.5633L46.5765 87.9349C46.4408 87.9501 46.3039 87.9493 46.1683 87.9327L42.8833 87.5286Z" fill="#E07F81"/>
<path d="M42.3197 77.4802C41.7225 77.4043 41.2924 76.8682 41.3481 76.2691C41.406 75.6456 41.9664 75.1934 42.5884 75.2683L47.1791 75.8212C47.3024 75.8361 47.4269 75.8378 47.5505 75.8263L50.9905 75.5065C51.6075 75.4491 52.1539 75.9058 52.2073 76.5234C52.2597 77.1293 51.8171 77.6644 51.2124 77.7264L47.5643 78.1003C47.4315 78.1139 47.2977 78.1123 47.1653 78.0955L42.3197 77.4802Z" fill="#E07F81"/>
<rect width="17.7424" height="14.3132" rx="1.75044" transform="matrix(0.00434407 -0.999991 0.999978 0.00657186 64.2483 81.0669)" fill="#E5B0B1" fill-opacity="0.57"/>
<path d="M9.4633 114.106C7.50377 109.924 19.4109 95.1948 26.0491 87.8511C26.3363 87.5334 26.7914 87.4402 27.1837 87.612L33.2005 90.2464C33.6821 90.4573 33.9182 91.0049 33.7409 91.4998L31.9313 96.5508C34.7818 91.5316 40.0106 94.7772 42.1549 96.2186C42.6479 96.5499 43.0354 97.316 42.9839 97.9077C42.1278 107.74 42.6283 126.272 41.0822 129.763C39.0746 134.295 44.0935 149.952 43.0897 149.128C42.086 148.304 21.6543 145.94 19.501 145.42C10.9689 143.36 23.0142 133.059 25.0218 113.511C23.1749 116.047 21.6936 118.183 21.5086 118.638C21.0067 119.874 11.9727 119.462 9.4633 114.106Z" fill="#D9D9D9"/>
<path d="M78.2219 105.454C76.6486 100.933 66.7167 98.6362 61.5942 97.3824C61.3882 97.332 61.1766 97.3387 61.0026 97.4599C57.0175 100.236 51.4452 127.547 49.1396 141.953C49.1211 142.069 49.1233 142.18 49.1463 142.295C49.8387 145.764 51.5478 151.897 53.1275 149.952C54.6119 148.124 62.785 146.859 67.5809 146.353C68.1722 146.29 68.5839 145.735 68.4668 145.152L66.8658 137.179C67.5861 138.725 68.8207 140.968 69.1879 140.063C69.5475 139.178 77.9874 138.887 83.4708 138.836C84.251 138.829 84.7498 137.961 84.3884 137.27C83.9426 136.417 83.3732 135.272 82.7389 133.883C81.2332 130.587 80.2294 111.222 78.2219 105.454Z" fill="#D9D9D9"/>
<path d="M33.052 103.394C32.4183 103.654 28.1841 109.168 25.0218 113.511M29.0369 104.63L30.6606 100.097M30.6606 100.097L33.7409 91.4998C33.9182 91.0049 33.6821 90.4573 33.2005 90.2464L27.1837 87.612C26.7914 87.4402 26.3363 87.5334 26.0491 87.8511C19.4109 95.1948 7.50377 109.924 9.4633 114.106C11.9727 119.462 21.0067 119.874 21.5086 118.638C21.6936 118.183 23.1749 116.047 25.0218 113.511M30.6606 100.097C32.8115 90.3122 39.6269 94.5192 42.1549 96.2186C42.6479 96.5499 43.0354 97.316 42.9839 97.9077C42.1278 107.74 42.6283 126.272 41.0822 129.763C39.0746 134.295 44.0935 149.952 43.0897 149.128C42.086 148.304 21.6543 145.94 19.501 145.42C10.9689 143.36 23.0142 133.059 25.0218 113.511M66.1766 108.75C66.9732 109.731 66.8478 127.551 66.6825 136.551C66.6798 136.697 66.7088 136.836 66.7691 136.969C66.8002 137.037 66.8324 137.108 66.8658 137.179M66.8658 137.179C67.5861 138.725 68.8207 140.968 69.1879 140.063C69.5475 139.178 77.9874 138.887 83.4708 138.836C84.251 138.829 84.7498 137.961 84.3884 137.27C83.9426 136.417 83.3732 135.272 82.7389 133.883C81.2332 130.587 80.2294 111.222 78.2219 105.454C76.6486 100.933 66.7167 98.6362 61.5942 97.3824C61.3882 97.332 61.1766 97.3387 61.0026 97.4599C57.0175 100.236 51.4452 127.547 49.1396 141.953C49.1211 142.069 49.1233 142.18 49.1462 142.295C49.8387 145.764 51.5478 151.897 53.1275 149.952C54.6119 148.124 62.785 146.859 67.5809 146.353C68.1722 146.29 68.5839 145.735 68.4668 145.152L66.8658 137.179Z" stroke="#2F2F2F"/>
<path d="M34.604 185.192C36.5643 183.414 39.9452 183.193 42.5375 183.415C42.8746 183.444 44.9541 184.406 45.282 184.49C47.0296 184.937 48.2494 187.291 48.8798 189.1C49.0959 189.719 48.6056 190.327 47.9496 190.31L32.2221 189.901C31.6801 189.887 31.2948 189.439 31.5265 188.949C31.9267 188.103 32.8216 186.809 34.604 185.192Z" fill="#D9D9D9" stroke="black"/>
<path d="M68.0252 190.312L51.2752 190.07C50.4463 190.058 49.991 189.1 50.5051 188.45L53.0952 185.172C58.1961 182.124 59.2779 183.671 62.4123 184.278C64.2996 184.643 66.8972 186.864 68.7348 188.716C69.3421 189.328 68.8874 190.324 68.0252 190.312Z" fill="#D9D9D9"/>
<path d="M53.3227 184.884L53.0952 185.172M53.0952 185.172L50.5051 188.45C49.991 189.1 50.4463 190.058 51.2752 190.07L68.0252 190.312C68.8874 190.324 69.3421 189.328 68.7348 188.716C66.8972 186.864 64.2996 184.643 62.4123 184.278C59.2779 183.671 58.1961 182.124 53.0952 185.172Z" stroke="black"/>
<path d="M41.3911 130.344L51.3911 130.728L50.4388 135.344H41.8673L41.3911 130.344Z" stroke="#2F2F2F"/>
<path d="M45.3911 135.344V130.344H47.3911V135.344H45.3911Z" fill="#D9D9D9" stroke="#2F2F2F"/>
<path d="M33.3911 163.344L31.3911 177.344" stroke="black"/>
<path d="M56.3911 164.344V179.344" stroke="black"/>
<path d="M71.3911 166.344C74.2196 175.811 77.048 176.242 74.2196 178.393C71.9568 180.115 73.9053 179.111 75.1624 178.393" stroke="black"/>
<path d="M47.3911 141.344C47.3911 142.571 47.3911 147.889 47.3911 150.344" stroke="black"/>
<path d="M27.3911 161.344C25.7695 164.474 22.5262 168.779 23.6073 170.344" stroke="black"/>
<circle cx="38.7481" cy="126.844" r="1.5" fill="#272727"/>
<circle cx="37.7481" cy="131.844" r="1.5" fill="#272727"/>
<circle cx="38.7481" cy="137.844" r="1.5" fill="#272727"/>
<path d="M28.2481 136.844C29.4807 134.872 30.9698 123.295 31.814 113.688C32.1579 109.774 29.7025 109.354 28.6657 113.144C26.5074 121.033 24.2077 129.965 23.7481 131.344C22.7481 134.344 19.7481 138.344 19.7481 141.344C19.7481 144.344 25.7481 140.844 28.2481 136.844Z" fill="#747373" fill-opacity="0.62"/>
<path d="M20.7481 107.344C21.3486 106.383 21.7237 104.857 21.9411 103.075C22.412 99.2154 17.4776 98.1552 16.2481 101.844C15.2481 104.844 12.2481 108.844 12.2481 111.844C12.2481 114.844 18.2481 111.344 20.7481 107.344Z" fill="#747373" fill-opacity="0.62"/>
<path d="M69.248 134.844C68.0878 132.988 69.6199 132.051 71.2086 130.746C72.3356 129.82 76.734 125.46 77.1953 126.844C78.1953 129.844 79.7438 134.219 81.1953 136.844C81.7481 137.844 71.748 138.844 69.248 134.844Z" fill="#747373" fill-opacity="0.62"/>
<path d="M29.4735 80.0107L27.0367 86.8279C26.8706 87.2926 27.0672 87.8092 27.5065 88.0339C29.3632 88.9834 32.3593 90.3438 33.7481 90.3438C35.3226 90.3438 36.7034 87.5462 37.2235 86.0806C37.2403 86.0332 37.2527 85.9856 37.2618 85.9362L37.7481 83.3021L38.2955 79.8506C38.4194 79.0688 37.3151 78.7683 37.0258 79.5051L36.5397 80.7436C36.3742 81.1652 35.7481 81.0467 35.7481 80.5938L35.9241 77.338C35.9603 76.6676 34.9943 76.5258 34.8365 77.1784L34.2576 79.5712C34.1856 79.8685 33.7481 79.8163 33.7481 79.5104C33.7481 79.2639 33.7481 78.1251 33.6561 77.089C33.5864 76.3052 32.9813 76.3329 32.7764 77.0927L31.9553 80.138C31.779 80.7917 30.8417 80.7623 30.7067 80.0988C30.5772 79.4621 29.6922 79.3989 29.4735 80.0107Z" fill="#FFEFDB" stroke="black"/>
<path d="M57.4234 121.325L53.9234 136.825" stroke="#2F2F2F"/>
<path d="M67.4234 150.825V162.825" stroke="#2F2F2F"/>
<path d="M64.9234 22.3247C60.8177 18.3611 48.9883 15.7406 47.0929 16.3735C38.5246 19.2348 32.9143 24.3239 24.7795 29.5823C26.029 28.7734 38.8816 24.5194 42.8087 23.6387C46.7359 22.7581 49.592 22.7581 55.3043 23.6387C61.0165 24.5194 59.3186 23.6234 65.9234 25.8249C72.5281 28.0265 77.387 32.2242 75.4234 29.5823C73.4598 26.9403 68.8993 26.163 64.9234 22.3247Z" fill="#212121"/>
<path d="M19.4234 33.8247C19.4234 32.0642 23.9492 30.1189 24.7795 29.5823M24.7795 29.5823C32.9143 24.3239 38.5246 19.2348 47.0929 16.3735C48.9883 15.7406 60.8177 18.3611 64.9234 22.3247C68.8993 26.163 73.4598 26.9403 75.4234 29.5823C77.387 32.2242 72.5281 28.0265 65.9234 25.8249C59.3186 23.6234 61.0165 24.5194 55.3043 23.6387C49.592 22.7581 46.7359 22.7581 42.8087 23.6387C38.8816 24.5194 26.029 28.7734 24.7795 29.5823Z" stroke="#2F2F2F" stroke-width="1.31283"/>
<path d="M60.7848 98.1742C60.6074 98.2241 60.4285 98.2742 60.2482 98.3247C59.301 98.5899 59.5448 98.3164 60.7848 98.1742C72.9068 94.7673 78.3204 92.7788 83.2483 88.3437C88.2483 83.8437 94.2484 52.844 87.2484 42.844C80.2484 32.844 73.2482 30.344 69.7482 25.844C66.2482 21.344 48.7482 18.844 41.2482 21.844C33.7482 24.844 20.2482 29.8437 18.7482 34.8437C17.2482 39.8437 12.7482 51.8437 13.2482 59.3437C13.7482 66.8437 10.7487 69.344 14.2484 76.3437C17.1604 82.1678 23.0816 86.177 25.2483 88.3437C22.915 91.677 18.1483 98.1437 17.7483 97.3437C17.2483 96.3437 1.24862 71.2285 1.24832 52.8437C1.24796 30.3247 26.7484 6.34399 32.2484 3.84388C39.5879 0.507636 74.2484 -0.156041 82.2484 5.84396C90.2484 11.844 104.248 29.3437 104.748 34.8437C105.248 40.3437 111.248 69.8437 104.748 80.3437C98.2484 90.8437 84.0391 107.69 77.2484 103.344C69.0653 98.1067 63.1353 97.9046 60.7848 98.1742Z" fill="#464646"/>
<path d="M25.2483 88.3437C23.0816 86.177 17.1604 82.1678 14.2484 76.3437C10.7487 69.344 13.7482 66.8437 13.2482 59.3437C12.7482 51.8437 17.2482 39.8437 18.7482 34.8437C20.2482 29.8437 33.7482 24.844 41.2482 21.844C48.7482 18.844 66.2482 21.344 69.7482 25.844C73.2482 30.344 80.2484 32.844 87.2484 42.844C94.2484 52.844 88.2483 83.8437 83.2483 88.3437C78.2483 92.8437 72.7482 94.825 60.2482 98.3247C57.5056 99.0926 64.7484 95.344 77.2484 103.344C84.0391 107.69 98.2484 90.8437 104.748 80.3437C111.248 69.8437 105.248 40.3437 104.748 34.8437C104.248 29.3437 90.2484 11.844 82.2484 5.84396C74.2484 -0.156041 39.5879 0.507636 32.2484 3.84388C26.7484 6.34399 1.24796 30.3247 1.24832 52.8437C1.24862 71.2285 17.2483 96.3437 17.7483 97.3437C18.1483 98.1437 22.915 91.677 25.2483 88.3437ZM25.2483 88.3437L26.2889 87.3032C26.5917 87.0004 26.8262 86.6362 26.9766 86.2352L28.2484 82.8437L29.2779 80.4415C29.5634 79.7755 30.2183 79.3437 30.9429 79.3437H31.5879C31.9824 79.3437 32.3326 79.0913 32.4573 78.7171L32.7795 77.7505C32.9395 77.2705 33.6112 77.2507 33.7992 77.7206V77.7206C33.9733 78.1558 34.5798 78.181 34.7894 77.7618L34.8646 77.6114C35.0534 77.2337 35.5729 77.1624 35.7012 77.5648C35.7306 77.657 35.7484 77.7513 35.7484 77.8437C35.7484 78.0304 35.821 78.442 35.9154 78.8958C36.0628 79.6047 36.8822 79.9212 37.4847 79.5195L37.6517 79.4082C37.7148 79.3661 37.7889 79.3437 37.8646 79.3437V79.3437C38.0766 79.3437 38.2484 79.5155 38.2484 79.7275V81.5169C38.2484 81.7336 38.216 81.949 38.1523 82.156L36.377 87.9257C36.2918 88.2029 36.1667 88.4663 36.0059 88.7076L34.2484 91.3437" stroke="#222222" stroke-width="2"/>
<defs>
<filter id="filter0_d_214_48328" x="7.70032" y="11.6064" width="96.535" height="91.9019" filterUnits="userSpaceOnUse" color-interpolation-filters="sRGB">
<feFlood flood-opacity="0" result="BackgroundImageFix"/>
<feColorMatrix in="SourceAlpha" type="matrix" values="0 0 0 0 0 0 0 0 0 0 0 0 0 0 0 0 0 0 127 0" result="hardAlpha"/>
<feOffset dy="1.81031"/>
<feGaussianBlur stdDeviation="0.905157"/>
<feComposite in2="hardAlpha" operator="out"/>
<feColorMatrix type="matrix" values="0 0 0 0 0 0 0 0 0 0 0 0 0 0 0 0 0 0 0.25 0"/>
<feBlend mode="normal" in2="BackgroundImageFix" result="effect1_dropShadow_214_48328"/>
<feBlend mode="normal" in="SourceGraphic" in2="effect1_dropShadow_214_48328" result="shape"/>
</filter>
</defs>
</svg>
