<svg width="168" height="191" viewBox="0 0 168 191" fill="none" xmlns="http://www.w3.org/2000/svg">
<path d="M16.1109 49.7709C15.8954 54.258 33.5837 63.3799 42.4547 67.38C43.3142 67.799 48.4759 70.6179 50.9494 71.9749L38.8964 85.5902L31.8544 78.9468L25.8447 80.2981C22.5156 76.8376 12.9499 77.917 9.50078 78.2334C5.18933 78.6288 2.94699 64.4013 4.54507 63.8507C5.82352 63.4102 4.14961 59.5392 3.15285 57.6588L3.72723 52.5553L9.55485 51.245L11.0258 48.4271C12.8106 47.0054 16.3265 45.2838 16.1109 49.7709Z" fill="#434343" stroke="#29282C" stroke-width="0.74664"/>
<path d="M25.0125 61.1151C31.1723 62.4217 34.5321 68.2082 34.9055 68.3949C37.8921 69.3282 41.4385 75.6746 41.8118 76.4212C42.1852 77.1678 36.9587 78.2878 35.6521 78.2878C34.3454 78.2878 24.0791 76.9812 17.546 75.6746C11.0129 74.3679 15.1195 76.4212 12.1329 68.3949C9.14638 60.3685 18.8527 59.8085 25.0125 61.1151Z" fill="#202023" fill-opacity="0.42"/>
<path d="M30.0524 57.195C26.7672 47.3394 32.6034 25.8363 37.7055 16.1299C38.6388 10.3435 61.4113 0.637141 68.5044 1.01046C75.5974 1.38378 96.8767 7.35692 100.237 8.8502C103.596 10.3435 106.583 29.9427 108.636 40.209C110.69 50.4753 105.65 58.6883 104.716 63.3548C103.783 68.0213 91.2769 76.6077 88.6636 76.6077C86.0504 76.6077 77.464 78.6609 72.6109 80.7142C67.7577 82.7675 50.2117 78.8476 44.7985 76.6077C39.3854 74.3678 34.1589 69.5146 30.0524 57.195Z" fill="#434343" stroke="#29282C" stroke-width="0.74664"/>
<path d="M37.3319 76.7944C39.3852 75.4878 67.7575 76.7944 67.9442 76.7944L79.1005 76.9744C79.373 76.9787 79.6398 76.9089 79.8819 76.7838C80.7885 76.3151 83.2338 75.1824 85.4902 75.3011C86.118 75.3342 86.6697 75.3087 87.1702 75.2393C89.4976 74.9165 90.7184 73.6427 93.33 72.8746C95.8685 72.1279 102.103 67.8347 104.903 65.7815C114.668 60.2518 119.126 58.3759 120.761 57.981C121.232 57.8672 121.493 58.2288 121.454 58.712C121.125 62.8249 120.536 69.9341 120.396 70.6347C120.246 71.3813 108.387 78.742 102.476 82.3289C106.01 84.2618 119.548 85.3163 116.951 89.2958C116.782 89.5542 116.648 89.8385 116.608 90.1445C115.9 95.6175 112.341 102.708 104.903 114.5C100.097 122.118 83.7808 121.954 79.8223 124.917C79.1149 125.446 78.1898 126.128 77.3481 125.859C64.5673 121.778 73.6248 100.704 70.9308 96.3937C68.1309 91.9139 67.1976 95.4604 64.211 94.3405C61.2244 93.2205 58.6112 90.0473 54.1314 91.5406C49.6515 93.0339 47.0383 90.234 44.0517 92.1006C41.8305 93.4888 39.007 91.4354 37.6209 89.9899C37.4269 89.7875 37.1895 89.6323 36.9236 89.5436C35.4517 89.0526 33.2919 88.1142 33.9721 87.4341C34.9054 86.5008 35.2787 78.101 37.3319 76.7944Z" fill="#28272B"/>
<path d="M96.3165 79.4077C96.9275 79.4077 99.4391 80.6679 102.476 82.3289M102.476 82.3289C106.01 84.2618 119.548 85.3163 116.951 89.2958C116.782 89.5542 116.648 89.8385 116.608 90.1445C115.9 95.6174 112.341 102.708 104.903 114.5C100.097 122.118 83.7808 121.954 79.8223 124.917C79.1149 125.446 78.1898 126.128 77.3481 125.859C64.5673 121.778 73.6248 100.704 70.9308 96.3937C68.1309 91.9139 67.1976 95.4604 64.211 94.3405C61.2244 93.2205 58.6112 90.0473 54.1314 91.5406C49.6515 93.0339 47.0383 90.234 44.0517 92.1006C41.8305 93.4888 39.007 91.4354 37.6209 89.9899C37.4269 89.7875 37.1895 89.6323 36.9236 89.5436C35.4517 89.0526 33.2919 88.1142 33.9721 87.4341C34.9054 86.5008 35.2787 78.101 37.3319 76.7944C39.3852 75.4878 67.7575 76.7944 67.9442 76.7944L79.1005 76.9744C79.373 76.9787 79.6398 76.9089 79.8819 76.7838C80.7885 76.3151 83.2338 75.1824 85.4902 75.3011C86.118 75.3342 86.6697 75.3087 87.1702 75.2393M102.476 82.3289C108.387 78.742 120.246 71.3813 120.396 70.6347C120.536 69.9341 121.125 62.8249 121.454 58.712C121.493 58.2288 121.232 57.8672 120.761 57.981C119.126 58.3759 114.668 60.2518 104.903 65.7815C102.103 67.8347 95.8685 72.1279 93.33 72.8746C90.7184 73.6427 89.4976 74.9165 87.1702 75.2393M87.1702 75.2393C88.7879 75.3844 92.3967 76.6078 92.3967 76.6078" stroke="#2F2F2F" stroke-width="0.74664"/>
<path d="M101.543 114.313L105.09 109.087" stroke="#1D1D1D" stroke-width="1.8666"/>
<path d="M106.956 107.22L109.943 101.994" stroke="#1D1D1D" stroke-width="1.8666"/>
<path d="M112.183 95.4604L113.303 89.8606" stroke="#1D1D1D" stroke-width="1.8666"/>
<path d="M55.438 86.8739C57.1801 85.754 61.4484 83.962 64.5843 85.754" stroke="#1D1D1D" stroke-width="1.8666"/>
<path d="M79.7039 107.967C82.8771 104.669 90.0448 98.335 93.33 99.3803" stroke="#1D1D1D" stroke-width="1.8666"/>
<path d="M113.863 70.448C110.565 71.4435 103.97 73.8079 103.97 75.3012" stroke="#1D1D1D" stroke-width="1.8666"/>
<path d="M41.2518 79.781C40.0074 80.4032 37.7426 82.2449 38.6385 84.6342" stroke="#1D1D1D" stroke-width="1.8666"/>
<path d="M89.2234 124.02C80.4402 122.922 82.7187 126.906 78.4744 126.126C78.3623 126.105 78.3165 125.967 78.3971 125.886L85.3574 120.252C85.8775 119.831 86.6133 119.807 87.1611 120.191C88.7608 121.314 90.9717 122.84 91.4633 123.086C92.0606 123.385 98.1831 125.139 89.2234 124.02Z" fill="#121212" stroke="#2F2F2F" stroke-width="0.74664"/>
<path d="M159.624 60.9327C157.639 61.5001 157.253 65.4599 156.45 66.9772C156.116 67.607 155.194 67.9145 154.747 68.4689C152.211 71.6101 150.729 72.2217 150 73.5392C146.5 79.8666 136.88 81.0415 130.5 85.9997C125.047 90.2378 121.267 89.1799 117.16 101.5C116.554 103.318 113.769 105.002 112.014 106.739C111.387 107.358 111.657 108.334 112.451 108.717L116.568 110.704C116.945 110.886 117.372 110.89 117.727 110.668C119.763 109.395 126.071 104.884 127.643 103.424C127.91 103.176 128.136 102.846 128.379 102.574C143.759 85.3625 159.436 77.0554 159.251 76.5C159.064 75.94 168.379 69.1458 167.464 64.1059C167.255 62.9551 168.787 64.0403 164.839 62.7338C164.603 62.6555 164.392 62.5142 164.209 62.3454C163.316 61.5238 161.5 60.3967 159.624 60.9327Z" fill="#C2C2C2"/>
<path d="M102.974 128.697L102.64 132.067C102.614 132.322 102.655 132.579 102.757 132.813L103.387 134.252C103.686 134.935 103.436 135.732 102.802 136.123L102.018 136.605C101.684 136.81 101.481 137.174 101.481 137.566C101.481 137.982 101.252 138.365 100.885 138.561L98.8677 139.642L98.6989 140.908C98.687 140.997 98.6834 141.088 98.687 141.178C99.1866 153.643 86.5872 161.583 80.2017 164.001C55.5626 172.028 39.8831 161.575 31.6701 153.548C25.692 147.706 24.1023 139.978 24.0049 135.961C23.9911 135.394 24.5194 134.99 25.074 135.109C25.7668 135.257 26.3611 134.601 26.1452 133.926L25.6112 132.257C25.3686 131.499 25.8942 130.712 26.6875 130.646C27.7796 130.555 27.8626 128.38 28.9329 128.615C29.0253 128.635 29.1286 128.662 29.2435 128.697C31.0898 129.245 33.0825 127.97 33.9689 127.163C34.0556 127.084 34.1508 127.01 34.2515 126.95C54.6833 114.761 65.9647 115.818 69.703 116.512C70.4713 116.655 71.0955 117.38 71.2351 118.149C71.6874 120.638 72.953 124.007 75.6549 124.553C75.9389 124.611 76.2156 124.712 76.4504 124.882C76.8538 125.173 77.3643 125.51 77.7327 125.665C77.9926 125.776 78.2973 125.752 78.5788 125.773C79.2602 125.823 80.2135 125.856 80.575 125.736C81.023 125.586 82.3794 124.802 83.0016 124.429L84.4507 123.785C84.6035 123.717 84.7666 123.675 84.9332 123.661L86.6751 123.516C86.8382 123.503 87.0025 123.516 87.1613 123.556L87.6681 123.682L90.6007 122.216C91.0936 121.97 91.6811 122.014 92.1307 122.333L95.8812 124.989L102.974 128.697Z" fill="#C2C2C2"/>
<path d="M96.8145 132.456C98.8966 131.775 100.979 130.416 102.974 128.697M96.8145 132.642V132.642C97.1472 132.975 96.9963 133.543 96.5424 133.667L96.0992 133.788C95.7871 133.873 95.4718 133.66 95.4316 133.339V133.339C95.3819 132.941 94.9245 132.739 94.5981 132.972V132.972C94.3081 133.179 93.9005 133.047 93.7878 132.709L93.7709 132.658C93.6935 132.426 93.4761 132.269 93.2312 132.269C92.6049 132.269 91.8407 132.269 91.9613 132.269C92.0396 132.269 92.1897 131.995 92.3416 131.663C92.5584 131.19 92.2878 130.646 91.79 130.493V130.493C91.1221 130.288 90.9298 129.435 91.4449 128.962L92.5213 127.976C92.5213 127.976 94.569 126.155 95.8812 124.989M95.8812 124.989C94.6967 124.15 93.0627 122.993 92.1307 122.333C91.6811 122.014 91.0936 121.97 90.6007 122.216L87.6681 123.682M95.8812 124.989L102.974 128.697M102.974 128.697L102.64 132.067C102.614 132.322 102.655 132.579 102.757 132.813L103.387 134.252C103.686 134.935 103.436 135.732 102.802 136.123L102.018 136.605C101.684 136.81 101.481 137.174 101.481 137.566V137.566C101.481 137.982 101.252 138.365 100.885 138.561L98.8677 139.642M96.2545 141.042C96.1923 142.286 95.1345 144.626 91.4013 144.028C86.7348 143.282 81.8817 141.975 81.135 137.682C80.4016 133.465 80.7488 130.689 82.8841 128.115C82.9611 128.022 83.0506 127.94 83.1505 127.872C83.6244 127.552 84.4135 127.095 84.6815 127.229M96.2545 141.042C92.708 143.095 88.7881 141.229 88.0414 141.229C87.2948 141.229 85.9882 140.109 83.5616 136.562C81.6203 133.725 83.4994 129.158 84.6815 127.229M96.2545 141.042L98.8677 139.642M84.6815 127.229L87.6681 123.682M87.6681 123.682L87.1613 123.556C87.0025 123.516 86.8382 123.503 86.6751 123.516L84.9332 123.661C84.7666 123.675 84.6035 123.717 84.4507 123.785L83.0016 124.429C82.3794 124.802 81.023 125.586 80.575 125.736C80.2135 125.856 79.2602 125.823 78.5788 125.773C78.2973 125.752 77.9926 125.776 77.7327 125.665C77.3643 125.51 76.8538 125.173 76.4504 124.882C76.2156 124.712 75.9389 124.611 75.6549 124.553C72.953 124.007 71.6874 120.638 71.2351 118.149C71.0955 117.38 70.4713 116.655 69.703 116.512C65.9647 115.818 54.6833 114.761 34.2515 126.95C34.1508 127.01 34.0556 127.084 33.9689 127.163C33.0825 127.97 31.0898 129.245 29.2435 128.697C29.1286 128.662 29.0253 128.635 28.9329 128.615C27.8626 128.38 27.7796 130.555 26.6875 130.646V130.646C25.8942 130.712 25.3686 131.499 25.6112 132.257L26.1452 133.926C26.3611 134.601 25.7668 135.257 25.074 135.109V135.109C24.5194 134.99 23.9911 135.394 24.0049 135.961C24.1023 139.978 25.692 147.706 31.6701 153.548C39.8831 161.575 55.5626 172.028 80.2017 164.001C86.5872 161.583 99.1866 153.643 98.687 141.178C98.6834 141.088 98.687 140.997 98.6989 140.908L98.8677 139.642M86.9215 127.042L86.3299 128.699C86.1237 129.276 86.2914 129.921 86.7529 130.325L86.9715 130.516C87.2956 130.8 87.4814 131.209 87.4814 131.64V132.246C87.4814 132.505 87.5493 132.761 87.6782 132.986L87.9288 133.425C88.1158 133.752 88.1268 134.151 87.9583 134.488V134.488C87.6908 135.023 87.8878 135.674 88.4072 135.971L88.7881 136.189M90.2814 136.189C90.4058 136.562 90.7293 137.309 91.028 137.309C91.2554 137.309 92.2188 137.309 92.9951 137.309C93.3777 137.309 93.7137 137.562 93.8188 137.93V137.93C93.9323 138.327 94.3128 138.587 94.7239 138.548C94.8434 138.536 94.9744 138.524 95.1143 138.511M97.9344 138.242C97.0733 138.324 95.9405 138.432 95.1143 138.511M95.1143 138.511L91.7746 141.042M91.028 139.362C91.028 139.362 91.9381 138.338 92.5213 137.682M86.5481 133.389L84.6815 134.882M85.9882 130.776L84.3082 133.015M94.3879 144.962C94.0146 148.446 92.4466 155.489 89.1614 155.788M87.4814 146.268C85.9882 147.762 82.7776 150.711 81.8817 150.562M96.4411 143.842V146.642M80.575 130.776L78.5218 130.029M81.8817 125.736L82.255 127.042M67.5088 126.482C67.1355 126.296 49.9628 123.496 37.8299 129.656M33.7234 145.895C35.4033 146.642 46.4162 155.975 54.6293 155.041M41.5631 155.415C41.7497 155.788 54.6293 161.574 56.8692 160.268M159.251 64.6659C159.251 65.1139 159.5 67.8391 159.624 69.1457M165.224 65.5992C165.66 67.7769 158.547 72.1953 157.203 73.5392M159.624 60.9327C157.639 61.5001 157.253 65.4599 156.45 66.9772C156.116 67.607 155.194 67.9145 154.747 68.4689C152.211 71.6101 150.729 72.2217 150 73.5392C146.5 79.8666 136.88 81.0415 130.5 85.9997C125.047 90.2378 121.267 89.1799 117.16 101.5C116.554 103.318 113.769 105.002 112.014 106.739C111.387 107.358 111.657 108.334 112.451 108.717L116.568 110.704C116.945 110.886 117.372 110.89 117.727 110.668C119.763 109.395 126.071 104.884 127.643 103.424C127.91 103.176 128.136 102.846 128.379 102.574C143.759 85.3625 159.436 77.0554 159.251 76.5C159.064 75.94 168.379 69.1458 167.464 64.1059C167.255 62.9551 168.787 64.0403 164.839 62.7338C164.603 62.6555 164.392 62.5142 164.209 62.3454C163.316 61.5238 161.5 60.3967 159.624 60.9327Z" stroke="#2F2F2F" stroke-width="0.74664"/>
<path d="M135.329 121.78C133.985 121.78 131.533 120.908 130.475 120.473C129.579 120.133 123.009 124.936 119.836 127.379C118.529 128.686 116.215 131.971 117.409 134.659C118.902 138.019 128.795 137.646 134.582 137.086C140.368 136.526 139.808 127.566 139.808 124.953C139.808 122.34 137.008 121.78 135.329 121.78Z" fill="#D9D9D9"/>
<path d="M132.529 124.953C131.098 125.699 128.235 127.753 128.235 129.993M130.475 120.473C131.533 120.908 133.985 121.78 135.329 121.78C137.008 121.78 139.808 122.34 139.808 124.953C139.808 127.566 140.368 136.526 134.582 137.086C128.795 137.646 118.902 138.019 117.409 134.659C116.215 131.971 118.529 128.686 119.836 127.379C123.009 124.936 129.579 120.133 130.475 120.473Z" stroke="#2F2F2F" stroke-width="0.74664"/>
<path d="M147.461 72.128C146.416 71.7359 143.101 74.1755 140.997 75.9166C140.504 76.3241 140.344 77.0057 140.586 77.5973L145.001 88.3893C145.143 88.7354 145.407 89.0366 145.777 89.0901C146.994 89.2661 148.989 88.5191 150.261 84.4476C152.128 78.4745 148.955 72.688 147.461 72.128Z" fill="#D9D9D9" stroke="#2F2F2F" stroke-width="0.74664"/>
<path d="M88.2162 74.5835C89.0447 73.7111 90.6369 72.5925 92.21 73.248C94.4499 74.1813 93.8899 77.1678 93.5166 81.0877C93.1433 85.0076 88.4768 98.2604 86.4235 99.0071C84.3702 99.7537 70.5574 102.367 69.8108 104.234C69.5951 104.773 68.6317 105.39 67.3842 106.04C67.511 106.441 67.8822 106.017 68.2859 106.134C68.4239 106.175 68.632 106.656 69.4374 107.22C71.304 108.527 64.7709 115.246 63.651 115.806C62.531 116.366 45.3583 118.046 42.5584 116.926C42.1064 116.746 41.7274 116.487 41.423 116.169L41.2311 116.042C41.0005 115.888 40.8175 115.673 40.7021 115.422L39.7017 113.239C39.2732 112.304 39.9181 111.228 40.8506 110.794C42.3527 110.095 43.4657 108.658 41.8118 106.04C38.8252 101.313 46.4783 99.6774 49.0915 97.3271C51.1821 95.4469 60.6644 98.1106 65.1443 99.6774C69.4482 97.7874 74.7992 96.7395 81.197 93.4072C88.3207 89.697 88.6595 79.9024 87.9305 75.3844C87.9216 75.0895 88.013 74.7974 88.2162 74.5835Z" fill="#171717"/>
<path d="M87.9168 75.3012C87.9214 75.3287 87.9259 75.3565 87.9305 75.3844M60.4778 102.554C57.2368 105.421 56.1116 108.14 55.8645 109.648C55.7882 110.114 56.0424 110.547 56.4348 110.809L58.3371 112.077C58.5176 112.198 58.6649 112.361 58.7986 112.532C60.8958 115.214 64.6673 108.634 67.3842 106.04M60.4778 102.554C59.9178 102.554 46.8516 97.5138 45.9183 101.994C44.985 106.473 46.1049 106.473 42.9317 109.087C39.7585 111.7 39.7585 115.806 42.5584 116.926M60.4778 102.554C61.8654 101.326 63.4209 100.434 65.1443 99.6774M42.5584 116.926C45.3583 118.046 62.531 116.366 63.651 115.806C64.7709 115.246 71.304 108.527 69.4374 107.22C68.632 106.656 68.4239 106.175 68.2859 106.134C67.8822 106.017 67.511 106.441 67.3842 106.04V106.04M42.5584 116.926L41.2311 116.042C41.0005 115.888 40.8175 115.673 40.7021 115.422C40.385 114.73 40.0228 113.94 39.7017 113.239C39.2732 112.304 39.9181 111.228 40.8506 110.794C42.3527 110.095 43.4657 108.658 41.8118 106.04C38.8252 101.313 46.4783 99.6774 49.0915 97.3271C51.1821 95.4469 60.6644 98.1106 65.1443 99.6774M67.3842 106.04C68.6317 105.39 69.5951 104.773 69.8108 104.234C70.5574 102.367 84.3702 99.7537 86.4235 99.0071C88.4768 98.2604 93.1433 85.0076 93.5166 81.0877C93.8899 77.1678 94.4499 74.1813 92.21 73.248C90.6369 72.5925 89.0447 73.7111 88.2162 74.5835C88.013 74.7974 87.9216 75.0895 87.9305 75.3844V75.3844M65.1443 99.6774C69.4482 97.7874 74.7992 96.7395 81.197 93.4072C88.3207 89.697 88.6595 79.9024 87.9305 75.3844" stroke="#2F2F2F" stroke-width="0.74664"/>
<path d="M93.5167 82.7676C91.5257 83.0165 87.469 83.4769 87.1703 83.3276L86.9836 86.3141L92.3968 86.5008L93.5167 82.7676Z" fill="#D9D9D9" stroke="#0D0D0D" stroke-width="0.74664"/>
<path d="M58.238 97.5137L62.5312 94.1538C62.5312 93.9672 62.6805 93.7059 63.2779 94.1538C63.8752 94.6018 65.7667 94.4649 66.6377 94.3405L63.0912 99.007L58.238 97.5137Z" fill="#171717" stroke="#29282C" stroke-width="0.74664"/>
<path d="M67.8258 12.5574C58.7552 13.5197 51.089 17.3707 45.5724 23.5433C40.0591 29.7123 36.7468 38.1384 36.2657 48.1692L36.2018 49.7522C35.9502 57.6611 36.7629 65.4436 41.7623 71C47.1245 76.9593 56.9914 80.0388 74.3186 78.5699L74.341 78.5675C83.3613 77.6107 93.6882 73.4629 100.422 66.8535C103.8 63.5378 106.308 59.5664 107.246 55.0335C108.175 50.5417 107.542 45.5926 104.828 40.3188C104.03 29.9645 99.342 22.5157 92.5344 17.9125C85.7091 13.2973 76.8447 11.6007 67.8258 12.5574Z" fill="#F2CFBC" stroke="#2F2F2F" stroke-width="2.1334"/>
<path d="M59.7557 52.5809C59.4283 47.7537 71.6245 50.5695 77.7636 52.5809C81.5645 53.3314 89.1476 55.8243 89.2227 59.8122C89.2234 59.8514 89.2166 59.8924 89.2043 59.9296C85.5049 71.1796 75.293 69.4248 66.5087 68.9229C57.7094 68.42 60.165 58.6149 59.7557 52.5809Z" fill="#2C2C2C" stroke="#2F2F2F" stroke-width="0.74664"/>
<path d="M61.8591 50.689C63.2994 48.202 77.0679 52.2804 84.5834 54.9028C85.1101 55.0866 85.4202 55.6244 85.3247 56.174C85.2111 56.8276 84.5704 57.2491 83.9252 57.0949C77.1482 55.4755 65.5638 52.9511 65.4225 53.9274C65.2804 54.909 62.8837 54.8059 61.5153 54.6088C61.3695 54.5878 61.2211 54.5491 61.122 54.4401C60.7607 54.0426 60.5599 52.9324 61.8591 50.689Z" fill="#FFF9F9" stroke="#2F2F2F" stroke-width="0.74664"/>
<path d="M64.8962 41.0665C65.1018 41.0818 65.2809 40.9275 65.2962 40.7219C65.3114 40.5163 65.1572 40.3372 64.9515 40.3219L64.8962 41.0665ZM64.9239 40.6942L64.9515 40.3219C63.3696 40.2044 60.8572 40.3129 58.4302 41.0205C56.0083 41.7266 53.6089 43.0487 52.3551 45.4067L52.6847 45.5819L53.0143 45.7572C54.1328 43.6537 56.3074 42.4171 58.6392 41.7373C60.9659 41.059 63.3869 40.9544 64.8962 41.0665L64.9239 40.6942Z" fill="#29282C"/>
<path d="M49.8008 44.9545L52.8502 45.3764L53.6179 43.7916L49.8008 44.9545Z" fill="#29282C" stroke="#29282C" stroke-width="0.74664"/>
<path d="M84.1245 40.6216C83.9271 40.6813 83.7188 40.5697 83.6591 40.3723C83.5994 40.175 83.711 39.9666 83.9084 39.9069L84.1245 40.6216ZM84.0164 40.2643L83.9084 39.9069C85.1678 39.526 87.2116 39.2158 89.284 39.516C91.3614 39.8168 93.5059 40.7385 94.8834 42.8592L94.5703 43.0626L94.2572 43.2659C93.0331 41.3814 91.1177 40.5359 89.177 40.2549C87.2314 39.9731 85.299 40.2664 84.1245 40.6216L84.0164 40.2643Z" fill="#29282C"/>
<path d="M64.7708 40.7691L59.5444 37.9692" stroke="#29282C" stroke-width="0.74664"/>
<path d="M96.7756 41.9687L94.4055 42.8874L93.5413 41.4523L96.7756 41.9687Z" fill="#29282C" stroke="#29282C" stroke-width="0.74664"/>
<path d="M83.8101 40.2093L85.3967 38.3427L86.9833 36.4761" stroke="#29282C" stroke-width="0.74664"/>
<path d="M28.7458 70.0748C29.8658 70.2614 33.9723 73.6213 36.5855 76.6079L33.9722 87.4341C32.4168 87.6208 29.1564 88.0688 28.5591 88.3674C27.8124 88.7408 26.1325 90.4207 25.1992 90.4207C24.2659 90.4207 24.6392 88.3674 24.6392 87.4341C24.6392 86.5008 25.0126 87.0608 22.3993 87.9941C19.7861 88.9274 18.8528 87.2475 19.2261 86.5008C19.5247 85.9035 21.7149 83.8876 22.7726 82.9543C22.026 82.8921 20.3087 82.805 19.4128 82.9543C18.2928 83.141 16.7996 82.3943 16.4262 81.2744C16.0529 80.1544 20.3461 78.8478 21.6527 78.8478C22.9593 78.8478 22.7727 78.4745 22.9593 78.1011C23.146 77.7278 20.1594 76.9812 18.8528 76.6079C17.5462 76.2345 17.5462 74.7413 18.2928 73.9946C18.8902 73.3973 25.5104 73.9946 28.7458 74.3679L29.1191 74.7413L27.6258 72.128C27.6258 71.3814 27.8498 69.9254 28.7458 70.0748Z" fill="#F1CFBC"/>
<path d="M29.3058 79.5944C29.0071 79.1464 29.5547 77.0434 29.8658 76.0479L29.1191 74.7413M29.1191 74.7413L27.6258 72.128C27.6258 71.3814 27.8498 69.9254 28.7458 70.0748C29.8658 70.2614 33.9723 73.6213 36.5855 76.6079L33.9722 87.4341C32.4168 87.6208 29.1564 88.0688 28.5591 88.3674C27.8124 88.7408 26.1325 90.4207 25.1992 90.4207C24.2659 90.4207 24.6392 88.3674 24.6392 87.4341C24.6392 86.5008 25.0126 87.0608 22.3993 87.9941C19.7861 88.9274 18.8528 87.2475 19.2261 86.5008C19.5247 85.9035 21.7149 83.8876 22.7726 82.9543C22.026 82.8921 20.3087 82.805 19.4128 82.9543C18.2928 83.141 16.7996 82.3943 16.4262 81.2744C16.0529 80.1544 20.3461 78.8478 21.6527 78.8478C22.9593 78.8478 22.7727 78.4745 22.9593 78.1011C23.146 77.7278 20.1594 76.9812 18.8528 76.6079C17.5462 76.2345 17.5462 74.7413 18.2928 73.9946C18.8902 73.3973 25.5104 73.9946 28.7458 74.3679L29.1191 74.7413Z" stroke="#29282C" stroke-width="0.74664"/>
<path d="M114.41 53.1289C113.603 53.9274 112.187 59.0409 111.775 62.9879L120.155 70.3235C121.533 69.5787 124.455 68.0638 125.115 67.9631C125.94 67.8373 128.282 68.2404 129.044 67.702C129.806 67.1636 128.317 65.7018 127.779 64.9395C127.24 64.1771 127.258 64.8499 129.931 64.1047C132.604 63.3595 132.397 61.4489 131.662 61.0544C131.073 60.7387 128.121 60.3556 126.719 60.2034C127.293 59.7219 128.645 58.66 129.463 58.2652C130.486 57.7715 131.275 56.3002 130.934 55.1701C130.593 54.0399 126.332 55.4493 125.265 56.203C124.197 56.9568 124.134 56.5442 123.767 56.3469C123.399 56.1497 125.408 53.8169 126.26 52.7582C127.111 51.6995 126.25 50.4797 125.209 50.3006C124.377 50.1573 119.314 54.4643 116.887 56.6357L116.797 57.156L116.509 54.16C116.078 53.5501 115.056 52.49 114.41 53.1289Z" fill="#F1CFBC"/>
<path d="M119.444 61.2278C119.43 60.6896 117.769 59.2877 116.941 58.654L116.797 57.156M116.797 57.156L116.509 54.16C116.078 53.5501 115.056 52.49 114.41 53.1289C113.603 53.9274 112.187 59.0409 111.775 62.9879L120.155 70.3235C121.533 69.5787 124.455 68.0638 125.115 67.9631C125.94 67.8373 128.282 68.2404 129.044 67.702C129.806 67.1636 128.317 65.7018 127.779 64.9395C127.24 64.1771 127.258 64.8499 129.931 64.1047C132.604 63.3595 132.397 61.4489 131.662 61.0544C131.073 60.7387 128.121 60.3556 126.719 60.2034C127.293 59.7219 128.645 58.66 129.463 58.2652C130.486 57.7715 131.275 56.3002 130.934 55.1701C130.593 54.0399 126.332 55.4493 125.265 56.203C124.197 56.9568 124.134 56.5442 123.767 56.3469C123.399 56.1497 125.408 53.8169 126.26 52.7582C127.111 51.6995 126.25 50.4797 125.209 50.3006C124.377 50.1573 119.314 54.4643 116.887 56.6357L116.797 57.156Z" stroke="#29282C" stroke-width="0.74664"/>
<rect width="9.74228" height="14.5714" rx="4.87114" transform="matrix(0.00468441 -0.999989 0.999981 0.0060944 41.4385 57.4177)" fill="#E5B0B1" fill-opacity="0.57"/>
<rect width="9.74228" height="14.5714" rx="4.87114" transform="matrix(0.00468441 -0.999989 0.999981 0.0060944 90.3435 56.2976)" fill="#E5B0B1" fill-opacity="0.57"/>
<path d="M57.4916 37.0455C56.6455 37.0842 55.8142 37.2794 55.0397 37.6213V37.6213C48.4198 40.5429 42.3678 32.534 46.9893 26.9676L53.5182 19.1038C55.2867 16.9738 57.9172 15.7491 60.6875 15.766L83.3039 15.9038C86.4033 15.9227 89.2894 17.4927 90.9913 20.0855L95.9356 27.6183C98.3992 31.3716 95.2782 36.2681 90.8384 35.6154V35.6154C90.5092 35.567 90.1761 35.5503 89.8438 35.5655L57.4916 37.0455Z" fill="#E5B0B1" fill-opacity="0.3"/>
<path d="M48.1008 38.3425C49.5616 35.7456 58.4553 35.5426 63.8684 30.1295" stroke="#2F2F2F" stroke-width="0.994849" stroke-linecap="round"/>
<path d="M100.827 34.9827C99.3663 32.3858 90.4727 32.1828 85.0596 26.7696" stroke="#2F2F2F" stroke-width="0.994849" stroke-linecap="round"/>
<path d="M80.6371 10.7168C77.0626 7.51038 66.9214 5.17796 65.5073 5.90246C59.1146 9.17775 55.237 14.201 49.4114 19.5862C50.3061 18.758 59.8989 13.879 62.8702 12.7635C65.8414 11.648 68.0638 11.4101 72.5928 11.7227C77.1218 12.0353 76.7803 11.7225 82.1304 13.1433C87.4805 14.5641 93.0211 17.9625 90.7167 16.3166C88.1035 14.45 84.0985 13.8219 80.6371 10.7168Z" fill="#363636"/>
<path d="M45.5451 23.9702C45.3764 22.3941 48.8168 20.1358 49.4114 19.5862M49.4114 19.5862C55.237 14.201 59.1146 9.17775 65.5073 5.90246C66.9214 5.17796 77.0626 7.51038 80.6371 10.7168C84.0985 13.8219 88.1035 14.45 90.7167 16.3166C93.0211 17.9625 87.4805 14.5641 82.1304 13.1433C76.7803 11.7225 77.1218 12.0353 72.5928 11.7227C68.0638 11.4101 65.8414 11.648 62.8702 12.7635C59.8989 13.879 50.3061 18.758 49.4114 19.5862Z" stroke="#2F2F2F" stroke-width="0.994849"/>
<path d="M92.9568 119.54L98.3699 116.74" stroke="#1D1D1D" stroke-width="1.8666"/>
<path d="M82.5037 118.606C84.2578 116.602 80.8819 112.831 78.5853 110.286C77.5671 109.158 75.0639 107.78 73.544 107.78C71.4907 107.78 71.6774 118.606 72.424 121.406C73.1707 124.206 79.8904 121.593 82.5037 118.606Z" fill="black" fill-opacity="0.19"/>
<path d="M108.751 75.1072L103.707 77.5853C103.296 77.7868 103.036 78.2041 103.036 78.6611C103.036 79.5873 104.027 80.1779 104.844 79.7414C107.089 78.5417 109.857 77.096 110.316 76.9812C111.826 76.6036 110.148 74.4208 108.751 75.1072Z" fill="#202023"/>
<path d="M60.8512 80.341C64.3365 81.7609 76.1629 79.5636 83.8871 77.7762C84.6662 77.5959 85.1151 78.5423 84.4566 78.9961C82.4709 80.3646 79.9254 81.9145 77.6506 82.7675C74.0986 84.0995 59.7409 82.2412 52.8226 81.1177C52.6987 81.0975 52.5863 81.047 52.4874 80.9696L50.2828 79.2443C49.7014 78.7893 50.0596 77.8907 50.7918 77.985C53.7136 78.3617 57.8307 79.1104 60.8512 80.341Z" fill="#202023"/>
<path d="M54.1314 110.02C55.0647 106.287 50.3982 106.1 48.1583 105.727C46.4161 107.345 42.7825 110.804 42.1852 111.7C41.4385 112.82 41.6252 114.127 43.6784 115.62C45.7317 117.113 53.1981 113.753 54.1314 110.02Z" fill="#090909" fill-opacity="0.35"/>
<path d="M147.382 182.615C125.971 172.23 42.2741 174.488 21.5121 177.649C16.7541 179.756 3.86436 184.963 47.4647 188.937C101.965 193.903 154.302 185.972 147.382 182.615Z" fill="#0A304A" fill-opacity="0.81"/>
<path d="M115.372 87.8544C122.104 85.223 133.969 80.8599 135.142 78.6611C136.06 76.9401 137.918 76.4312 139.294 76.3724C139.937 76.345 140.44 76.8474 140.567 77.4781C141.549 82.3507 144.033 90.3493 147.632 90.2345C147.641 90.2343 147.648 90.2271 147.648 90.2183C147.648 90.1986 147.672 90.1964 147.674 90.216C147.871 91.8743 146.505 94.8157 139.435 94.5272C133.02 94.2653 130.249 97.0455 129.412 98.9928C129.214 99.4521 128.89 99.8666 128.431 100.063C125.85 101.165 121.684 103.15 121.142 104.233C120.396 105.727 111.809 107.407 111.436 108.527L128.528 119.681C128.93 119.944 129.433 119.989 129.89 119.841C131.374 119.361 131.719 119.677 124.316 123.833C115.804 128.611 116.538 135.406 117.969 138.206C114.807 136.624 108.992 133.329 107.379 131.087L107.344 131.038C106.943 130.481 106.474 129.829 105.844 129.577C101.027 127.655 83.8856 120.004 84.557 117.486C85.1543 115.246 86.5481 111.949 87.1703 110.58C88.3525 108.651 91.0155 104.905 92.2101 105.353C93.6626 105.898 97.4107 102.381 101.909 105.108C101.683 104.793 102.059 104.367 102.387 104.113C102.446 104.068 102.51 104.03 102.576 103.997L106.707 101.932C106.872 101.849 107.02 101.737 107.145 101.602C107.813 100.882 108.925 99.7536 109.196 99.7536C109.495 99.7536 111.187 96.2693 111.996 94.5272L113.593 89.9133C113.648 89.7549 113.729 89.6069 113.833 89.4754L114.75 88.3163C114.914 88.1092 115.126 87.9505 115.372 87.8544Z" fill="#1C1C26"/>
<path d="M111.436 108.527C111.809 107.407 120.396 105.727 121.142 104.233C121.684 103.15 125.85 101.165 128.431 100.063C128.89 99.8666 129.214 99.4521 129.412 98.9928C130.249 97.0455 133.02 94.2653 139.435 94.5272C146.505 94.8157 147.871 91.8743 147.674 90.216C147.672 90.1964 147.648 90.1986 147.648 90.2183V90.2183C147.648 90.2271 147.641 90.2343 147.632 90.2345C144.033 90.3493 141.549 82.3507 140.567 77.4781C140.44 76.8474 139.937 76.345 139.294 76.3724C137.918 76.4312 136.06 76.9401 135.142 78.6611C133.969 80.8599 122.104 85.223 115.372 87.8544C115.126 87.9505 114.914 88.1092 114.75 88.3163L113.833 89.4754C113.729 89.6069 113.648 89.7549 113.593 89.9133L111.996 94.5272C111.187 96.2693 109.495 99.7536 109.196 99.7536C108.925 99.7536 107.813 100.882 107.145 101.602C107.02 101.737 106.872 101.849 106.707 101.932L102.576 103.997C102.51 104.03 102.446 104.068 102.387 104.113C101.961 104.443 101.453 105.063 102.29 105.353M111.436 108.527L102.29 105.353M111.436 108.527L128.528 119.681C128.93 119.944 129.433 119.989 129.89 119.841C131.374 119.361 131.719 119.677 124.316 123.833C115.804 128.611 116.538 135.406 117.969 138.206M102.29 105.353C97.6232 102.18 93.7034 105.913 92.2101 105.353C91.0155 104.905 88.3525 108.651 87.1703 110.58C86.5481 111.949 85.1543 115.246 84.557 117.486C83.8856 120.004 101.027 127.655 105.844 129.577C106.493 129.836 106.97 130.519 107.379 131.087C108.992 133.329 114.807 136.624 117.969 138.206M117.969 138.206C119.151 138.454 121.441 138.504 121.142 136.712" stroke="#2F2F2F" stroke-width="0.74664"/>
</svg>
