<svg width="101" height="94" viewBox="0 0 101 94" fill="none" xmlns="http://www.w3.org/2000/svg">
<path d="M59.6842 13.7619C79.5215 17.2505 92.7372 35.6471 89.3818 54.7283C86.0262 73.8093 67.3277 86.5932 47.4905 83.1052C27.6531 79.6168 14.4367 61.2207 17.7918 42.1395C21.1472 23.0582 39.8467 10.2735 59.6842 13.7619Z" fill="url(#paint0_radial_411_34639)" stroke="#06334A" stroke-width="4.9"/>
<path d="M70.4704 26.6804C71.7435 26.2058 73.1404 26.9757 73.419 28.3055L75.2567 37.0772C75.3275 37.4151 75.4762 37.7319 75.6909 38.0024L81.2633 45.0215C82.1081 46.0855 81.8075 47.652 80.6289 48.3279L72.8545 52.7863C72.5549 52.9581 72.2996 53.1974 72.1087 53.4851L67.1551 60.9538C66.4042 62.0861 64.8215 62.2843 63.8145 61.3723L57.1719 55.356C56.9159 55.1242 56.6094 54.9553 56.2768 54.8627L47.6429 52.4595C46.334 52.0952 45.6564 50.6512 46.2126 49.4117L49.8817 41.235C50.0231 40.92 50.089 40.5763 50.0743 40.2313L49.6918 31.2774C49.6339 29.92 50.7977 28.8293 52.1485 28.9753L61.0588 29.9381C61.4021 29.9752 61.7493 29.9317 62.0729 29.8111L70.4704 26.6804Z" fill="url(#paint1_radial_411_34639)"/>
<path d="M70.4704 26.6804C71.7435 26.2058 73.1404 26.9757 73.419 28.3055L75.2567 37.0772C75.3275 37.4151 75.4762 37.7319 75.6909 38.0024L81.2633 45.0215C82.1081 46.0855 81.8075 47.652 80.6289 48.3279L72.8545 52.7863C72.5549 52.9581 72.2996 53.1974 72.1087 53.4851L67.1551 60.9538C66.4042 62.0861 64.8215 62.2843 63.8145 61.3723L57.1719 55.356C56.9159 55.1242 56.6094 54.9553 56.2768 54.8627L47.6429 52.4595C46.334 52.0952 45.6564 50.6512 46.2126 49.4117L49.8817 41.235C50.0231 40.92 50.089 40.5763 50.0743 40.2313L49.6918 31.2774C49.6339 29.92 50.7977 28.8293 52.1485 28.9753L61.0588 29.9381C61.4021 29.9752 61.7493 29.9317 62.0729 29.8111L70.4704 26.6804Z" fill="#024E6E" fill-opacity="0.88" style="mix-blend-mode:overlay"/>
<path d="M61.183 17.2729C62.4925 16.9109 63.8172 17.7995 63.9789 19.1485L65.0462 28.0468C65.0873 28.3897 65.2078 28.7182 65.3981 29.0063L70.3384 36.4838C71.0874 37.6174 70.6516 39.1518 69.4186 39.7225L61.2856 43.4872C60.9722 43.6323 60.697 43.8484 60.4818 44.1185L54.8969 51.1277C54.0503 52.1902 52.4563 52.25 51.5325 51.2537L45.4388 44.6821C45.204 44.4289 44.9134 44.2339 44.5901 44.1127L42.2808 43.2471C40.1051 42.4316 40.4853 39.2449 42.7918 38.9642L50.8302 37.9859C52.5033 37.7823 53.3483 35.8621 52.3682 34.4909L43.452 22.0169C42.283 20.3815 43.7157 18.1585 45.6879 18.5476L51.5235 19.699C51.8623 19.7658 52.212 19.7527 52.5448 19.6607L61.183 17.2729Z" fill="url(#paint2_radial_411_34639)"/>
<path d="M61.183 17.2729C62.4925 16.9109 63.8172 17.7995 63.9789 19.1485L65.0462 28.0468C65.0873 28.3897 65.2078 28.7182 65.3981 29.0063L70.3384 36.4838C71.0874 37.6174 70.6516 39.1518 69.4186 39.7225L61.2856 43.4872C60.9722 43.6323 60.697 43.8484 60.4818 44.1185L54.8969 51.1277C54.0503 52.1902 52.4563 52.25 51.5325 51.2537L45.4388 44.6821C45.204 44.4289 44.9134 44.2339 44.5901 44.1127L42.2808 43.2471C40.1051 42.4316 40.4853 39.2449 42.7918 38.9642L50.8302 37.9859C52.5033 37.7823 53.3483 35.8621 52.3682 34.4909L43.452 22.0169C42.283 20.3815 43.7157 18.1585 45.6879 18.5476L51.5235 19.699C51.8623 19.7658 52.212 19.7527 52.5448 19.6607L61.183 17.2729Z" fill="#024E6E" fill-opacity="0.88" style="mix-blend-mode:overlay"/>
<path d="M37.2316 13.33C38.4614 11.9707 40.6119 12.0224 41.775 13.4392L50.211 23.716C50.5068 24.0764 50.8826 24.3629 51.3085 24.5527L63.455 29.9667C65.1339 30.715 65.7512 32.7834 64.757 34.3294L57.5779 45.4932C57.3251 45.8864 57.1676 46.3332 57.1181 46.798L55.7119 59.9945C55.5175 61.8191 53.7451 63.0433 51.9699 62.579L39.0903 59.2111C38.6399 59.0933 38.1683 59.082 37.7127 59.178L24.6861 61.9228C22.8906 62.3012 21.1791 60.9933 21.0726 59.1614L20.3025 45.9125C20.2754 45.4459 20.1396 44.992 19.906 44.5872L13.2719 33.0912C12.3532 31.4991 13.0692 29.4628 14.7821 28.796L27.1748 23.9722C27.6093 23.8031 27.9984 23.535 28.3112 23.1893L37.2316 13.33Z" fill="url(#paint3_radial_411_34639)"/>
<path d="M37.2316 13.33C38.4614 11.9707 40.6119 12.0224 41.775 13.4392L50.211 23.716C50.5068 24.0764 50.8826 24.3629 51.3085 24.5527L63.455 29.9667C65.1339 30.715 65.7512 32.7834 64.757 34.3294L57.5779 45.4932C57.3251 45.8864 57.1676 46.3332 57.1181 46.798L55.7119 59.9945C55.5175 61.8191 53.7451 63.0433 51.9699 62.579L39.0903 59.2111C38.6399 59.0933 38.1683 59.082 37.7127 59.178L24.6861 61.9228C22.8906 62.3012 21.1791 60.9933 21.0726 59.1614L20.3025 45.9125C20.2754 45.4459 20.1396 44.992 19.906 44.5872L13.2719 33.0912C12.3532 31.4991 13.0692 29.4628 14.7821 28.796L27.1748 23.9722C27.6093 23.8031 27.9984 23.535 28.3112 23.1893L37.2316 13.33Z" fill="#2B91BD" fill-opacity="0.88" style="mix-blend-mode:overlay"/>
<path d="M77.2067 33.4099C78.4798 32.9353 79.8767 33.7052 80.1553 35.035L81.9931 43.8066C82.0639 44.1446 82.2125 44.4614 82.4272 44.7318L87.9996 51.751C88.8444 52.815 88.5439 54.3815 87.3653 55.0574L79.5908 59.5158C79.2913 59.6876 79.0359 59.9268 78.8451 60.2146L73.8915 67.6833C73.1405 68.8156 71.5578 69.0138 70.5508 68.1017L63.9082 62.0855C63.6522 61.8537 63.3458 61.6848 63.0131 61.5922L54.3792 59.189C53.0703 58.8247 52.3927 57.3807 52.9489 56.1412L56.618 47.9645C56.7594 47.6495 56.8253 47.3058 56.8106 46.9608L56.4282 38.0069C56.3702 36.6495 57.5341 35.5588 58.8849 35.7048L67.7951 36.6676C68.1384 36.7047 68.4856 36.6612 68.8092 36.5406L77.2067 33.4099Z" fill="url(#paint4_radial_411_34639)"/>
<path d="M77.2067 33.4099C78.4798 32.9353 79.8767 33.7052 80.1553 35.035L81.9931 43.8066C82.0639 44.1446 82.2125 44.4614 82.4272 44.7318L87.9996 51.751C88.8444 52.815 88.5439 54.3815 87.3653 55.0574L79.5908 59.5158C79.2913 59.6876 79.0359 59.9268 78.8451 60.2146L73.8915 67.6833C73.1405 68.8156 71.5578 69.0138 70.5508 68.1017L63.9082 62.0855C63.6522 61.8537 63.3458 61.6848 63.0131 61.5922L54.3792 59.189C53.0703 58.8247 52.3927 57.3807 52.9489 56.1412L56.618 47.9645C56.7594 47.6495 56.8253 47.3058 56.8106 46.9608L56.4282 38.0069C56.3702 36.6495 57.5341 35.5588 58.8849 35.7048L67.7951 36.6676C68.1384 36.7047 68.4856 36.6612 68.8092 36.5406L77.2067 33.4099Z" fill="#2C7594" fill-opacity="0.88" style="mix-blend-mode:overlay"/>
<path d="M27.078 32.361C27.7589 31.1853 29.3267 30.8914 30.3871 31.7408L37.3823 37.3431C37.6519 37.559 37.968 37.709 38.3057 37.7813L47.0694 39.6565C48.398 39.9408 49.1619 41.341 48.6819 42.612L45.5153 50.9961C45.3933 51.3191 45.3483 51.6662 45.3839 52.0096L46.3086 60.9239C46.4488 62.2753 45.3532 63.4345 43.996 63.3707L35.0438 62.95C34.6989 62.9338 34.3549 62.9982 34.0393 63.1383L31.7849 64.1383C29.661 65.0805 27.7 62.54 29.1493 60.7239L34.2003 54.3946C35.2516 53.0773 34.5094 51.115 32.8495 50.8231L17.7482 48.1676C15.7683 47.8195 15.2334 45.2294 16.9134 44.1255L21.8844 40.8591C22.173 40.6694 22.4133 40.4151 22.5864 40.1163L27.078 32.361Z" fill="url(#paint5_radial_411_34639)"/>
<path d="M27.078 32.361C27.7589 31.1853 29.3267 30.8914 30.3871 31.7408L37.3823 37.3431C37.6519 37.559 37.968 37.709 38.3057 37.7813L47.0694 39.6565C48.398 39.9408 49.1619 41.341 48.6819 42.612L45.5153 50.9961C45.3933 51.3191 45.3483 51.6662 45.3839 52.0096L46.3086 60.9239C46.4488 62.2753 45.3532 63.4345 43.996 63.3707L35.0438 62.95C34.6989 62.9338 34.3549 62.9982 34.0393 63.1383L31.7849 64.1383C29.661 65.0805 27.7 62.54 29.1493 60.7239L34.2003 54.3946C35.2516 53.0773 34.5094 51.115 32.8495 50.8231L17.7482 48.1676C15.7683 47.8195 15.2334 45.2294 16.9134 44.1255L21.8844 40.8591C22.173 40.6694 22.4133 40.4151 22.5864 40.1163L27.078 32.361Z" fill="#37C3FF" fill-opacity="0.34" style="mix-blend-mode:overlay"/>
<path d="M46.991 85.1978C42.2072 84.3563 37.6455 82.5086 33.5668 79.7556C29.4878 77.0025 25.9689 73.3962 23.2144 69.1385C20.4597 64.8806 18.5244 60.0545 17.5236 54.9349C16.6115 50.2687 16.495 45.4448 17.1731 40.693L53.6512 47.1097L90.4627 55.2716C89.4707 59.5936 87.5684 62.5626 85.0167 66.8072C82.3289 71.278 78.8629 75.1539 74.8205 78.2162C70.7785 81.2783 66.2401 83.4673 61.4665 84.6633C56.6932 85.8592 51.7749 86.0393 46.991 85.1978Z" fill="#06334A" stroke="#06334A" stroke-width="2.8"/>
<path d="M36.364 55.0806L35.7363 51.8542L35.246 52.4828L34.8364 54.812L33.6447 54.6025L34.9783 47.0188L36.17 47.2284L35.5889 50.5327L37.73 47.5027L38.9218 47.7123L36.6698 50.8009L37.5882 55.2959L36.364 55.0806ZM40.6765 55.839L40.1582 50.0853L39.1923 55.578L38.1197 55.3894L39.4533 47.8057L40.9484 48.0686L41.3743 52.8233L42.1726 48.2839L43.2343 48.4706L41.9007 56.0543L40.6765 55.839ZM44.875 50.5573L44.1549 54.6525C44.0596 55.1942 44.2618 55.4419 44.641 55.5086C45.0202 55.5753 45.2947 55.4113 45.39 54.8697L46.1101 50.7745C46.2053 50.2328 46.0032 49.985 45.624 49.9184C45.2448 49.8517 44.9703 50.0156 44.875 50.5573ZM42.9765 54.3671L43.67 50.4236C43.8833 49.2102 44.6445 48.6292 45.8145 48.835C46.9846 49.0407 47.5018 49.8465 47.2884 51.0599L46.595 55.0034C46.3816 56.2168 45.6205 56.7977 44.4505 56.592C43.2804 56.3862 42.7632 55.5805 42.9765 54.3671ZM50.1262 57.5007L50.4034 53.3835L49.2595 57.3483L47.6236 57.0606L48.1121 49.3284L49.2713 49.5322L48.8589 55.6248L50.4847 49.7456L51.6331 49.9475L51.1697 56.0759L52.8465 50.1609L53.8865 50.3438L51.7079 57.7788L50.1262 57.5007ZM57.8165 51.0348L57.7472 56.5735L59.5065 51.332L61.1641 51.6235L59.8305 59.2071L58.7038 59.009L59.6602 53.5705L57.8805 58.8642L56.7537 58.6661L56.8084 53.1472L55.8654 58.5099L54.8253 58.327L56.1589 50.7434L57.8165 51.0348ZM62.8185 53.7126L62.0983 57.8078C62.0031 58.3494 62.2052 58.5972 62.5844 58.6639C62.9636 58.7306 63.2381 58.5666 63.3334 58.0249L64.0535 53.9298C64.1488 53.3881 63.9466 53.1403 63.5674 53.0736C63.1883 53.007 62.9137 53.1709 62.8185 53.7126ZM60.92 57.5224L61.6134 53.5789C61.8268 52.3655 62.5879 51.7845 63.7579 51.9903C64.928 52.196 65.4453 53.0018 65.2319 54.2152L64.5384 58.1587C64.3251 59.372 63.564 59.953 62.3939 59.7473C61.2239 59.5415 60.7066 58.7357 60.92 57.5224ZM68.698 60.7665L67.4846 60.5531C67.4539 60.3466 67.4315 60.2199 67.5401 59.6023L67.7497 58.4106C67.8735 57.7064 67.6809 57.4045 67.1392 57.3092L66.7275 57.2368L66.1845 60.3245L64.9928 60.1149L66.3264 52.5313L68.1248 52.8475C69.3598 53.0647 69.7897 53.7322 69.584 54.9023L69.4792 55.4981C69.342 56.2782 69.0033 56.7435 68.4287 56.8994C68.9807 57.2533 69.0747 57.8618 68.9357 58.6527L68.7299 59.8227C68.6651 60.1911 68.6283 60.4638 68.698 60.7665ZM67.9018 53.9252L67.3276 53.8242L66.918 56.1535L67.3839 56.2354C67.828 56.3135 68.1332 56.1661 68.2399 55.5594L68.3713 54.8119C68.4666 54.2702 68.3243 53.9995 67.9018 53.9252ZM71.6865 54.5907L71.315 56.7033L72.9509 56.991L72.7604 58.0743L71.1245 57.7867L70.734 60.0076L72.7924 60.3696L72.6019 61.4529L69.3517 60.8814L70.6853 53.2978L73.9354 53.8693L73.7449 54.9527L71.6865 54.5907ZM44.9211 59.936L44.8009 67.733L43.5984 67.5216L43.6345 66.1095L42.1719 65.8523L41.7241 67.192L40.6299 66.9996L43.1769 59.6293L44.9211 59.936ZM43.7532 61.1156L42.5046 64.8498L43.653 65.0517L43.7532 61.1156ZM48.4879 60.5632C49.7229 60.7804 50.1528 61.4479 49.9471 62.618L49.8994 62.8888C49.7623 63.6689 49.4363 64.1253 48.8616 64.2811C49.457 64.6427 49.6052 65.2607 49.4642 66.0624L49.3556 66.6799C49.1499 67.85 48.4219 68.3698 47.2302 68.1602L45.3559 67.8306L46.6895 60.247L48.4879 60.5632ZM47.6786 64.7209L47.1477 64.6275L46.7381 66.9568L47.4207 67.0768C47.8215 67.1473 48.0706 67.0012 48.1696 66.4379L48.2859 65.777C48.4097 65.0728 48.2203 64.8161 47.6786 64.7209ZM48.2649 61.6409L47.6907 61.5399L47.3382 63.5442L47.8041 63.6261C48.2483 63.7042 48.5534 63.5568 48.6601 62.9501L48.7344 62.5276C48.8296 61.9859 48.6874 61.7152 48.2649 61.6409ZM51.8782 62.9576L51.1581 67.0527C51.0628 67.5944 51.265 67.8422 51.6441 67.9088C52.0233 67.9755 52.2979 67.8116 52.3931 67.2699L53.1132 63.1747C53.2085 62.6331 53.0063 62.3853 52.6272 62.3186C52.248 62.2519 51.9734 62.4159 51.8782 62.9576ZM49.9797 66.7673L50.6731 62.8238C50.8865 61.6105 51.6476 61.0295 52.8177 61.2352C53.9877 61.441 54.505 62.2468 54.2916 63.4601L53.5982 67.4036C53.3848 68.617 52.6237 69.198 51.4536 68.9922C50.2836 68.7865 49.7663 67.9807 49.9797 66.7673ZM55.3319 61.7667L56.5237 61.9763L55.4949 67.8265C55.3997 68.3682 55.6037 68.6051 55.9829 68.6718C56.3621 68.7385 56.6347 68.5854 56.73 68.0437L57.7587 62.1935L58.8854 62.3916L57.87 68.166C57.6566 69.3794 56.928 69.966 55.758 69.7603C54.5879 69.5545 54.1032 68.7545 54.3165 67.5411L55.3319 61.7667ZM59.1655 63.5577L59.356 62.4743L63.0395 63.1221L62.849 64.2054L61.6031 63.9864L60.4601 70.4866L59.2683 70.2771L60.4114 63.7768L59.1655 63.5577Z" fill="white"/>
<path d="M34.0218 70.3051L34.2123 69.2217L37.8958 69.8694L37.7053 70.9528L36.4594 70.7337L35.3163 77.234L34.1246 77.0244L35.2677 70.5241L34.0218 70.3051ZM40.0673 70.2513L39.9981 75.79L41.7574 70.5485L43.415 70.8399L42.0814 78.4236L40.9547 78.2255L41.9111 72.7869L40.1313 78.0807L39.0046 77.8825L39.0593 72.3636L38.1163 77.7263L37.0762 77.5434L38.4098 69.9598L40.0673 70.2513ZM46.9253 71.4572L46.8051 79.2542L45.6026 79.0428L45.6387 77.6307L44.1761 77.3735L43.7283 78.7132L42.6341 78.5208L45.1811 71.1505L46.9253 71.4572ZM45.7574 72.6368L44.5088 76.371L45.6571 76.5729L45.7574 72.6368ZM48.6178 71.7548L51.998 72.3492L51.8113 73.4109L48.5906 78.4513L50.8549 78.8495L50.6644 79.9329L47.1759 79.3194L47.3626 78.2577L50.5832 73.2173L48.4273 72.8382L48.6178 71.7548ZM51.3699 80.0569L52.7034 72.4733L53.8951 72.6828L52.5616 80.2665L51.3699 80.0569ZM55.773 77.5922L55.9635 76.5089L57.6319 76.8022L57.209 79.2073C56.9956 80.4207 56.267 81.0074 55.0969 80.8017C53.9269 80.5959 53.4421 79.7959 53.6555 78.5825L54.3489 74.639C54.5623 73.4256 55.2909 72.8389 56.461 73.0447C57.631 73.2504 58.1158 74.0505 57.9024 75.2639L57.7729 76.0006L56.6462 75.8024L56.789 74.9899C56.8843 74.4482 56.6821 74.2004 56.303 74.1338C55.9238 74.0671 55.6492 74.231 55.554 74.7727L54.8339 78.8679C54.7386 79.4096 54.9427 79.6465 55.3218 79.7132C55.701 79.7798 55.9737 79.6267 56.0689 79.0851L56.3147 77.6875L55.773 77.5922ZM59.4175 78.1214L58.846 81.3716L57.6543 81.162L58.9879 73.5784L60.1796 73.7879L59.608 77.0381L60.9623 77.2762L61.5338 74.0261L62.7472 74.2394L61.4136 81.8231L60.2002 81.6097L60.7718 78.3596L59.4175 78.1214ZM63.0741 75.4138L63.2646 74.3304L66.9481 74.9781L66.7575 76.0615L65.5117 75.8424L64.3686 82.3427L63.1769 82.1331L64.3199 75.6329L63.0741 75.4138Z" fill="#EAD103"/>
<defs>
<radialGradient id="paint0_radial_411_34639" cx="0" cy="0" r="1" gradientUnits="userSpaceOnUse" gradientTransform="translate(53.5869 48.4335) rotate(93.9746) scale(48.2121 38.9834)">
<stop offset="0.5" stop-color="#76CFFF"/>
<stop offset="1" stop-color="#0A2939"/>
</radialGradient>
<radialGradient id="paint1_radial_411_34639" cx="0" cy="0" r="1" gradientUnits="userSpaceOnUse" gradientTransform="translate(65.9436 38.3869) rotate(118.861) scale(19.9818 16.372)">
<stop stop-color="#68B6FF"/>
<stop offset="0.0913462" stop-color="#65B3FF"/>
<stop offset="0.456731" stop-color="#408BDB"/>
<stop offset="1" stop-color="#16427B"/>
</radialGradient>
<radialGradient id="paint2_radial_411_34639" cx="0" cy="0" r="1" gradientUnits="userSpaceOnUse" gradientTransform="translate(55.6544 28.5409) rotate(123.854) scale(19.9818 16.372)">
<stop stop-color="#68B6FF"/>
<stop offset="0.0913462" stop-color="#65B3FF"/>
<stop offset="0.456731" stop-color="#408BDB"/>
<stop offset="1" stop-color="#16427B"/>
</radialGradient>
<radialGradient id="paint3_radial_411_34639" cx="0" cy="0" r="1" gradientUnits="userSpaceOnUse" gradientTransform="translate(39.0695 31.5776) rotate(91.3777) scale(28.9203 23.7512)">
<stop stop-color="#68B6FF"/>
<stop offset="0.0913462" stop-color="#65B3FF"/>
<stop offset="0.456731" stop-color="#408BDB"/>
<stop offset="1" stop-color="#16427B"/>
</radialGradient>
<radialGradient id="paint4_radial_411_34639" cx="0" cy="0" r="1" gradientUnits="userSpaceOnUse" gradientTransform="translate(72.6799 45.1164) rotate(118.861) scale(19.9818 16.372)">
<stop stop-color="#68B6FF"/>
<stop offset="0.0913462" stop-color="#65B3FF"/>
<stop offset="0.456731" stop-color="#408BDB"/>
<stop offset="1" stop-color="#16427B"/>
</radialGradient>
<radialGradient id="paint5_radial_411_34639" cx="0" cy="0" r="1" gradientUnits="userSpaceOnUse" gradientTransform="translate(31.0263 44.275) rotate(79.3844) scale(19.9818 16.372)">
<stop stop-color="#68B6FF"/>
<stop offset="0.0913462" stop-color="#65B3FF"/>
<stop offset="0.456731" stop-color="#408BDB"/>
<stop offset="1" stop-color="#16427B"/>
</radialGradient>
</defs>
</svg>
